<svg xmlns="http://www.w3.org/2000/svg" width="147" height="66" fill="none" viewBox="0 0 147 66">
    <path fill="#000" d="M59.2 32.4h1.1V26h-1.7v1.4h-1.5v-2.8H65v2.8h-1.5V26h-1.7v6.4H63v1.4h-3.8v-1.4zM65.9 32.4h1v-6.3h-1v-1.4h3.7v1.4h-1.1v2.4h4.2v-2.4h-1.1v-1.4h3.7v1.4h-1v6.3h1v1.4h-3.7v-1.4h1.1v-2.5h-4.2v2.5h1.1v1.4h-3.7v-1.4zM76.3 32.4h1v-6.3h-1v-1.4h6.8v2.6h-1.5V26h-2.7v2.4h2.8v1.3h-2.8v2.6h2.7v-1.2h1.5v2.6h-6.8v-1.3zM57.4 43.6c0-.7.4-1.1 1-1.1s1 .5 1 .9c0 .2 0 .4-.1.6.3.2.8.4 1.4.4 1 0 1.6-.4 1.6-1.2 0-.7-.8-1.1-1.7-1.4-1.7-.6-2.9-1.1-2.9-2.8 0-1.5 1.2-2.6 3-2.6 1.7 0 3 .9 3 2 0 .7-.4 1-.9 1-.6 0-1-.5-1-.9 0-.2 0-.3.1-.4-.2-.2-.6-.3-1.2-.3-.9 0-1.4.5-1.4 1.1 0 .7.8 1.1 1.7 1.4 1.6.6 2.9 1.1 2.9 2.8 0 1.7-1.3 2.7-3.2 2.7-1.9-.1-3.3-1.1-3.3-2.2zM65.8 42.2v-4.4h-1v-1.4h3.7v1.4h-1.1v4.3c0 1.4.7 2.1 1.9 2.1s1.9-.7 1.9-2.1v-4.4H70v-1.4h3.6v1.4h-1v4.4c0 2.4-1.4 3.5-3.4 3.5-2 .1-3.4-1.1-3.4-3.4zM74.4 43.6c0-.7.4-1.1 1-1.1s1 .5 1 .9c0 .2 0 .4-.1.6.3.2.8.4 1.4.4 1 0 1.6-.4 1.6-1.2 0-.7-.8-1.1-1.7-1.4-1.7-.6-2.9-1.1-2.9-2.8 0-1.5 1.2-2.6 3-2.6 1.7 0 3 .9 3 2 0 .7-.4 1-.9 1-.6 0-1-.5-1-.9 0-.2 0-.3.1-.4-.2-.2-.6-.3-1.2-.3-.9 0-1.4.5-1.4 1.1 0 .7.8 1.1 1.7 1.4 1.6.6 2.9 1.1 2.9 2.8 0 1.7-1.3 2.7-3.2 2.7-1.9-.1-3.3-1.1-3.3-2.2zM83.6 44.1h1.1v-6.4H83v1.4h-1.5v-2.8h7.9v2.8H88v-1.4h-1.7v6.4h1.1v1.4h-3.8v-1.4zM89.3 44.1h.8l2.3-6.3h-1v-1.4h5.2v1.4h-1l2.3 6.3h.8v1.4h-3.5v-1.4h1.1l-.5-1.5h-3.4l-.5 1.5H93v1.4h-3.5v-1.4h-.2zm5.9-2.8l-1.3-3.6-1.3 3.6h2.6zM99.3 44.1h1.1v-6.3h-1.1v-1.4h3.8v1.4H102v6.3h1.1v1.4h-3.8v-1.4zM106.7 39.2v4.9h1.1v1.4h-3.7v-1.4h1v-6.3h-1v-1.4h2.4l4.5 5.7v-4.3h-1.1v-1.4h3.7v1.4h-1v7.7h-.8l-5.1-6.3zM114.1 44.1h.8l2.3-6.3h-1v-1.4h5.2v1.4h-1l2.3 6.3h.8v1.4H120v-1.4h1.1l-.5-1.5H117l-.5 1.5h1.1v1.4h-3.5v-1.4zm5.8-2.8l-1.3-3.6-1.3 3.6h2.6zM124 44.1h1v-6.3h-1v-1.4h3.6c2.2 0 3.3 1 3.3 2.4 0 1.1-.7 1.7-1.6 2 1.1.3 1.8 1 1.8 2.1 0 1.5-1.2 2.5-3.4 2.5H124v-1.3zm3.7-3.8c1.1 0 1.7-.5 1.7-1.3s-.6-1.2-1.7-1.2h-1v2.5h1zm.1 3.8c1.1 0 1.8-.4 1.8-1.3 0-.8-.7-1.3-1.8-1.3h-1.2v2.6h1.2zM132.3 44.1h1v-6.3h-1v-1.4h3.8v1.4h-1.2v6.3h2.5v-1.3h1.5v2.7h-6.6v-1.4zM139.9 44.1h1v-6.3h-1v-1.4h6.8V39h-1.5v-1.2h-2.7v2.4h2.8v1.3h-2.8v2.6h2.7v-1.2h1.5v2.6h-6.8v-1.4zM57.4 52.7c0-2.7 2.1-4.7 4.8-4.7 2.1 0 3.5 1.1 3.5 2.2 0 .7-.4 1.1-1 1.1s-1.1-.4-1.1-1c0-.2 0-.4.1-.5-.3-.2-.8-.4-1.6-.4-1.8 0-3.1 1.4-3.1 3.3 0 1.8 1.3 3.3 3.2 3.3 1.1 0 1.9-.5 2.6-1.2l1 1.1c-.9 1-2.2 1.6-3.7 1.6-2.7-.1-4.7-2-4.7-4.8zM67 55.9h1.1v-6.3H67v-1.4h3.8v1.4h-1.1v6.3h1.1v1.4H67v-1.4zM73.7 55.9h1.1v-6.4h-1.7v1.4h-1.5v-2.8h7.9v2.8H78v-1.4h-1.7v6.4h1.1v1.4h-3.8v-1.4h.1zM82.3 55.9h1.1v-2.1l-2.6-4.2h-.9v-1.4h3.4v1.4h-.8l1.7 2.9 1.7-2.9H85v-1.4h3.4v1.4h-.9L85 53.8v2.1h1.1v1.4h-3.9v-1.4h.1zM91.5 53.1h2.9v.7h-2.9v-.7zM99.7 56.6h1.3v-3l-2.7-4.7h-1v-.7h2.9v.7h-1l2.2 4 2.3-4h-1v-.7h2.9v.7h-1l-2.7 4.7v3h1.3v.7h-3.5v-.7zM106.6 56.6h1.3v-7.7h-1.3v-.7h3.4v.7h-1.3v7.7h1.3v.7h-3.4v-.7zM113.4 56.6h1.3v-7.7h-2.6v1.5h-.8v-2.1h7.4v2.1h-.7v-1.5h-2.6v7.7h1.3v.7h-3.4v-.7h.1zM120.2 56.6h1.3v-7.7h-1.3v-.7h3.4v.7h-1.3v7.7h1.3v.7h-3.4v-.7z"/>
    <path fill="url(#paint0_linear)" d="M27.7 55.8L10.1 45.6c-1.1-.6-2-2.2-2-3.5V20.2l-4.7 2.7c-1.6.9-2.8 2.4-3.4 4v18.3c0 2.1 1.5 4.6 3.3 5.7L27.7 65c.7.4 1.2.1 1.2-.7v-6.4c0-.8-.6-1.8-1.2-2.1z"/>
    <path fill="url(#paint1_linear)" d="M28.3 39.2l-4.6-2.7c-.6-.3-1-1.1-1-1.8v-6.1l-2.3 1.3c-.8.5-1.4 1.2-1.7 2v4.3c0 1 .7 2.3 1.6 2.8l8 4.6c.3.2.6 0 .6-.4V40c0-.1-.3-.6-.6-.8z"/>
    <path fill="url(#paint2_linear)" d="M45.3 27.3L41.5 25v13c0 .8-.6 1.9-1.3 2.3l-10.5 6.1c-.4.3-.8.9-.8 1.4v5.1c0 .5.4.7.8.5l15.7-9.1c1.2-.7 2.1-2.3 2.1-3.6V29.8c-.4-1-1.2-1.9-2.2-2.5z"/>
    <path fill="url(#paint3_linear)" d="M25.6.8L3.3 13.7c-1.8 1-3.3 3.6-3.3 5.7v7.5c.6-1.6 1.7-3 3.4-4L26.8 9.3c1.1-.6 3-.6 4.1 0l17.6 10.2c.7.4 1.8.4 2.4 0l5.6-3.2c.7-.4.7-1 0-1.4L32.1.8c-.9-.5-2-.8-3.2-.8-1.2 0-2.4.3-3.3.8z"/>
    <path fill="url(#paint4_linear)" d="M26.8 12.1l-15.7 9.1c-.4.2-.4.7 0 .9l4.4 2.6c.4.3 1.1.3 1.6 0l10.5-6.1c.7-.4 1.9-.4 2.6 0l15.1 8.7c1 .6 1.8 1.5 2.2 2.6v-5.8c0-1.3-.9-3-2.1-3.6L31 12.1c-.6-.3-1.3-.5-2.1-.5s-1.5.1-2.1.5z"/>
    <path fill="url(#paint5_linear)" d="M27.3 21.4l-7 4.1c-.9.5-1.6 1.8-1.6 2.8V32c.3-.8.9-1.5 1.7-2l7.6-4.4c.6-.3 1.5-.3 2 0l4.6 2.7c.3.2.9.2 1.2 0l2.8-1.6c.3-.2.3-.5 0-.7l-8-4.6c-.4-.3-1-.4-1.6-.4-.7 0-1.3.1-1.7.4z"/>
    <defs>
        <linearGradient id="paint0_linear" x1="23.409" x2="-8.315" y1="66.526" y2="12.595" gradientUnits="userSpaceOnUse">
            <stop stop-color="#62BC99"/>
            <stop offset=".347" stop-color="#62BC99"/>
            <stop offset=".51" stop-color="#4DA589"/>
            <stop offset=".834" stop-color="#277B6C"/>
            <stop offset="1" stop-color="#196B61"/>
        </linearGradient>
        <linearGradient id="paint1_linear" x1="23.756" x2="23.756" y1="43.894" y2="29.785" gradientUnits="userSpaceOnUse">
            <stop stop-color="#E48E41"/>
            <stop offset=".001" stop-color="#E48E41"/>
            <stop offset="1" stop-color="#CD6B49"/>
        </linearGradient>
        <linearGradient id="paint2_linear" x1="54.004" x2="33.94" y1="17.688" y2="50.6" gradientUnits="userSpaceOnUse">
            <stop stop-color="#1B5675"/>
            <stop offset=".581" stop-color="#167C94"/>
            <stop offset="1" stop-color="#1393A7"/>
        </linearGradient>
        <linearGradient id="paint3_linear" x1=".932" x2="79.215" y1="13.456" y2="13.456" gradientUnits="userSpaceOnUse">
            <stop stop-color="#62BC99"/>
            <stop offset=".207" stop-color="#59B192"/>
            <stop offset=".566" stop-color="#3F957E"/>
            <stop offset="1" stop-color="#196B61"/>
        </linearGradient>
        <linearGradient id="paint4_linear" x1="-1.704" x2="45.992" y1="24.349" y2="19.949" gradientUnits="userSpaceOnUse">
            <stop stop-color="#1B5675"/>
            <stop offset=".581" stop-color="#167C94"/>
            <stop offset="1" stop-color="#1393A7"/>
        </linearGradient>
        <linearGradient id="paint5_linear" x1="18.844" x2="49.568" y1="26.518" y2="26.518" gradientUnits="userSpaceOnUse">
            <stop stop-color="#E48E41"/>
            <stop offset=".001" stop-color="#E48E41"/>
            <stop offset="1" stop-color="#CD6B49"/>
        </linearGradient>
    </defs>
</svg>
