<svg xmlns="http://www.w3.org/2000/svg" width="68" height="68" fill="none" viewBox="0 0 68 68">
    <g filter="url(#filter0_d)">
        <circle cx="34" cy="30" r="30" fill="#fff"/>
    </g>
    <g fill="#E79035" clip-path="url(#clip0)">
        <path d="M48.3 22.9h.2c.8 0 1.4.6 1.5 1.3.1 0 .2 0 .3-.1-.4-1.3-.9-2.5-1.5-3.7-.3-.7-.8-1.4-1.3-2.1.3-.6.2-1.2-.2-1.7-.1-.2-.3-.3-.4-.5-3.5-3.9-8.1-6.1-13-6.1s-9.5 2.2-12.9 6.1c-.2.1-.3.3-.4.5-.4.5-.5 1.1-.3 1.7-.5.7-.9 1.4-1.3 2.2-.6 1.2-1.1 2.4-1.5 3.7.1 0 .2 0 .3.1.1-.7.7-1.3 1.5-1.3h.2c.5-1.3 1.2-2.6 2-3.7h.3c.5 0 1-.2 1.3-.6 1.8-2.2 4-3.7 6.5-4.6 1.4-.5 2.9-.7 4.3-.7 4.1 0 8 2 10.8 5.4.4.2.8.5 1.3.5h.3c.8 1.1 1.5 2.3 2 3.6zM34.4 46.7c-.3-.5-.8-.8-1.4-.8-.5 0-1 .2-1.3.7l-.2.3-.3-.1c-2.9-.5-5.6-2-7.9-4.2-1.4-1.3-2.6-2.9-3.5-4.6h-.5c-.2 0-.4 0-.5-.1.4.7.7 1.4 1.2 2 .8 1.2 1.7 2.3 2.7 3.3 1.2 1.2 2.5 2.1 4 2.9 1.4.7 2.9 1.3 4.4 1.5l.3.1.1.3c.2.7.8 1.2 1.5 1.2.6 0 1.2-.4 1.5-1 .1-.2.1-.4.1-.6 0-.4-.1-.6-.2-.9z"/>
        <path d="M19.4 37.5c.1 0 .2-.1.2-.2V23.7c0-.1-.1-.2-.2-.2h-.1c-.7 0-1.3.6-1.3 1.3-.3-.2-.7-.3-1.1-.3h-.4c-1.6.1-2.9 1.3-3.3 2.8-.1.3-.1.5-.1.8l-.1 4.6v.1c0 2 1.6 3.6 3.6 3.7h.1c.2 0 .4 0 .6-.1.3-.1.6-.2.8-.3 0 .8.6 1.4 1.3 1.4zM54.9 32.7l-.2-4.7c0-.3 0-.5-.1-.8-.4-1.5-1.7-2.6-3.3-2.8h-.4c-.4 0-.8.1-1.1.3 0-.7-.6-1.3-1.3-1.3h-.1c-.1 0-.2.1-.2.2V37.2c0 .1.1.2.2.2.7 0 1.3-.6 1.3-1.3.1 0 .1.1.2.1.4.2.8.3 1.2.3h.1c2-.1 3.6-1.7 3.6-3.7.1 0 .1 0 .1-.1zM45.8 28.9c0-6-5.3-10.9-11.9-10.9-6.6 0-11.8 4.9-11.8 10.9S27.4 39.8 34 39.8c1.7 0 3.3-.3 4.8-.9.6-.2 1.3-.3 1.9-.1l4 1.1c.4.1.8-.3.7-.7l-.9-3.4c-.2-.7-.1-1.5.2-2.2.7-1.4 1.1-3 1.1-4.7zm-14.3.2c0 .9-.8 1.7-1.7 1.7-1.1.1-2-.8-1.9-1.9 0-.9.8-1.7 1.7-1.7 1.1-.1 2 .8 1.9 1.9zm4.3 0c0 .9-.8 1.7-1.7 1.7-1.1.1-2-.8-1.9-1.9 0-.9.8-1.7 1.7-1.7 1-.1 1.9.8 1.9 1.9zm4.2 0c0 .9-.8 1.7-1.7 1.7-1.1.1-2-.8-1.9-1.9 0-.9.8-1.7 1.7-1.7 1.1-.1 2 .8 1.9 1.9z"/>
    </g>
    <defs>
        <clipPath id="clip0">
            <path fill="#fff" d="M0 0H41.9V39.1H0z" transform="translate(13 10)"/>
        </clipPath>
        <filter id="filter0_d" width="68" height="68" x="0" y="0" color-interpolation-filters="sRGB" filterUnits="userSpaceOnUse">
            <feFlood flood-opacity="0" result="BackgroundImageFix"/>
            <feColorMatrix in="SourceAlpha" result="hardAlpha" values="0 0 0 0 0 0 0 0 0 0 0 0 0 0 0 0 0 0 127 0"/>
            <feOffset dy="4"/>
            <feGaussianBlur stdDeviation="2"/>
            <feComposite in2="hardAlpha" operator="out"/>
            <feColorMatrix values="0 0 0 0 0 0 0 0 0 0 0 0 0 0 0 0 0 0 0.25 0"/>
            <feBlend in2="BackgroundImageFix" result="effect1_dropShadow"/>
            <feBlend in="SourceGraphic" in2="effect1_dropShadow" result="shape"/>
        </filter>
    </defs>
</svg>
