<svg xmlns="http://www.w3.org/2000/svg" width="40" height="40" fill="none" viewBox="0 0 40 40">
    <path fill="#231F20" d="M19.987 38.718c10.345 0 18.731-8.387 18.731-18.732 0-10.345-8.386-18.731-18.731-18.731-10.345 0-18.732 8.386-18.732 18.731 0 10.345 8.387 18.732 18.732 18.732z" opacity=".3"/>
    <path stroke="#fff" stroke-linecap="round" stroke-miterlimit="10" stroke-width="1.145" d="M27.777 12.398L12.4 27.776M19.987 38.718c10.345 0 18.731-8.387 18.731-18.732 0-10.345-8.386-18.731-18.731-18.731-10.345 0-18.732 8.386-18.732 18.731 0 10.345 8.387 18.732 18.732 18.732zM12.4 12.398l15.377 15.378"/>
</svg>
