<svg width="29" height="25" viewBox="0 0 29 25" fill="none" xmlns="http://www.w3.org/2000/svg">
<path fill-rule="evenodd" clip-rule="evenodd" d="M2.64001 7.79926H19.65V21.8493H2.64001V7.79926ZM23.15 19.4493L23.14 16.8493L25.74 5.18926L12.33 2.35926L11.91 4.28926H9.67001L10.18 1.63926C10.4 0.579259 11.44 -0.110741 12.5 0.109259L26.45 3.04926C27.51 3.26926 28.2 4.30926 27.98 5.36926L25.21 17.8693C24.57 19.4493 23.15 19.4493 23.15 19.4493ZM2.36001 5.54926H19.92C21 5.54926 21.89 6.42926 21.89 7.51926V22.1293C21.89 23.2093 21.01 24.0993 19.92 24.0993H2.36001C1.28001 24.0993 0.390015 23.2193 0.390015 22.1293V7.51926C0.400015 6.43926 1.28001 5.54926 2.36001 5.54926Z" fill="#828182"/>
</svg>
