<svg id="yellow" data-name="Layer 1" xmlns="http://www.w3.org/2000/svg" viewBox="0 0 117 117">
  <defs>
    <style>
      .bg-circle {
        fill: #de7531;
        stroke: #fff;
      }

      .line-circle, .bg-circle {
        stroke-miterlimit: 10;
        stroke-width: 4px;
      }

      .icon {
        fill: #fff;
      }

      .line-circle {
        fill: none;
        stroke: #de7531;
      }
    </style>
  </defs>
  <g>
    <circle class="yellow-circle" cx="58.5" cy="58.5" r="51.5" />
    <g>
      <path class="yellow-icon" d="M81.18,70.08a1.17,1.17,0,0,0-.83.34,1.21,1.21,0,0,0-.35.84,1.2,1.2,0,0,0,1.18,1.18,1.21,1.21,0,0,0,.84-.35,1.18,1.18,0,0,0,.35-.83,1.18,1.18,0,0,0-1.19-1.18Z" />
      <path class="yellow-icon" d="M87.56,86.38H82.37v-11a1.19,1.19,0,0,0-2.37,0v11H42.67V75.28a1.18,1.18,0,1,0-2.36,0v11.1H37V55.31L58.5,38.52,80,55.31V66.53a1.19,1.19,0,1,0,2.37,0V57.15l.2.17a1.24,1.24,0,0,0,.73.25,1.18,1.18,0,0,0,.83-.35L88.4,53a1.18,1.18,0,0,0,.34-.91,1.2,1.2,0,0,0-.45-.86l-7.11-5.54V33.81A1.18,1.18,0,0,0,80,32.63H73.15A1.18,1.18,0,0,0,72,33.81v4.65l-12.74-10a1.2,1.2,0,0,0-1.46,0L28.71,51.19a1.2,1.2,0,0,0-.45.86,1.18,1.18,0,0,0,.34.91l4.27,4.26a1.19,1.19,0,0,0,1.56.1l.2-.17V86.38H29.44a1.19,1.19,0,1,0,0,2.37H87.56a1.19,1.19,0,1,0,0-2.37ZM74.34,35h4.48V43.8l-4.48-3.5ZM33.8,54.81l-2.58-2.58L58.5,30.93l27.28,21.3L83.2,54.81l-24-18.72a1.19,1.19,0,0,0-1.46,0Z" />
      <path class="yellow-icon" d="M47.16,54A1.18,1.18,0,0,0,46,55.19V77.88a1.18,1.18,0,0,0,1.18,1.18H69.84A1.18,1.18,0,0,0,71,77.88V55.19A1.18,1.18,0,0,0,69.84,54ZM57.32,76.69h-9v-9h9Zm0-11.34h-9v-9h9ZM68.66,76.69h-9v-9h9Zm0-11.34h-9v-9h9Z" />
      <path class="yellow-icon" d="M40.31,70.61v0a1.18,1.18,0,0,0,2.36,0v0a1.18,1.18,0,0,0-2.36,0Z" />
    </g>
  </g>
  <circle class="line-circle yelllow" cx="58.5" cy="58.5" r="57.5" stroke-dasharray='1000' stroke-dashoffset='1000' />
</svg>