<svg xmlns="http://www.w3.org/2000/svg" width="17" height="14" fill="none" viewBox="0 0 17 14">
    <g clip-path="url(#clip0)">
        <path fill="#34617A" d="M0 12.434c1.921.162 3.65-.31 5.229-1.471-1.647-.135-2.745-.945-3.349-2.458.55.068 1.07.081 1.578-.067C1.414 7.952.576 6.156.645 4.94c.494.23.988.405 1.592.419C1.331 4.698.81 3.875.687 2.822.59 2.066.74 1.337 1.152.662c1.935 2.24 4.391 3.47 7.383 3.685-.027-.216-.055-.405-.069-.594-.054-1.43.536-2.524 1.77-3.267 1.305-.796 3.13-.594 4.241.46.138.134.261.161.44.12.7-.161 1.358-.431 1.976-.782 0 .432-.604 1.228-1.427 1.917.205-.04.425-.068.63-.122.22-.054.44-.108.66-.175.205-.068.411-.149.617-.216l.041.04c-.288.324-.562.675-.864.986-.247.243-.522.459-.796.688-.083.068-.11.135-.11.243.041 2.444-.7 4.644-2.21 6.588-1.537 1.945-3.554 3.146-6.038 3.592-1.88.337-3.72.202-5.517-.46-.659-.242-1.29-.54-1.88-.93z"/>
    </g>
    <defs>
        <clipPath id="clip0">
            <path fill="#fff" d="M0 0H17V14H0z"/>
        </clipPath>
    </defs>
</svg>
