<svg width="34" height="22" viewBox="0 0 34 22" fill="none" xmlns="http://www.w3.org/2000/svg">
<g clip-path="url(#clip0)">
<path d="M31.9 13.5818C31.9 16.6818 29.4 19.1818 26.3 19.1818V20.5818C26.3 21.3818 25.7 21.9818 24.9 21.9818C24.1 21.9818 23.5 21.3818 23.5 20.5818V19.1818H10.1V20.5818C10.1 21.3818 9.50005 21.9818 8.70005 21.9818C7.90005 21.9818 7.30005 21.3818 7.30005 20.5818V19.1818C4.20005 19.1818 1.70005 16.6818 1.70005 13.5818V8.18177L6.00005 9.48177C9.20005 10.3818 12.3 10.8818 15.7 10.8818H31.9V13.5818ZM1.10005 6.28177C0.400046 6.08177 -0.0999536 5.48177 4.63873e-05 4.78177C0.100046 3.88177 1.00005 3.38177 1.80005 3.58177L7.20005 5.18177C10 5.98177 12.8 6.38177 15.7 6.38177H29.1V2.98177C29.1 2.38177 28.6 1.88177 28 1.88177C27.4 1.88177 26.9 2.38177 26.9 2.98177V3.28177C26.9 3.78177 26.5 4.08177 26.1 4.08177C25.6 4.08177 25.3 3.68177 25.3 3.28177V3.08177C25.3 1.78177 26.2 0.481773 27.5 0.281773C29.3 -0.118227 30.9 1.28177 30.9 2.98177V6.38177H32.2C32.9 6.38177 33.5 6.88177 33.7 7.58177C33.7 8.38177 33 9.18177 32.2 9.18177H15.7C12.6 9.18177 9.50005 8.78177 6.50005 7.88177L1.10005 6.28177Z" fill="#656566"/>
</g>
<defs>
<clipPath id="clip0">
<rect width="33.6" height="21.8" fill="white" transform="translate(0 0.181641)"/>
</clipPath>
</defs>
</svg>
