<svg width="32" height="22" viewBox="0 0 32 22" fill="none" xmlns="http://www.w3.org/2000/svg">
<g clip-path="url(#clip0)">
<path fill-rule="evenodd" clip-rule="evenodd" d="M31.9 19.2812H26.2V20.8813C26.2 21.1813 26.3 21.4812 26.5 21.6812C26.7 21.8812 27 21.9812 27.3 21.9812H30.7C31 21.9812 31.3 21.8812 31.5 21.6812C31.7 21.4812 31.8 21.1813 31.8 20.8813V19.2812H31.9ZM5.7 19.2812H0V20.8813C0 21.1813 0.1 21.4812 0.3 21.6812C0.5 21.8812 0.8 21.9812 1.1 21.9812H4.5C4.8 21.9812 5.1 21.8812 5.3 21.6812C5.5 21.4812 5.6 21.1813 5.6 20.8813V19.2812H5.7ZM28.5 9.28125H25.4H16.5H15.5H6.5H3.5H3.4C2.5 9.28125 1.6 9.68125 1 10.2812C0.4 10.8813 0 11.7812 0 12.6812V19.2812H6.7H25.1H31.8V12.6812C31.8 11.7812 31.4 10.8813 30.8 10.2812C30.2 9.58125 29.4 9.28125 28.5 9.28125Z" fill="#656566"/>
<path fill-rule="evenodd" clip-rule="evenodd" d="M18.7 2.38164H22.1C23 2.38164 23.8 2.78164 24.4 3.38164C25 3.98164 25.4 4.78164 25.4 5.68164V7.18164C25.4 7.48164 25.7 7.78164 26 7.78164H26.8C27.1 7.78164 27.4 7.48164 27.4 7.18164V3.58164C27.4 2.68164 27 1.78164 26.4 1.18164C25.8 0.581641 24.9 0.181641 24 0.181641H7.9C6.9 0.181641 6.1 0.581641 5.5 1.18164C4.9 1.78164 4.5 2.68164 4.5 3.58164V7.18164C4.5 7.48164 4.8 7.78164 5.1 7.78164H5.9C6.2 7.78164 6.5 7.48164 6.5 7.18164V5.68164C6.5 4.78164 6.9 3.98164 7.5 3.38164C8.1 2.78164 8.9 2.38164 9.8 2.38164H13.2C14.1 2.38164 14.9 2.78164 15.5 3.38164C15.7 3.58164 15.8 3.78164 16 3.98164C16.1 3.78164 16.3 3.58164 16.5 3.38164C17 2.78164 17.8 2.38164 18.7 2.38164Z" fill="#656566"/>
<path fill-rule="evenodd" clip-rule="evenodd" d="M22.0999 4.18164H18.6999C18.0999 4.18164 17.4999 4.48164 17.0999 4.88164C16.6999 5.28164 16.3999 5.88164 16.3999 6.48164V6.78164C16.3999 7.38164 16.8999 7.78164 17.3999 7.78164H23.2999C23.8999 7.78164 24.2999 7.28164 24.2999 6.78164V6.48164C24.2999 5.88164 23.9999 5.28164 23.5999 4.88164C23.2999 4.48164 22.6999 4.18164 22.0999 4.18164Z" fill="#656566"/>
<path fill-rule="evenodd" clip-rule="evenodd" d="M13.1 4.18164H9.8C9.1 4.18164 8.6 4.48164 8.2 4.88164C7.8 5.28164 7.5 5.88164 7.5 6.48164V6.78164C7.5 7.38164 8 7.78164 8.5 7.78164H14.4C15 7.78164 15.4 7.28164 15.4 6.78164V6.48164C15.4 5.88164 15.1 5.28164 14.7 4.88164C14.4 4.48164 13.8 4.18164 13.1 4.18164Z" fill="#656566"/>
</g>
<defs>
<clipPath id="clip0">
<rect width="31.9" height="21.8" fill="white" transform="translate(0 0.181641)"/>
</clipPath>
</defs>
</svg>
