<svg width="27" height="27" viewBox="0 0 27 27" fill="none" xmlns="http://www.w3.org/2000/svg">
<g clip-path="url(#clip0)">
<g clip-path="url(#clip1)">
<path fill-rule="evenodd" clip-rule="evenodd" d="M15.2456 4.92311C15.2456 5.87724 14.4309 6.7121 13.4999 6.7121C12.5688 6.7121 11.8706 5.87724 11.8706 4.92311C11.8706 3.96898 12.6852 3.13412 13.6163 3.13412C14.5473 3.13412 15.2456 3.96898 15.2456 4.92311ZM7.09902 19.5928L7.7973 25.3176C7.7973 25.7947 8.26281 26.0332 8.61195 26.0332H18.3878C18.8533 26.0332 19.2025 25.6754 19.2025 25.3176L19.9007 19.5928H7.09902ZM21.2973 17.2075C21.2973 17.8038 20.8318 18.2809 20.2499 18.2809H6.86626C6.28436 18.2809 5.81885 17.8038 5.81885 17.2075C5.81885 16.6112 6.28436 16.1341 6.86626 16.1341H12.918V14.3451C12.1033 14.9415 10.8232 15.0607 9.54299 14.4644C8.14643 13.8681 7.33178 12.7947 7.2154 11.7213C8.03005 11.0057 9.42661 10.8864 10.7068 11.4827C11.7542 11.9598 12.5688 12.6754 12.918 13.5103V9.57449C12.3361 9.93229 11.5214 10.0516 10.9395 9.69375C10.0085 9.21669 9.77574 8.02403 10.2413 7.18917C10.3576 6.95063 10.474 6.83137 10.5904 6.7121C10.474 6.7121 10.2413 6.83137 10.1249 6.83137C9.07747 6.83137 8.26281 5.99651 8.26281 4.92311C8.26281 3.84972 9.07747 3.13412 10.0085 3.13412C10.1249 3.13412 10.3576 3.13412 10.474 3.25339C10.474 3.13412 10.3576 2.89559 10.2413 2.77632C9.77574 1.94146 10.0085 0.7488 10.9395 0.271735C11.7542 -0.205329 12.8016 0.0332031 13.3835 0.987332C13.3835 1.1066 13.4999 1.22586 13.4999 1.4644C13.4999 1.34513 13.6163 1.1066 13.7326 0.987332C14.1982 0.152469 15.3619 -0.205329 16.1766 0.271735C16.9913 0.7488 17.3404 1.94146 16.8749 2.77632C16.7585 2.89559 16.6421 3.13412 16.5257 3.25339C16.6421 3.25339 16.8749 3.13412 16.9913 3.13412C18.0387 3.13412 18.7369 3.96898 18.7369 4.92311C18.7369 5.87724 17.9223 6.7121 16.9913 6.7121C16.8749 6.7121 16.6421 6.7121 16.5257 6.59284C16.6421 6.83137 16.7585 6.95063 16.8749 7.18917C17.3404 8.02403 17.1076 9.21669 16.1766 9.69375C15.4783 10.0516 14.7801 9.93229 14.1982 9.57449V13.5103C14.5473 12.6754 15.2456 11.8405 16.293 11.3635C17.6895 10.7671 19.0861 10.8864 19.7844 11.602C19.668 12.6754 18.8533 13.7488 17.4568 14.3451C16.293 14.9415 15.0128 14.8222 14.1982 14.3451V16.1341H20.2499C20.8318 16.1341 21.2973 16.6112 21.2973 17.2075Z" fill="#656566"/>
</g>
</g>
<defs>
<clipPath id="clip0">
<rect width="27" height="26" fill="white" transform="translate(0 0.181641)"/>
</clipPath>
<clipPath id="clip1">
<rect width="15.4784" height="26" fill="white" transform="translate(5.81885 0.0332031)"/>
</clipPath>
</defs>
</svg>
