<?xml version="1.0" encoding="UTF-8"?>
<!-- Generator: Adobe Illustrator 25.2.1, SVG Export Plug-In . SVG Version: 6.00 Build 0)  -->
<svg version="1.1" id="Layer_1" xmlns="http://www.w3.org/2000/svg" xmlns:xlink="http://www.w3.org/1999/xlink" x="0px" y="0px" viewBox="0 0 700 700" style="enable-background:new 0 0 700 700;fill: #656566;width: 32px;" xml:space="preserve">
<path d="M416.7,437.3V139.9c0-38.5-31.3-69.9-69.9-69.9c-38.5,0-69.9,31.3-69.9,69.9v302.8c-21.3,19.6-34,47.1-34.8,76.1  c-0.9,28.5,9.7,55.9,29.7,77.1c20,21.2,46.7,33.3,75.1,34.1c1,0,2.1,0,3.1,0c28.3,0,54.9-10.8,75.2-30.6  c21.1-20.5,32.7-48,32.7-77.4C457.9,489,442.6,457.7,416.7,437.3L416.7,437.3z M409.6,583.4c-16.7,16.2-38.8,24.8-62.1,24.2  c-22.4-0.6-43.5-10.2-59.4-27.1c-15.9-16.9-24.3-38.6-23.6-61.1c0.7-24.4,12-47.4,30.8-63.1c2.6-2.1,4-5.3,4-8.6V139.9  c0-26.2,21.3-47.5,47.5-47.5c26.2,0,47.5,21.3,47.5,47.5v303c0,3.7,1.8,7.1,4.8,9.2c22.8,16,36.5,42.2,36.5,70  C435.5,545.4,426.3,567.2,409.6,583.4L409.6,583.4z"/>
<path d="M386.2,470.4l-14.3-10V292.1c0-6.2-5-11.2-11.2-11.2h-27.8c-6.2,0-11.2,5-11.2,11.2v171.3l-12.1,10.1  c-13.9,11.6-22.2,28.6-22.8,46.6c-0.5,16.5,5.7,32.5,17.6,45c11.8,12.5,27.3,19.6,43.9,20.1l1.7,0c16.9,0,32.7-6.6,44.7-18.5  c11.9-11.9,18.5-27.8,18.5-44.7C413.2,501.6,403.1,482.2,386.2,470.4L386.2,470.4z"/>
<path d="M332.9,247.8h27.8c6.2,0,11.2-5,11.2-11.2s-5-11.2-11.2-11.2h-27.8c-6.2,0-11.2,5-11.2,11.2  C321.7,242.8,326.7,247.8,332.9,247.8z"/>
<path d="M332.9,192.3h27.8c6.2,0,11.2-5,11.2-11.2c0-6.2-5-11.2-11.2-11.2h-27.8c-6.2,0-11.2,5-11.2,11.2  C321.7,187.3,326.7,192.3,332.9,192.3z"/>
</svg>