<svg width="24" height="23" viewBox="0 0 24 23" fill="none" xmlns="http://www.w3.org/2000/svg">
<g clip-path="url(#clip0)">
<path fill-rule="evenodd" clip-rule="evenodd" d="M23.2 19.4062H17.5V21.0063C17.5 21.3063 17.6 21.6062 17.8 21.8062C18 22.0062 18.3 22.1062 18.6 22.1062H22C22.3 22.1062 22.6 22.0062 22.8 21.8062C23 21.6062 23.1 21.3063 23.1 21.0063V19.4062H23.2ZM5.7 19.4062H0V21.0063C0 21.3063 0.1 21.6062 0.3 21.8062C0.5 22.0062 0.8 22.1062 1.1 22.1062H4.5C4.8 22.1062 5.1 22.0062 5.3 21.8062C5.5 21.6062 5.6 21.3063 5.6 21.0063V19.4062H5.7ZM19.8 9.40625H16.7H18.8H17.8H6.5H3.5H3.4C2.5 9.40625 1.6 9.80625 1 10.4062C0.4 11.0063 0 11.9062 0 12.8062V19.4062H6.7H16.4H23.1V12.8062C23.1 11.9062 22.7 11.0063 22.1 10.4062C21.5 9.70625 20.7 9.40625 19.8 9.40625Z" fill="#656566"/>
<path fill-rule="evenodd" clip-rule="evenodd" d="M11.5999 2.50664H14.3999C15.2999 2.50664 16.0999 2.90664 16.6999 3.50664C17.2999 4.10664 17.6999 4.90664 17.6999 5.80664V7.30664C17.6999 7.60664 17.9999 7.90664 18.2999 7.90664H19.0999C19.3999 7.90664 19.6999 7.60664 19.6999 7.30664V3.70664C19.6999 2.80664 19.2999 1.90664 18.6999 1.30664C18.0999 0.706641 17.1999 0.306641 16.2999 0.306641H11.5999H6.7999C5.8999 0.306641 5.0999 0.706641 4.3999 1.30664C3.7999 1.90664 3.3999 2.80664 3.3999 3.70664V7.30664C3.3999 7.60664 3.6999 7.90664 3.9999 7.90664H4.7999C5.0999 7.90664 5.3999 7.60664 5.3999 7.30664V5.80664C5.3999 4.90664 5.7999 4.10664 6.3999 3.50664C6.9999 2.90664 7.7999 2.50664 8.6999 2.50664H11.5999Z" fill="#656566"/>
<path fill-rule="evenodd" clip-rule="evenodd" d="M14.3999 4.30664H8.6999C8.0999 4.30664 7.4999 4.60664 7.0999 5.00664C6.6999 5.40664 6.3999 6.00664 6.3999 6.60664V6.90664C6.3999 7.50664 6.8999 7.90664 7.3999 7.90664H15.6999C16.2999 7.90664 16.6999 7.40664 16.6999 6.90664V6.60664C16.6999 6.00664 16.3999 5.40664 15.9999 5.00664C15.5999 4.60664 15.0999 4.30664 14.3999 4.30664Z" fill="#656566"/>
</g>
<defs>
<clipPath id="clip0">
<rect width="23.2" height="21.8" fill="white" transform="translate(0 0.306641)"/>
</clipPath>
</defs>
</svg>
