<svg width="27" height="23" viewBox="0 0 27 23" fill="none" xmlns="http://www.w3.org/2000/svg">
<g clip-path="url(#clip0)">
<path d="M0.999945 10.7891H2.69994V21.5891C2.69994 21.9891 2.99994 22.3891 3.49994 22.3891H9.09995C9.49994 22.3891 9.89994 22.0891 9.89994 21.5891V15.6891C9.89994 15.2891 10.1999 14.8891 10.6999 14.8891H15.8999C16.2999 14.8891 16.6999 15.1891 16.6999 15.6891V21.5891C16.6999 21.9891 16.9999 22.3891 17.4999 22.3891H23.0999C23.4999 22.3891 23.8999 22.0891 23.8999 21.5891V10.7891H25.5999C26.4999 10.7891 26.8999 9.68906 26.1999 9.08906L15.0999 1.28906C13.8999 0.289062 12.2999 0.289062 11.0999 1.28906L0.299945 9.08906C-0.300055 9.68906 0.0999446 10.7891 0.999945 10.7891Z" fill="#656566"/>
<path d="M12.8999 7.69035C11.2999 7.79035 10.2999 8.99035 10.1999 8.99035C9.99993 9.29035 9.99993 9.59035 10.2999 9.89035C10.3999 9.99035 10.5999 9.99035 10.6999 9.99035C10.8999 9.99035 10.9999 9.89035 11.1999 9.79035C11.1999 9.79035 11.8999 8.89035 12.9999 8.89035C13.6999 8.89035 14.3999 9.19035 15.0999 9.89035C15.2999 10.0904 15.6999 10.0904 15.9999 9.89035C16.1999 9.69035 16.1999 9.29035 15.9999 8.99035C14.8999 8.09035 13.8999 7.59035 12.8999 7.69035Z" fill="#656566"/>
<path d="M16.9998 7.48966C17.1998 7.28966 17.1998 6.88966 16.9998 6.58966C15.6998 5.38966 14.1998 4.78966 12.7998 4.88966C10.5998 4.98966 9.19984 6.58966 9.09984 6.58966C8.89984 6.88966 8.89984 7.28966 9.19984 7.48966C9.29984 7.58966 9.39984 7.68966 9.59984 7.68966C9.69984 7.68966 9.89984 7.58966 9.99984 7.48966C9.99984 7.48966 11.1998 6.18966 12.8998 6.08966C13.9998 5.98966 15.0998 6.48966 16.1998 7.48966C16.3998 7.68966 16.7998 7.68966 16.9998 7.48966Z" fill="#656566"/>
<path d="M13.0997 12.9895C13.8729 12.9895 14.4997 12.3627 14.4997 11.5895C14.4997 10.8163 13.8729 10.1895 13.0997 10.1895C12.3265 10.1895 11.6997 10.8163 11.6997 11.5895C11.6997 12.3627 12.3265 12.9895 13.0997 12.9895Z" fill="#656566"/>
</g>
<defs>
<clipPath id="clip0">
<rect width="26.2" height="21.8" fill="white" transform="translate(0 0.589844)"/>
</clipPath>
</defs>
</svg>
