<svg width="146" height="35" viewBox="0 0 146 35" fill="none" xmlns="http://www.w3.org/2000/svg">
<path d="M26.6998 6.00039V1.40039H13.7998V4.40039H15.2998V13.5004H13.7998V16.6004H26.6998V12.0004H23.5998V13.5004H19.0998V10.5004H23.5998V7.50039H19.0998V4.40039H23.5998V6.00039H26.6998Z" fill="white"/>
<path d="M41.0997 6.00039V1.40039H28.1997V4.40039H29.6997V13.5004H28.1997V16.6004H41.0997V12.0004H38.0997V13.5004H33.4997V10.5004H38.0997V7.50039H33.4997V4.40039H38.0997V6.00039H41.0997Z" fill="white"/>
<path d="M6.99991 7.20028C5.19991 7.00028 4.19992 6.60028 4.19992 5.50028C4.19992 4.20028 5.69992 3.80028 7.19992 3.80028C8.19992 3.80028 8.7999 3.90028 9.3999 4.10028V5.70028H12.4999V2.50028C11.3999 1.80028 9.9999 1.10028 7.2999 1.00028C4.2999 0.900276 0.999908 2.60028 0.999908 5.40028C0.999908 8.80028 3.59991 9.60028 6.59991 9.90028C7.69991 10.1003 9.99991 10.1003 9.99991 11.7003C9.99991 13.3003 8.3999 13.5003 6.7999 13.5003C5.5999 13.5003 4.4999 13.3003 3.8999 13.0003V12.0003H0.899902V14.8003C2.3999 16.0003 3.9999 16.6003 6.8999 16.6003C11.0999 16.6003 13.3999 14.7003 13.3999 11.8003C13.3999 8.10027 10.2999 7.50028 6.99991 7.20028Z" fill="white"/>
<path d="M42.6001 4.80039H46.0001V8.20039H49.4001V1.40039H42.6001V4.80039Z" fill="white"/>
<path d="M116.6 34.8012V32.0012H118.2V22.5012H116.6V19.7012H124.2C126.7 19.7012 128.4 20.1012 129.5 20.9012C130.5 21.7012 131.1 23.0012 131.1 24.7012C131.1 27.1012 130.1 28.7012 128.1 29.4012L129.9 31.9012H132.1V34.8012H127.8L124.3 30.0012H121.9V32.0012H123.5V34.9012H121.9H116.6V34.8012ZM121.8 22.5012V27.1012H124.4C125.6 27.1012 126.4 26.9012 126.9 26.5012C127.3 26.1012 127.6 25.5012 127.6 24.7012C127.6 23.9012 127.4 23.3012 126.9 23.0012C126.4 22.7012 125.7 22.4012 124.5 22.4012H121.8V22.5012Z" fill="white"/>
<path d="M17.1997 34.8012V32.0012H18.1997V22.5012H17.1997V19.7012H29.5997V23.5012H26.4997V22.5012H21.7997V25.8012H26.4997V28.7012H21.7997V32.0012H26.4997V31.0012H29.5997V34.9012H17.1997V34.8012Z" fill="white"/>
<path d="M46.8999 34.8012V32.0012H47.8999V22.5012H46.8999V19.7012H59.2999V23.5012H56.1999V22.5012H51.4999V25.8012H56.1999V28.7012H51.4999V32.0012H56.1999V31.0012H59.2999V34.9012H46.8999V34.8012Z" fill="white"/>
<path d="M103.4 34.8012V32.0012H104.4V22.5012H103.4V19.7012H115.8V23.5012H112.7V22.5012H108V25.8012H112.7V28.7012H108V32.0012H112.7V31.0012H115.8V34.9012H103.4V34.8012Z" fill="white"/>
<path d="M0.899902 34.8012V32.0012H2.09991V22.5012H0.899902V19.7012H7.69992C10.4999 19.7012 12.6999 20.4012 14.1999 21.7012C15.6999 23.0012 16.4999 24.9012 16.4999 27.2012C16.4999 29.6012 15.7999 31.4012 14.2999 32.8012C12.7999 34.2012 10.5999 34.9012 7.59991 34.9012H0.899902V34.8012ZM5.59991 32.0012H7.7999C9.3999 31.9012 10.6999 31.6012 11.4999 30.8012C12.3999 30.0012 12.7999 28.8012 12.7999 27.3012C12.7999 25.8012 12.3999 24.5012 11.4999 23.7012C10.5999 22.9012 9.29991 22.7012 7.49991 22.5012H5.49991V32.0012H5.59991Z" fill="white"/>
<path d="M31.6999 22.4016H30.3999V19.6016H36.2999V22.4016H35.4999L38.2999 29.3016L41.0999 22.4016H40.2999V19.6016H46.1999V22.4016H44.8999L39.7999 34.8016H36.7999L31.6999 22.4016Z" fill="white"/>
<path d="M60.1997 34.8012V32.0012H61.3997V22.5012H60.1997V19.7012H66.4997V22.5012H64.8997V32.0012H68.4997V30.7012H71.5997V34.8012H60.1997V34.8012Z" fill="white"/>
<path d="M72.1001 27.2004C72.1001 25.0004 72.9001 23.1004 74.5001 21.6004C76.1001 20.1004 78.1001 19.4004 80.4001 19.4004C82.7001 19.4004 84.7001 20.1004 86.3001 21.6004C87.9001 23.1004 88.7001 25.0004 88.7001 27.2004C88.7001 29.4004 87.9001 31.3004 86.3001 32.8004C84.7001 34.3004 82.7001 35.0004 80.4001 35.0004C78.1001 35.0004 76.1001 34.3004 74.5001 32.8004C72.9001 31.3004 72.1001 29.4004 72.1001 27.2004ZM75.7001 27.2004C75.7001 28.6004 76.2001 29.7004 77.1001 30.7004C78.0001 31.6004 79.1001 32.1004 80.4001 32.1004C81.7001 32.1004 82.8001 31.6004 83.7001 30.7004C84.6001 29.8004 85.1001 28.6004 85.1001 27.2004C85.1001 25.8004 84.6001 24.7004 83.7001 23.7004C82.8001 22.7004 81.7001 22.3004 80.4001 22.3004C79.1001 22.3004 78.0001 22.8004 77.1001 23.7004C76.2001 24.7004 75.7001 25.9004 75.7001 27.2004Z" fill="white"/>
<path d="M89 34.8012V32.0012H90.2V22.5012H89V19.7012H95.8C98.2 19.7012 100 20.2012 101.1 21.1012C102.2 22.0012 102.8 23.4012 102.8 25.3012C102.8 27.2012 102.2 28.5012 101.1 29.4012C100 30.3012 98.2 30.7012 95.9 30.7012H93.8V32.0012H95V34.9012H89V34.8012ZM93.7 27.7012H96.1C97.3 27.7012 98.1 27.5012 98.5 27.0012C98.9 26.5012 99.1 25.9012 99.1 25.0012C99.1 24.1012 98.8 23.4012 98.3 23.0012C97.8 22.6012 96.9 22.4012 95.7 22.4012H93.7V27.7012V27.7012Z" fill="white"/>
<path d="M139.1 25.6007C137.3 25.4007 136.3 25.0007 136.3 23.9007C136.3 22.6007 137.8 22.2007 139.3 22.2007C140.3 22.2007 140.9 22.3007 141.5 22.5007V24.1007H144.6V20.9007C143.5 20.2007 142.1 19.5007 139.4 19.4007C136.4 19.3007 133.1 21.0007 133.1 23.8007C133.1 27.2007 135.7 28.0007 138.7 28.3007C139.8 28.5007 142.1 28.5007 142.1 30.1007C142.1 31.7007 140.5 31.9007 138.9 31.9007C137.7 31.9007 136.6 31.7007 136 31.4007V30.2007H133V33.0007C134.5 34.2007 136.1 34.8007 139 34.8007C143.2 34.8007 145.5 32.9007 145.5 30.0007C145.4 26.5007 142.4 26.0007 139.1 25.6007Z" fill="white"/>
</svg>
