<svg width="269" height="46" viewBox="0 0 269 46" fill="none" xmlns="http://www.w3.org/2000/svg">
<path d="M106.1 31.6L103.5 27.5H105L106.8 30.4L108.6 27.5H110L107.5 31.6V34.8H106.1V31.6Z" fill="white"/>
<path d="M112.2 27.5H110.8V34.8H112.2V27.5Z" fill="white"/>
<path d="M115.6 28.7H113.2V27.5H119.5V28.7H117V34.8H115.6V28.7Z" fill="white"/>
<path d="M121.9 27.5H120.5V34.8H121.9V27.5Z" fill="white"/>
<path d="M127.2 28.7H124.7V27.5H131.1V28.7H128.6V34.8H127.2V28.7Z" fill="white"/>
<path d="M134.9 34.9992C132.7 34.9992 131.1 33.1992 131.1 31.0992C131.1 28.9992 132.7 27.1992 134.9 27.1992C137 27.1992 138.7 28.8992 138.7 31.0992C138.7 33.1992 137.1 34.9992 134.9 34.9992ZM134.9 33.6992C136.3 33.6992 137.3 32.4992 137.3 31.0992C137.3 29.6992 136.4 28.4992 134.9 28.4992C133.5 28.4992 132.5 29.6992 132.5 31.0992C132.6 32.4992 133.5 33.6992 134.9 33.6992Z" fill="white"/>
<path d="M139.8 27.5H141.2V31.9C141.2 33 141.6 33.7 142.8 33.7C144 33.7 144.4 33.1 144.4 31.9V27.5H145.8V32.1C145.8 33.9 144.6 35 142.8 35C141 35 139.8 33.9 139.8 32.1V27.5Z" fill="white"/>
<path d="M147.2 27.5H149.6C151.2 27.5 152.1 28.5 152.1 29.7C152.1 30.6 151.7 31.4 150.9 31.8L152.6 34.9H151L149.5 32H148.5V34.9H147.2V27.5ZM149.7 30.7C150.4 30.7 150.8 30.2 150.8 29.6C150.8 29 150.4 28.5 149.7 28.5H148.6V30.6H149.7V30.7Z" fill="white"/>
<path d="M155 27.5H153.6V34.8H155V27.5Z" fill="white"/>
<path d="M157 32.6988C157.5 33.2988 158.1 33.6988 158.9 33.6988C159.8 33.6988 160.2 33.1988 160.2 32.6988C160.2 32.0988 159.8 31.8988 159.3 31.6988C158.5 31.4988 157.6 31.4988 157 30.6988C156.7 30.2988 156.5 29.7988 156.5 29.3988C156.5 27.9988 157.6 27.2988 159 27.2988C160.1 27.2988 160.8 27.6988 161.4 28.2988L160.5 29.1988C160.4 29.0988 159.9 28.4988 159 28.4988C158.3 28.4988 157.9 28.8988 157.9 29.2988C157.9 29.7988 158.2 29.9988 158.7 30.1988C159.4 30.3988 159.6 30.2988 160.3 30.6988C161.2 31.0988 161.7 31.7988 161.7 32.7988C161.7 34.0988 160.5 35.0988 159.1 35.0988C158 35.0988 157 34.5988 156.3 33.6988L157 32.6988Z" fill="white"/>
<path d="M163.1 27.5H164.4L166.5 30.9L168.5 27.5H169.7L170.1 34.8H168.7L168.5 29.7L166.7 32.7H166.1L164.3 29.8L164.1 34.8H162.8L163.1 27.5Z" fill="white"/>
<path d="M209.6 34.9992C207.4 34.9992 205.8 33.1992 205.8 31.0992C205.8 28.9992 207.4 27.1992 209.6 27.1992C211.7 27.1992 213.4 28.8992 213.4 31.0992C213.4 33.1992 211.8 34.9992 209.6 34.9992ZM209.6 33.6992C211 33.6992 212 32.4992 212 31.0992C212 29.6992 211.1 28.4992 209.6 28.4992C208.2 28.4992 207.2 29.6992 207.2 31.0992C207.3 32.4992 208.2 33.6992 209.6 33.6992Z" fill="white"/>
<path d="M173.4 27.5H176.1C178.5 27.5 180 28.8 180 31.2C180 33.5 178.4 34.8 176.1 34.8H173.4V27.5ZM176 33.5C177.6 33.5 178.6 32.7 178.6 31.1C178.6 29.5 177.8 28.6 176 28.6H174.8V33.5H176Z" fill="white"/>
<path d="M181.2 27.5H185.9V28.7H182.6V30.4H185V31.6H182.6V33.5H186.2V34.8H181.2V27.5Z" fill="white"/>
<path d="M186.7 27.5H188.2L190.1 33L192.1 27.5H193.5L190.8 34.8H189.4L186.7 27.5Z" fill="white"/>
<path d="M194.3 27.5H199.1V28.7H195.7V30.4H198.2V31.6H195.7V33.5H199.3V34.8H194.3V27.5Z" fill="white"/>
<path d="M200.5 27.5H201.9V33.6H205.5V34.8H200.5V27.5Z" fill="white"/>
<path d="M214.6 27.5H217C218.6 27.5 219.5 28.5 219.5 29.8C219.5 31.3 218.4 32.1 217 32.1H215.9V34.8H214.6V27.5ZM216.9 30.9C217.6 30.9 218.1 30.4 218.1 29.8C218.1 29.1 217.6 28.6 216.9 28.6H215.9V30.9H216.9Z" fill="white"/>
<path d="M220.8 27.5H222.1L224.1 30.9L226.1 27.5H227.4L227.8 34.8H226.4L226.2 29.7L224.4 32.7H223.8L222 29.8L221.8 34.8H220.5L220.8 27.5Z" fill="white"/>
<path d="M229.2 27.5H233.9V28.7H230.5V30.4H233V31.6H230.5V33.5H234.2V34.8H229.2V27.5Z" fill="white"/>
<path d="M235.3 27.5H236.7L240.3 32.7V27.5H241.6V34.8H240.2L236.7 29.5V34.8H235.3V27.5Z" fill="white"/>
<path d="M245 28.7H242.6V27.5H248.9V28.7H246.4V34.8H245V28.7Z" fill="white"/>
<path d="M262.5 34.9992C260.3 34.9992 258.7 33.1992 258.7 31.0992C258.7 28.9992 260.3 27.1992 262.5 27.1992C264.6 27.1992 266.3 28.8992 266.3 31.0992C266.3 33.1992 264.6 34.9992 262.5 34.9992ZM262.5 33.6992C263.9 33.6992 264.9 32.4992 264.9 31.0992C264.9 29.6992 264 28.4992 262.5 28.4992C261.1 28.4992 260.1 29.6992 260.1 31.0992C260.1 32.4992 261 33.6992 262.5 33.6992Z" fill="white"/>
<path d="M258.2 33.3992C257.7 34.1992 256.5 34.8992 255.2 34.8992C253 34.8992 251.5 33.1992 251.5 31.0992C251.5 28.8992 253.1 27.1992 255.3 27.1992C256.5 27.1992 257.5 27.5992 258.3 28.6992L257.3 29.5992C256.7 28.6992 256 28.4992 255.3 28.4992C253.9 28.4992 253 29.6992 253 31.0992C253 32.4992 253.9 33.5992 255.3 33.5992C256.6 33.5992 257 32.9992 257.4 32.5992L258.2 33.3992Z" fill="white"/>
<path d="M268.7 33.4004H267.3V34.8004H268.7V33.4004Z" fill="white"/>
<path d="M268.7 19.2V13.6H267.3V18H261.3V13.6H260V18H254V16.1C254 14.7 252.8 13.5 251.4 13.5C250 13.5 248.8 14.7 248.8 16.1V18H232.8C231.9 18 231.3 17.3 231.3 16.5V13.7H229.9V16.5C229.9 18 231.2 19.3 232.7 19.3H250.2V16C250.2 15.3 250.7 14.8 251.4 14.8C252.1 14.8 252.6 15.3 252.6 16V19.3H268.7V19.2Z" fill="white"/>
<path d="M241.2 20.5C240.8 20.5 240.4 20.9 240.4 21.3C240.4 21.7 240.8 22.1 241.2 22.1C241.6 22.1 242 21.7 242 21.3C242 20.9 241.7 20.5 241.2 20.5Z" fill="white"/>
<path d="M238.9 20.5C238.5 20.5 238.1 20.9 238.1 21.3C238.1 21.7 238.5 22.1 238.9 22.1C239.3 22.1 239.7 21.7 239.7 21.3C239.7 20.9 239.3 20.5 238.9 20.5Z" fill="white"/>
<path d="M267.9 20.5C267.5 20.5 267.1 20.9 267.1 21.3C267.1 21.7 267.5 22.1 267.9 22.1C268.3 22.1 268.7 21.7 268.7 21.3C268.7 20.9 268.3 20.5 267.9 20.5Z" fill="white"/>
<path d="M265.5 20.5C265.1 20.5 264.7 20.9 264.7 21.3C264.7 21.7 265.1 22.1 265.5 22.1C265.9 22.1 266.3 21.7 266.3 21.3C266.3 20.9 266 20.5 265.5 20.5Z" fill="white"/>
<path d="M261.8 12.6996C262.2 12.6996 262.6 12.2996 262.6 11.8996C262.6 11.4996 262.2 11.0996 261.8 11.0996C261.4 11.0996 261 11.4996 261 11.8996C261 12.2996 261.4 12.6996 261.8 12.6996Z" fill="white"/>
<path d="M259.5 12.6996C259.9 12.6996 260.3 12.2996 260.3 11.8996C260.3 11.4996 259.9 11.0996 259.5 11.0996C259.1 11.0996 258.7 11.4996 258.7 11.8996C258.7 12.2996 259 12.6996 259.5 12.6996Z" fill="white"/>
<path d="M181.9 20.5C181.5 20.5 181.1 20.9 181.1 21.3C181.1 21.7 181.5 22.1 181.9 22.1C182.3 22.1 182.7 21.7 182.7 21.3C182.7 20.9 182.4 20.5 181.9 20.5Z" fill="white"/>
<path d="M179.6 20.5C179.2 20.5 178.8 20.9 178.8 21.3C178.8 21.7 179.2 22.1 179.6 22.1C180 22.1 180.4 21.7 180.4 21.3C180.4 20.9 180 20.5 179.6 20.5Z" fill="white"/>
<path d="M218.6 12.6996C219 12.6996 219.4 12.2996 219.4 11.8996C219.4 11.4996 219 11.0996 218.6 11.0996C218.2 11.0996 217.8 11.4996 217.8 11.8996C217.8 12.2996 218.1 12.6996 218.6 12.6996Z" fill="white"/>
<path d="M216.2 12.6996C216.6 12.6996 217 12.2996 217 11.8996C217 11.4996 216.6 11.0996 216.2 11.0996C215.8 11.0996 215.4 11.4996 215.4 11.8996C215.4 12.2996 215.8 12.6996 216.2 12.6996Z" fill="white"/>
<path d="M224 17.9996H218V13.5996H216.6V17.9996H210.4V16.3996C210.4 14.8996 209.1 13.5996 207.6 13.5996H203.2C202.7 13.5996 202.2 13.6996 201.8 13.9996V11.0996H200.4V17.9996H191V16.3996C191 14.7996 189.7 13.4996 188.1 13.4996C186.5 13.4996 185.2 14.7996 185.2 16.3996V19.1996H189.6V19.3996C189.6 20.0996 189.3 20.7996 188.6 21.1996L189.2 22.2996C190.3 21.6996 191 20.5996 191 19.3996V19.1996H225.3V11.0996H224V17.9996ZM189.7 17.9996H186.7V16.1996C186.7 15.3996 187.4 14.6996 188.2 14.6996C189 14.6996 189.7 15.3996 189.7 16.1996V17.9996ZM209.1 17.9996H201.9V16.3996C201.9 15.4996 202.6 14.7996 203.5 14.7996H207.6C208.5 14.7996 209.2 15.4996 209.2 16.3996V17.9996H209.1Z" fill="white"/>
<path d="M182.6 13.5996H181.2V17.9996H174.7V13.5996H173.3V19.3996C173.3 20.0996 173 20.7996 172.3 21.1996L172.9 22.2996C174 21.6996 174.7 20.5996 174.7 19.3996V19.1996H182.6V13.5996Z" fill="white"/>
<path d="M133.8 20.5C133.4 20.5 133 20.9 133 21.3C133 21.7 133.4 22.1 133.8 22.1C134.2 22.1 134.6 21.7 134.6 21.3C134.6 20.9 134.3 20.5 133.8 20.5Z" fill="white"/>
<path d="M131.5 20.5C131.1 20.5 130.7 20.9 130.7 21.3C130.7 21.7 131.1 22.1 131.5 22.1C131.9 22.1 132.3 21.7 132.3 21.3C132.3 20.9 131.9 20.5 131.5 20.5Z" fill="white"/>
<path d="M108.6 12.6996C109 12.6996 109.4 12.2996 109.4 11.8996C109.4 11.4996 109 11.0996 108.6 11.0996C108.2 11.0996 107.8 11.4996 107.8 11.8996C107.8 12.2996 108.2 12.6996 108.6 12.6996Z" fill="white"/>
<path d="M106.3 12.6996C106.7 12.6996 107.1 12.2996 107.1 11.8996C107.1 11.4996 106.7 11.0996 106.3 11.0996C105.9 11.0996 105.5 11.4996 105.5 11.8996C105.5 12.2996 105.8 12.6996 106.3 12.6996Z" fill="white"/>
<path d="M119 13.5996H114.2V14.7996H118.9C119.8 14.7996 120.5 15.4996 120.5 16.3996V17.9996H109.4V13.5996H106.4C104.9 13.5996 103.6 14.8996 103.6 16.3996C103.6 17.8996 104.9 19.1996 106.4 19.1996H121.9V16.3996C121.8 14.8996 120.6 13.5996 119 13.5996ZM107.9 17.9996H106.5C105.6 17.9996 104.9 17.2996 104.9 16.3996C104.9 15.4996 105.6 14.7996 106.5 14.7996H107.9V17.9996Z" fill="white"/>
<path d="M168 11.0996H166.6V19.1996H168V11.0996Z" fill="white"/>
<path d="M162.8 17.9996H155V13.5996H153.6V17.9996H150.4V14.3996H149V17.9996H145.8V13.5996H144.4V17.9996H133.3V13.5996H131.9V17.9996H125.7V11.0996H124.3V19.1996H164.2V11.0996H162.8V17.9996Z" fill="white"/>
<path d="M47.5 31.6993C46.3 33.2993 45.4 34.0993 43.7 35.2993C42.9 35.8993 42.7 39.6993 43.5 39.2993C45.1 38.2993 46.5 36.8993 47.5 35.0993C48.5 33.2993 48.2 30.7993 47.5 31.6993Z" fill="white"/>
<path d="M66.4999 18.1999C64.6999 18.8999 63.2999 19.5999 61.6999 20.4999C60.4999 21.1999 59.9999 24.4999 60.5999 24.0999C62.2999 23.1999 63.7999 22.5999 65.4999 21.7999C66.4999 21.3999 67.2999 17.9999 66.4999 18.1999Z" fill="white"/>
<path d="M45.6001 4.99926C47.5001 4.59926 49.3001 4.19926 51.3001 3.89926C52.1001 3.79926 53.1001 0.0992565 52.7001 0.199256C50.7001 0.399256 48.7001 0.799257 46.9001 1.19926C46.1001 1.39926 44.9001 5.19926 45.6001 4.99926Z" fill="white"/>
<path d="M68.2998 10.9998C64.6998 11.2998 57.7998 17.4998 53.7998 15.4998C52.2998 14.7998 51.9998 13.2998 52.2998 11.7998C52.9998 8.39981 54.5998 6.99981 49.6998 8.09981C36.1998 10.8998 32.2998 19.9998 32.1998 23.2998C32.0998 27.8998 42.1998 24.6998 44.3998 27.7998C45.3998 29.1998 30.6998 38.2998 21.4998 32.9998C11.2998 27.1998 18.1998 12.1998 42.5998 5.79981C43.4998 5.59981 44.6998 1.79981 43.8998 1.99981C15.7998 9.89981 7.89978 32.2998 20.8998 37.5998C27.7998 40.3998 37.5998 36.6998 43.3998 31.8998C45.9998 29.7998 49.4998 23.9998 44.3998 22.6998C40.6998 21.7998 34.9998 22.8998 34.3998 20.3998C33.7998 17.7998 44.1998 12.4998 48.6998 11.7998C52.1998 11.1998 50.3998 12.5998 50.2998 15.7998C50.0998 18.5998 51.5998 20.4998 55.2998 19.6998C59.4998 18.6998 63.8998 15.2998 66.5998 14.9998C67.1998 14.7998 69.1998 10.8998 68.2998 10.9998Z" fill="white"/>
<path d="M9.6 21.5L5.9 26.7V31H3.8V26.7L0 21.5H2.6L4.9 24.8L7.2 21.5H9.6Z" fill="white"/>
<path d="M30.4999 21.5H28.3999V31H30.4999V21.5Z" fill="white"/>
<path d="M49.2002 21.5H58.1002V23.3H54.7002V31H52.6002V23.3H49.2002V21.5Z" fill="white"/>
<path d="M77.8998 21.5H75.7998V31H77.8998V21.5Z" fill="white"/>
<path d="M20.4998 42.8984L19.6998 44.2984L18.8998 42.8984H18.3998L18.2998 45.7984H18.7998L18.8998 43.7984L19.5998 44.9984H19.7998L20.4998 43.7984L20.5998 45.7984H21.1998L20.9998 42.8984H20.4998Z" fill="white"/>
<path d="M24.2 44.5984C24.2 45.0984 24 45.2984 23.6 45.2984C23.1 45.2984 23 44.9984 23 44.5984V42.8984H22.5V44.6984C22.5 45.3984 23 45.7984 23.7 45.7984C24.4 45.7984 24.9 45.3984 24.9 44.6984V42.8984H24.4V44.5984H24.2Z" fill="white"/>
<path d="M27.0998 44.1C26.7998 44 26.4998 44 26.4998 43.7C26.4998 43.5 26.6998 43.4 26.8998 43.4C27.1998 43.4 27.3998 43.6 27.4998 43.7L27.8998 43.4C27.7998 43.3 27.5998 43 26.9998 43C26.3998 43 25.9998 43.3 25.9998 43.8C25.9998 43.9 25.9998 44.4 26.4998 44.6C26.7998 44.7 27.3998 44.7 27.3998 45.1C27.3998 45.3 27.1998 45.5 26.8998 45.5C26.5998 45.5 26.3998 45.3 26.1998 45.1L25.7998 45.4C26.0998 45.7 26.4998 45.9 26.8998 45.9C27.4998 45.9 27.8998 45.5 27.8998 45C27.9998 44.5 27.6998 44.2 27.0998 44.1Z" fill="white"/>
<path d="M30.6001 43.2988C30.9001 43.2988 31.1001 43.3988 31.4001 43.6988L31.8001 43.3988C31.5001 42.9988 31.1001 42.7988 30.6001 42.7988C29.7001 42.7988 29.1001 43.4988 29.1001 44.2988C29.1001 45.1988 29.7001 45.7988 30.6001 45.7988C31.1001 45.7988 31.6001 45.4988 31.8001 45.1988L31.4001 44.8988C31.2001 45.0988 31.1001 45.2988 30.6001 45.2988C30.1001 45.2988 29.7001 44.8988 29.7001 44.2988C29.6001 43.7988 30.0001 43.2988 30.6001 43.2988Z" fill="white"/>
<path d="M33.7001 42.8984L32.6001 45.7984H33.2001L33.5001 45.0984H34.6001L34.9001 45.7984H35.5001L34.4001 42.8984H33.7001ZM33.5001 44.5984L33.9001 43.4984L34.3001 44.5984H33.5001Z" fill="white"/>
<path d="M35.7998 42.8984V43.3984H36.7998V45.7984H37.2998V43.3984H38.2998V42.8984H35.7998Z" fill="white"/>
<path d="M52.1999 43.3988C52.3999 43.3988 52.4999 43.2988 52.4999 43.0988C52.4999 42.8988 52.3999 42.7988 52.1999 42.7988C51.9999 42.7988 51.8999 42.8988 51.8999 43.0988C51.8999 43.1988 52.0999 43.3988 52.1999 43.3988Z" fill="white"/>
<path d="M51.4001 43.3988C51.6001 43.3988 51.7001 43.2988 51.7001 43.0988C51.7001 42.8988 51.6001 42.7988 51.4001 42.7988C51.2001 42.7988 51.1001 42.8988 51.1001 43.0988C51.1001 43.1988 51.2001 43.3988 51.4001 43.3988Z" fill="white"/>
<path d="M61.2002 43.7988H60.2002V45.3988H58.8002V43.7988H58.3002V45.3988H57.6002V43.9988H57.0002V45.2988H56.3002V43.6988H55.8002V45.2988H52.6002V43.6988H51.6002C51.0002 43.6988 50.6002 44.1988 50.6002 44.6988C50.6002 44.8988 50.7002 45.0988 50.8002 45.1988H49.2002V44.6988C49.2002 44.0988 48.7002 43.6988 48.2002 43.6988H47.0002C46.8002 43.6988 46.7002 43.6988 46.5002 43.7988V42.7988H46.0002V44.6988V45.1988H45.2002V45.6988H61.3002C61.9002 45.6988 62.3002 45.1988 62.3002 44.6988C62.3002 44.1988 61.8002 43.7988 61.2002 43.7988ZM51.1002 44.7988C51.1002 44.4988 51.3002 44.2988 51.6002 44.2988H52.0002V45.3988H51.6002C51.4002 45.2988 51.1002 45.0988 51.1002 44.7988ZM46.4002 44.7988C46.4002 44.4988 46.6002 44.2988 46.9002 44.2988H48.0002C48.3002 44.2988 48.5002 44.4988 48.5002 44.7988V45.2988H46.3002V44.7988H46.4002ZM61.1002 45.2988H60.7002V44.1988H61.1002C61.4002 44.1988 61.6002 44.3988 61.6002 44.6988C61.6002 44.9988 61.4002 45.2988 61.1002 45.2988Z" fill="white"/>
</svg>
