<svg width="19" height="24" viewBox="0 0 19 24" fill="none" xmlns="http://www.w3.org/2000/svg">
<path fill-rule="evenodd" clip-rule="evenodd" d="M2.73003 21.2196C2.73003 20.3696 2.73003 18.4696 2.73003 17.6096C2.73003 17.1096 2.78003 16.7396 2.55003 16.3896C2.12003 15.7296 1.14003 15.7396 0.710031 16.3596C0.460031 16.7196 0.500032 17.0496 0.500032 17.5696C0.500032 18.4996 0.500032 20.2796 0.500032 21.2096V21.2496C0.500032 22.4796 1.49003 23.4696 2.72003 23.4696H16.26C17.49 23.4696 18.48 22.4696 18.48 21.2496C18.48 20.3196 18.48 18.5396 18.48 17.6096C18.48 17.1096 18.53 16.7696 18.3 16.3996C18.13 16.1296 17.82 15.8996 17.38 15.8996C16.95 15.8996 16.65 16.0896 16.46 16.3496C16.2 16.7096 16.24 17.0596 16.24 17.5696C16.24 18.4296 16.24 20.4196 16.24 21.2296L2.73003 21.2196Z" fill="#C07E47"/>
<path fill-rule="evenodd" clip-rule="evenodd" d="M8.37002 14.3305C8.26002 14.2205 6.16001 12.1105 5.88001 11.8305C5.68001 11.6305 5.49002 11.4305 5.11002 11.4005C4.35002 11.3405 3.81002 11.9005 3.86002 12.6005C3.89002 12.9905 4.09002 13.2005 4.30002 13.4105C5.60002 14.7405 7.22001 16.3505 8.59001 17.7005C9.11001 18.2105 9.74001 18.2905 10.27 17.7905C10.85 17.2405 11.53 16.5205 12.12 15.9405C12.91 15.1705 13.73 14.3405 14.58 13.4805C14.75 13.3105 15 13.1005 15.06 12.7505C15.27 11.6305 14.01 10.8905 13.12 11.7705L10.97 13.9105C10.75 14.1305 10.8 14.0705 10.6 14.2805V2.20048C10.6 1.70048 10.64 1.46048 10.37 1.11048C10.19 0.870484 9.84002 0.650485 9.44002 0.660485C9.05002 0.670485 8.74002 0.880485 8.57002 1.12048C8.32002 1.46048 8.35002 1.74048 8.35002 2.24048C8.35002 3.34048 8.36002 13.7205 8.36002 14.2305L8.37002 14.3305Z" fill="#C07E47"/>
</svg>
