<svg id="Group_83" data-name="Group 83" xmlns="http://www.w3.org/2000/svg" width="17.037" height="17.037" viewBox="0 0 17.037 17.037">
  <path id="Path_148" data-name="Path 148" d="M15,20.037H31.036a.5.5,0,0,0,.5-.5V3.5a.5.5,0,0,0-.5-.5H15a.5.5,0,0,0-.5.5V19.536A.5.5,0,0,0,15,20.037ZM22.517,4V8.011a.5.5,0,1,0,1,0V4h7.015V7.51H25.023a.5.5,0,0,0,0,1h5.512V19.035H15.5V8.512h5.512a.5.5,0,0,0,0-1H15.5V4Z" transform="translate(-14.5 -3)" fill="#df7026"/>
  <path id="Path_149" data-name="Path 149" d="M18.5,20.5v5.512a.5.5,0,0,0,.5.5h5.512a.5.5,0,0,0,.5-.5V20.5a.5.5,0,0,0-.5-.5H19A.5.5,0,0,0,18.5,20.5Zm1,.5h4.51v4.51H19.5Z" transform="translate(-16.496 -11.481)" fill="#df7026"/>
</svg>
