<?xml version="1.0" encoding="utf-8"?>
<!-- Generator: Adobe Illustrator 25.2.1, SVG Export Plug-In . SVG Version: 6.00 Build 0)  -->
<svg version="1.1" id="Layer_1" xmlns="http://www.w3.org/2000/svg" xmlns:xlink="http://www.w3.org/1999/xlink" x="0px" y="0px"
	 viewBox="0 0 24 16" style="enable-background:new 0 0 24 16;" xml:space="preserve">
<style type="text/css">
	.st0{fill-rule:evenodd;clip-rule:evenodd;fill:#C07E47;}
</style>
<path class="st0" d="M18.7,9.5c-0.2,0.2-3,3-3.4,3.4c-0.3,0.3-0.5,0.5-0.6,1c-0.1,1,0.7,1.8,1.6,1.7c0.5,0,0.8-0.3,1.1-0.6
	c1.8-1.8,4-3.9,5.8-5.8c0.7-0.7,0.8-1.6,0.1-2.3c-0.7-0.8-1.7-1.7-2.5-2.5c-1-1.1-2.2-2.2-3.3-3.3c-0.2-0.2-0.5-0.6-1-0.7
	C15,0.1,14,1.8,15.2,3l2.9,2.9c0.3,0.3,0.2,0.2,0.5,0.5H2.3c-0.7,0-1,0-1.5,0.3C0.5,7,0.2,7.5,0.2,8s0.3,0.9,0.6,1.2
	c0.5,0.3,0.8,0.3,1.5,0.3c1.5,0,15.5,0,16.2,0H18.7z"/>
</svg>
