<?xml version="1.0" encoding="utf-8"?>
<!-- Generator: Adobe Illustrator 25.2.1, SVG Export Plug-In . SVG Version: 6.00 Build 0)  -->
<svg version="1.1" id="Layer_1" xmlns="http://www.w3.org/2000/svg" xmlns:xlink="http://www.w3.org/1999/xlink" x="0px" y="0px"
	 viewBox="0 0 28 28" style="enable-background:new 0 0 28 28;" xml:space="preserve">
<style type="text/css">
	.st0{fill:#68BA97;}
</style>
<path class="st0" d="M21,19.6c0.8,0,1.6,0.3,2.3,0.7c1.4-1.7,2.2-3.9,2.2-6.3c0-1.7-0.4-3.3-1.2-4.7C24.9,9,25.4,8.5,25.7,8
	c1,1.8,1.6,3.8,1.6,6c0,2.9-1.1,5.6-2.9,7.7c0.3,0.6,0.5,1.2,0.5,1.9c0,2.2-1.8,4-4,4s-4-1.8-4-4C17,21.4,18.8,19.6,21,19.6z
	 M4.6,10c2.2,0,4,1.8,4,4c0,1.6-0.9,2.9-2.2,3.6c0.5,1.3,1.3,2.5,2.2,3.4c1.7,1.7,3.9,2.7,6.4,2.9c0,0.1,0,0.2,0,0.2
	c0,0.6,0.1,1.2,0.4,1.7c-3.2-0.1-6-1.4-8.1-3.4c-1.2-1.2-2.2-2.7-2.8-4.3c-2.2,0-3.9-1.8-3.9-4C0.6,11.8,2.4,10,4.6,10z M15.6,2.3
	c0.7,0,1.3,0.1,2,0.2c0.7-1.2,2-2,3.4-2c2.2,0,4,1.8,4,4s-1.8,4-4,4s-4-1.8-4-4c0-0.1,0-0.1,0-0.2c-0.4-0.1-0.9-0.1-1.4-0.1
	c-2.7,0-5.2,1.1-7,2.9c-0.5,0.5-1,1.1-1.3,1.7C6.7,8.4,6.1,8.2,5.5,8.1C6,7.2,6.6,6.4,7.3,5.7C9.4,3.6,12.4,2.3,15.6,2.3z"/>
</svg>
