<svg xmlns="http://www.w3.org/2000/svg" width="18.382" height="17.395" viewBox="0 0 18.382 17.395">
  <g id="Expanded" transform="translate(0.182 0.208)">
    <g id="Group_766" data-name="Group 766" transform="translate(0 0)">
      <g id="Group_763" data-name="Group 763" transform="translate(2.252 8.778)">
        <path id="Path_635" data-name="Path 635" d="M19.514,34.259H14.259v-4.88h-3v4.88H6V26.375a.375.375,0,0,1,.751,0v7.133H10.5v-4.88h4.5v4.88h3.754V26.751a.375.375,0,0,1,.751,0Z" transform="translate(-6 -26)" fill="#df7026" stroke="#df7026" stroke-width="0.3"/>
      </g>
      <g id="Group_764" data-name="Group 764">
        <path id="Path_636" data-name="Path 636" d="M17.644,11.77a.374.374,0,0,1-.259-.1L9.009,3.655.635,11.666a.375.375,0,1,1-.519-.542L9.009,2.616,17.9,11.123a.376.376,0,0,1-.259.647Z" transform="translate(0 -2.616)" fill="#df7026" stroke="#df7026" stroke-width="0.3"/>
      </g>
      <g id="Group_765" data-name="Group 765" transform="translate(11.637 1.27)">
        <path id="Path_637" data-name="Path 637" d="M34,9.379A.375.375,0,0,1,33.628,9V6.751H31.375a.375.375,0,0,1,0-.751h3V9A.375.375,0,0,1,34,9.379Z" transform="translate(-31 -6)" fill="#df7026" stroke="#df7026" stroke-width="0.3"/>
      </g>
    </g>
  </g>
</svg>
