<?xml version="1.0" encoding="utf-8"?>
<!-- Generator: Adobe Illustrator 25.2.1, SVG Export Plug-In . SVG Version: 6.00 Build 0)  -->
<svg version="1.1" id="Layer_1" xmlns="http://www.w3.org/2000/svg" xmlns:xlink="http://www.w3.org/1999/xlink" x="0px" y="0px"
	 viewBox="0 0 89 31" style="enable-background:new 0 0 89 31;" xml:space="preserve">
<style type="text/css">
	.st0{fill:#34617A;}
</style>
<path class="st0" d="M4.1,5.7h74.2l-2,2.1H4.1C3.5,7.8,3,8,2.7,8.4C2.3,8.8,2.1,9.3,2.1,9.8V26c0,0.6,0.2,1.1,0.6,1.4
	C3.1,27.8,3.6,28,4.1,28h76.3c0.6,0,1.1-0.2,1.4-0.6c0.4-0.4,0.6-0.9,0.6-1.4V13.7l2.1-2.3V26c0,1.1-0.5,2.2-1.2,2.9
	c-0.7,0.7-1.8,1.2-2.9,1.2H4.1c-1.1,0-2.2-0.5-2.9-1.2C0.5,28.2,0,27.2,0,26V9.8c0-1.1,0.5-2.1,1.2-2.9C2,6.2,3,5.7,4.1,5.7z
	 M88.9,3.7l-3.1-2.9c-0.2-0.2-0.4-0.1-0.6,0l-1.9,2L87,6.3l1.9-2C89,4.1,89,3.8,88.9,3.7z M82.5,3.7L70,17l-0.6,4.4l4.3-0.9
	L86.2,7.1L82.5,3.7z M16.4,21.7l-1.7-2.5c1-0.4,1.6-1.3,1.6-2.4c0-1.7-1.3-2.8-3.3-2.8H9.6v7.7h1.8v-2.1h1.6H13l1.5,2.1H16.4z
	 M14.4,16.8c0,0.8-0.6,1.3-1.6,1.3h-1.5v-2.7h1.5C13.9,15.4,14.4,15.9,14.4,16.8z M19.4,20.2v-1.8H23v-1.4h-3.6v-1.7h4V14h-5.8v7.7
	h6v-1.4H19.4z M30.2,19.9c-0.5,0.2-0.9,0.3-1.4,0.3c-1.5,0-2.5-1-2.5-2.5c0-1.5,1-2.5,2.5-2.5c0.8,0,1.4,0.3,2,0.9l1.1-1.1
	c-0.7-0.9-1.9-1.3-3.2-1.3c-2.5,0-4.2,1.7-4.2,4s1.8,4,4.2,4c1.1,0,2.3-0.3,3.1-1v-3.1h-1.6V19.9z M33.5,21.7h1.8V14h-1.8V21.7z
	 M39.6,21.8c2.2,0,3.3-1.1,3.3-2.4c0-2.8-4.5-1.8-4.5-3.3c0-0.5,0.4-0.9,1.5-0.9c0.7,0,1.4,0.2,2.1,0.6l0.5-1.4
	c-0.7-0.5-1.7-0.7-2.7-0.7c-2.2,0-3.2,1.1-3.2,2.4c0,2.9,4.5,1.9,4.5,3.3c0,0.5-0.4,0.8-1.5,0.8c-0.9,0-1.9-0.3-2.5-0.8l-0.6,1.3
	C37.2,21.4,38.4,21.8,39.6,21.8z M45.6,21.7h1.8v-6.2h2.5V14h-6.7v1.5h2.5V21.7z M52.6,20.2v-1.8h3.6v-1.4h-3.6v-1.7h4V14h-5.8v7.7
	h6v-1.4H52.6z M65,21.7l-1.7-2.5c1-0.4,1.6-1.3,1.6-2.4c0-1.7-1.3-2.8-3.3-2.8h-3.3v7.7H60v-2.1h1.6h0.1l1.5,2.1H65z M63.1,16.8
	c0,0.8-0.5,1.3-1.6,1.3H60v-2.7h1.5C62.5,15.4,63.1,15.9,63.1,16.8z"/>
</svg>
