<svg width="20" height="15" viewBox="0 0 20 15" fill="none" xmlns="http://www.w3.org/2000/svg">
<g clip-path="url(#clip0)">
<path fill-rule="evenodd" clip-rule="evenodd" d="M15.3 8.51371C15.2 8.62252 12.8 11.2339 12.5 11.5604C12.3 11.778 12.1 11.9956 12 12.5397C11.9 13.5189 12.6 14.1718 13.3 14.063C13.7 14.063 14 13.7366 14.2 13.5189C15.7 11.8868 17.5 9.92824 19 8.29609C19.6 7.64324 19.7 6.88157 19.1 6.22871C18.5 5.46705 17.7 4.70538 17 3.94371C16.1 2.96443 15.2 1.98514 14.2 0.897046C14 0.679427 13.8 0.352998 13.4 0.352998C12.2 0.135379 11.3 1.65871 12.3 2.74681L14.7 5.35824C15.1 5.68466 15 5.57586 15.3 5.79347H1.7C1.2 5.79347 0.9 5.79347 0.5 6.1199C0.2 6.33752 0 6.77276 0 7.208C0 7.64324 0.3 8.07847 0.5 8.29609C0.9 8.62252 1.2 8.51371 1.8 8.51371C3 8.51371 14.6 8.51371 15.3 8.51371Z" fill="white"/>
</g>
<defs>
<clipPath id="clip0">
<rect width="19.6" height="13.71" fill="white" transform="translate(0 0.352295)"/>
</clipPath>
</defs>
</svg>
