<?xml version="1.0" encoding="utf-8"?>
<!-- Generator: Adobe Illustrator 25.2.1, SVG Export Plug-In . SVG Version: 6.00 Build 0)  -->
<svg version="1.1" id="Layer_1" xmlns="http://www.w3.org/2000/svg" xmlns:xlink="http://www.w3.org/1999/xlink" x="0px" y="0px"
	 viewBox="0 0 1920 568.3" style="enable-background:new 0 0 1920 568.3;" xml:space="preserve">
<style type="text/css">
	.st0{fill:none;stroke:#FFFFFF;stroke-width:2;stroke-miterlimit:10;}
	.st1{fill:#FFFFFF;}
	.st2{fill:none;stroke:#FFFFFF;stroke-width:3;stroke-linecap:round;stroke-miterlimit:10;stroke-dasharray:12,12;}
</style>
<path id="dots" class="st0" d="M1599,409.4c3.1,0,5.6-2.5,5.6-5.6c0-3.1-2.5-5.6-5.6-5.6c-3.1,0-5.6,2.5-5.6,5.6
	C1593.5,406.9,1596,409.4,1599,409.4z M1405.1,343.6c3.1,0,5.6-2.5,5.6-5.6c0-3.1-2.5-5.6-5.6-5.6s-5.6,2.5-5.6,5.6
	C1399.5,341.1,1402,343.6,1405.1,343.6z M371.2,196c3.1,0,5.6-2.5,5.6-5.6s-2.5-5.6-5.6-5.6c-3.1,0-5.6,2.5-5.6,5.6
	S368.1,196,371.2,196z M769.4,219.9c3.1,0,5.6-2.5,5.6-5.6s-2.5-5.6-5.6-5.6s-5.6,2.5-5.6,5.6S766.3,219.9,769.4,219.9z
	 M600.8,287.1c3.1,0,5.6-2.5,5.6-5.6c0-3.1-2.5-5.6-5.6-5.6s-5.6,2.5-5.6,5.6C595.2,284.6,597.7,287.1,600.8,287.1z M1157,228.5
	c3.1,0,5.6-2.5,5.6-5.6c0-3.1-2.5-5.6-5.6-5.6c-3.1,0-5.6,2.5-5.6,5.6C1151.4,226,1153.9,228.5,1157,228.5z M1220.1,88.5
	c3.1,0,5.6-2.5,5.6-5.6c0-3.1-2.5-5.6-5.6-5.6s-5.6,2.5-5.6,5.6C1214.5,86,1217,88.5,1220.1,88.5z M1193.9,128.4
	c3.1,0,5.6-2.5,5.6-5.6s-2.5-5.6-5.6-5.6c-3.1,0-5.6,2.5-5.6,5.6S1190.8,128.4,1193.9,128.4z M930.3,40.6c3.1,0,5.6-2.5,5.6-5.6
	c0-3.1-2.5-5.6-5.6-5.6s-5.6,2.5-5.6,5.6C924.7,38.1,927.2,40.6,930.3,40.6z"/>
<path id="name" class="st1" d="M489.6,276.1h-3.9v9.4h1.7v-2.7h2.1c2.5,0,4-1.3,4-3.3C493.6,277.4,492,276.1,489.6,276.1z
	 M489.5,281.3h-2v-3.7h2c1.5,0,2.3,0.7,2.3,1.9C491.8,280.6,491,281.3,489.5,281.3z M497.8,278.3c-1.2,0-2.3,0.3-3,0.9l0.7,1.2
	c0.5-0.4,1.4-0.7,2.2-0.7c1.2,0,1.8,0.6,1.8,1.6v0.1h-1.8c-2.2,0-3,0.9-3,2.1c0,1.2,1,2.1,2.7,2.1c1.1,0,1.8-0.3,2.3-1v0.9h1.6v-4.2
	C501.1,279.2,499.9,278.3,497.8,278.3z M497.6,284.4c-0.9,0-1.4-0.4-1.4-1c0-0.5,0.3-1,1.4-1h1.7v0.8
	C499.1,284,498.4,284.4,497.6,284.4z M507.3,278.3c-1,0-1.9,0.3-2.5,1v-0.9h-1.6v7.2h1.7v-3.6c0-1.4,0.8-2.2,2-2.2
	c1.1,0,1.7,0.6,1.7,1.9v3.9h1.7v-4.1C510.3,279.2,509,278.3,507.3,278.3z M515.7,285.6c2.2,0,3.8-1.5,3.8-3.7s-1.6-3.7-3.8-3.7
	c-2.2,0-3.8,1.5-3.8,3.7S513.5,285.6,515.7,285.6z M515.7,284.2c-1.2,0-2.1-0.9-2.1-2.2s0.9-2.2,2.1-2.2c1.2,0,2.1,0.9,2.1,2.2
	S516.9,284.2,515.7,284.2z M522.7,279.4v-1h-1.6v7.2h1.7V282c0-1.5,0.8-2.2,2.1-2.2c0.1,0,0.2,0,0.4,0v-1.6
	C524.1,278.3,523.2,278.6,522.7,279.4z M529.4,278.3c-1.2,0-2.3,0.3-3,0.9l0.7,1.2c0.5-0.4,1.4-0.7,2.2-0.7c1.2,0,1.8,0.6,1.8,1.6
	v0.1h-1.8c-2.2,0-3,0.9-3,2.1c0,1.2,1,2.1,2.7,2.1c1.1,0,1.8-0.3,2.3-1v0.9h1.6v-4.2C532.6,279.2,531.4,278.3,529.4,278.3z
	 M529.1,284.4c-0.9,0-1.4-0.4-1.4-1c0-0.5,0.3-1,1.4-1h1.7v0.8C530.7,284,530,284.4,529.1,284.4z M543.8,278.3
	c-1.1,0-2.1,0.5-2.7,1.2c-0.5-0.8-1.4-1.2-2.4-1.2c-1,0-1.8,0.3-2.3,1v-0.9h-1.6v7.2h1.7v-3.6c0-1.4,0.8-2.1,1.9-2.1
	c1,0,1.6,0.6,1.6,1.9v3.9h1.7v-3.6c0-1.4,0.8-2.1,1.9-2.1c1,0,1.6,0.6,1.6,1.9v3.9h1.7v-4.1C546.7,279.2,545.5,278.3,543.8,278.3z
	 M551.6,278.3c-1.2,0-2.3,0.3-3,0.9l0.7,1.2c0.5-0.4,1.4-0.7,2.2-0.7c1.2,0,1.8,0.6,1.8,1.6v0.1h-1.8c-2.2,0-3,0.9-3,2.1
	c0,1.2,1,2.1,2.7,2.1c1.1,0,1.8-0.3,2.3-1v0.9h1.6v-4.2C554.9,279.2,553.7,278.3,551.6,278.3z M551.4,284.4c-0.9,0-1.4-0.4-1.4-1
	c0-0.5,0.3-1,1.4-1h1.7v0.8C552.9,284,552.2,284.4,551.4,284.4z M571.2,285.5l0-9.4h-1.4l-3.7,6.2l-3.7-6.2h-1.4v9.4h1.7v-6.1
	l3.1,5.1h0.8l3.1-5.1l0,6.2H571.2z M576.3,278.3c-1.2,0-2.3,0.3-3,0.9l0.7,1.2c0.5-0.4,1.4-0.7,2.2-0.7c1.2,0,1.8,0.6,1.8,1.6v0.1
	H576c-2.2,0-3,0.9-3,2.1c0,1.2,1,2.1,2.7,2.1c1.1,0,1.8-0.3,2.3-1v0.9h1.6v-4.2C579.5,279.2,578.3,278.3,576.3,278.3z M576,284.4
	c-0.9,0-1.4-0.4-1.4-1c0-0.5,0.3-1,1.4-1h1.7v0.8C577.6,284,576.8,284.4,576,284.4z M581.7,285.5h1.7v-9.9h-1.7V285.5z M585.5,285.5
	h1.7v-9.9h-1.7V285.5z M1059.9,87.6h1.8l-4.2-9.4h-1.7l-4.2,9.4h1.8l0.9-2.2h4.7L1059.9,87.6z M1054.8,84.1l1.8-4.1l1.8,4.1H1054.8z
	 M1064.9,87.7c2,0,3.2-0.9,3.2-2.2c0-2.8-4.4-1.5-4.4-3c0-0.5,0.5-0.8,1.5-0.8c0.7,0,1.4,0.1,2.1,0.5l0.6-1.3
	c-0.6-0.4-1.7-0.6-2.7-0.6c-1.9,0-3.1,0.9-3.1,2.2c0,2.9,4.4,1.6,4.4,2.9c0,0.5-0.4,0.8-1.5,0.8c-0.9,0-1.9-0.3-2.5-0.7l-0.6,1.3
	C1062.5,87.4,1063.7,87.7,1064.9,87.7z M1076.3,87.8c2.6,0,3.8-1.3,3.8-2.8c0-3.4-5.6-2.1-5.6-4.1c0-0.7,0.6-1.3,2-1.3
	c0.8,0,1.7,0.2,2.6,0.7l0.5-1.4c-0.8-0.5-2-0.8-3.1-0.8c-2.6,0-3.8,1.3-3.8,2.8c0,3.5,5.6,2.2,5.6,4.2c0,0.7-0.6,1.2-2.1,1.2
	c-1.2,0-2.3-0.4-3.1-1l-0.6,1.4C1073.4,87.3,1074.9,87.8,1076.3,87.8z M1087,80.5v3.6c0,1.4-0.8,2.2-2,2.2c-1.1,0-1.7-0.6-1.7-1.9
	v-3.9h-1.7v4.1c0,2.2,1.2,3.2,3.1,3.2c0.9,0,1.8-0.3,2.3-1v0.9h1.6v-7.2H1087z M1090.8,87.6h1.7v-9.9h-1.7V87.6z M1098.9,86.1
	c-0.3,0.2-0.6,0.3-0.9,0.3c-0.6,0-1-0.4-1-1.1v-3.4h1.9v-1.3h-1.9v-1.6h-1.7v1.6h-1.2v1.3h1.2v3.4c0,1.6,0.9,2.4,2.5,2.4
	c0.6,0,1.2-0.2,1.6-0.5L1098.9,86.1z M1103.5,80.4c-1.2,0-2.3,0.3-3,0.9l0.7,1.2c0.5-0.4,1.4-0.7,2.2-0.7c1.2,0,1.8,0.6,1.8,1.6v0.1
	h-1.8c-2.2,0-3,0.9-3,2.1c0,1.2,1,2.1,2.7,2.1c1.1,0,1.8-0.3,2.3-1v0.9h1.6v-4.2C1106.7,81.4,1105.5,80.4,1103.5,80.4z M1103.2,86.5
	c-0.9,0-1.4-0.4-1.4-1c0-0.5,0.3-1,1.4-1h1.7v0.8C1104.8,86.1,1104.1,86.5,1103.2,86.5z M1112.9,80.4c-1,0-1.9,0.3-2.5,1v-0.9h-1.6
	v7.2h1.7V84c0-1.4,0.8-2.2,2-2.2c1.1,0,1.7,0.6,1.7,1.9v3.9h1.7v-4.1C1115.9,81.4,1114.7,80.4,1112.9,80.4z M1131,87.6
	c-0.5,0.5-1,0.8-1.6,0.8c-0.5,0-1-0.2-1.6-0.8c2.1-0.6,3.5-2.4,3.5-4.6c0-2.8-2.1-4.8-5.1-4.8c-2.9,0-5.1,2.1-5.1,4.8
	c0,2.6,1.9,4.6,4.5,4.8c1.4,1.4,2.3,1.9,3.6,1.9c1,0,1.8-0.4,2.5-1.1L1131,87.6z M1123,83c0-1.9,1.4-3.3,3.3-3.3s3.3,1.4,3.3,3.3
	c0,1.9-1.4,3.3-3.3,3.3S1123,84.9,1123,83z M1135.8,80.4c-1.2,0-2.3,0.3-3,0.9l0.7,1.2c0.5-0.4,1.4-0.7,2.2-0.7
	c1.2,0,1.8,0.6,1.8,1.6v0.1h-1.8c-2.2,0-3,0.9-3,2.1c0,1.2,1,2.1,2.7,2.1c1.1,0,1.8-0.3,2.3-1v0.9h1.6v-4.2
	C1139,81.4,1137.8,80.4,1135.8,80.4z M1135.5,86.5c-0.9,0-1.4-0.4-1.4-1c0-0.5,0.3-1,1.4-1h1.7v0.8
	C1137.1,86.1,1136.4,86.5,1135.5,86.5z M1145.2,80.4c-0.9,0-1.7,0.3-2.3,1v-3.7h-1.7v9.9h1.6v-0.9c0.6,0.7,1.4,1,2.4,1
	c2.1,0,3.6-1.4,3.6-3.7C1148.8,81.8,1147.2,80.4,1145.2,80.4z M1145,86.3c-1.2,0-2.1-0.9-2.1-2.2s0.9-2.2,2.1-2.2s2.1,0.9,2.1,2.2
	S1146.2,86.3,1145,86.3z M1153.6,87.7c2.2,0,3.8-1.5,3.8-3.7s-1.6-3.7-3.8-3.7c-2.2,0-3.8,1.5-3.8,3.7S1151.4,87.7,1153.6,87.7z
	 M1153.6,86.3c-1.2,0-2.1-0.9-2.1-2.2s0.9-2.2,2.1-2.2c1.2,0,2.1,0.9,2.1,2.2S1154.8,86.3,1153.6,86.3z M1162.2,87.7
	c2.2,0,3.8-1.5,3.8-3.7s-1.6-3.7-3.8-3.7c-2.2,0-3.8,1.5-3.8,3.7S1160,87.7,1162.2,87.7z M1162.2,86.3c-1.2,0-2.1-0.9-2.1-2.2
	s0.9-2.2,2.1-2.2c1.2,0,2.1,0.9,2.1,2.2S1163.4,86.3,1162.2,86.3z M1169.9,87.7c2,0,3.2-0.9,3.2-2.2c0-2.8-4.4-1.5-4.4-3
	c0-0.5,0.5-0.8,1.5-0.8c0.7,0,1.4,0.1,2.1,0.5l0.6-1.3c-0.6-0.4-1.7-0.6-2.7-0.6c-1.9,0-3.1,0.9-3.1,2.2c0,2.9,4.4,1.6,4.4,2.9
	c0,0.5-0.4,0.8-1.5,0.8c-0.9,0-1.9-0.3-2.5-0.7l-0.6,1.3C1167.5,87.4,1168.7,87.7,1169.9,87.7z M1182.3,78.3h-3.9v9.4h1.7v-2.7h2.1
	c2.5,0,4-1.3,4-3.3C1186.3,79.5,1184.7,78.3,1182.3,78.3z M1182.2,83.5h-2v-3.7h2c1.5,0,2.3,0.7,2.3,1.9S1183.7,83.5,1182.2,83.5z
	 M1191,87.7c2.2,0,3.8-1.5,3.8-3.7s-1.6-3.7-3.8-3.7c-2.2,0-3.8,1.5-3.8,3.7S1188.8,87.7,1191,87.7z M1191,86.3
	c-1.2,0-2.1-0.9-2.1-2.2s0.9-2.2,2.1-2.2c1.2,0,2.1,0.9,2.1,2.2S1192.3,86.3,1191,86.3z M1198.1,81.5v-1h-1.6v7.2h1.7v-3.5
	c0-1.5,0.8-2.2,2.1-2.2c0.1,0,0.2,0,0.4,0v-1.6C1199.4,80.4,1198.5,80.8,1198.1,81.5z M1206.1,86.1c-0.3,0.2-0.6,0.3-0.9,0.3
	c-0.6,0-1-0.4-1-1.1v-3.4h1.9v-1.3h-1.9v-1.6h-1.7v1.6h-1.2v1.3h1.2v3.4c0,1.6,0.9,2.4,2.5,2.4c0.6,0,1.2-0.2,1.6-0.5L1206.1,86.1z
	 M1101.8,125.7l0-9.4h-1.4l-3.7,6.2l-3.7-6.2h-1.4v9.4h1.7v-6.1l3.1,5.1h0.8l3.1-5.1l0,6.2H1101.8z M1109.5,118.5v3.6
	c0,1.4-0.8,2.2-2,2.2c-1.1,0-1.7-0.6-1.7-1.9v-3.9h-1.7v4.1c0,2.2,1.2,3.2,3.1,3.2c0.9,0,1.8-0.3,2.3-1v0.9h1.6v-7.2H1109.5z
	 M1117.2,124.1c-0.3,0.2-0.6,0.3-0.9,0.3c-0.6,0-1-0.4-1-1.1v-3.4h1.9v-1.3h-1.9v-1.6h-1.7v1.6h-1.2v1.3h1.2v3.4
	c0,1.6,0.9,2.4,2.5,2.4c0.6,0,1.2-0.2,1.6-0.5L1117.2,124.1z M1120.6,119.6v-1h-1.6v7.2h1.7v-3.5c0-1.5,0.8-2.2,2.1-2.2
	c0.1,0,0.2,0,0.4,0v-1.6C1122,118.4,1121.1,118.8,1120.6,119.6z M1127.3,118.4c-1.2,0-2.3,0.3-3,0.9l0.7,1.2
	c0.5-0.4,1.4-0.7,2.2-0.7c1.2,0,1.8,0.6,1.8,1.6v0.1h-1.8c-2.2,0-3,0.9-3,2.1c0,1.2,1,2.1,2.7,2.1c1.1,0,1.8-0.3,2.3-1v0.9h1.6v-4.2
	C1130.5,119.4,1129.3,118.4,1127.3,118.4z M1127,124.5c-0.9,0-1.4-0.4-1.4-1c0-0.5,0.3-1,1.4-1h1.7v0.8
	C1128.6,124.2,1127.9,124.5,1127,124.5z M1136.7,118.4c-1,0-1.8,0.3-2.4,0.9v-3.6h-1.7v9.9h1.7V122c0-1.4,0.8-2.2,2-2.2
	c1.1,0,1.7,0.6,1.7,1.9v3.9h1.7v-4.1C1139.7,119.4,1138.5,118.4,1136.7,118.4z M1148.6,125.8c2.6,0,3.8-1.3,3.8-2.8
	c0-3.4-5.6-2.1-5.6-4.1c0-0.7,0.6-1.3,2-1.3c0.8,0,1.7,0.2,2.6,0.7l0.5-1.4c-0.8-0.5-2-0.8-3.1-0.8c-2.6,0-3.8,1.3-3.8,2.8
	c0,3.5,5.6,2.2,5.6,4.2c0,0.7-0.6,1.2-2.1,1.2c-1.2,0-2.3-0.4-3.1-1l-0.6,1.4C1145.7,125.3,1147.2,125.8,1148.6,125.8z
	 M1157.2,125.8c2.2,0,3.8-1.5,3.8-3.7c0-2.1-1.6-3.7-3.8-3.7c-2.2,0-3.8,1.5-3.8,3.7C1153.4,124.2,1155,125.8,1157.2,125.8z
	 M1157.2,124.3c-1.2,0-2.1-0.9-2.1-2.2s0.9-2.2,2.1-2.2c1.2,0,2.1,0.9,2.1,2.2S1158.4,124.3,1157.2,124.3z M1167.9,118.5v3.6
	c0,1.4-0.8,2.2-2,2.2c-1.1,0-1.7-0.6-1.7-1.9v-3.9h-1.7v4.1c0,2.2,1.2,3.2,3.1,3.2c0.9,0,1.8-0.3,2.3-1v0.9h1.6v-7.2H1167.9z
	 M1177.2,118.5v0.9c-0.6-0.7-1.4-1-2.4-1c-2.1,0-3.6,1.4-3.6,3.7c0,2.2,1.5,3.7,3.6,3.7c0.9,0,1.7-0.3,2.3-1v3.5h1.7v-9.8H1177.2z
	 M1175,124.3c-1.2,0-2.1-0.9-2.1-2.2s0.9-2.2,2.1-2.2c1.2,0,2.1,0.9,2.1,2.2S1176.2,124.3,1175,124.3z M833.1,40l0-9.4h-1.4
	l-3.7,6.2l-3.7-6.2h-1.4V40h1.7v-6.1l3.1,5.1h0.8l3.1-5.1l0,6.2H833.1z M838.2,32.7c-1.2,0-2.3,0.3-3,0.9l0.7,1.2
	c0.5-0.4,1.4-0.7,2.2-0.7c1.2,0,1.8,0.6,1.8,1.6v0.1h-1.8c-2.2,0-3,0.9-3,2.1c0,1.2,1,2.1,2.7,2.1c1.1,0,1.8-0.3,2.3-1V40h1.6v-4.2
	C841.5,33.7,840.3,32.7,838.2,32.7z M838,38.9c-0.9,0-1.4-0.4-1.4-1c0-0.5,0.3-1,1.4-1h1.7v0.8C839.5,38.5,838.8,38.9,838,38.9z
	 M845.2,33.9v-1h-1.6V40h1.7v-3.5c0-1.5,0.8-2.2,2.1-2.2c0.1,0,0.2,0,0.4,0v-1.6C846.5,32.7,845.7,33.1,845.2,33.9z M850.1,31.6
	c0.6,0,1.1-0.5,1.1-1c0-0.5-0.5-1-1.1-1c-0.6,0-1.1,0.4-1.1,1S849.5,31.6,850.1,31.6z M848.5,42.7c1.6,0,2.5-1,2.5-2.6v-7.3h-1.7
	v7.3c0,0.8-0.3,1.1-1,1.1c-0.4,0-0.7-0.1-1-0.3l-0.5,1.2C847.3,42.6,847.9,42.7,848.5,42.7z M855.9,32.7c-1.2,0-2.3,0.3-3,0.9
	l0.7,1.2c0.5-0.4,1.4-0.7,2.2-0.7c1.2,0,1.8,0.6,1.8,1.6v0.1h-1.8c-2.2,0-3,0.9-3,2.1c0,1.2,1,2.1,2.7,2.1c1.1,0,1.8-0.3,2.3-1V40
	h1.6v-4.2C859.2,33.7,858,32.7,855.9,32.7z M855.7,38.9c-0.9,0-1.4-0.4-1.4-1c0-0.5,0.3-1,1.4-1h1.7v0.8
	C857.2,38.5,856.5,38.9,855.7,38.9z M865.4,32.7c-1,0-1.9,0.3-2.5,1v-0.9h-1.6V40h1.7v-3.6c0-1.4,0.8-2.2,2-2.2
	c1.1,0,1.7,0.6,1.7,1.9V40h1.7v-4.1C868.4,33.7,867.1,32.7,865.4,32.7z M881,35.1c0.7-0.4,1.2-1.1,1.2-2.1c0-1.5-1.2-2.4-3.5-2.4
	h-4.4V40h4.7c2.4,0,3.7-0.9,3.7-2.5C882.7,36.2,882,35.4,881,35.1z M878.6,32c1.2,0,1.9,0.4,1.9,1.3c0,0.9-0.7,1.3-1.9,1.3h-2.5V32
	H878.6z M878.9,38.6h-2.8v-2.7h2.8c1.3,0,2,0.4,2,1.4S880.2,38.6,878.9,38.6z M891.1,36.4c0-2.2-1.5-3.7-3.6-3.7
	c-2.1,0-3.7,1.5-3.7,3.7s1.6,3.7,4,3.7c1.2,0,2.2-0.4,2.9-1.2l-0.9-1c-0.5,0.5-1.1,0.8-1.9,0.8c-1.2,0-2.1-0.7-2.3-1.7h5.6
	C891.1,36.8,891.1,36.6,891.1,36.4z M887.5,34.1c1.1,0,1.9,0.7,2,1.7h-4.1C885.6,34.8,886.4,34.1,887.5,34.1z M895.3,32.7
	c-1.2,0-2.3,0.3-3,0.9l0.7,1.2c0.5-0.4,1.4-0.7,2.2-0.7c1.2,0,1.8,0.6,1.8,1.6v0.1H895c-2.2,0-3,0.9-3,2.1c0,1.2,1,2.1,2.7,2.1
	c1.1,0,1.8-0.3,2.3-1V40h1.6v-4.2C898.5,33.7,897.3,32.7,895.3,32.7z M895,38.9c-0.9,0-1.4-0.4-1.4-1c0-0.5,0.3-1,1.4-1h1.7v0.8
	C896.6,38.5,895.9,38.9,895,38.9z M904,40.1c1.4,0,2.5-0.6,3.1-1.7l-1.3-0.8c-0.4,0.7-1.1,1-1.8,1c-1.2,0-2.2-0.8-2.2-2.2
	c0-1.4,0.9-2.2,2.2-2.2c0.7,0,1.4,0.3,1.8,1l1.3-0.8c-0.5-1.1-1.7-1.7-3.1-1.7c-2.3,0-3.9,1.5-3.9,3.7S901.8,40.1,904,40.1z
	 M912.5,32.7c-1,0-1.8,0.3-2.4,0.9V30h-1.7V40h1.7v-3.6c0-1.4,0.8-2.2,2-2.2c1.1,0,1.7,0.6,1.7,1.9V40h1.7v-4.1
	C915.5,33.7,914.2,32.7,912.5,32.7z M1279.3,341.5h1.8l-4.2-9.4h-1.7l-4.2,9.4h1.8l0.9-2.2h4.7L1279.3,341.5z M1274.3,338l1.8-4.1
	l1.8,4.1H1274.3z M1282.2,341.5h1.7v-9.9h-1.7V341.5z M1296.5,336.6c0.7-0.4,1.2-1.1,1.2-2.1c0-1.5-1.2-2.4-3.5-2.4h-4.4v9.4h4.7
	c2.4,0,3.7-0.9,3.7-2.5C1298.2,337.8,1297.6,337,1296.5,336.6z M1294.1,333.5c1.2,0,1.9,0.4,1.9,1.3c0,0.9-0.7,1.3-1.9,1.3h-2.5
	v-2.6H1294.1z M1294.5,340.2h-2.8v-2.7h2.8c1.3,0,2,0.4,2,1.4C1296.5,339.7,1295.8,340.2,1294.5,340.2z M1305.2,334.4v3.6
	c0,1.4-0.8,2.2-2,2.2c-1.1,0-1.7-0.6-1.7-1.9v-3.9h-1.7v4.1c0,2.2,1.2,3.2,3.1,3.2c0.9,0,1.8-0.3,2.3-1v0.9h1.6v-7.2H1305.2z
	 M1311.3,341.6c2,0,3.2-0.9,3.2-2.2c0-2.8-4.4-1.5-4.4-3c0-0.5,0.5-0.8,1.5-0.8c0.7,0,1.4,0.1,2,0.5l0.7-1.3
	c-0.7-0.4-1.7-0.6-2.7-0.6c-1.9,0-3.1,0.9-3.1,2.2c0,2.9,4.4,1.6,4.4,2.9c0,0.5-0.4,0.8-1.5,0.8c-0.9,0-1.9-0.3-2.5-0.7l-0.6,1.3
	C1308.9,341.3,1310.1,341.6,1311.3,341.6z M1319.8,339.9c-0.2,0.2-0.6,0.3-0.9,0.3c-0.6,0-1-0.4-1-1.1v-3.4h1.9v-1.3h-1.9v-1.6h-1.7
	v1.6h-1.2v1.3h1.2v3.4c0,1.6,0.9,2.4,2.5,2.4c0.6,0,1.2-0.2,1.6-0.5L1319.8,339.9z M1324.4,334.3c-1.1,0-2.3,0.3-3,0.9l0.7,1.2
	c0.5-0.4,1.4-0.7,2.2-0.7c1.2,0,1.8,0.6,1.8,1.6v0.1h-1.8c-2.2,0-3,0.9-3,2.1c0,1.2,1,2.1,2.7,2.1c1.1,0,1.8-0.3,2.2-1v0.9h1.6v-4.2
	C1327.6,335.3,1326.4,334.3,1324.4,334.3z M1324.1,340.4c-0.9,0-1.4-0.4-1.4-1c0-0.5,0.3-1,1.5-1h1.7v0.8
	C1325.7,340,1325,340.4,1324.1,340.4z M1333.8,334.3c-1,0-1.9,0.3-2.5,1v-0.9h-1.6v7.2h1.7v-3.6c0-1.4,0.8-2.2,2-2.2
	c1.1,0,1.7,0.6,1.7,1.9v3.9h1.7v-4.1C1336.8,335.3,1335.6,334.3,1333.8,334.3z M1346.7,332.1h-3.9v9.4h1.7v-2.7h2.1
	c2.5,0,4-1.3,4-3.3C1350.7,333.4,1349.1,332.1,1346.7,332.1z M1346.6,337.3h-2v-3.7h2c1.5,0,2.3,0.7,2.3,1.9
	C1348.9,336.7,1348.1,337.3,1346.6,337.3z M1354.9,334.3c-1.1,0-2.3,0.3-3,0.9l0.7,1.2c0.5-0.4,1.4-0.7,2.2-0.7
	c1.2,0,1.8,0.6,1.8,1.6v0.1h-1.8c-2.2,0-3,0.9-3,2.1c0,1.2,1,2.1,2.7,2.1c1.1,0,1.8-0.3,2.2-1v0.9h1.6v-4.2
	C1358.2,335.3,1357,334.3,1354.9,334.3z M1354.7,340.4c-0.9,0-1.4-0.4-1.4-1c0-0.5,0.3-1,1.5-1h1.7v0.8
	C1356.2,340,1355.5,340.4,1354.7,340.4z M1360.3,341.5h1.7v-9.9h-1.7V341.5z M1366.9,334.3c-1.1,0-2.3,0.3-3,0.9l0.7,1.2
	c0.5-0.4,1.4-0.7,2.2-0.7c1.2,0,1.8,0.6,1.8,1.6v0.1h-1.8c-2.2,0-3,0.9-3,2.1c0,1.2,1,2.1,2.7,2.1c1.1,0,1.8-0.3,2.2-1v0.9h1.6v-4.2
	C1370.2,335.3,1369,334.3,1366.9,334.3z M1366.7,340.4c-0.9,0-1.4-0.4-1.4-1c0-0.5,0.3-1,1.4-1h1.7v0.8
	C1368.2,340,1367.5,340.4,1366.7,340.4z M1375.7,341.6c1.4,0,2.5-0.6,3.1-1.7l-1.3-0.8c-0.4,0.7-1.1,1-1.8,1c-1.2,0-2.2-0.8-2.2-2.2
	c0-1.4,0.9-2.2,2.2-2.2c0.7,0,1.4,0.3,1.8,1l1.3-0.8c-0.5-1.1-1.7-1.7-3.1-1.7c-2.3,0-3.9,1.5-3.9,3.7S1373.4,341.6,1375.7,341.6z
	 M1386.8,338c0-2.2-1.5-3.7-3.6-3.7c-2.1,0-3.7,1.5-3.7,3.7c0,2.1,1.6,3.7,4,3.7c1.2,0,2.2-0.4,2.9-1.2l-0.9-1
	c-0.5,0.5-1.1,0.8-1.9,0.8c-1.2,0-2.1-0.7-2.3-1.7h5.6C1386.8,338.3,1386.8,338.1,1386.8,338z M1383.2,335.6c1.1,0,1.9,0.7,2,1.7
	h-4.1C1381.3,336.3,1382.1,335.6,1383.2,335.6z M1454.5,408.4c2.6,0,3.8-1.3,3.8-2.8c0-3.4-5.6-2.1-5.6-4.1c0-0.7,0.6-1.3,2-1.3
	c0.8,0,1.7,0.2,2.6,0.7l0.6-1.4c-0.8-0.5-2-0.8-3.1-0.8c-2.6,0-3.8,1.3-3.8,2.8c0,3.5,5.6,2.2,5.6,4.2c0,0.7-0.6,1.2-2.1,1.2
	c-1.1,0-2.3-0.4-3.1-1l-0.6,1.4C1451.5,407.9,1453,408.4,1454.5,408.4z M1463.9,401c-1,0-1.8,0.3-2.4,0.9v-3.6h-1.7v9.9h1.7v-3.6
	c0-1.4,0.8-2.2,2-2.2c1.1,0,1.7,0.6,1.7,1.9v3.9h1.7v-4.1C1466.9,402,1465.6,401,1463.9,401z M1471.7,401c-1.1,0-2.3,0.3-3,0.9
	l0.7,1.2c0.5-0.4,1.4-0.7,2.2-0.7c1.2,0,1.8,0.6,1.8,1.6v0.1h-1.8c-2.2,0-3,0.9-3,2.1c0,1.2,1,2.1,2.7,2.1c1.1,0,1.8-0.3,2.2-1v0.9
	h1.6v-4.2C1475,402,1473.8,401,1471.7,401z M1471.5,407.1c-0.9,0-1.4-0.4-1.4-1c0-0.5,0.3-1,1.5-1h1.7v0.8
	C1473,406.8,1472.3,407.1,1471.5,407.1z M1481.2,401c-1,0-1.9,0.3-2.5,1v-0.9h-1.6v7.2h1.7v-3.6c0-1.4,0.8-2.2,2-2.2
	c1.1,0,1.7,0.6,1.7,1.9v3.9h1.7v-4.1C1484.2,402,1482.9,401,1481.2,401z M1491.9,401.1v1c-0.6-0.7-1.5-1-2.5-1c-2,0-3.6,1.4-3.6,3.4
	c0,2.1,1.6,3.5,3.6,3.5c1,0,1.8-0.3,2.4-1v0.4c0,1.4-0.7,2.2-2.3,2.2c-1,0-2-0.3-2.6-0.9l-0.7,1.3c0.8,0.7,2.1,1,3.5,1
	c2.5,0,3.9-1.2,3.9-3.8v-6.1H1491.9z M1489.7,406.5c-1.3,0-2.2-0.8-2.2-2.1c0-1.2,0.9-2,2.2-2c1.3,0,2.2,0.8,2.2,2
	C1491.8,405.7,1490.9,406.5,1489.7,406.5z M1497.3,402.1v-1h-1.6v7.2h1.7v-3.5c0-1.5,0.8-2.2,2.1-2.2c0.1,0,0.2,0,0.4,0V401
	C1498.6,401,1497.8,401.4,1497.3,402.1z M1502.1,399.9c0.6,0,1.1-0.5,1.1-1c0-0.5-0.4-1-1.1-1c-0.6,0-1.1,0.4-1.1,1
	C1501,399.5,1501.5,399.9,1502.1,399.9z M1501.3,408.3h1.7v-7.2h-1.7V408.3z M1504.8,405.2h3.7v-1.4h-3.7V405.2z M1510.4,408.3h6.7
	v-1.5h-4.9v-7.9h-1.7V408.3z M1521.1,401c-1.1,0-2.3,0.3-3,0.9l0.7,1.2c0.5-0.4,1.4-0.7,2.2-0.7c1.2,0,1.8,0.6,1.8,1.6v0.1h-1.8
	c-2.2,0-3,0.9-3,2.1c0,1.2,1,2.1,2.7,2.1c1.1,0,1.8-0.3,2.2-1v0.9h1.6v-4.2C1524.4,402,1523.2,401,1521.1,401z M1520.9,407.1
	c-0.9,0-1.4-0.4-1.4-1c0-0.5,0.3-1,1.5-1h1.7v0.8C1522.4,406.8,1521.7,407.1,1520.9,407.1z M1537.4,408.3h1.8l-4.2-9.4h-1.7
	l-4.2,9.4h1.8l0.9-2.2h4.7L1537.4,408.3z M1532.4,404.7l1.8-4.1l1.8,4.1H1532.4z M1540.3,408.3h1.7v-9.9h-1.7V408.3z M1554.6,398.9
	v3.9h-4.9v-3.9h-1.7v9.4h1.7v-4h4.9v4h1.7v-9.4H1554.6z M1563.9,401.1v3.6c0,1.4-0.8,2.2-2,2.2c-1.1,0-1.7-0.6-1.7-1.9v-3.9h-1.7
	v4.1c0,2.2,1.2,3.2,3.1,3.2c0.9,0,1.8-0.3,2.3-1v0.9h1.6v-7.2H1563.9z M1570,408.3c2,0,3.2-0.9,3.2-2.2c0-2.8-4.4-1.5-4.4-3
	c0-0.5,0.5-0.8,1.5-0.8c0.7,0,1.4,0.1,2,0.5l0.6-1.3c-0.6-0.4-1.7-0.6-2.7-0.6c-1.9,0-3.1,0.9-3.1,2.2c0,2.9,4.4,1.6,4.4,2.9
	c0,0.5-0.4,0.8-1.5,0.8c-0.9,0-1.9-0.3-2.5-0.7l-0.6,1.3C1567.6,408,1568.8,408.3,1570,408.3z M1578.8,401c-1,0-1.9,0.3-2.5,1v-0.9
	h-1.6v7.2h1.7v-3.6c0-1.4,0.8-2.2,2-2.2c1.1,0,1.7,0.6,1.7,1.9v3.9h1.7v-4.1C1581.8,402,1580.5,401,1578.8,401z M274.5,194.4h1.4
	l-4.3-9.4h-1.3l-4.2,9.4h1.4l1-2.3h5L274.5,194.4z M268.9,191l2-4.6l2,4.6H268.9z M278,193.3l4.2-5.2v-0.8h-5.8v1.1h4.1l-4.2,5.2
	v0.8h6v-1.1H278z M286.7,187.2c-1.1,0-2.2,0.3-2.9,0.9l0.5,1c0.5-0.5,1.4-0.8,2.3-0.8c1.3,0,1.9,0.6,1.9,1.7v0.3h-2
	c-2.1,0-2.9,0.9-2.9,2.1c0,1.2,1,2.1,2.6,2.1c1.1,0,1.9-0.4,2.3-1v0.9h1.2v-4.3C289.7,188.2,288.6,187.2,286.7,187.2z M286.4,193.5
	c-1,0-1.6-0.4-1.6-1.2c0-0.6,0.4-1.1,1.6-1.1h2v1C288.1,193,287.3,193.5,286.4,193.5z M292.7,185.9c0.5,0,0.9-0.4,0.9-0.9
	c0-0.5-0.4-0.8-0.9-0.8c-0.5,0-0.9,0.4-0.9,0.8C291.8,185.6,292.2,185.9,292.7,185.9z M292.1,194.4h1.3v-7.1h-1.3V194.4z
	 M299.6,187.2c-1,0-1.9,0.4-2.5,1.1v-3.9h-1.3v9.9h1.2v-1.1c0.6,0.8,1.5,1.2,2.5,1.2c2.1,0,3.6-1.5,3.6-3.6S301.7,187.2,299.6,187.2
	z M299.5,193.3c-1.4,0-2.4-1-2.4-2.5s1-2.5,2.4-2.5c1.4,0,2.4,1,2.4,2.5S300.8,193.3,299.5,193.3z M307.5,187.2
	c-1.1,0-2.2,0.3-2.9,0.9l0.5,1c0.5-0.5,1.4-0.8,2.3-0.8c1.3,0,1.9,0.6,1.9,1.7v0.3h-2c-2.1,0-2.9,0.9-2.9,2.1c0,1.2,1,2.1,2.6,2.1
	c1.1,0,1.9-0.4,2.3-1v0.9h1.2v-4.3C310.5,188.2,309.4,187.2,307.5,187.2z M307.2,193.5c-1,0-1.6-0.4-1.6-1.2c0-0.6,0.4-1.1,1.6-1.1
	h2v1C308.9,193,308.1,193.5,307.2,193.5z M323,189.5c0.7-0.4,1.3-1.1,1.3-2.1c0-1.5-1.2-2.4-3.4-2.4h-4.2v9.4h4.5
	c2.4,0,3.6-0.9,3.6-2.5C324.8,190.6,324.1,189.8,323,189.5z M320.8,186.1c1.4,0,2.1,0.5,2.1,1.5c0,1-0.8,1.5-2.1,1.5H318v-3H320.8z
	 M321.1,193.3H318v-3.1h3.1c1.5,0,2.3,0.5,2.3,1.6C323.4,192.8,322.6,193.3,321.1,193.3z M333.1,190.9c0-2.2-1.5-3.7-3.5-3.7
	c-2.1,0-3.6,1.5-3.6,3.6c0,2.1,1.5,3.6,3.8,3.6c1.2,0,2.2-0.4,2.8-1.2l-0.7-0.8c-0.5,0.6-1.2,0.9-2.1,0.9c-1.4,0-2.4-0.8-2.6-2.1
	h5.8C333.1,191.1,333.1,191,333.1,190.9z M329.6,188.3c1.2,0,2.1,0.8,2.3,2h-4.6C327.4,189.1,328.3,188.3,329.6,188.3z M337.2,187.2
	c-1.1,0-2.2,0.3-2.9,0.9l0.5,1c0.5-0.5,1.4-0.8,2.3-0.8c1.3,0,1.9,0.6,1.9,1.7v0.3h-2c-2.1,0-2.9,0.9-2.9,2.1c0,1.2,1,2.1,2.6,2.1
	c1.1,0,1.9-0.4,2.3-1v0.9h1.2v-4.3C340.3,188.2,339.2,187.2,337.2,187.2z M336.9,193.5c-1,0-1.6-0.4-1.6-1.2c0-0.6,0.4-1.1,1.6-1.1
	h2v1C338.7,193,337.9,193.5,336.9,193.5z M345.8,194.5c1.3,0,2.3-0.5,2.9-1.5l-1-0.6c-0.5,0.7-1.2,1-1.9,1c-1.4,0-2.4-1-2.4-2.5
	c0-1.5,1-2.5,2.4-2.5c0.8,0,1.5,0.3,1.9,1l1-0.6c-0.6-1-1.6-1.5-2.9-1.5c-2.2,0-3.8,1.5-3.8,3.6C342,193,343.6,194.5,345.8,194.5z
	 M354.1,187.2c-1.1,0-2,0.4-2.5,1.1v-3.8h-1.3v9.9h1.3v-3.7c0-1.5,0.9-2.4,2.3-2.4c1.2,0,1.9,0.7,1.9,2.1v3.9h1.3v-4.1
	C357,188.2,355.8,187.2,354.1,187.2z M691.8,219.5c2.9,0,5.1-2,5.1-4.8c0-2.8-2.1-4.8-5.1-4.8s-5.1,2.1-5.1,4.8
	C686.7,217.4,688.9,219.5,691.8,219.5z M691.8,217.9c-1.9,0-3.3-1.4-3.3-3.3c0-1.9,1.4-3.3,3.3-3.3c1.9,0,3.3,1.4,3.3,3.3
	C695.1,216.6,693.7,217.9,691.8,217.9z M701.3,212.1c-1.2,0-2.3,0.3-3,0.9l0.7,1.2c0.5-0.4,1.4-0.7,2.2-0.7c1.2,0,1.8,0.6,1.8,1.6
	v0.1H701c-2.2,0-3,0.9-3,2.1c0,1.2,1,2.1,2.7,2.1c1.1,0,1.8-0.3,2.3-1v0.9h1.6v-4.2C704.5,213.1,703.3,212.1,701.3,212.1z
	 M701,218.2c-0.9,0-1.4-0.4-1.4-1c0-0.5,0.3-1,1.4-1h1.7v0.8C702.6,217.8,701.9,218.2,701,218.2z M708.9,219.4c2,0,3.2-0.9,3.2-2.2
	c0-2.8-4.4-1.5-4.4-3c0-0.5,0.5-0.8,1.5-0.8c0.7,0,1.4,0.1,2.1,0.5l0.6-1.3c-0.6-0.4-1.7-0.6-2.7-0.6c-1.9,0-3.1,0.9-3.1,2.2
	c0,2.9,4.4,1.6,4.4,2.9c0,0.5-0.4,0.8-1.5,0.8c-0.9,0-1.9-0.3-2.5-0.7l-0.6,1.3C706.5,219.1,707.7,219.4,708.9,219.4z M714.4,211
	c0.6,0,1.1-0.5,1.1-1c0-0.5-0.5-1-1.1-1c-0.6,0-1.1,0.4-1.1,1C713.3,210.6,713.8,211,714.4,211z M713.6,219.3h1.7v-7.2h-1.7V219.3z
	 M719.7,219.4c2,0,3.2-0.9,3.2-2.2c0-2.8-4.4-1.5-4.4-3c0-0.5,0.5-0.8,1.5-0.8c0.7,0,1.4,0.1,2.1,0.5l0.6-1.3
	c-0.6-0.4-1.7-0.6-2.7-0.6c-1.9,0-3.1,0.9-3.1,2.2c0,2.9,4.4,1.6,4.4,2.9c0,0.5-0.4,0.8-1.5,0.8c-0.9,0-1.9-0.3-2.5-0.7l-0.6,1.3
	C717.3,219.1,718.5,219.4,719.7,219.4z M738.5,219.3l0-9.4H737l-3.7,6.2l-3.7-6.2h-1.4v9.4h1.7v-6.1l3.1,5.1h0.8l3.1-5.1l0,6.2
	H738.5z M743.6,212.1c-1.2,0-2.3,0.3-3,0.9l0.7,1.2c0.5-0.4,1.4-0.7,2.2-0.7c1.2,0,1.8,0.6,1.8,1.6v0.1h-1.8c-2.2,0-3,0.9-3,2.1
	c0,1.2,1,2.1,2.7,2.1c1.1,0,1.8-0.3,2.3-1v0.9h1.6v-4.2C746.8,213.1,745.6,212.1,743.6,212.1z M743.4,218.2c-0.9,0-1.4-0.4-1.4-1
	c0-0.5,0.3-1,1.4-1h1.7v0.8C744.9,217.8,744.2,218.2,743.4,218.2z M749,219.3h1.7v-9.9H749V219.3z M752.9,219.3h1.7v-9.9h-1.7V219.3
	z M1039.1,227.1c2.6,0,3.8-1.3,3.8-2.8c0-3.4-5.6-2.1-5.6-4.1c0-0.7,0.6-1.3,2-1.3c0.8,0,1.7,0.2,2.6,0.7l0.5-1.4
	c-0.8-0.5-2-0.8-3.1-0.8c-2.6,0-3.8,1.3-3.8,2.8c0,3.5,5.6,2.2,5.6,4.2c0,0.7-0.6,1.2-2.1,1.2c-1.2,0-2.3-0.4-3.1-1l-0.6,1.4
	C1036.1,226.7,1037.6,227.1,1039.1,227.1z M1048.5,219.7c-1,0-1.8,0.3-2.4,0.9V217h-1.7v9.9h1.7v-3.6c0-1.4,0.8-2.2,2-2.2
	c1.1,0,1.7,0.6,1.7,1.9v3.9h1.7v-4.1C1051.5,220.7,1050.2,219.7,1048.5,219.7z M1060.4,223.4c0-2.2-1.5-3.7-3.6-3.7
	c-2.1,0-3.7,1.5-3.7,3.7c0,2.1,1.6,3.7,4,3.7c1.2,0,2.2-0.4,2.9-1.2l-0.9-1c-0.5,0.5-1.1,0.8-1.9,0.8c-1.2,0-2.1-0.7-2.3-1.7h5.6
	C1060.4,223.8,1060.4,223.6,1060.4,223.4z M1056.8,221.1c1.1,0,1.9,0.7,2,1.7h-4.1C1054.9,221.8,1055.7,221.1,1056.8,221.1z
	 M1063.6,220.9v-1h-1.6v7.2h1.7v-3.5c0-1.5,0.8-2.2,2.1-2.2c0.1,0,0.2,0,0.4,0v-1.6C1065,219.7,1064.1,220.1,1063.6,220.9z
	 M1070.3,219.7c-1.2,0-2.3,0.3-3,0.9l0.7,1.2c0.5-0.4,1.4-0.7,2.2-0.7c1.2,0,1.8,0.6,1.8,1.6v0.1h-1.8c-2.2,0-3,0.9-3,2.1
	c0,1.2,1,2.1,2.7,2.1c1.1,0,1.8-0.3,2.3-1v0.9h1.6v-4.2C1073.5,220.7,1072.3,219.7,1070.3,219.7z M1070,225.9c-0.9,0-1.4-0.4-1.4-1
	c0-0.5,0.3-1,1.4-1h1.7v0.8C1071.6,225.5,1070.9,225.9,1070,225.9z M1079.5,225.4c-0.3,0.2-0.6,0.3-0.9,0.3c-0.6,0-1-0.4-1-1.1v-3.4
	h1.9v-1.3h-1.9v-1.6h-1.7v1.6h-1.2v1.3h1.2v3.4c0,1.6,0.9,2.4,2.5,2.4c0.6,0,1.2-0.2,1.6-0.5L1079.5,225.4z M1084.3,227.1
	c2.2,0,3.8-1.5,3.8-3.7c0-2.1-1.6-3.7-3.8-3.7c-2.2,0-3.8,1.5-3.8,3.7C1080.5,225.5,1082.1,227.1,1084.3,227.1z M1084.3,225.6
	c-1.2,0-2.1-0.9-2.1-2.2c0-1.4,0.9-2.2,2.1-2.2c1.2,0,2.1,0.9,2.1,2.2C1086.5,224.8,1085.6,225.6,1084.3,225.6z M1093.8,219.7
	c-1,0-1.9,0.3-2.5,1v-0.9h-1.6v7.2h1.7v-3.6c0-1.4,0.8-2.2,2-2.2c1.1,0,1.7,0.6,1.7,1.9v3.9h1.7v-4.1
	C1096.8,220.7,1095.5,219.7,1093.8,219.7z M1107.2,227.1c2.9,0,5.1-2,5.1-4.8c0-2.8-2.1-4.8-5.1-4.8c-2.9,0-5.1,2.1-5.1,4.8
	C1102.1,225.1,1104.3,227.1,1107.2,227.1z M1107.2,225.6c-1.9,0-3.3-1.4-3.3-3.3c0-1.9,1.4-3.3,3.3-3.3s3.3,1.4,3.3,3.3
	C1110.5,224.2,1109.1,225.6,1107.2,225.6z M1122.9,219.7c-1.1,0-2.1,0.5-2.7,1.2c-0.5-0.8-1.4-1.2-2.4-1.2c-1,0-1.8,0.3-2.3,1v-0.9
	h-1.6v7.2h1.7v-3.6c0-1.4,0.8-2.1,1.9-2.1c1,0,1.6,0.6,1.6,1.9v3.9h1.7v-3.6c0-1.4,0.8-2.1,1.9-2.1c1,0,1.6,0.6,1.6,1.9v3.9h1.7
	v-4.1C1125.9,220.7,1124.7,219.7,1122.9,219.7z M1130.8,219.7c-1.2,0-2.3,0.3-3,0.9l0.7,1.2c0.5-0.4,1.4-0.7,2.2-0.7
	c1.2,0,1.8,0.6,1.8,1.6v0.1h-1.8c-2.2,0-3,0.9-3,2.1c0,1.2,1,2.1,2.7,2.1c1.1,0,1.8-0.3,2.3-1v0.9h1.6v-4.2
	C1134,220.7,1132.8,219.7,1130.8,219.7z M1130.5,225.9c-0.9,0-1.4-0.4-1.4-1c0-0.5,0.3-1,1.4-1h1.7v0.8
	C1132.1,225.5,1131.3,225.9,1130.5,225.9z M1140.2,219.7c-1,0-1.9,0.3-2.5,1v-0.9h-1.6v7.2h1.7v-3.6c0-1.4,0.8-2.2,2-2.2
	c1.1,0,1.7,0.6,1.7,1.9v3.9h1.7v-4.1C1143.2,220.7,1141.9,219.7,1140.2,219.7z M415,344.4l0-6.7l-3.3,5.5h-1.2l-3.3-5.4v6.6h-2.4
	v-11.2h2.1l4.2,7l4.1-7h2.1l0,11.2H415z M425.1,344.6c-1.6,0-2.8-0.4-3.7-1.3c-0.9-0.9-1.3-2.1-1.3-3.8v-6.3h2.6v6.2
	c0,2,0.8,3,2.5,3c0.8,0,1.4-0.2,1.9-0.7c0.4-0.5,0.6-1.3,0.6-2.3v-6.2h2.6v6.3c0,1.6-0.4,2.9-1.3,3.8
	C427.9,344.2,426.7,344.6,425.1,344.6z M436.4,344.6c-0.9,0-1.7-0.1-2.6-0.4c-0.8-0.2-1.5-0.6-2-0.9l0.9-2c0.5,0.4,1.1,0.6,1.7,0.8
	c0.7,0.2,1.3,0.3,2,0.3c0.7,0,1.3-0.1,1.6-0.3c0.4-0.2,0.5-0.5,0.5-0.9c0-0.3-0.1-0.5-0.3-0.7c-0.2-0.2-0.5-0.3-0.8-0.4
	c-0.3-0.1-0.8-0.2-1.3-0.4c-0.9-0.2-1.6-0.4-2.1-0.6c-0.5-0.2-1-0.5-1.4-1c-0.4-0.4-0.6-1-0.6-1.8c0-0.7,0.2-1.2,0.5-1.8
	c0.4-0.5,0.9-1,1.6-1.3c0.7-0.3,1.6-0.5,2.6-0.5c0.7,0,1.4,0.1,2.1,0.3c0.7,0.2,1.3,0.4,1.8,0.7l-0.8,2c-1-0.6-2.1-0.9-3.1-0.9
	c-0.7,0-1.3,0.1-1.6,0.4c-0.3,0.2-0.5,0.5-0.5,0.9s0.2,0.7,0.6,0.9c0.4,0.2,1,0.4,1.8,0.5c0.9,0.2,1.6,0.4,2.1,0.6
	c0.5,0.2,1,0.5,1.4,1c0.4,0.4,0.6,1,0.6,1.8c0,0.6-0.2,1.2-0.5,1.8c-0.4,0.5-0.9,0.9-1.6,1.2C438.3,344.4,437.4,344.6,436.4,344.6z
	 M448.3,344.6c-1.1,0-2.2-0.2-3.1-0.7c-0.9-0.5-1.6-1.2-2.2-2.1c-0.5-0.9-0.8-1.9-0.8-3c0-1.1,0.3-2.1,0.8-3
	c0.5-0.9,1.3-1.6,2.2-2.1c0.9-0.5,2-0.8,3.1-0.8c1,0,1.8,0.2,2.6,0.5c0.8,0.3,1.5,0.8,2,1.5l-1.7,1.5c-0.8-0.9-1.7-1.3-2.8-1.3
	c-0.7,0-1.3,0.2-1.9,0.5c-0.5,0.3-1,0.7-1.3,1.3c-0.3,0.5-0.4,1.2-0.4,1.9c0,0.7,0.1,1.3,0.4,1.9c0.3,0.5,0.7,1,1.3,1.3
	c0.5,0.3,1.2,0.4,1.9,0.4c1.1,0,2.1-0.4,2.8-1.3l1.7,1.5c-0.5,0.7-1.2,1.1-2,1.5C450.1,344.4,449.3,344.6,448.3,344.6z M461.8,342
	h-5.2l-1,2.4H453l5-11.2h2.6l5,11.2h-2.7L461.8,342z M461,340l-1.8-4.3l-1.8,4.3H461z M468.5,335.3h-3.6v-2.1h9.8v2.1H471v9.1h-2.6
	V335.3z"/>
<path class="st2" d="M1247.8,138.9c0,0-37,352.4,349.8,343.8"/>
<path class="st2" d="M1636.9,437.1c-22.9-374.2-346-311.6-346-311.6"/>
<path class="st2" d="M124.1,240.2c0,0,607.3,101.1,1126.7-102.6"/>
<path id="car" class="st1" d="M933.6,240.3c-0.7-0.9-1.8-0.8-2.4-0.9c-0.6,0-2.9,0.3-2.9,0.3c-0.9,0.1-2.6,0.4-3.7,0.7
	c-0.2-0.3-0.9-1-1-1.1c0-0.1-0.2-0.2-0.4-0.2c-0.2,0-0.2,0.1-0.1,0.2c0,0.1,0.5,1,0.6,1.2c-0.1,0-0.2,0-0.2,0s-10.3,1.5-11.7,1.8
	c-1.4,0.3-4,0.6-4.8,1.2c-0.9,0.5-1.3,0.8-1.4,2.3c0,0,0,2,0.3,3.7c0.2,1.7,0.9,3.6,0.9,3.6c0.6,1.4,1.1,1.6,2,1.9
	c0.9,0.3,3.5-0.2,4.9-0.4c1.4-0.2,11.7-2.2,11.7-2.2s0.1,0,0.2,0c0,0.3-0.2,1.3-0.2,1.4s0,0.2,0.2,0.1c0.2,0,0.3-0.2,0.4-0.3
	c0.1-0.1,0.4-1,0.6-1.3c1.1-0.1,2.9-0.4,3.7-0.5c0,0,2.2-0.4,2.8-0.7c0.6-0.2,1.6-0.5,2-1.6c0.3-0.7,0.7-2.5,0.3-4.8
	C935,242.4,934,240.8,933.6,240.3z M913.7,250.1c0.4,1.4,0.9,1.7,1.3,1.8c0.3,0.1-0.1,0.3-0.1,0.3s-1.9,0.4-2.9,0.5
	c-0.9,0.2-1.3-0.5-1.5-1c-0.2-0.5-0.6-1.8-0.8-2.9c-0.2-1.1-0.2-2.4-0.2-3c0.1-0.5,0.2-1.2,1.2-1.3c1-0.1,2.9-0.4,2.9-0.4
	s0.4,0,0.2,0.2c-0.3,0.2-0.8,0.6-0.7,2.1C913.2,247.8,913.4,248.7,913.7,250.1z M928.5,249.1c-0.4,1.2-0.6,1.6-1.3,1.8
	c-0.6,0.1-3,0.1-3.5,0c-0.5-0.1-0.9,0-0.8-0.3c0.1-0.3,0.3-2,0-3.9c-0.3-1.9-1.1-3.4-1.3-3.7s0.2-0.4,0.7-0.6c0.4-0.2,2.7-1,3.3-1.1
	c0.7-0.1,1,0.2,1.8,1.3c0.7,1.1,1.1,3.1,1.1,3.1S928.8,247.9,928.5,249.1z"/>
</svg>
