<svg xmlns="http://www.w3.org/2000/svg" viewBox="0 0 1515.8 455.95"><defs><style>.cls-1,.cls-3{fill:none;stroke:#fff;stroke-miterlimit:10;}.cls-1{stroke-width:2px;}.cls-2{fill:#fff;}.cls-3{stroke-linecap:round;stroke-width:3px;stroke-dasharray:12 12;}</style></defs><g id="Layer_2" data-name="Layer 2"><g id="Layer_1-2" data-name="Layer 1"><path id="dots" class="cls-1" d="M1476.4,381a5.6,5.6,0,1,0-5.6-5.6A5.72,5.72,0,0,0,1476.4,381Zm-193.9-65.8a5.6,5.6,0,1,0-5.6-5.6A5.59,5.59,0,0,0,1282.5,315.2ZM248.6,167.6A5.6,5.6,0,1,0,243,162,5.59,5.59,0,0,0,248.6,167.6Zm398.2,23.9a5.6,5.6,0,1,0-5.6-5.6A5.59,5.59,0,0,0,646.8,191.5ZM478.2,258.7a5.6,5.6,0,1,0-5.6-5.6A5.59,5.59,0,0,0,478.2,258.7Zm556.2-58.6a5.6,5.6,0,1,0-5.6-5.6A5.59,5.59,0,0,0,1034.4,200.1Zm63.1-140a5.6,5.6,0,1,0-5.6-5.6A5.59,5.59,0,0,0,1097.5,60.1ZM1071.3,100a5.6,5.6,0,1,0-5.6-5.6A5.59,5.59,0,0,0,1071.3,100ZM807.7,12.2a5.6,5.6,0,1,0-5.6-5.6A5.59,5.59,0,0,0,807.7,12.2Z"/><path id="name" class="cls-2" d="M367,247.7h-3.9v9.4h1.7v-2.7h2.1c2.5,0,4-1.3,4-3.3S369.4,247.7,367,247.7Zm-.1,5.2h-2v-3.7h2c1.5,0,2.3.7,2.3,1.9S368.4,252.9,366.9,252.9Zm8.3-3a4.66,4.66,0,0,0-3,.9l.7,1.2a3.84,3.84,0,0,1,2.2-.7c1.2,0,1.8.6,1.8,1.6v.1h-1.8c-2.2,0-3,.9-3,2.1s1,2.1,2.7,2.1a2.53,2.53,0,0,0,2.3-1v.9h1.6v-4.2C378.5,250.8,377.3,249.9,375.2,249.9ZM375,256c-.9,0-1.4-.4-1.4-1s.3-1,1.4-1h1.7v.8A1.63,1.63,0,0,1,375,256Zm9.7-6.1a3.17,3.17,0,0,0-2.5,1V250h-1.6v7.2h1.7v-3.6a2,2,0,0,1,2-2.2c1.1,0,1.7.6,1.7,1.9v3.9h1.7v-4.1C387.7,250.8,386.4,249.9,384.7,249.9Zm8.4,7.3a3.7,3.7,0,1,0-3.8-3.7A3.6,3.6,0,0,0,393.1,257.2Zm0-1.4a2.2,2.2,0,1,1,2.1-2.2A2.08,2.08,0,0,1,393.1,255.8Zm7-4.8v-1h-1.6v7.2h1.7v-3.6a1.93,1.93,0,0,1,2.1-2.2h.4v-1.6A3.1,3.1,0,0,0,400.1,251Zm6.7-1.1a4.66,4.66,0,0,0-3,.9l.7,1.2a3.84,3.84,0,0,1,2.2-.7c1.2,0,1.8.6,1.8,1.6v.1h-1.8c-2.2,0-3,.9-3,2.1s1,2.1,2.7,2.1a2.53,2.53,0,0,0,2.3-1v.9h1.6v-4.2A3.13,3.13,0,0,0,406.8,249.9Zm-.3,6.1c-.9,0-1.4-.4-1.4-1s.3-1,1.4-1h1.7v.8C408.1,255.6,407.4,256,406.5,256Zm14.7-6.1a3.6,3.6,0,0,0-2.7,1.2,2.73,2.73,0,0,0-2.4-1.2,2.64,2.64,0,0,0-2.3,1V250h-1.6v7.2h1.7v-3.6a1.85,1.85,0,0,1,1.9-2.1c1,0,1.6.6,1.6,1.9v3.9h1.7v-3.6a1.85,1.85,0,0,1,1.9-2.1c1,0,1.6.6,1.6,1.9v3.9h1.7v-4.1C424.1,250.8,422.9,249.9,421.2,249.9Zm7.8,0a4.66,4.66,0,0,0-3,.9l.7,1.2a3.84,3.84,0,0,1,2.2-.7c1.2,0,1.8.6,1.8,1.6v.1h-1.8c-2.2,0-3,.9-3,2.1s1,2.1,2.7,2.1a2.53,2.53,0,0,0,2.3-1v.9h1.6v-4.2C432.3,250.8,431.1,249.9,429,249.9Zm-.2,6.1c-.9,0-1.4-.4-1.4-1s.3-1,1.4-1h1.7v.8A1.63,1.63,0,0,1,428.8,256Zm19.8,1.1v-9.4h-1.4l-3.7,6.2-3.7-6.2h-1.4v9.4h1.7V251l3.1,5.1h.8l3.1-5.1v6.2h1.5Zm5.1-7.2a4.66,4.66,0,0,0-3,.9l.7,1.2a3.84,3.84,0,0,1,2.2-.7c1.2,0,1.8.6,1.8,1.6v.1h-2c-2.2,0-3,.9-3,2.1s1,2.1,2.7,2.1a2.53,2.53,0,0,0,2.3-1v.9H457v-4.2C456.9,250.8,455.7,249.9,453.7,249.9Zm-.3,6.1c-.9,0-1.4-.4-1.4-1s.3-1,1.4-1h1.7v.8A1.56,1.56,0,0,1,453.4,256Zm5.7,1.1h1.7v-9.9h-1.7Zm3.8,0h1.7v-9.9h-1.7ZM937.3,59.2h1.8l-4.2-9.4h-1.7L929,59.2h1.8l.9-2.2h4.7Zm-5.1-3.5,1.8-4.1,1.8,4.1Zm10.1,3.6c2,0,3.2-.9,3.2-2.2,0-2.8-4.4-1.5-4.4-3,0-.5.5-.8,1.5-.8a4.06,4.06,0,0,1,2.1.5l.6-1.3a5.4,5.4,0,0,0-2.7-.6c-1.9,0-3.1.9-3.1,2.2,0,2.9,4.4,1.6,4.4,2.9,0,.5-.4.8-1.5.8a4.9,4.9,0,0,1-2.5-.7l-.6,1.3A4.48,4.48,0,0,0,942.3,59.3Zm11.4.1c2.6,0,3.8-1.3,3.8-2.8,0-3.4-5.6-2.1-5.6-4.1,0-.7.6-1.3,2-1.3a5.36,5.36,0,0,1,2.6.7l.5-1.4a6.21,6.21,0,0,0-3.1-.8c-2.6,0-3.8,1.3-3.8,2.8,0,3.5,5.6,2.2,5.6,4.2,0,.7-.6,1.2-2.1,1.2a5.22,5.22,0,0,1-3.1-1l-.6,1.4A7.4,7.4,0,0,0,953.7,59.4Zm10.7-7.3v3.6a2,2,0,0,1-2,2.2c-1.1,0-1.7-.6-1.7-1.9V52.1H959v4.1c0,2.2,1.2,3.2,3.1,3.2a2.76,2.76,0,0,0,2.3-1v.9H966V52.1Zm3.8,7.1h1.7V49.3h-1.7Zm8.1-1.5a1.61,1.61,0,0,1-.9.3,1,1,0,0,1-1-1.1V53.5h1.9V52.2h-1.9V50.6h-1.7v1.6h-1.2v1.3h1.2v3.4a2.19,2.19,0,0,0,2.5,2.4,2.77,2.77,0,0,0,1.6-.5Zm4.6-5.7a4.66,4.66,0,0,0-3,.9l.7,1.2a3.84,3.84,0,0,1,2.2-.7c1.2,0,1.8.6,1.8,1.6v.1h-1.8c-2.2,0-3,.9-3,2.1s1,2.1,2.7,2.1a2.53,2.53,0,0,0,2.3-1v.9h1.6V55A3.19,3.19,0,0,0,980.9,52Zm-.3,6.1c-.9,0-1.4-.4-1.4-1s.3-1,1.4-1h1.7v.8C982.2,57.7,981.5,58.1,980.6,58.1Zm9.7-6.1a3.17,3.17,0,0,0-2.5,1v-.9h-1.6v7.2h1.7V55.6a2,2,0,0,1,2-2.2c1.1,0,1.7.6,1.7,1.9v3.9h1.7V55.1A2.77,2.77,0,0,0,990.3,52Zm18.1,7.2a2.25,2.25,0,0,1-1.6.8,2.22,2.22,0,0,1-1.6-.8,4.79,4.79,0,0,0-1.6-9.4,4.87,4.87,0,0,0-5.1,4.8,4.74,4.74,0,0,0,4.5,4.8c1.4,1.4,2.3,1.9,3.6,1.9a3.41,3.41,0,0,0,2.5-1.1Zm-8-4.6a3.3,3.3,0,1,1,3.3,3.3A3.21,3.21,0,0,1,1000.4,54.6Zm12.8-2.6a4.66,4.66,0,0,0-3,.9l.7,1.2a3.84,3.84,0,0,1,2.2-.7c1.2,0,1.8.6,1.8,1.6v.1h-1.8c-2.2,0-3,.9-3,2.1s1,2.1,2.7,2.1a2.53,2.53,0,0,0,2.3-1v.9h1.6V55A3.19,3.19,0,0,0,1013.2,52Zm-.3,6.1c-.9,0-1.4-.4-1.4-1s.3-1,1.4-1h1.7v.8C1014.5,57.7,1013.8,58.1,1012.9,58.1Zm9.7-6.1a2.9,2.9,0,0,0-2.3,1V49.3h-1.7v9.9h1.6v-.9a3,3,0,0,0,2.4,1,3.65,3.65,0,0,0,0-7.3Zm-.2,5.9a2.2,2.2,0,1,1,2.1-2.2A2.08,2.08,0,0,1,1022.4,57.9Zm8.6,1.4a3.7,3.7,0,1,0-3.8-3.7A3.6,3.6,0,0,0,1031,59.3Zm0-1.4a2.2,2.2,0,1,1,2.1-2.2A2.08,2.08,0,0,1,1031,57.9Zm8.6,1.4a3.7,3.7,0,1,0-3.8-3.7A3.6,3.6,0,0,0,1039.6,59.3Zm0-1.4a2.2,2.2,0,1,1,2.1-2.2A2.08,2.08,0,0,1,1039.6,57.9Zm7.7,1.4c2,0,3.2-.9,3.2-2.2,0-2.8-4.4-1.5-4.4-3,0-.5.5-.8,1.5-.8a4.06,4.06,0,0,1,2.1.5l.6-1.3a5.4,5.4,0,0,0-2.7-.6c-1.9,0-3.1.9-3.1,2.2,0,2.9,4.4,1.6,4.4,2.9,0,.5-.4.8-1.5.8a4.9,4.9,0,0,1-2.5-.7l-.6,1.3A4.48,4.48,0,0,0,1047.3,59.3Zm12.4-9.4h-3.9v9.4h1.7V56.6h2.1c2.5,0,4-1.3,4-3.3C1063.7,51.1,1062.1,49.9,1059.7,49.9Zm-.1,5.2h-2V51.4h2c1.5,0,2.3.7,2.3,1.9S1061.1,55.1,1059.6,55.1Zm8.8,4.2a3.7,3.7,0,1,0-3.8-3.7A3.6,3.6,0,0,0,1068.4,59.3Zm0-1.4a2.2,2.2,0,1,1,2.1-2.2A2,2,0,0,1,1068.4,57.9Zm7.1-4.8v-1h-1.6v7.2h1.7V55.8a1.93,1.93,0,0,1,2.1-2.2h.4V52A2.81,2.81,0,0,0,1075.5,53.1Zm8,4.6a1.61,1.61,0,0,1-.9.3,1,1,0,0,1-1-1.1V53.5h1.9V52.2h-1.9V50.6h-1.7v1.6h-1.2v1.3h1.2v3.4a2.19,2.19,0,0,0,2.5,2.4,2.77,2.77,0,0,0,1.6-.5ZM979.2,97.3V87.9h-1.4l-3.7,6.2-3.7-6.2H969v9.4h1.7V91.2l3.1,5.1h.8l3.1-5.1v6.2h1.5Zm7.7-7.2v3.6a2,2,0,0,1-2,2.2c-1.1,0-1.7-.6-1.7-1.9V90.1h-1.7v4.1c0,2.2,1.2,3.2,3.1,3.2a2.76,2.76,0,0,0,2.3-1v.9h1.6V90.1Zm7.7,5.6a1.61,1.61,0,0,1-.9.3,1,1,0,0,1-1-1.1V91.5h1.9V90.2h-1.9V88.6H991v1.6h-1.2v1.3H991v3.4a2.19,2.19,0,0,0,2.5,2.4,2.77,2.77,0,0,0,1.6-.5Zm3.4-4.5v-1h-1.6v7.2h1.7V93.9a1.93,1.93,0,0,1,2.1-2.2h.4V90.1A2.61,2.61,0,0,0,998,91.2Zm6.7-1.2a4.66,4.66,0,0,0-3,.9l.7,1.2a3.84,3.84,0,0,1,2.2-.7c1.2,0,1.8.6,1.8,1.6v.1h-1.8c-2.2,0-3,.9-3,2.1s1,2.1,2.7,2.1a2.53,2.53,0,0,0,2.3-1v.9h1.6V93A3.19,3.19,0,0,0,1004.7,90Zm-.3,6.1c-.9,0-1.4-.4-1.4-1s.3-1,1.4-1h1.7v.8C1006,95.8,1005.3,96.1,1004.4,96.1Zm9.7-6.1a3.24,3.24,0,0,0-2.4.9V87.3H1010v9.9h1.7V93.6a2,2,0,0,1,2-2.2c1.1,0,1.7.6,1.7,1.9v3.9h1.7V93.1A2.77,2.77,0,0,0,1014.1,90Zm11.9,7.4c2.6,0,3.8-1.3,3.8-2.8,0-3.4-5.6-2.1-5.6-4.1,0-.7.6-1.3,2-1.3a5.36,5.36,0,0,1,2.6.7l.5-1.4a6.21,6.21,0,0,0-3.1-.8c-2.6,0-3.8,1.3-3.8,2.8,0,3.5,5.6,2.2,5.6,4.2,0,.7-.6,1.2-2.1,1.2a5.22,5.22,0,0,1-3.1-1l-.6,1.4A7.4,7.4,0,0,0,1026,97.4Zm8.6,0a3.6,3.6,0,0,0,3.8-3.7,3.65,3.65,0,0,0-3.8-3.7,3.6,3.6,0,0,0-3.8,3.7A3.65,3.65,0,0,0,1034.6,97.4Zm0-1.5a2.2,2.2,0,1,1,2.1-2.2A2.08,2.08,0,0,1,1034.6,95.9Zm10.7-5.8v3.6a2,2,0,0,1-2,2.2c-1.1,0-1.7-.6-1.7-1.9V90.1h-1.7v4.1c0,2.2,1.2,3.2,3.1,3.2a2.76,2.76,0,0,0,2.3-1v.9h1.6V90.1Zm9.3,0V91a3,3,0,0,0-2.4-1,3.44,3.44,0,0,0-3.6,3.7,3.49,3.49,0,0,0,3.6,3.7,2.9,2.9,0,0,0,2.3-1v3.5h1.7V90.1Zm-2.2,5.8a2.2,2.2,0,1,1,2.1-2.2A2.08,2.08,0,0,1,1052.4,95.9ZM710.5,11.6V2.2h-1.4l-3.7,6.2-3.7-6.2h-1.4v9.4H702V5.5l3.1,5.1h.8L709,5.5v6.2h1.5Zm5.1-7.3a4.66,4.66,0,0,0-3,.9l.7,1.2a3.84,3.84,0,0,1,2.2-.7c1.2,0,1.8.6,1.8,1.6v.1h-1.8c-2.2,0-3,.9-3,2.1s1,2.1,2.7,2.1a2.53,2.53,0,0,0,2.3-1v1h1.6V7.4C718.9,5.3,717.7,4.3,715.6,4.3Zm-.2,6.2c-.9,0-1.4-.4-1.4-1s.3-1,1.4-1h1.7v.8A1.63,1.63,0,0,1,715.4,10.5Zm7.2-5v-1H721v7.1h1.7V8.1a1.93,1.93,0,0,1,2.1-2.2h.4V4.3A2.75,2.75,0,0,0,722.6,5.5Zm4.9-2.3a1.1,1.1,0,0,0,1.1-1,1.1,1.1,0,0,0-1.1-1,1,1,0,0,0-1.1,1A1,1,0,0,0,727.5,3.2Zm-1.6,11.1a2.34,2.34,0,0,0,2.5-2.6V4.4h-1.7v7.3c0,.8-.3,1.1-1,1.1a1.69,1.69,0,0,1-1-.3l-.5,1.2A2.24,2.24,0,0,0,725.9,14.3Zm7.4-10a4.66,4.66,0,0,0-3,.9l.7,1.2a3.84,3.84,0,0,1,2.2-.7c1.2,0,1.8.6,1.8,1.6v.1h-1.8c-2.2,0-3,.9-3,2.1s1,2.1,2.7,2.1a2.53,2.53,0,0,0,2.3-1v1h1.6V7.4C736.6,5.3,735.4,4.3,733.3,4.3Zm-.2,6.2c-.9,0-1.4-.4-1.4-1s.3-1,1.4-1h1.7v.8A1.63,1.63,0,0,1,733.1,10.5Zm9.7-6.2a3.17,3.17,0,0,0-2.5,1V4.4h-1.6v7.2h1.7V8a2,2,0,0,1,2-2.2c1.1,0,1.7.6,1.7,1.9v3.9h1.7V7.5C745.8,5.3,744.5,4.3,742.8,4.3Zm15.6,2.4a2.32,2.32,0,0,0,1.2-2.1c0-1.5-1.2-2.4-3.5-2.4h-4.4v9.4h4.7c2.4,0,3.7-.9,3.7-2.5A2.32,2.32,0,0,0,758.4,6.7ZM756,3.6c1.2,0,1.9.4,1.9,1.3s-.7,1.3-1.9,1.3h-2.5V3.6Zm.3,6.6h-2.8V7.5h2.8c1.3,0,2,.4,2,1.4S757.6,10.2,756.3,10.2ZM768.5,8a3.49,3.49,0,0,0-3.6-3.7A3.57,3.57,0,0,0,761.2,8c0,2.2,1.6,3.7,4,3.7a3.7,3.7,0,0,0,2.9-1.2l-.9-1a2.56,2.56,0,0,1-1.9.8A2.21,2.21,0,0,1,763,8.6h5.6A1.27,1.27,0,0,1,768.5,8Zm-3.6-2.3a1.89,1.89,0,0,1,2,1.7h-4.1A2.06,2.06,0,0,1,764.9,5.7Zm7.8-1.4a4.66,4.66,0,0,0-3,.9l.7,1.2a3.84,3.84,0,0,1,2.2-.7c1.2,0,1.8.6,1.8,1.6v.1h-2c-2.2,0-3,.9-3,2.1s1,2.1,2.7,2.1a2.53,2.53,0,0,0,2.3-1v1H776V7.4A2.94,2.94,0,0,0,772.7,4.3Zm-.3,6.2c-.9,0-1.4-.4-1.4-1s.3-1,1.4-1h1.7v.8C774,10.1,773.3,10.5,772.4,10.5Zm9,1.2a3.34,3.34,0,0,0,3.1-1.7l-1.3-.8a2,2,0,0,1-1.8,1A2.1,2.1,0,0,1,779.2,8a2,2,0,0,1,2.2-2.2,2,2,0,0,1,1.8,1l1.3-.8a3.24,3.24,0,0,0-3.1-1.7A3.63,3.63,0,0,0,777.5,8,3.68,3.68,0,0,0,781.4,11.7Zm8.5-7.4a3.24,3.24,0,0,0-2.4.9V1.6h-1.7v10h1.7V8a2,2,0,0,1,2-2.2c1.1,0,1.7.6,1.7,1.9v3.9h1.7V7.5C792.9,5.3,791.6,4.3,789.9,4.3Zm366.8,308.8h1.8l-4.2-9.4h-1.7l-4.2,9.4h1.8l.9-2.2h4.7Zm-5-3.5,1.8-4.1,1.8,4.1Zm7.9,3.5h1.7v-9.9h-1.7Zm14.3-4.9a2.32,2.32,0,0,0,1.2-2.1c0-1.5-1.2-2.4-3.5-2.4h-4.4v9.4h4.7c2.4,0,3.7-.9,3.7-2.5A2.38,2.38,0,0,0,1173.9,308.2Zm-2.4-3.1c1.2,0,1.9.4,1.9,1.3s-.7,1.3-1.9,1.3H1169v-2.6Zm.4,6.7h-2.8v-2.7h2.8c1.3,0,2,.4,2,1.4C1173.9,311.3,1173.2,311.8,1171.9,311.8Zm10.7-5.8v3.6a2,2,0,0,1-2,2.2c-1.1,0-1.7-.6-1.7-1.9V306h-1.7v4.1c0,2.2,1.2,3.2,3.1,3.2a2.76,2.76,0,0,0,2.3-1v.9h1.6V306Zm6.1,7.2c2,0,3.2-.9,3.2-2.2,0-2.8-4.4-1.5-4.4-3,0-.5.5-.8,1.5-.8a3.51,3.51,0,0,1,2,.5l.7-1.3a5.67,5.67,0,0,0-2.7-.6c-1.9,0-3.1.9-3.1,2.2,0,2.9,4.4,1.6,4.4,2.9,0,.5-.4.8-1.5.8a4.9,4.9,0,0,1-2.5-.7l-.6,1.3A4.48,4.48,0,0,0,1188.7,313.2Zm8.5-1.7a1.4,1.4,0,0,1-.9.3,1,1,0,0,1-1-1.1v-3.4h1.9V306h-1.9v-1.6h-1.7V306h-1.2v1.3h1.2v3.4a2.19,2.19,0,0,0,2.5,2.4,2.77,2.77,0,0,0,1.6-.5Zm4.6-5.6a4.86,4.86,0,0,0-3,.9l.7,1.2a3.84,3.84,0,0,1,2.2-.7c1.2,0,1.8.6,1.8,1.6v.1h-1.8c-2.2,0-3,.9-3,2.1s1,2.1,2.7,2.1a2.25,2.25,0,0,0,2.2-1v.9h1.6v-4.2A3.05,3.05,0,0,0,1201.8,305.9Zm-.3,6.1c-.9,0-1.4-.4-1.4-1s.3-1,1.5-1h1.7v.8A1.68,1.68,0,0,1,1201.5,312Zm9.7-6.1a3.17,3.17,0,0,0-2.5,1V306h-1.6v7.2h1.7v-3.6a2,2,0,0,1,2-2.2c1.1,0,1.7.6,1.7,1.9v3.9h1.7v-4.1C1214.2,306.9,1213,305.9,1211.2,305.9Zm12.9-2.2h-3.9v9.4h1.7v-2.7h2.1c2.5,0,4-1.3,4-3.3S1226.5,303.7,1224.1,303.7Zm-.1,5.2h-2v-3.7h2c1.5,0,2.3.7,2.3,1.9S1225.5,308.9,1224,308.9Zm8.3-3a4.86,4.86,0,0,0-3,.9l.7,1.2a3.84,3.84,0,0,1,2.2-.7c1.2,0,1.8.6,1.8,1.6v.1h-1.8c-2.2,0-3,.9-3,2.1s1,2.1,2.7,2.1a2.25,2.25,0,0,0,2.2-1v.9h1.6v-4.2C1235.6,306.9,1234.4,305.9,1232.3,305.9Zm-.2,6.1c-.9,0-1.4-.4-1.4-1s.3-1,1.5-1h1.7v.8A1.83,1.83,0,0,1,1232.1,312Zm5.6,1.1h1.7v-9.9h-1.7Zm6.6-7.2a4.86,4.86,0,0,0-3,.9l.7,1.2a3.84,3.84,0,0,1,2.2-.7c1.2,0,1.8.6,1.8,1.6v.1h-1.8c-2.2,0-3,.9-3,2.1s1,2.1,2.7,2.1a2.25,2.25,0,0,0,2.2-1v.9h1.6v-4.2C1247.6,306.9,1246.4,305.9,1244.3,305.9Zm-.2,6.1c-.9,0-1.4-.4-1.4-1s.3-1,1.4-1h1.7v.8A1.63,1.63,0,0,1,1244.1,312Zm9,1.2a3.34,3.34,0,0,0,3.1-1.7l-1.3-.8a2,2,0,0,1-1.8,1,2.1,2.1,0,0,1-2.2-2.2,2,2,0,0,1,2.2-2.2,2,2,0,0,1,1.8,1l1.3-.8a3.24,3.24,0,0,0-3.1-1.7,3.71,3.71,0,1,0,0,7.4Zm11.1-3.6a3.49,3.49,0,0,0-3.6-3.7,3.57,3.57,0,0,0-3.7,3.7,4,4,0,0,0,6.9,2.5l-.9-1a2.56,2.56,0,0,1-1.9.8,2.21,2.21,0,0,1-2.3-1.7h5.6A1.76,1.76,0,0,1,1264.2,309.6Zm-3.6-2.4a1.89,1.89,0,0,1,2,1.7h-4.1A2.06,2.06,0,0,1,1260.6,307.2Zm71.3,72.8c2.6,0,3.8-1.3,3.8-2.8,0-3.4-5.6-2.1-5.6-4.1,0-.7.6-1.3,2-1.3a5.36,5.36,0,0,1,2.6.7l.6-1.4a6.21,6.21,0,0,0-3.1-.8c-2.6,0-3.8,1.3-3.8,2.8,0,3.5,5.6,2.2,5.6,4.2,0,.7-.6,1.2-2.1,1.2a5.45,5.45,0,0,1-3.1-1l-.6,1.4A6.26,6.26,0,0,0,1331.9,380Zm9.4-7.4a3.24,3.24,0,0,0-2.4.9v-3.6h-1.7v9.9h1.7v-3.6a2,2,0,0,1,2-2.2c1.1,0,1.7.6,1.7,1.9v3.9h1.7v-4.1A2.81,2.81,0,0,0,1341.3,372.6Zm7.8,0a4.86,4.86,0,0,0-3,.9l.7,1.2a3.84,3.84,0,0,1,2.2-.7c1.2,0,1.8.6,1.8,1.6v.1H1349c-2.2,0-3,.9-3,2.1s1,2.1,2.7,2.1a2.25,2.25,0,0,0,2.2-1v.9h1.6v-4.2C1352.4,373.6,1351.2,372.6,1349.1,372.6Zm-.2,6.1c-.9,0-1.4-.4-1.4-1s.3-1,1.5-1h1.7v.8A1.71,1.71,0,0,1,1348.9,378.7Zm9.7-6.1a3.17,3.17,0,0,0-2.5,1v-.9h-1.6v7.2h1.7v-3.6a2,2,0,0,1,2-2.2c1.1,0,1.7.6,1.7,1.9v3.9h1.7v-4.1C1361.6,373.6,1360.3,372.6,1358.6,372.6Zm10.7.1v1a3.17,3.17,0,0,0-2.5-1,3.45,3.45,0,1,0,0,6.9,3,3,0,0,0,2.4-1v.4c0,1.4-.7,2.2-2.3,2.2a3.74,3.74,0,0,1-2.6-.9l-.7,1.3a5.4,5.4,0,0,0,3.5,1c2.5,0,3.9-1.2,3.9-3.8v-6.1Zm-2.2,5.4a2,2,0,0,1-2.2-2.1,2.21,2.21,0,0,1,4.4,0A2.13,2.13,0,0,1,1367.1,378.1Zm7.6-4.4v-1h-1.6v7.2h1.7v-3.5a1.93,1.93,0,0,1,2.1-2.2h.4v-1.6A2.92,2.92,0,0,0,1374.7,373.7Zm4.8-2.2a1.1,1.1,0,0,0,1.1-1,1.1,1.1,0,1,0-1.1,1Zm-.8,8.4h1.7v-7.2h-1.7Zm3.5-3.1h3.7v-1.4h-3.7Zm5.6,3.1h6.7v-1.5h-4.9v-7.9h-1.7v9.4Zm10.7-7.3a4.86,4.86,0,0,0-3,.9l.7,1.2a3.84,3.84,0,0,1,2.2-.7c1.2,0,1.8.6,1.8,1.6v.1h-1.8c-2.2,0-3,.9-3,2.1s1,2.1,2.7,2.1a2.25,2.25,0,0,0,2.2-1v.9h1.6v-4.2C1401.8,373.6,1400.6,372.6,1398.5,372.6Zm-.2,6.1c-.9,0-1.4-.4-1.4-1s.3-1,1.5-1h1.7v.8A1.71,1.71,0,0,1,1398.3,378.7Zm16.5,1.2h1.8l-4.2-9.4h-1.7l-4.2,9.4h1.8l.9-2.2h4.7Zm-5-3.6,1.8-4.1,1.8,4.1Zm7.9,3.6h1.7V370h-1.7Zm14.3-9.4v3.9h-4.9v-3.9h-1.7v9.4h1.7v-4h4.9v4h1.7v-9.4Zm9.3,2.2v3.6a2,2,0,0,1-2,2.2c-1.1,0-1.7-.6-1.7-1.9v-3.9h-1.7v4.1c0,2.2,1.2,3.2,3.1,3.2a2.76,2.76,0,0,0,2.3-1v.9h1.6v-7.2Zm6.1,7.2c2,0,3.2-.9,3.2-2.2,0-2.8-4.4-1.5-4.4-3,0-.5.5-.8,1.5-.8a3.51,3.51,0,0,1,2,.5l.6-1.3a5.4,5.4,0,0,0-2.7-.6c-1.9,0-3.1.9-3.1,2.2,0,2.9,4.4,1.6,4.4,2.9,0,.5-.4.8-1.5.8a4.9,4.9,0,0,1-2.5-.7l-.6,1.3A5,5,0,0,0,1447.4,379.9Zm8.8-7.3a3.17,3.17,0,0,0-2.5,1v-.9h-1.6v7.2h1.7v-3.6a2,2,0,0,1,2-2.2c1.1,0,1.7.6,1.7,1.9v3.9h1.7v-4.1C1459.2,373.6,1457.9,372.6,1456.2,372.6ZM151.9,166h1.4l-4.3-9.4h-1.3l-4.2,9.4h1.4l1-2.3h5Zm-5.6-3.4,2-4.6,2,4.6Zm9.1,2.3,4.2-5.2v-.8h-5.8V160h4.1l-4.2,5.2v.8h6v-1.1Zm8.7-6.1a4.56,4.56,0,0,0-2.9.9l.5,1a3.37,3.37,0,0,1,2.3-.8c1.3,0,1.9.6,1.9,1.7v.3h-2c-2.1,0-2.9.9-2.9,2.1s1,2.1,2.6,2.1a2.65,2.65,0,0,0,2.3-1v.9h1.2v-4.3A2.66,2.66,0,0,0,164.1,158.8Zm-.3,6.3c-1,0-1.6-.4-1.6-1.2,0-.6.4-1.1,1.6-1.1h2v1A2.09,2.09,0,0,1,163.8,165.1Zm6.3-7.6a.9.9,0,0,0,.9-.9.82.82,0,0,0-.9-.8.88.88,0,0,0-.9.8A.84.84,0,0,0,170.1,157.5Zm-.6,8.5h1.3v-7.1h-1.3Zm7.5-7.2a3.25,3.25,0,0,0-2.5,1.1V156h-1.3v9.9h1.2v-1.1a3,3,0,0,0,2.5,1.2,3.47,3.47,0,0,0,3.6-3.6A3.39,3.39,0,0,0,177,158.8Zm-.1,6.1a2.5,2.5,0,1,1,2.4-2.5A2.39,2.39,0,0,1,176.9,164.9Zm8-6.1a4.56,4.56,0,0,0-2.9.9l.5,1a3.37,3.37,0,0,1,2.3-.8c1.3,0,1.9.6,1.9,1.7v.3h-2c-2.1,0-2.9.9-2.9,2.1s1,2.1,2.6,2.1a2.65,2.65,0,0,0,2.3-1v.9h1.2v-4.3A2.66,2.66,0,0,0,184.9,158.8Zm-.3,6.3c-1,0-1.6-.4-1.6-1.2,0-.6.4-1.1,1.6-1.1h2v1A2.09,2.09,0,0,1,184.6,165.1Zm15.8-4a2.4,2.4,0,0,0,1.3-2.1c0-1.5-1.2-2.4-3.4-2.4h-4.2V166h4.5c2.4,0,3.6-.9,3.6-2.5A2.3,2.3,0,0,0,200.4,161.1Zm-2.2-3.4q2.1,0,2.1,1.5c0,1-.8,1.5-2.1,1.5h-2.8v-3Zm.3,7.2h-3.1v-3.1h3.1c1.5,0,2.3.5,2.3,1.6S200,164.9,198.5,164.9Zm12-2.4a3.55,3.55,0,1,0-7.1-.1,3.52,3.52,0,0,0,3.8,3.6,3.36,3.36,0,0,0,2.8-1.2l-.7-.8a2.58,2.58,0,0,1-2.1.9,2.44,2.44,0,0,1-2.6-2.1h5.8A.37.37,0,0,0,210.5,162.5Zm-3.5-2.6a2.28,2.28,0,0,1,2.3,2h-4.6A2.15,2.15,0,0,1,207,159.9Zm7.6-1.1a4.56,4.56,0,0,0-2.9.9l.5,1a3.37,3.37,0,0,1,2.3-.8c1.3,0,1.9.6,1.9,1.7v.3h-2c-2.1,0-2.9.9-2.9,2.1s1,2.1,2.6,2.1a2.65,2.65,0,0,0,2.3-1v.9h1.2v-4.3C217.7,159.8,216.6,158.8,214.6,158.8Zm-.3,6.3c-1,0-1.6-.4-1.6-1.2,0-.6.4-1.1,1.6-1.1h2v1A1.91,1.91,0,0,1,214.3,165.1Zm8.9,1a3.16,3.16,0,0,0,2.9-1.5l-1-.6a2.28,2.28,0,0,1-1.9,1,2.5,2.5,0,0,1,0-5,2.06,2.06,0,0,1,1.9,1l1-.6a3.16,3.16,0,0,0-2.9-1.5,3.61,3.61,0,1,0,0,7.2Zm8.3-7.3a3,3,0,0,0-2.5,1.1v-3.8h-1.3V166H229v-3.7a2.18,2.18,0,0,1,2.3-2.4c1.2,0,1.9.7,1.9,2.1v3.9h1.3v-4.1A2.83,2.83,0,0,0,231.5,158.8Zm337.7,32.3a4.81,4.81,0,0,0,5.1-4.8,4.76,4.76,0,0,0-5.1-4.8,4.82,4.82,0,0,0-5.1,4.8A4.87,4.87,0,0,0,569.2,191.1Zm0-1.6a3.3,3.3,0,1,1,3.3-3.3A3.15,3.15,0,0,1,569.2,189.5Zm9.5-5.8a4.66,4.66,0,0,0-3,.9l.7,1.2a3.84,3.84,0,0,1,2.2-.7c1.2,0,1.8.6,1.8,1.6v.1h-2c-2.2,0-3,.9-3,2.1s1,2.1,2.7,2.1a2.53,2.53,0,0,0,2.3-1v.9H582v-4.2C581.9,184.7,580.7,183.7,578.7,183.7Zm-.3,6.1c-.9,0-1.4-.4-1.4-1s.3-1,1.4-1h1.7v.8C580,189.4,579.3,189.8,578.4,189.8Zm7.9,1.2c2,0,3.2-.9,3.2-2.2,0-2.8-4.4-1.5-4.4-3,0-.5.5-.8,1.5-.8a4.06,4.06,0,0,1,2.1.5l.6-1.3a5.4,5.4,0,0,0-2.7-.6c-1.9,0-3.1.9-3.1,2.2,0,2.9,4.4,1.6,4.4,2.9,0,.5-.4.8-1.5.8a4.9,4.9,0,0,1-2.5-.7l-.6,1.3A4.48,4.48,0,0,0,586.3,191Zm5.5-8.4a1,1,0,1,0,0-2,1,1,0,1,0,0,2Zm-.8,8.3h1.7v-7.2H591Zm6.1.1c2,0,3.2-.9,3.2-2.2,0-2.8-4.4-1.5-4.4-3,0-.5.5-.8,1.5-.8a4.06,4.06,0,0,1,2.1.5l.6-1.3a5.4,5.4,0,0,0-2.7-.6c-1.9,0-3.1.9-3.1,2.2,0,2.9,4.4,1.6,4.4,2.9,0,.5-.4.8-1.5.8a4.9,4.9,0,0,1-2.5-.7l-.6,1.3A4.48,4.48,0,0,0,597.1,191Zm18.8-.1v-9.4h-1.5l-3.7,6.2-3.7-6.2h-1.4v9.4h1.7v-6.1l3.1,5.1h.8l3.1-5.1V191h1.6Zm5.1-7.2a4.66,4.66,0,0,0-3,.9l.7,1.2a3.84,3.84,0,0,1,2.2-.7c1.2,0,1.8.6,1.8,1.6v.1h-1.8c-2.2,0-3,.9-3,2.1s1,2.1,2.7,2.1a2.53,2.53,0,0,0,2.3-1v.9h1.6v-4.2A3.19,3.19,0,0,0,621,183.7Zm-.2,6.1c-.9,0-1.4-.4-1.4-1s.3-1,1.4-1h1.7v.8A1.63,1.63,0,0,1,620.8,189.8Zm5.6,1.1h1.7V181h-1.7Zm3.9,0H632V181h-1.7Zm286.2,7.8c2.6,0,3.8-1.3,3.8-2.8,0-3.4-5.6-2.1-5.6-4.1,0-.7.6-1.3,2-1.3a5.36,5.36,0,0,1,2.6.7l.5-1.4a6.21,6.21,0,0,0-3.1-.8c-2.6,0-3.8,1.3-3.8,2.8,0,3.5,5.6,2.2,5.6,4.2,0,.7-.6,1.2-2.1,1.2a5.22,5.22,0,0,1-3.1-1l-.6,1.4A6.13,6.13,0,0,0,916.5,198.7Zm9.4-7.4a3.24,3.24,0,0,0-2.4.9v-3.6h-1.7v9.9h1.7v-3.6a2,2,0,0,1,2-2.2c1.1,0,1.7.6,1.7,1.9v3.9h1.7v-4.1A2.81,2.81,0,0,0,925.9,191.3Zm11.9,3.7a3.49,3.49,0,0,0-3.6-3.7,3.57,3.57,0,0,0-3.7,3.7,4,4,0,0,0,6.9,2.5l-.9-1a2.56,2.56,0,0,1-1.9.8,2.21,2.21,0,0,1-2.3-1.7h5.6A1.27,1.27,0,0,1,937.8,195Zm-3.6-2.3a1.89,1.89,0,0,1,2,1.7h-4.1A2.06,2.06,0,0,1,934.2,192.7Zm6.8-.2v-1h-1.6v7.2h1.7v-3.5a1.93,1.93,0,0,1,2.1-2.2h.4v-1.6A2.61,2.61,0,0,0,941,192.5Zm6.7-1.2a4.66,4.66,0,0,0-3,.9l.7,1.2a3.84,3.84,0,0,1,2.2-.7c1.2,0,1.8.6,1.8,1.6v.1h-1.8c-2.2,0-3,.9-3,2.1s1,2.1,2.7,2.1a2.53,2.53,0,0,0,2.3-1v.9h1.6v-4.2A3.19,3.19,0,0,0,947.7,191.3Zm-.3,6.2c-.9,0-1.4-.4-1.4-1s.3-1,1.4-1h1.7v.8C949,197.1,948.3,197.5,947.4,197.5Zm9.5-.5a1.61,1.61,0,0,1-.9.3,1,1,0,0,1-1-1.1v-3.4h1.9v-1.3H955v-1.6h-1.7v1.6h-1.2v1.3h1.2v3.4a2.19,2.19,0,0,0,2.5,2.4,2.77,2.77,0,0,0,1.6-.5Zm4.8,1.7a3.6,3.6,0,0,0,3.8-3.7,3.65,3.65,0,0,0-3.8-3.7,3.6,3.6,0,0,0-3.8,3.7A3.65,3.65,0,0,0,961.7,198.7Zm0-1.5a2.08,2.08,0,0,1-2.1-2.2,2,2,0,0,1,2.1-2.2,2.08,2.08,0,0,1,2.1,2.2A1.93,1.93,0,0,1,961.7,197.2Zm9.5-5.9a3.17,3.17,0,0,0-2.5,1v-.9h-1.6v7.2h1.7V195a2,2,0,0,1,2-2.2c1.1,0,1.7.6,1.7,1.9v3.9h1.7v-4.1C974.2,192.3,972.9,191.3,971.2,191.3Zm13.4,7.4a4.81,4.81,0,0,0,5.1-4.8,4.76,4.76,0,0,0-5.1-4.8,4.87,4.87,0,0,0-5.1,4.8A4.81,4.81,0,0,0,984.6,198.7Zm0-1.5a3.3,3.3,0,1,1,3.3-3.3A3.21,3.21,0,0,1,984.6,197.2Zm15.7-5.9a3.6,3.6,0,0,0-2.7,1.2,2.73,2.73,0,0,0-2.4-1.2,2.64,2.64,0,0,0-2.3,1v-.9h-1.6v7.2H993V195a1.85,1.85,0,0,1,1.9-2.1c1,0,1.6.6,1.6,1.9v3.9h1.7v-3.6a1.85,1.85,0,0,1,1.9-2.1c1,0,1.6.6,1.6,1.9v3.9h1.7v-4.1C1003.3,192.3,1002.1,191.3,1000.3,191.3Zm7.9,0a4.66,4.66,0,0,0-3,.9l.7,1.2a3.84,3.84,0,0,1,2.2-.7c1.2,0,1.8.6,1.8,1.6v.1h-1.8c-2.2,0-3,.9-3,2.1s1,2.1,2.7,2.1a2.53,2.53,0,0,0,2.3-1v.9h1.6v-4.2A3.19,3.19,0,0,0,1008.2,191.3Zm-.3,6.2c-.9,0-1.4-.4-1.4-1s.3-1,1.4-1h1.7v.8A1.56,1.56,0,0,1,1007.9,197.5Zm9.7-6.2a3.17,3.17,0,0,0-2.5,1v-.9h-1.6v7.2h1.7V195a2,2,0,0,1,2-2.2c1.1,0,1.7.6,1.7,1.9v3.9h1.7v-4.1C1020.6,192.3,1019.3,191.3,1017.6,191.3ZM292.4,316v-6.7l-3.3,5.5h-1.2l-3.3-5.4V316h-2.4V304.8h2.1l4.2,7,4.1-7h2.1V316Zm10.1.2a4.92,4.92,0,0,1-3.7-1.3,5,5,0,0,1-1.3-3.8v-6.3h2.6V311c0,2,.8,3,2.5,3a2.49,2.49,0,0,0,1.9-.7,3.71,3.71,0,0,0,.6-2.3v-6.2h2.6v6.3a5.17,5.17,0,0,1-1.3,3.8A5.75,5.75,0,0,1,302.5,316.2Zm11.3,0a7.83,7.83,0,0,1-2.6-.4,7.48,7.48,0,0,1-2-.9l.9-2a5.31,5.31,0,0,0,1.7.8,6.93,6.93,0,0,0,2,.3,3.23,3.23,0,0,0,1.6-.3.87.87,0,0,0,.5-.9.91.91,0,0,0-.3-.7,2,2,0,0,0-.8-.4c-.3-.1-.8-.2-1.3-.4a14.24,14.24,0,0,1-2.1-.6,3.32,3.32,0,0,1-1.4-1,2.44,2.44,0,0,1-.6-1.8,3.74,3.74,0,0,1,.5-1.8,4.17,4.17,0,0,1,1.6-1.3,6.69,6.69,0,0,1,2.6-.5,7.61,7.61,0,0,1,2.1.3,7.51,7.51,0,0,1,1.8.7l-.8,2a6.13,6.13,0,0,0-3.1-.9,2.36,2.36,0,0,0-1.6.4,1.05,1.05,0,0,0-.5.9,1,1,0,0,0,.6.9,5.64,5.64,0,0,0,1.8.5,14.24,14.24,0,0,1,2.1.6,3.32,3.32,0,0,1,1.4,1,2.44,2.44,0,0,1,.6,1.8,4.07,4.07,0,0,1-.5,1.8,4,4,0,0,1-1.6,1.2A4.41,4.41,0,0,1,313.8,316.2Zm11.9,0a6.43,6.43,0,0,1-3.1-.7,6.3,6.3,0,0,1-2.2-2.1,6,6,0,0,1,0-6,5.56,5.56,0,0,1,2.2-2.1,6.5,6.5,0,0,1,3.1-.8,7.08,7.08,0,0,1,2.6.5,4.26,4.26,0,0,1,2,1.5l-1.7,1.5a3.54,3.54,0,0,0-2.8-1.3,4.14,4.14,0,0,0-1.9.5,3.25,3.25,0,0,0-1.3,1.3,3.81,3.81,0,0,0-.4,1.9,4.06,4.06,0,0,0,.4,1.9,3.25,3.25,0,0,0,1.3,1.3,3.81,3.81,0,0,0,1.9.4,3.41,3.41,0,0,0,2.8-1.3l1.7,1.5a5,5,0,0,1-2,1.5A7.08,7.08,0,0,1,325.7,316.2Zm13.5-2.6H334l-1,2.4h-2.6l5-11.2H338l5,11.2h-2.7Zm-.8-2-1.8-4.3-1.8,4.3Zm7.5-4.7h-3.6v-2.1h9.8v2.1h-3.7V316h-2.6v-9.1Z"/><path class="cls-3" d="M1125.2,110.5s-37,352.4,349.8,343.8"/><path class="cls-3" d="M1514.3,408.7c-22.9-374.2-346-311.6-346-311.6"/><path class="cls-3" d="M1.5,211.8S608.8,312.9,1128.2,109.2"/><path id="car" class="cls-2" d="M811,211.9a3.17,3.17,0,0,0-2.4-.9c-.6,0-2.9.3-2.9.3a29.63,29.63,0,0,0-3.7.7,12,12,0,0,0-1-1.1c0-.1-.2-.2-.4-.2s-.2.1-.1.2a13.35,13.35,0,0,0,.6,1.2h-.2s-10.3,1.5-11.7,1.8-4,.6-4.8,1.2a2.21,2.21,0,0,0-1.4,2.3,25,25,0,0,0,.3,3.7,18.6,18.6,0,0,0,.9,3.6,2.67,2.67,0,0,0,2,1.9c.9.3,3.5-.2,4.9-.4s11.7-2.2,11.7-2.2h.2c0,.3-.2,1.3-.2,1.4s0,.2.2.1.3-.2.4-.3.4-1,.6-1.3c1.1-.1,2.9-.4,3.7-.5a18.56,18.56,0,0,0,2.8-.7,2.76,2.76,0,0,0,2-1.6,9.26,9.26,0,0,0,.3-4.8A10.44,10.44,0,0,0,811,211.9Zm-19.9,9.8c.4,1.4.9,1.7,1.3,1.8s-.1.3-.1.3-1.9.4-2.9.5-1.3-.5-1.5-1a18.54,18.54,0,0,1-.8-2.9,17.86,17.86,0,0,1-.2-3c.1-.5.2-1.2,1.2-1.3s2.9-.4,2.9-.4.4,0,.2.2-.8.6-.7,2.1A23.76,23.76,0,0,0,791.1,221.7Zm14.8-1c-.4,1.2-.6,1.6-1.3,1.8a20.44,20.44,0,0,1-3.5,0c-.5-.1-.9,0-.8-.3a11.57,11.57,0,0,0,0-3.9,10.83,10.83,0,0,0-1.3-3.7c-.2-.3.2-.4.7-.6a25.51,25.51,0,0,1,3.3-1.1c.7-.1,1,.2,1.8,1.3a11.39,11.39,0,0,1,1.1,3.1A12,12,0,0,1,805.9,220.7Z"/></g></g></svg>