<svg width="24" height="23" viewBox="0 0 24 23" fill="none" xmlns="http://www.w3.org/2000/svg">
<g clip-path="url(#clip0)">
<path d="M20.0001 5.80469H13.8001C13.7001 5.80469 13.5001 5.80469 13.4001 5.90469L10.6001 7.10469V7.50469H23.2001V7.10469L20.4001 6.00469C20.3001 5.90469 20.2001 5.80469 20.0001 5.80469Z" fill="#656566"/>
<path d="M19.7001 0.404297H14.1001C13.8001 0.404297 13.6001 0.604297 13.6001 0.904297V4.8043C13.6001 5.1043 13.8001 5.3043 14.1001 5.3043H19.7001C20.0001 5.3043 20.2001 5.1043 20.2001 4.8043V0.904297C20.3001 0.604297 20.0001 0.404297 19.7001 0.404297Z" fill="#656566"/>
<path d="M0.6 11.7043H8.4C8.7 11.7043 9 11.4043 9 11.1043V1.0043C9 0.704297 8.7 0.404297 8.4 0.404297H0.6C0.3 0.404297 0 0.704297 0 1.0043V11.2043C0 11.4043 0.3 11.7043 0.6 11.7043ZM8 8.1043C8.2 8.1043 8.3 8.2043 8.3 8.4043V10.4043C8.3 10.6043 8.2 10.7043 8 10.7043C7.8 10.7043 7.7 10.6043 7.7 10.4043V8.4043C7.7 8.2043 7.8 8.1043 8 8.1043Z" fill="#656566"/>
<path d="M0.6 22.2039H8.4C8.7 22.2039 9 21.9039 9 21.6039V13.1039C9 12.8039 8.7 12.5039 8.4 12.5039H0.6C0.3 12.5039 0 12.8039 0 13.1039V21.6039C0 22.0039 0.3 22.2039 0.6 22.2039Z" fill="#656566"/>
<path d="M11.2002 22.2051H22.6002C22.9002 22.2051 23.1002 22.0051 23.1002 21.7051V13.2051C23.1002 12.9051 22.9002 12.7051 22.6002 12.7051H11.2002C10.9002 12.7051 10.7002 12.9051 10.7002 13.2051V21.7051C10.7002 22.0051 10.9002 22.2051 11.2002 22.2051Z" fill="#656566"/>
<path d="M8.0002 13.5039C8.2002 13.5039 8.3002 13.6039 8.3002 13.8039V15.8039C8.3002 16.0039 8.2002 16.1039 8.0002 16.1039C7.8002 16.1039 7.7002 16.0039 7.7002 15.8039V13.8039C7.7002 13.6039 7.8002 13.5039 8.0002 13.5039Z" fill="#656566"/>
<path d="M12.2002 13.7039C12.2002 13.6039 12.3002 13.5039 12.4002 13.5039H21.4002C21.5002 13.5039 21.6002 13.6039 21.6002 13.7039C21.6002 13.8039 21.5002 13.9039 21.4002 13.9039H12.4002C12.3002 13.8039 12.2002 13.7039 12.2002 13.7039Z" fill="#656566"/>
<path d="M12.2998 15.2051H21.3998C21.6998 15.2051 21.8998 15.4051 21.8998 15.7051V20.5051C21.8998 20.8051 21.6998 21.0051 21.3998 21.0051H12.2998C11.9998 21.0051 11.7998 20.8051 11.7998 20.5051V15.7051C11.7998 15.4051 11.9998 15.2051 12.2998 15.2051Z" fill="#656566"/>
<path d="M12.5998 20.6047H21.0998C21.2998 20.6047 21.3998 20.5047 21.3998 20.3047V16.1047C21.3998 15.9047 21.2998 15.8047 21.0998 15.8047H12.5998C12.3998 15.8047 12.2998 15.9047 12.2998 16.1047V20.3047C12.2998 20.5047 12.4998 20.6047 12.5998 20.6047Z" fill="#656566"/>
</g>
<defs>
<clipPath id="clip0">
<rect width="23.2" height="21.8" fill="white" transform="translate(0 0.404297)"/>
</clipPath>
</defs>
</svg>
