<svg width="24" height="16" viewBox="0 0 24 16" fill="none" xmlns="http://www.w3.org/2000/svg">
<g clip-path="url(#clip0)">
<path d="M0.160027 14.8418C-0.129973 14.4018 -0.00997278 13.8118 0.430027 13.5218L2.73003 12.0018C3.88003 11.2418 5.42003 11.3318 6.47003 12.2318L7.39003 13.0118C7.82003 13.3718 8.43003 13.4018 8.88003 13.0718L10.31 12.0418C11.39 11.2618 12.84 11.2518 13.93 12.0118L15.4 13.0418C15.87 13.3718 16.52 13.3218 16.94 12.9218L17.31 12.5718C18.45 11.4718 20.24 11.3918 21.46 12.4018L22.8 13.5118C23.21 13.8518 23.27 14.4518 22.93 14.8518C22.59 15.2618 21.99 15.3218 21.59 14.9818L20.25 13.8718C19.77 13.4818 19.08 13.5118 18.64 13.9318L18.27 14.2818C17.2 15.3218 15.53 15.4518 14.31 14.5918L12.84 13.5618C12.42 13.2618 11.85 13.2718 11.44 13.5718L10.01 14.6018C8.84003 15.4518 7.26003 15.3918 6.16003 14.4518L5.23003 13.6818C4.82003 13.3318 4.23003 13.3018 3.78003 13.5918L1.48003 15.1118C1.04003 15.4018 0.450027 15.2818 0.160027 14.8418Z" fill="#656566"/>
<path d="M0.160027 11.0117C-0.129973 10.5717 -0.00997278 9.98174 0.430027 9.69174L2.73003 8.17174C3.88003 7.41174 5.42003 7.50174 6.47003 8.40174L7.39003 9.18174C7.82003 9.54174 8.43003 9.57174 8.88003 9.24174L10.31 8.21174C11.39 7.43174 12.84 7.42174 13.93 8.18174L15.4 9.21174C15.87 9.54174 16.52 9.49174 16.94 9.09174L17.31 8.74174C18.45 7.64174 20.24 7.56174 21.46 8.57174L22.8 9.68174C23.21 10.0217 23.27 10.6217 22.93 11.0217C22.59 11.4317 21.99 11.4917 21.59 11.1517L20.25 10.0417C19.77 9.65174 19.08 9.68174 18.64 10.1017L18.27 10.4517C17.2 11.4917 15.53 11.6217 14.31 10.7617L12.84 9.73174C12.42 9.43174 11.85 9.44174 11.44 9.74174L10.01 10.7717C8.84003 11.6217 7.26003 11.5617 6.16003 10.6217L5.23003 9.85174C4.82003 9.50174 4.23003 9.47174 3.78003 9.76174L1.48003 11.2817C1.04003 11.5717 0.450027 11.4517 0.160027 11.0117Z" fill="#656566"/>
<path d="M0.160027 7.2715C-0.129973 6.8315 -0.00997278 6.2415 0.430027 5.9515L2.73003 4.4315C3.88003 3.6715 5.42003 3.7615 6.47003 4.6615L7.39003 5.4415C7.82003 5.8015 8.43003 5.8315 8.88003 5.5015L10.31 4.4715C11.39 3.6915 12.84 3.6815 13.93 4.4415L15.4 5.4715C15.87 5.8015 16.52 5.7515 16.94 5.3515L17.31 5.0015C18.45 3.9015 20.24 3.8215 21.46 4.8315L22.8 5.9415C23.21 6.2815 23.27 6.8815 22.93 7.2815C22.6 7.6815 22 7.7415 21.59 7.4115L20.25 6.3015C19.77 5.9115 19.08 5.9415 18.64 6.3615L18.27 6.7115C17.2 7.7515 15.53 7.8815 14.31 7.0215L12.84 5.9915C12.42 5.6915 11.85 5.7015 11.44 6.0015L10.01 7.0315C8.84003 7.9015 7.25003 7.8315 6.15003 6.9015L5.23003 6.1215C4.82003 5.7715 4.23003 5.7415 3.78003 6.0315L1.48003 7.5515C1.04003 7.8415 0.450027 7.7115 0.160027 7.2715Z" fill="#656566"/>
<path d="M0.160027 3.58205C-0.129973 3.14205 -0.00997278 2.55205 0.430027 2.26205L2.73003 0.742051C3.88003 -0.0179495 5.42003 0.0720506 6.47003 0.972051L7.39003 1.75205C7.82003 2.11205 8.43003 2.14205 8.88003 1.81205L10.31 0.782051C11.39 0.00205058 12.84 -0.00794947 13.93 0.752051L15.4 1.78205C15.87 2.11205 16.52 2.06205 16.94 1.66205L17.31 1.31205C18.45 0.21205 20.24 0.132051 21.46 1.14205L22.8 2.25205C23.21 2.59205 23.27 3.19205 22.93 3.59205C22.6 3.99205 22 4.05205 21.59 3.71205L20.25 2.60205C19.77 2.21205 19.08 2.24205 18.64 2.66205L18.27 3.01205C17.2 4.05205 15.53 4.18205 14.31 3.32205L12.84 2.29205C12.42 1.99205 11.85 2.00205 11.44 2.30205L10.01 3.33205C8.84003 4.20205 7.25003 4.14205 6.15003 3.20205L5.23003 2.42205C4.82003 2.07205 4.23003 2.04205 3.78003 2.33205L1.48003 3.85205C1.04003 4.14205 0.450027 4.02205 0.160027 3.58205Z" fill="#656566"/>
</g>
<defs>
<clipPath id="clip0">
<rect width="23.15" height="15.09" fill="white" transform="translate(0 0.181641)"/>
</clipPath>
</defs>
</svg>
