<svg width="30" height="20" viewBox="0 0 30 20" fill="none" xmlns="http://www.w3.org/2000/svg">
<g clip-path="url(#clip0)">
<path d="M21.6402 5.36109L19.6602 9.10109C19.4202 9.55109 18.7702 9.55109 18.5302 9.10109L13.9802 0.521094C13.7402 0.0710937 13.0902 0.0710937 12.8502 0.521094L6.69015 12.1211C6.45015 12.5711 5.80015 12.5711 5.56015 12.1211L4.99015 11.0411C4.75015 10.5911 4.10015 10.5911 3.86015 11.0411L0.0701539 18.2311C-0.149846 18.6711 0.160154 19.1811 0.640154 19.1811H29.0402C29.5202 19.1811 29.8302 18.6711 29.6002 18.2411L22.7702 5.36109C22.5302 4.91109 21.8802 4.91109 21.6402 5.36109ZM13.9802 3.79109L16.2002 7.98109C16.3002 8.17109 16.3002 8.39109 16.2002 8.58109L16.1402 8.69109C15.9002 9.14109 15.2502 9.14109 15.0102 8.69109L13.3502 5.57109L12.4802 7.21109C12.2402 7.66109 11.5902 7.66109 11.3502 7.21109C11.2502 7.02109 11.2502 6.80109 11.3502 6.61109L12.8402 3.80109C13.0902 3.34109 13.7402 3.34109 13.9802 3.79109ZM6.00015 16.7011L9.78015 9.58109C10.0202 9.13109 10.6702 9.13109 10.9102 9.58109L11.3902 10.4811C11.6302 10.9311 12.2802 10.9311 12.5202 10.4811L12.8102 9.93109C13.0502 9.48109 13.7002 9.48109 13.9402 9.93109L15.0002 11.9511C15.2402 12.4011 15.8902 12.4011 16.1302 11.9511L16.6602 10.9611C16.9002 10.5111 17.5502 10.5111 17.7902 10.9611L20.8402 16.7011C21.0702 17.1311 20.7602 17.6411 20.2802 17.6411H6.56015C6.08015 17.6411 5.77015 17.1311 6.00015 16.7011ZM22.7702 8.63109L27.0502 16.7011C27.2802 17.1311 26.9702 17.6411 26.4902 17.6411H23.4502C23.2102 17.6411 23.0002 17.5111 22.8902 17.3011L20.1302 12.0911C20.0302 11.9011 20.0302 11.6811 20.1302 11.4911" fill="#656566"/>
</g>
<defs>
<clipPath id="clip0">
<rect width="29.68" height="19" fill="white" transform="translate(0 0.181641)"/>
</clipPath>
</defs>
</svg>
