<svg width="21" height="23" viewBox="0 0 21 23" fill="none" xmlns="http://www.w3.org/2000/svg">
<g clip-path="url(#clip0)">
<path d="M3.61971 21.2814H2.44971V8.04141C2.44971 7.43141 2.93971 6.94141 3.54971 6.94141H6.10971" stroke="#656566" stroke-width="1.75" stroke-miterlimit="10" stroke-linecap="round"/>
<path d="M16.5199 21.2814H17.6899V8.04141C17.6899 7.43141 17.1999 6.94141 16.5899 6.94141H13.8999" stroke="#656566" stroke-width="1.75" stroke-miterlimit="10" stroke-linecap="round"/>
<path d="M15.0601 3.47109V17.1011H5.08008V3.47109C5.08008 2.86109 5.57008 2.37109 6.18008 2.37109H13.9801C14.5701 2.37109 15.0601 2.86109 15.0601 3.47109Z" fill="#656566"/>
<path d="M5.84008 17.1016H14.3001C14.7201 17.1016 15.0601 17.4416 15.0601 17.8616V21.2816H5.08008V17.8616C5.08008 17.4416 5.42008 17.1016 5.84008 17.1016Z" stroke="#656566" stroke-width="1.6982" stroke-miterlimit="10" stroke-linecap="round"/>
<path d="M0.879883 21.2812H19.2699" stroke="#656566" stroke-width="1.75" stroke-miterlimit="10" stroke-linecap="round"/>
<path d="M7.69971 0.551641V1.74164C7.69971 1.94164 7.85971 2.11164 8.06971 2.11164H12.0797C12.2797 2.11164 12.4497 1.95164 12.4497 1.74164V0.551641C12.4497 0.351641 12.2897 0.181641 12.0797 0.181641H8.06971C7.85971 0.181641 7.69971 0.341641 7.69971 0.551641Z" fill="#656566"/>
<path d="M7.69971 3.82117V5.01117C7.69971 5.21117 7.85971 5.38117 8.06971 5.38117H12.0797C12.2797 5.38117 12.4497 5.22117 12.4497 5.01117V3.82117C12.4497 3.62117 12.2897 3.45117 12.0797 3.45117H8.06971C7.85971 3.45117 7.69971 3.62117 7.69971 3.82117Z" fill="#656566"/>
<path d="M7.69971 7.0907V8.2807C7.69971 8.4807 7.85971 8.6507 8.06971 8.6507H12.0797C12.2797 8.6507 12.4497 8.4907 12.4497 8.2807V7.0907C12.4497 6.8907 12.2897 6.7207 12.0797 6.7207H8.06971C7.85971 6.7207 7.69971 6.8807 7.69971 7.0907Z" fill="#656566"/>
<path d="M7.69971 10.1825V11.3725C7.69971 11.5725 7.85971 11.7425 8.06971 11.7425H12.0797C12.2797 11.7425 12.4497 11.5825 12.4497 11.3725V10.1825C12.4497 9.9825 12.2897 9.8125 12.0797 9.8125H8.06971C7.85971 9.8125 7.69971 9.9825 7.69971 10.1825Z" fill="#656566"/>
</g>
<defs>
<clipPath id="clip0">
<rect width="20.14" height="21.97" fill="white" transform="translate(0 0.181641)"/>
</clipPath>
</defs>
</svg>
