<?xml version="1.0" encoding="UTF-8"?>
<!-- Generator: Adobe Illustrator 25.2.1, SVG Export Plug-In . SVG Version: 6.00 Build 0)  -->
<svg version="1.1" id="Layer_1" xmlns="http://www.w3.org/2000/svg" xmlns:xlink="http://www.w3.org/1999/xlink" x="0px" y="0px" viewBox="0 0 700 700" style="enable-background:new 0 0 700 700;fill: #656566;" xml:space="preserve">
<path d="M560,529.7H245V197.2h26.2c2.3,0,4.5-0.9,6.2-2.6s2.6-3.9,2.6-6.2v-26.2h113.8c2.3,0,4.5,0.9,6.2,2.6  c1.6,1.6,2.6,3.9,2.6,6.2v26.2h-8.8c-11.6,0-22.7,4.6-30.9,12.8c-8.2,8.2-12.8,19.3-12.8,30.9v26.2h-8.8c-4.8,0-8.8,3.9-8.8,8.8v35  c0,2.3,0.9,4.5,2.6,6.2s3.9,2.6,6.2,2.6h175c2.3,0,4.5-0.9,6.2-2.6s2.6-3.9,2.6-6.2v-35c0-2.3-0.9-4.5-2.6-6.2s-3.9-2.6-6.2-2.6  h-8.8v-26.2c0-11.6-4.6-22.7-12.8-30.9c-8.2-8.2-19.3-12.8-30.9-12.8H455v-35c0-13.9-5.5-27.3-15.4-37.1  c-9.8-9.8-23.2-15.4-37.1-15.4H280V83.4c0-2.3-0.9-4.5-2.6-6.2s-3.9-2.6-6.2-2.6H245v-8.8c0-2.3-0.9-4.5-2.6-6.2  c-1.6-1.6-3.9-2.6-6.2-2.6h-52.5c-4.8,0-8.8,3.9-8.8,8.8v463.8h-35c-4.8,0-8.8,3.9-8.8,8.8v52.5c0,2.3,0.9,4.5,2.6,6.2  s3.9,2.6,6.2,2.6h420c2.3,0,4.5-0.9,6.2-2.6s2.6-3.9,2.6-6.2v-52.5c0-2.3-0.9-4.5-2.6-6.2C564.5,530.6,562.3,529.7,560,529.7z   M507.5,302.2H350v-17.5h157.5V302.2z M490,240.9v26.2H367.5v-26.2c0-7,2.8-13.6,7.7-18.6s11.6-7.7,18.6-7.7h70  c7,0,13.6,2.8,18.6,7.7S490,234,490,240.9L490,240.9z M402.5,127.2c9.3,0,18.2,3.7,24.8,10.2c6.6,6.6,10.2,15.5,10.2,24.8v35H420  v-26.2c0-7-2.8-13.6-7.7-18.6c-4.9-4.9-11.6-7.7-18.6-7.7H280v-17.5L402.5,127.2z M262.5,92.2v87.5H245V92.2H262.5z M192.5,74.7h35  v455h-35V74.7z M551.2,582.2H148.8v-35h402.5V582.2z"/>
<path d="M507.5,450.9v-5.2l15-14.9L510,418.5l-11.3,11.4l-11.3-11.4L475,430.9l15,14.9v5.2h-5.2L470,436l-12.4,12.4l11.4,11.3  L457.5,471l12.4,12.4l14.9-15h5.2v5.2l-15,14.9l12.4,12.4l11.3-11.4l11.3,11.4l12.4-12.4l-15-14.9v-5.2h5.2l14.9,15L540,471  l-11.4-11.3l11.4-11.3L527.5,436l-14.9,15H507.5z"/>
<path d="M350,403.6l-15,14.9l12.4,12.4l11.3-11.4l11.3,11.4l12.4-12.4l-15-14.9v-5.2h5.2l14.9,15L400,401l-11.4-11.3l11.4-11.3  L387.5,366l-14.9,15h-5.2v-5.2l15-14.9L370,348.5l-11.3,11.4l-11.3-11.4L335,360.9l15,14.9v5.2h-5.2L330,366l-12.4,12.4l11.4,11.3  L317.5,401l12.4,12.4l14.9-15h5.2V403.6z"/>
<path d="M463.8,407.2c1.5,0.1,2.9,0.1,4.4,0c8.3-1.1,15.5-6.3,19.2-13.8c3.7-7.4,3.5-16.1-0.5-23.3l-15.4-28h0  c-1.5-2.8-4.5-4.6-7.7-4.6s-6.2,1.8-7.7,4.6l-15.4,28h0c-4,7.2-4.2,15.9-0.5,23.3c3.7,7.5,10.9,12.7,19.2,13.8  C460.8,407.3,462.3,407.3,463.8,407.2L463.8,407.2z M455.8,385.2c-1.2-2.2-1.2-4.8,0-7l8-14.2l7.8,14.2c1.2,2.2,1.2,4.8,0,7  c-1.2,2.4-3.5,4-6.1,4.3c-1.2,0.3-2.5,0.3-3.7,0C459.2,389.2,456.9,387.6,455.8,385.2z"/>
<path d="M389.3,512.2c1.5,0.1,3,0.1,4.5,0c1.5,0.1,2.9,0.1,4.4,0c8.3-1.1,15.5-6.3,19.2-13.8c3.7-7.4,3.5-16.1-0.5-23.3l-15.4-28h0  c-1.5-2.8-4.5-4.6-7.7-4.6s-6.2,1.8-7.7,4.6l-15.4,28h0c-4,7.2-4.2,15.9-0.5,23.3C373.8,505.9,381,511,389.3,512.2L389.3,512.2z   M386,483.6l7.8-14.5l7.8,14.2c1.2,2.2,1.2,4.8,0,7c-1.2,2.4-3.5,4-6.1,4.3c-1.2,0.3-2.5,0.3-3.7,0c-2.6-0.3-5-1.9-6.1-4.3  c-1.1-2.2-0.9-4.9,0.3-7L386,483.6z"/>
<rect x="450" y="364.1" width="25.7" height="25.7"/>
<rect x="381" y="469.1" width="25.7" height="25.7"/>
</svg>