<svg width="24" height="20" viewBox="0 0 24 20" fill="none" xmlns="http://www.w3.org/2000/svg">
<g clip-path="url(#clip0)">
<path d="M0.160027 18.6621C-0.129973 18.2221 -0.00997278 17.6321 0.430027 17.3421L2.73003 15.8221C3.88003 15.0621 5.42003 15.1521 6.47003 16.0521L7.39003 16.8321C7.82003 17.1921 8.43003 17.2221 8.88003 16.8921L10.31 15.8621C11.39 15.0821 12.84 15.0721 13.93 15.8321L15.4 16.8621C15.87 17.1921 16.52 17.1421 16.94 16.7421L17.31 16.3921C18.45 15.2921 20.24 15.2121 21.46 16.2221L22.8 17.3321C23.21 17.6721 23.27 18.2721 22.93 18.6721C22.59 19.0821 21.99 19.1421 21.59 18.8021L20.25 17.6921C19.77 17.3021 19.08 17.3321 18.64 17.7521L18.27 18.1021C17.2 19.1421 15.53 19.2721 14.31 18.4121L12.84 17.3821C12.42 17.0821 11.85 17.0921 11.44 17.3921L10.01 18.4221C8.84003 19.2721 7.26003 19.2121 6.16003 18.2721L5.24003 17.4921C4.83003 17.1421 4.24003 17.1121 3.79003 17.4021L1.49003 18.9221C1.04003 19.2221 0.450027 19.1021 0.160027 18.6621Z" fill="#656566"/>
<path d="M0.160027 14.8125C-0.129973 14.3725 -0.00997278 13.7825 0.430027 13.4925L2.73003 11.9725C3.88003 11.2125 5.42003 11.3025 6.47003 12.2025L7.39003 12.9825C7.82003 13.3425 8.43003 13.3725 8.88003 13.0425L10.31 12.0125C11.39 11.2325 12.84 11.2225 13.93 11.9825L15.4 13.0125C15.87 13.3425 16.52 13.2925 16.94 12.8925L17.31 12.5425C18.45 11.4425 20.24 11.3625 21.46 12.3725L22.8 13.4825C23.21 13.8225 23.27 14.4225 22.93 14.8225C22.59 15.2325 21.99 15.2925 21.59 14.9525L20.25 13.8425C19.77 13.4525 19.08 13.4825 18.64 13.9025L18.27 14.2525C17.2 15.2925 15.53 15.4225 14.31 14.5625L12.84 13.5325C12.42 13.2325 11.85 13.2425 11.44 13.5425L10.01 14.5725C8.84003 15.4225 7.26003 15.3625 6.16003 14.4225L5.24003 13.6425C4.83003 13.2925 4.24003 13.2625 3.79003 13.5525L1.49003 15.0725C1.04003 15.3725 0.450027 15.2525 0.160027 14.8125Z" fill="#656566"/>
<path d="M7.68012 13.9321H5.77012V3.3621C5.77012 2.6821 5.24012 2.1121 4.56012 2.0921C3.86012 2.0721 3.27012 2.6421 3.27012 3.3421V3.9521C3.27012 4.4821 2.84012 4.9021 2.32012 4.9021C1.79012 4.9021 1.37012 4.4721 1.37012 3.9521V3.3821C1.37012 1.6521 2.75012 0.202104 4.48012 0.182104C6.24012 0.152104 7.69012 1.5821 7.69012 3.3421V13.9321H7.68012Z" fill="#656566"/>
<path d="M16.8998 13.9321H14.9898V3.3621C14.9898 2.6821 14.4598 2.1121 13.7798 2.0921C13.0798 2.0721 12.4898 2.6421 12.4898 3.3421V3.9521C12.4898 4.4821 12.0598 4.9021 11.5398 4.9021C11.0098 4.9021 10.5898 4.4721 10.5898 3.9521V3.3821C10.5898 1.6521 11.9698 0.202104 13.6998 0.182104C15.4598 0.152104 16.9098 1.5821 16.9098 3.3421V13.9321H16.8998Z" fill="#656566"/>
<path d="M15.8802 7.58203H6.66016V9.49203H15.8802V7.58203Z" fill="#656566"/>
</g>
<defs>
<clipPath id="clip0">
<rect width="23.15" height="18.91" fill="white" transform="translate(0 0.181641)"/>
</clipPath>
</defs>
</svg>
