<?xml version="1.0" encoding="UTF-8"?>
<!-- Generator: Adobe Illustrator 25.2.1, SVG Export Plug-In . SVG Version: 6.00 Build 0)  -->
<svg version="1.1" id="Layer_1" xmlns="http://www.w3.org/2000/svg" xmlns:xlink="http://www.w3.org/1999/xlink" x="0px" y="0px" viewBox="0 0 700 700" style="enable-background:new 0 0 700 700;fill: #656566;width: 40px;" xml:space="preserve">
<path d="M89.3,101.6v426.3h521.4l0-426.3H89.3z M600.1,517.3H99.9V112.2h500.1V517.3z"/>
<path d="M343.4,122.9H110.6v383.8h232.8C343.4,506.7,343.4,122.9,343.4,122.9z M332.7,496H121.2V133.5h211.5L332.7,496z"/>
<path d="M589.4,122.9H356.6v383.8h232.8V122.9z M578.8,496H367.3V133.5h211.5V496z"/>
<path d="M304.3,149.5H149.6v152.8h154.7L304.3,149.5z M293.7,171.3v56.4l-63.9,63.9h-56.4L293.7,171.3z M265.5,291.7l28.2-28.2v28.2  H265.5z"/>
<path d="M304.3,327.2H149.6v152.8h154.7L304.3,327.2z M160.2,434.6V397l59.1-59.1h37.6L160.2,434.6z M183.6,337.9l-23.3,23.3v-23.3  H183.6z"/>
<path d="M550.4,149.5H395.7v152.8h154.7V149.5z M498.9,291.7l40.8-40.8v40.8H498.9z"/>
<path d="M550.4,327.2H395.7v152.8h154.7V327.2z M452.7,337.9h60.2L406.3,444.5v-60.2L452.7,337.9z"/>
<path d="M320,359c2.8,0,5-2.2,5-5v-78.5c0-2.8-2.2-5-5-5s-5,2.2-5,5V354C315,356.8,317.2,359,320,359L320,359z"/>
<path d="M380,359c2.8,0,5-2.2,5-5v-78.5c0-2.8-2.2-5-5-5s-5,2.2-5,5V354C375.1,356.8,377.3,359,380,359L380,359z"/>
</svg>