<svg width="13" height="20" viewBox="0 0 13 20" fill="none" xmlns="http://www.w3.org/2000/svg">
<g clip-path="url(#clip0)">
<path fill-rule="evenodd" clip-rule="evenodd" d="M5.04998 15.3003C4.92998 15.1803 2.56998 12.8103 2.25998 12.5003C2.03998 12.2703 1.81998 12.0503 1.39998 12.0203C0.549978 11.9503 -0.0500219 12.5903 -2.18996e-05 13.3703C0.0299781 13.8103 0.259978 14.0403 0.489978 14.2803C1.94998 15.7703 3.75998 17.5703 5.29998 19.0903C5.88998 19.6703 6.58998 19.7503 7.17998 19.1903C7.82998 18.5803 8.58998 17.7603 9.24998 17.1103C10.13 16.2403 11.06 15.3103 12.01 14.3603C12.2 14.1703 12.48 13.9403 12.55 13.5403C12.78 12.2903 11.37 11.4603 10.37 12.4403L7.95998 14.8403C7.70998 15.0803 7.76998 15.0203 7.53998 15.2603V1.7303C7.53998 1.1703 7.57998 0.900302 7.28998 0.500302C7.08998 0.230302 6.70998 -0.00969822 6.25998 0.000301784C5.81998 0.0103018 5.47998 0.250302 5.27998 0.520302C4.99998 0.900302 5.03998 1.2103 5.03998 1.7803C5.03998 3.0203 5.05998 14.6403 5.05998 15.2203L5.04998 15.3003Z" fill="white"/>
</g>
<defs>
<clipPath id="clip0">
<rect width="12.58" height="19.57" fill="white"/>
</clipPath>
</defs>
</svg>
