<?xml version="1.0" encoding="UTF-8"?>
<!-- Generator: Adobe Illustrator 25.2.1, SVG Export Plug-In . SVG Version: 6.00 Build 0)  -->
<svg version="1.1" id="Layer_1" xmlns="http://www.w3.org/2000/svg" xmlns:xlink="http://www.w3.org/1999/xlink" x="0px" y="0px" viewBox="0 0 700 700" style="enable-background:new 0 0 700 700;fill: #656566;width: 32px;" xml:space="preserve">
<style type="text/css">
	.st0{fill:none;stroke:#000000;stroke-width:9;stroke-miterlimit:10;}
</style>
<path d="M358.8,224.2h93.3v93.3h-93.3V224.2z"/>
<path d="M452.1,142.6c0-3.1-1.2-6.1-3.4-8.3s-5.2-3.4-8.2-3.4h-81.7v70h93.3L452.1,142.6z"/>
<path d="M335.4,130.9h-81.7c-3.1,0-6.1,1.2-8.2,3.4c-2.2,2.2-3.4,5.2-3.4,8.3v58.3h93.3L335.4,130.9z"/>
<path d="M242.1,224.2h93.3v93.3h-93.3L242.1,224.2z"/>
<path class="st0" d="M580.4,504.2h-11.7v-175c0-3.1-1.2-6.1-3.4-8.2s-5.2-3.4-8.3-3.4h-23.3c-3.1,0-6.1,1.2-8.2,3.4  c-2.2,2.2-3.4,5.2-3.4,8.2v11.7h-350v-11.7c0-3.1-1.2-6.1-3.4-8.2s-5.2-3.4-8.2-3.4h-23.3c-3.1,0-6.1,1.2-8.2,3.4s-3.4,5.2-3.4,8.2  v175h-11.7c-3.1,0-6.1,1.2-8.2,3.4c-2.2,2.2-3.4,5.2-3.4,8.2v23.3c0,3.1,1.2,6.1,3.4,8.3c2.2,2.2,5.2,3.4,8.2,3.4h466.7  c3.1,0,6.1-1.2,8.2-3.4s3.4-5.2,3.4-8.3v-23.3c0-3.1-1.2-6.1-3.4-8.2C586.5,505.4,583.5,504.2,580.4,504.2L580.4,504.2z   M195.4,504.2h-23.3l0-140h23.3L195.4,504.2z M242.1,504.2h-23.3l0-140h23.3L242.1,504.2z M288.8,504.2h-23.3l0-140h23.3  L288.8,504.2z M335.4,504.2h-23.3l0-140h23.3L335.4,504.2z M382.1,504.2h-23.3l0-140h23.3L382.1,504.2z M428.8,504.2h-23.3l0-140  h23.3L428.8,504.2z M475.4,504.2h-23.3l0-140h23.3L475.4,504.2z M522.1,504.2h-23.3l0-140h23.3L522.1,504.2z"/>
</svg>