<svg width="21" height="20" viewBox="0 0 21 20" fill="none" xmlns="http://www.w3.org/2000/svg">
<g clip-path="url(#clip0)">
<path fill-rule="evenodd" clip-rule="evenodd" d="M2.50987 17.0394C2.50987 16.0894 2.50987 13.9594 2.50987 12.9894C2.50987 12.4294 2.56987 12.0194 2.30987 11.6294C1.82987 10.8894 0.719869 10.9094 0.239869 11.5994C-0.0501307 11.9994 -0.000130658 12.3694 -0.000130658 12.9494C-0.000130658 13.9894 -0.000130658 15.9894 -0.000130658 17.0294V17.0794C-0.000130658 18.4494 1.10987 19.5694 2.48987 19.5694H17.6599C19.0399 19.5694 20.1499 18.4494 20.1499 17.0794C20.1499 16.0394 20.1499 14.0394 20.1499 12.9994C20.1499 12.4394 20.2099 12.0594 19.9499 11.6394C19.7599 11.3394 19.4099 11.0794 18.9199 11.0794C18.4399 11.0794 18.0999 11.2894 17.8799 11.5894C17.5899 11.9994 17.6399 12.3894 17.6399 12.9494C17.6399 13.9094 17.6399 16.1394 17.6399 17.0594L2.50987 17.0394Z" fill="#E8E7E7"/>
<path fill-rule="evenodd" clip-rule="evenodd" d="M8.84002 9.31917C8.71002 9.19917 6.36002 6.83917 6.05002 6.51917C5.83002 6.29917 5.61002 6.07917 5.19002 6.03917C4.34002 5.96917 3.74002 6.60917 3.79002 7.38917C3.82002 7.82917 4.05002 8.05917 4.28002 8.29917C5.74002 9.78917 7.55002 11.5892 9.09002 13.1092C9.68002 13.6892 10.38 13.7692 10.97 13.2092C11.62 12.5992 12.38 11.7792 13.04 11.1292C13.92 10.2592 14.85 9.32917 15.8 8.37917C15.99 8.18917 16.27 7.95917 16.34 7.55917C16.57 6.30917 15.16 5.47917 14.16 6.45917L11.75 8.85917C11.5 9.09917 11.56 9.03917 11.33 9.27917V1.72917C11.33 1.16917 11.37 0.899171 11.08 0.499171C10.88 0.229171 10.49 -0.020829 10.04 -0.000828974C9.60002 0.00917103 9.26002 0.249171 9.06002 0.519171C8.78002 0.899171 8.82002 1.20917 8.82002 1.77917C8.82002 3.01917 8.84002 8.65917 8.84002 9.23917V9.31917Z" fill="#E8E7E7"/>
</g>
<defs>
<clipPath id="clip0">
<rect width="20.15" height="19.57" fill="white"/>
</clipPath>
</defs>
</svg>
