<svg width="28" height="22" viewBox="0 0 28 22" fill="none" xmlns="http://www.w3.org/2000/svg">
<g clip-path="url(#clip0)">
<path d="M20.9002 14.2824H19.6002L18.9002 10.9824C18.8002 10.1824 18.0002 9.98242 17.4002 9.98242H9.8002C9.2002 9.98242 8.7002 9.98242 8.3002 10.9824L7.2002 14.2824H6.2002C5.6002 14.2824 5.2002 14.7824 5.2002 15.2824V19.3824C5.2002 19.9824 5.6002 20.3824 6.2002 20.3824V21.2824C6.2002 21.5824 6.5002 21.8824 6.8002 21.8824H9.2002C9.5002 21.8824 9.8002 21.5824 9.8002 21.2824V20.3824H17.0002V21.2824C17.0002 21.5824 17.3002 21.8824 17.6002 21.8824H20.0002C20.3002 21.8824 20.6002 21.5824 20.6002 21.2824V20.3824H20.9002C21.5002 20.3824 21.9002 19.8824 21.9002 19.3824V15.2824C21.9002 14.7824 21.5002 14.2824 20.9002 14.2824ZM7.3002 17.1824C6.7002 17.1824 6.2002 16.6824 6.2002 15.9824C6.2002 15.3824 6.7002 14.7824 7.3002 14.7824C7.9002 14.7824 8.4002 15.2824 8.4002 15.9824C8.3002 16.6824 7.9002 17.1824 7.3002 17.1824ZM14.6002 14.2824H14.0002H8.7002L9.4002 11.6824C9.8002 10.6824 10.2002 10.8824 10.7002 10.8824H14.0002H14.5002H16.5002C17.0002 10.8824 17.7002 10.8824 17.8002 11.6824L18.3002 14.2824H14.6002ZM19.9002 17.1824C19.3002 17.1824 18.8002 16.6824 18.8002 15.9824C18.8002 15.3824 19.3002 14.7824 19.9002 14.7824C20.5002 14.7824 21.0002 15.2824 21.0002 15.9824C20.9002 16.6824 20.5002 17.1824 19.9002 17.1824Z" fill="#656566"/>
<path d="M26.2 5.18242L14.6 0.382422C14 0.182422 13.3 0.182422 12.8 0.382422L1.2 5.18242C0.5 5.48242 0 6.18242 0 6.88242V7.88242V20.9824C0 21.4824 0.4 21.8824 0.9 21.8824H2.5C3 21.8824 3.4 21.4824 3.4 20.9824V9.78242C3.4 8.78242 4.2 7.88242 5.3 7.88242H22C23 7.88242 23.9 8.68242 23.9 9.78242V20.9824C23.9 21.4824 24.3 21.9824 24.9 21.9824H26.4C26.9 21.9824 27.4 21.5824 27.4 20.9824V7.88242V6.88242C27.3 6.18242 26.9 5.48242 26.2 5.18242Z" fill="#656566"/>
</g>
<defs>
<clipPath id="clip0">
<rect width="27.3" height="21.8" fill="white" transform="translate(0 0.181641)"/>
</clipPath>
</defs>
</svg>
