<svg xmlns="http://www.w3.org/2000/svg" width="37" height="33" fill="none" viewBox="0 0 37 33">
    <g fill="#A4A6A7" clip-path="url(#clip0)">
        <path d="M33.74 9.56h2.53l-2.53-3.19-4.06-5.11C29.04.46 28.08 0 27.07 0H9.21C8.19 0 7.23.46 6.6 1.26L2.54 6.37 0 9.56h2.53v20.62H0v.33c0 .94.76 1.7 1.7 1.7h32.87c.94 0 1.7-.76 1.7-1.7v-.33h-2.53V9.56zM13.53 25.37v4.81H5.99V9.83h24.3v20.35h-7.54V25.4c0-.83-.67-1.51-1.51-1.51H15c-.81 0-1.47.66-1.47 1.48z"/>
        <path d="M11.22 12.38H7.77v3.45h3.45v-3.45zM16.98 12.38h-3.45v3.45h3.45v-3.45zM22.74 12.38h-3.45v3.45h3.45v-3.45zM28.5 12.38h-3.45v3.45h3.45v-3.45zM11.22 18.14H7.77v3.45h3.45v-3.45zM16.98 18.14h-3.45v3.45h3.45v-3.45zM22.74 18.14h-3.45v3.45h3.45v-3.45zM28.5 18.14h-3.45v3.45h3.45v-3.45zM11.22 23.89H7.77v3.45h3.45v-3.45zM28.5 23.89h-3.45v3.45h3.45v-3.45z"/>
    </g>
    <defs>
        <clipPath id="clip0">
            <path fill="#fff" d="M0 0H36.27V32.21H0z"/>
        </clipPath>
    </defs>
</svg>
