<svg width="50" height="30" viewBox="0 0 50 30" fill="none" xmlns="http://www.w3.org/2000/svg">
<g clip-path="url(#clip0)">
<path d="M46.4688 13.8326H28.3688V10.8508C28.3688 10.1551 28.0688 9.45934 27.4688 9.06177L23.1688 5.98063V3.09828C23.1688 2.40254 22.5688 1.7068 21.7688 1.7068C21.0688 1.7068 20.3688 2.30315 20.3688 3.09828V4.0922L15.6688 0.712887C14.8688 0.116538 13.8688 0.116538 13.0688 0.712887L1.1688 9.16116C0.568799 9.55873 0.268799 10.2545 0.268799 10.9502V14.0313L3.4688 11.7453V28.5425C3.4688 29.1388 3.9688 29.6358 4.5688 29.6358H46.7688C47.3688 29.6358 47.8688 29.1388 47.8688 28.5425V18.9015H49.7688L48.4688 15.224C48.1688 14.4289 47.3688 13.8326 46.4688 13.8326ZM23.3688 27.7474H18.7688V19.4979C18.7688 18.8021 18.1688 18.2058 17.4688 18.2058H11.2688C10.5688 18.2058 9.96879 18.8021 9.96879 19.4979V27.7474H5.3688V10.3539L14.3688 3.9928L23.3688 10.3539V27.7474ZM25.2688 11.7453L28.2688 13.8326H25.2688V11.7453ZM46.2688 27.9461H43.6688V23.3741C43.6688 22.6784 43.0688 22.082 42.3688 22.082H31.1688C30.4688 22.082 29.8688 22.6784 29.8688 23.3741V27.9461H26.8688V18.9015H46.2688V27.9461Z" fill="#A4A6A7"/>
</g>
<defs>
<clipPath id="clip0">
<rect width="49.6" height="29.3205" fill="white" transform="translate(0.268799 0.314453)"/>
</clipPath>
</defs>
</svg>
