<svg xmlns="http://www.w3.org/2000/svg" width="55" height="33" fill="none" viewBox="0 0 55 33">
    <g clip-path="url(#clip0)">
        <path fill="#34617A" d="M50.44 14.87H30.68v-3.29c0-.78-.38-1.51-1.01-1.96l-4.71-3.37V3.07c0-.82-.66-1.48-1.48-1.48S22 2.26 22 3.07v1.07L16.84.46c-.86-.61-2.01-.61-2.86 0L1.01 9.72C.38 10.17 0 10.9 0 11.68v3.38l3.54-2.53v18.46c0 .67.55 1.22 1.22 1.22h46.09c.67 0 1.22-.55 1.22-1.22V20.42h2.13l-1.55-4.02c-.35-.92-1.23-1.53-2.21-1.53zm-25.2 15.31h-4.99v-9.04c0-.81-.65-1.46-1.46-1.46h-6.77c-.81 0-1.46.65-1.46 1.46v9.04H5.57v-19.1l9.84-7.03 9.84 7.03v19.1h-.01zm2.03-17.65l3.28 2.34h-3.28v-2.34zm22.98 17.85h-2.81v-5.02c0-.81-.65-1.46-1.46-1.46H33.8c-.81 0-1.46.65-1.46 1.46v5.02H29.1v-9.97h21.15v9.97z"/>
    </g>
    <defs>
        <clipPath id="clip0">
            <path fill="#fff" d="M0 0H54.2V32.21H0z"/>
        </clipPath>
    </defs>
</svg>
