<svg width="167" height="173" viewBox="0 0 167 173" fill="none" xmlns="http://www.w3.org/2000/svg">
<g clip-path="url(#clip0)">
<path d="M83.6602 0.572266C37.8938 0.572266 0.660156 38.0067 0.660156 84.0199C0.660156 97.4198 3.904 110.82 10.0391 122.589C11.3789 125.212 14.5523 126.205 17.1614 124.858C19.7706 123.51 20.7579 120.32 19.418 117.697C14.0586 107.416 11.2379 95.7182 11.2379 84.0199C11.1674 43.8204 43.6763 11.1362 83.6602 11.1362C123.644 11.1362 156.153 43.8204 156.153 84.0199C156.153 124.219 123.644 156.904 83.6602 156.904C67.5115 156.904 52.209 151.657 39.4452 141.802C37.4002 140.03 34.2974 140.172 32.3229 142.086L10.9558 163.568C8.91079 165.624 8.91079 169.027 10.9558 171.083C12.0136 172.147 13.3534 172.643 14.6933 172.643C16.0331 172.643 17.373 172.147 18.4308 171.083L36.6245 152.792C50.5166 162.434 66.6653 167.468 83.7307 167.468C129.497 167.468 166.731 130.033 166.731 84.0199C166.731 38.0067 129.427 0.572266 83.6602 0.572266Z" fill="#A4A6A7"/>
<path d="M81.5446 103.73C77.6661 103.73 74.6338 106.496 74.6338 110.324C74.6338 114.153 77.7366 116.989 81.5446 116.989C85.3526 116.989 88.3848 114.153 88.3848 110.324C88.3848 106.566 85.282 103.73 81.5446 103.73Z" fill="#A4A6A7"/>
<path d="M94.7319 78.9862C99.5977 75.2286 104.816 71.0456 104.816 62.2541C104.816 49.9887 94.4498 44.0332 83.1669 44.0332C73.2943 44.0332 62.4345 48.5707 61.0947 61.4034C60.9536 63.1049 62.223 64.5938 63.9859 64.5938H68.9927C70.4031 64.5938 71.6019 63.6012 71.8135 62.2541C72.6597 57.0785 76.2561 53.3918 82.6733 53.3918C88.1737 53.3918 93.3215 56.1569 93.3215 62.8922C93.3215 68.0678 90.2893 70.4075 85.494 74.0233C80.1346 77.9936 75.7625 82.602 76.0446 90.1882V91.1099C76.0446 92.6696 77.3139 93.9458 78.9358 93.9458H83.8721C85.4235 93.9458 86.7633 92.6696 86.7633 91.039C86.6223 85.1544 88.8084 83.5237 94.7319 78.9862Z" fill="#A4A6A7"/>
</g>
<defs>
<clipPath id="clip0">
<rect width="166" height="172" fill="white" transform="translate(0.660156 0.572266)"/>
</clipPath>
</defs>
</svg>
