<?xml version="1.0" encoding="utf-8"?>
<!-- Generator: Adobe Illustrator 25.2.1, SVG Export Plug-In . SVG Version: 6.00 Build 0)  -->
<svg version="1.1" id="Layer_1" xmlns="http://www.w3.org/2000/svg" xmlns:xlink="http://www.w3.org/1999/xlink" x="0px" y="0px"
	 viewBox="0 0 1920 568.3" style="enable-background:new 0 0 1920 568.3;" xml:space="preserve">
<style type="text/css">
	.st0{fill:#FFFFFF;}
	.st1{fill-rule:evenodd;clip-rule:evenodd;fill:#FFFFFF;}
	.st2{fill:none;stroke:#FFFFFF;stroke-width:2;stroke-miterlimit:10;}
	.st3{fill:none;stroke:#FFFFFF;stroke-width:3;stroke-linecap:round;stroke-miterlimit:10;stroke-dasharray:12,12;}
</style>
<g id="Layer_1_1_">
	<path class="st0" d="M1385.1,401.1c0.2-1.1-0.6-1.9-0.9-2.4c-0.4-0.5-2.1-2-2.1-2c-0.7-0.6-2-1.7-3-2.3c0.1-0.3,0.2-1.3,0.2-1.5
		c0.1-0.1,0-0.3-0.1-0.4c-0.1-0.2-0.2-0.1-0.2,0.1c-0.1,0.1-0.4,1-0.5,1.2c-0.1-0.1-0.1-0.2-0.1-0.2s-7.9-6.7-9.1-7.6
		s-3.1-2.6-4.1-2.8c-1-0.3-1.5-0.4-2.7,0.5c0,0-1.5,1.3-2.6,2.7c-1.1,1.3-2.1,3.1-2.1,3.1c-0.7,1.4-0.5,1.9-0.1,2.8s2.5,2.5,3.5,3.4
		c1.1,0.9,9.4,7.3,9.4,7.3s0.1,0.1,0.1,0.2c-0.2,0.2-1.1,0.7-1.2,0.8c-0.1,0.1-0.2,0.1,0.1,0.2c0.1,0.2,0.3,0.1,0.5,0.1
		s1-0.4,1.4-0.4c0.8,0.8,2.2,1.9,2.8,2.4c0,0,1.8,1.4,2.4,1.6c0.5,0.3,1.4,0.9,2.5,0.4c0.7-0.2,2.3-1.1,3.8-2.9
		C1384.5,403.5,1385,401.7,1385.1,401.1z M1364.6,392.6c-0.8,1.2-0.7,1.8-0.5,2.2c0.1,0.3-0.3,0.1-0.3,0.1s-1.6-1.2-2.3-1.8
		c-0.7-0.5-0.5-1.3-0.2-1.8c0.2-0.5,1-1.6,1.6-2.5c0.7-0.9,1.7-1.7,2.1-2.1c0.4-0.3,1-0.6,1.8,0c0.7,0.7,2.2,1.9,2.2,1.9
		s0.3,0.3,0,0.3c-0.3-0.1-1-0.2-2,0.9C1366,390.7,1365.5,391.5,1364.6,392.6z M1375.1,403.1c-1.2,0.5-1.6,0.6-2.2,0.2
		c-0.5-0.4-2.1-2.2-2.3-2.6c-0.3-0.4-0.6-0.7-0.3-0.8s1.7-1.1,2.9-2.6c1.2-1.5,1.8-3.1,1.9-3.4s0.4-0.1,0.9,0.1
		c0.4,0.2,2.5,1.4,3,1.8c0.5,0.5,0.5,0.9,0.2,2.2c-0.4,1.3-1.6,2.9-1.6,2.9S1376.2,402.5,1375.1,403.1z"/>
	<path class="st1" d="M1579.2,275.1c0.1-0.1,0.3-0.2,0.4-0.6c2.3-8.8-8-19.5-13.5-25c-0.4-0.4-0.9-0.3-1.3,0l-3.6,3l-3.7,2.9
		c-0.4,0.3-0.5,0.8-0.3,1.2c4.1,6.5,12.2,19,21.3,18.7C1578.9,275.3,1579.1,275.2,1579.2,275.1z M1567.7,260.6l1.6-1.3
		c0.2-0.2,0.5-0.1,0.7,0.1l1.6,2c1,1.2,0,2.3-0.9,3s-2.1,1.5-3.1,0.2l-1.6-2c-0.2-0.2-0.1-0.5,0.1-0.7L1567.7,260.6z M1567.1,266.2
		c-1.1-1.3-2.1-2.7-2.4-3.7c-0.4-1.5,0.6-2.6,1.7-3.5s2.4-1.6,3.8-0.9c0.9,0.5,2.1,1.8,3.1,3.2c1.4,1.9,1.1,3.8-0.8,5.3
		S1568.6,268,1567.1,266.2z M1576.1,271.2c-1.9,1.5-4.3-0.3-5.7-1.9c2.7,1.7,6.2-1.1,5.1-4.1C1576.7,266.9,1578,269.7,1576.1,271.2z
		 M1563.5,255.3c-1.2,1-2.4,0.6-3.6-0.9l3.4-2.7C1564.5,253.2,1564.6,254.4,1563.5,255.3z"/>
	<path id="dots" class="st2" d="M1599,409.4c3.1,0,5.6-2.5,5.6-5.6s-2.5-5.6-5.6-5.6s-5.6,2.5-5.6,5.6l0,0
		C1593.5,406.9,1595.9,409.3,1599,409.4z M1405.1,343.6c3.1,0,5.6-2.5,5.6-5.6s-2.5-5.6-5.6-5.6s-5.6,2.5-5.6,5.6l0,0
		C1399.5,341.1,1402,343.6,1405.1,343.6L1405.1,343.6L1405.1,343.6z M371.2,196c3.1,0,5.6-2.5,5.6-5.6s-2.5-5.6-5.6-5.6
		s-5.6,2.5-5.6,5.6S368.1,196,371.2,196L371.2,196z M769.4,219.9c3.1,0,5.6-2.5,5.6-5.6s-2.5-5.6-5.6-5.6s-5.6,2.5-5.6,5.6l0,0
		C763.8,217.4,766.3,219.9,769.4,219.9L769.4,219.9z M600.8,287.1c3.1,0,5.6-2.5,5.6-5.6s-2.5-5.6-5.6-5.6s-5.6,2.5-5.6,5.6l0,0
		C595.2,284.6,597.7,287.1,600.8,287.1L600.8,287.1z M1157,228.5c3.1,0,5.6-2.5,5.6-5.6s-2.5-5.6-5.6-5.6s-5.6,2.5-5.6,5.6l0,0
		C1151.4,226,1153.9,228.5,1157,228.5L1157,228.5z M1220.1,88.5c3.1,0,5.6-2.5,5.6-5.6s-2.5-5.6-5.6-5.6s-5.6,2.5-5.6,5.6l0,0
		C1214.5,86,1217,88.5,1220.1,88.5L1220.1,88.5z M1193.9,128.4c3.1,0,5.6-2.5,5.6-5.6s-2.5-5.6-5.6-5.6s-5.6,2.5-5.6,5.6l0,0
		C1188.3,125.9,1190.8,128.4,1193.9,128.4L1193.9,128.4z M930.3,40.6c3.1,0,5.6-2.5,5.6-5.6s-2.5-5.6-5.6-5.6s-5.6,2.5-5.6,5.6l0,0
		C924.7,38.1,927.2,40.6,930.3,40.6L930.3,40.6z"/>
	<path id="name" class="st0" d="M489.6,276.1h-3.9v9.4h1.7v-2.7h2.1c2.5,0,4-1.3,4-3.3S492,276.1,489.6,276.1z M489.5,281.3h-2v-3.7
		h2c1.5,0,2.3,0.7,2.3,1.9S491,281.3,489.5,281.3L489.5,281.3z M497.8,278.3c-1.1-0.1-2.1,0.3-3,0.9l0.7,1.2
		c0.6-0.5,1.4-0.7,2.2-0.7c1.2,0,1.8,0.6,1.8,1.6v0.1h-1.8c-2.2,0-3,0.9-3,2.1s1,2.1,2.7,2.1c0.9,0.1,1.8-0.3,2.3-1v0.9h1.6v-4.2
		C501.1,279.2,499.9,278.3,497.8,278.3L497.8,278.3z M497.6,284.4c-0.9,0-1.4-0.4-1.4-1s0.3-1,1.4-1h1.7v0.8
		C499.1,284,498.4,284.5,497.6,284.4L497.6,284.4z M507.3,278.3c-0.9-0.1-1.9,0.3-2.5,1v-0.9h-1.6v7.2h1.7V282
		c-0.1-1.1,0.7-2.1,1.8-2.2c0.1,0,0.1,0,0.2,0c1.1,0,1.7,0.6,1.7,1.9v3.9h1.7v-4.1C510.3,279.2,509,278.3,507.3,278.3L507.3,278.3z
		 M515.7,285.6c2-0.1,3.7-1.8,3.6-3.8c-0.1-2-1.8-3.7-3.8-3.6s-3.6,1.7-3.6,3.7c-0.1,2,1.5,3.6,3.5,3.7
		C515.5,285.6,515.6,285.6,515.7,285.6z M515.7,284.2c-1.2,0.1-2.2-0.9-2.3-2.1s0.9-2.2,2.1-2.3c1.2-0.1,2.2,0.9,2.3,2.1v0.1
		C517.9,283.1,517,284.1,515.7,284.2C515.8,284.2,515.7,284.2,515.7,284.2z M522.7,279.4v-1h-1.6v7.2h1.7V282
		c-0.2-1.1,0.6-2,1.6-2.2c0.2,0,0.3,0,0.5,0h0.4v-1.6C524.3,278.2,523.3,278.6,522.7,279.4L522.7,279.4z M529.4,278.3
		c-1.1-0.1-2.1,0.3-3,0.9l0.7,1.2c0.6-0.5,1.4-0.7,2.2-0.7c1.2,0,1.8,0.6,1.8,1.6v0.1h-1.8c-2.2,0-3,0.9-3,2.1s1,2.1,2.7,2.1
		c0.9,0.1,1.8-0.3,2.3-1v0.9h1.6v-4.2c-0.1-1.7-1.5-3.1-3.2-3C529.6,278.3,529.5,278.3,529.4,278.3L529.4,278.3z M529.1,284.4
		c-0.9,0-1.4-0.4-1.4-1s0.3-1,1.4-1h1.7v0.8C530.7,284,530,284.4,529.1,284.4L529.1,284.4z M543.8,278.3c-1,0-2,0.4-2.7,1.2
		c-0.5-0.8-1.4-1.2-2.4-1.2c-0.9-0.1-1.8,0.3-2.3,1v-0.9h-1.6v7.2h1.7V282c-0.1-1,0.6-1.9,1.6-2.1c0.1,0,0.2,0,0.3,0
		c1,0,1.6,0.6,1.6,1.9v3.9h1.7v-3.6c-0.1-1,0.6-1.9,1.6-2.1c0.1,0,0.2,0,0.3,0c1,0,1.6,0.6,1.6,1.9v3.9h1.7v-4.1
		C546.7,279.2,545.5,278.3,543.8,278.3L543.8,278.3z M551.6,278.3c-1.1-0.1-2.1,0.3-3,0.9l0.7,1.2c0.6-0.5,1.4-0.7,2.2-0.7
		c1.2,0,1.8,0.6,1.8,1.6v0.1h-1.8c-2.2,0-3,0.9-3,2.1s1,2.1,2.7,2.1c0.9,0.1,1.8-0.3,2.3-1v0.9h1.6v-4.2
		C554.9,279.2,553.7,278.3,551.6,278.3L551.6,278.3z M551.4,284.4c-0.9,0-1.4-0.4-1.4-1s0.3-1,1.4-1h1.7v0.8
		C552.9,284,552.2,284.5,551.4,284.4L551.4,284.4z M571.2,285.5v-9.4h-1.4l-3.7,6.2l-3.7-6.2H561v9.4h1.7v-6.1l3.1,5.1h0.8l3.1-5.1
		v6.2h1.5L571.2,285.5z M576.3,278.3c-1.1-0.1-2.1,0.3-3,0.9l0.7,1.2c0.6-0.5,1.4-0.7,2.2-0.7c1.2,0,1.8,0.6,1.8,1.6v0.1h-2
		c-2.2,0-3,0.9-3,2.1s1,2.1,2.7,2.1c0.9,0.1,1.8-0.3,2.3-1v0.9h1.6v-4.2C579.5,279.2,578.3,278.3,576.3,278.3L576.3,278.3z
		 M576,284.4c-0.9,0-1.4-0.4-1.4-1s0.3-1,1.4-1h1.7v0.8C577.5,284,576.8,284.5,576,284.4L576,284.4z M581.7,285.5h1.7v-9.9h-1.7
		V285.5z M585.5,285.5h1.7v-9.9h-1.7V285.5z M1059.9,87.6h1.8l-4.2-9.4h-1.7l-4.2,9.4h1.8l0.9-2.2h4.7L1059.9,87.6z M1054.8,84.1
		l1.8-4.1l1.8,4.1H1054.8z M1064.9,87.7c2,0,3.2-0.9,3.2-2.2c0-2.8-4.4-1.5-4.4-3c0-0.5,0.5-0.8,1.5-0.8c0.7,0,1.5,0.1,2.1,0.5
		l0.6-1.3c-0.8-0.4-1.8-0.6-2.7-0.6c-1.9,0-3.1,0.9-3.1,2.2c0,2.9,4.4,1.6,4.4,2.9c0,0.5-0.4,0.8-1.5,0.8c-0.9,0-1.7-0.2-2.5-0.7
		l-0.6,1.3C1062.8,87.5,1063.8,87.8,1064.9,87.7z M1076.3,87.8c2.6,0,3.8-1.3,3.8-2.8c0-3.4-5.6-2.1-5.6-4.1c0-0.7,0.6-1.3,2-1.3
		c0.9,0,1.8,0.2,2.6,0.7l0.5-1.4c-0.9-0.5-2-0.8-3.1-0.8c-2.6,0-3.8,1.3-3.8,2.8c0,3.5,5.6,2.2,5.6,4.2c0,0.7-0.6,1.2-2.1,1.2
		c-1.1,0-2.2-0.3-3.1-1l-0.6,1.4C1073.6,87.4,1075,87.8,1076.3,87.8z M1087,80.5v3.6c0.1,1.1-0.7,2.1-1.8,2.2c-0.1,0-0.1,0-0.2,0
		c-1.1,0-1.7-0.6-1.7-1.9v-3.9h-1.7v4.1c0,2.2,1.2,3.2,3.1,3.2c0.9,0.1,1.7-0.3,2.3-1v0.9h1.6v-7.2L1087,80.5z M1090.8,87.6h1.7
		v-9.9h-1.7V87.6z M1098.9,86.1c-0.3,0.2-0.6,0.3-0.9,0.3c-0.6,0-1-0.4-1-1v-0.1v-3.4h1.9v-1.3h-1.9V79h-1.7v1.6h-1.2v1.3h1.2v3.4
		c-0.1,1.2,0.7,2.3,1.9,2.4c0.2,0,0.4,0,0.6,0c0.6,0,1.1-0.2,1.6-0.5L1098.9,86.1z M1103.5,80.4c-1.1-0.1-2.1,0.3-3,0.9l0.7,1.2
		c0.6-0.5,1.4-0.7,2.2-0.7c1.2,0,1.8,0.6,1.8,1.6v0.1h-1.8c-2.2,0-3,0.9-3,2.1s1,2.1,2.7,2.1c0.9,0.1,1.8-0.3,2.3-1v0.9h1.6v-4.2
		C1106.9,81.6,1105.4,80.3,1103.5,80.4C1103.6,80.4,1103.5,80.4,1103.5,80.4z M1103.2,86.5c-0.9,0-1.4-0.4-1.4-1s0.3-1,1.4-1h1.7
		v0.8C1104.8,86.1,1104.1,86.5,1103.2,86.5z M1112.9,80.4c-0.9-0.1-1.9,0.3-2.5,1v-0.9h-1.6v7.2h1.7V84c-0.1-1.1,0.7-2.1,1.8-2.2
		c0.1,0,0.1,0,0.2,0c1.1,0,1.7,0.6,1.7,1.9v3.9h1.7v-4.1c0.2-1.5-0.9-2.9-2.4-3.1C1113.3,80.4,1113.1,80.4,1112.9,80.4L1112.9,80.4z
		 M1131,87.6c-0.4,0.5-1,0.8-1.6,0.8s-1.2-0.3-1.6-0.8c2.6-0.7,4.1-3.3,3.4-5.9c-0.6-2.2-2.7-3.7-5-3.5c-2.7-0.1-5,1.9-5.1,4.6
		c0,0.1,0,0.1,0,0.2c0,2.6,2,4.7,4.5,4.8c1.4,1.4,2.3,1.9,3.6,1.9c1,0,1.9-0.4,2.5-1.1L1131,87.6z M1123,83c0-1.8,1.5-3.3,3.3-3.3
		s3.3,1.5,3.3,3.3s-1.5,3.3-3.3,3.3c-1.8,0.1-3.2-1.3-3.3-3.1C1123,83.1,1123,83.1,1123,83L1123,83z M1135.8,80.4
		c-1.1-0.1-2.1,0.3-3,0.9l0.7,1.2c0.6-0.5,1.4-0.7,2.2-0.7c1.2,0,1.8,0.6,1.8,1.6v0.1h-1.8c-2.2,0-3,0.9-3,2.1s1,2.1,2.7,2.1
		c0.9,0.1,1.8-0.3,2.3-1v0.9h1.6v-4.2C1139.2,81.6,1137.7,80.3,1135.8,80.4C1135.9,80.4,1135.8,80.4,1135.8,80.4L1135.8,80.4z
		 M1135.5,86.5c-0.9,0-1.4-0.4-1.4-1s0.3-1,1.4-1h1.7v0.8C1137.1,86.1,1136.4,86.5,1135.5,86.5L1135.5,86.5z M1145.2,80.4
		c-0.9,0-1.7,0.3-2.3,1v-3.7h-1.7v9.9h1.6v-0.9c0.6,0.7,1.5,1,2.4,1c2,0,3.7-1.6,3.7-3.7S1147.2,80.4,1145.2,80.4z M1145,86.3
		c-1.2,0.1-2.2-0.9-2.3-2.1c-0.1-1.2,0.9-2.2,2.1-2.3c1.2-0.1,2.2,0.9,2.3,2.1v0.1C1147.2,85.2,1146.3,86.2,1145,86.3
		C1145.1,86.3,1145,86.3,1145,86.3L1145,86.3z M1153.6,87.7c2-0.1,3.7-1.8,3.6-3.8s-1.8-3.7-3.8-3.6s-3.6,1.7-3.6,3.7
		c-0.1,2,1.5,3.6,3.5,3.7C1153.4,87.7,1153.5,87.7,1153.6,87.7L1153.6,87.7z M1153.6,86.3c-1.2,0.1-2.2-0.9-2.3-2.1
		c-0.1-1.2,0.9-2.2,2.1-2.3c1.2-0.1,2.2,0.9,2.3,2.1v0.1C1155.8,85.2,1154.9,86.2,1153.6,86.3C1153.7,86.3,1153.6,86.3,1153.6,86.3
		L1153.6,86.3z M1162.2,87.7c2-0.1,3.7-1.8,3.6-3.8s-1.8-3.7-3.8-3.6s-3.6,1.7-3.6,3.7c-0.1,2,1.5,3.6,3.5,3.7
		C1162,87.7,1162.1,87.7,1162.2,87.7L1162.2,87.7z M1162.2,86.3c-1.2,0.1-2.2-0.9-2.3-2.1c-0.1-1.2,0.9-2.2,2.1-2.3
		c1.2-0.1,2.2,0.9,2.3,2.1v0.1C1164.4,85.2,1163.5,86.2,1162.2,86.3C1162.3,86.3,1162.2,86.3,1162.2,86.3L1162.2,86.3z M1169.9,87.7
		c2,0,3.2-0.9,3.2-2.2c0-2.8-4.4-1.5-4.4-3c0-0.5,0.5-0.8,1.5-0.8c0.7,0,1.5,0.1,2.1,0.5l0.6-1.3c-0.8-0.4-1.8-0.6-2.7-0.6
		c-1.9,0-3.1,0.9-3.1,2.2c0,2.9,4.4,1.6,4.4,2.9c0,0.5-0.4,0.8-1.5,0.8c-0.9,0-1.7-0.2-2.5-0.7l-0.6,1.3
		C1167.8,87.5,1168.8,87.8,1169.9,87.7L1169.9,87.7z M1182.3,78.3h-3.9v9.4h1.7V85h2.1c2.5,0,4-1.3,4-3.3
		C1186.3,79.5,1184.7,78.3,1182.3,78.3L1182.3,78.3z M1182.2,83.5h-2v-3.7h2c1.5,0,2.3,0.7,2.3,1.9S1183.7,83.5,1182.2,83.5
		L1182.2,83.5z M1191,87.7c2-0.1,3.7-1.8,3.6-3.8s-1.8-3.7-3.8-3.6s-3.6,1.7-3.6,3.7c-0.1,2,1.5,3.6,3.5,3.7
		C1190.8,87.7,1190.9,87.7,1191,87.7L1191,87.7z M1191,86.3c-1.2,0.1-2.2-0.9-2.3-2.1c-0.1-1.2,0.9-2.2,2.1-2.3
		c1.2-0.1,2.2,0.9,2.3,2.1v0.1c0.1,1.1-0.7,2.1-1.8,2.2C1191.2,86.3,1191.1,86.3,1191,86.3L1191,86.3z M1198.1,81.5v-1h-1.6v7.2h1.7
		v-3.5c-0.2-1.1,0.6-2,1.6-2.2c0.2,0,0.3,0,0.5,0h0.4v-1.6C1199.7,80.3,1198.7,80.7,1198.1,81.5L1198.1,81.5z M1206.1,86.1
		c-0.3,0.2-0.6,0.3-0.9,0.3c-0.6,0-1-0.4-1-1v-0.1v-3.4h1.9v-1.3h-1.9V79h-1.7v1.6h-1.2v1.3h1.2v3.4c-0.1,1.2,0.7,2.3,1.9,2.4
		c0.2,0,0.4,0,0.6,0c0.6,0,1.1-0.2,1.6-0.5L1206.1,86.1z M1101.8,125.7v-9.4h-1.4l-3.7,6.2l-3.7-6.2h-1.4v9.4h1.7v-6.1l3.1,5.1h0.8
		l3.1-5.1v6.2L1101.8,125.7L1101.8,125.7z M1109.5,118.5v3.6c0.1,1.1-0.7,2.1-1.8,2.2c-0.1,0-0.1,0-0.2,0c-1.1,0-1.7-0.6-1.7-1.9
		v-3.9h-1.7v4.1c0,2.2,1.2,3.2,3.1,3.2c0.9,0.1,1.7-0.3,2.3-1v0.9h1.6v-7.2L1109.5,118.5z M1117.2,124.1c-0.3,0.2-0.6,0.3-0.9,0.3
		c-0.6,0-1-0.4-1-1v-0.1v-3.4h1.9v-1.3h-1.9V117h-1.7v1.6h-1.2v1.3h1.2v3.4c-0.1,1.2,0.7,2.3,1.9,2.4c0.2,0,0.4,0,0.6,0
		c0.6,0,1.1-0.2,1.6-0.5L1117.2,124.1z M1120.6,119.6v-1h-1.6v7.2h1.7v-3.5c-0.2-1.1,0.6-2,1.6-2.2c0.2,0,0.3,0,0.5,0h0.4v-1.6
		C1122.2,118.3,1121.2,118.8,1120.6,119.6L1120.6,119.6z M1127.3,118.4c-1.1-0.1-2.1,0.3-3,0.9l0.7,1.2c0.6-0.5,1.4-0.7,2.2-0.7
		c1.2,0,1.8,0.6,1.8,1.6v0.1h-1.8c-2.2,0-3,0.9-3,2.1s1,2.1,2.7,2.1c0.9,0.1,1.8-0.3,2.3-1v0.9h1.6v-4.2
		C1130.7,119.6,1129.2,118.3,1127.3,118.4C1127.4,118.4,1127.3,118.4,1127.3,118.4L1127.3,118.4z M1127,124.5c-0.9,0-1.4-0.4-1.4-1
		s0.3-1,1.4-1h1.7v0.8C1128.6,124.2,1127.9,124.5,1127,124.5L1127,124.5z M1136.7,118.4c-0.9,0-1.8,0.3-2.4,0.9v-3.6h-1.7v9.9h1.7
		V122c-0.1-1.1,0.7-2.1,1.8-2.2c0.1,0,0.1,0,0.2,0c1.1,0,1.7,0.6,1.7,1.9v3.9h1.7v-4.1c0.2-1.5-0.9-2.9-2.4-3.1
		C1137.1,118.4,1136.9,118.4,1136.7,118.4L1136.7,118.4z M1148.6,125.8c2.6,0,3.8-1.3,3.8-2.8c0-3.4-5.6-2.1-5.6-4.1
		c0-0.7,0.6-1.3,2-1.3c0.9,0,1.8,0.2,2.6,0.7l0.5-1.4c-0.9-0.5-2-0.8-3.1-0.8c-2.6,0-3.8,1.3-3.8,2.8c0,3.5,5.6,2.2,5.6,4.2
		c0,0.7-0.6,1.2-2.1,1.2c-1.1,0-2.2-0.3-3.1-1l-0.6,1.4C1145.9,125.4,1147.3,125.8,1148.6,125.8L1148.6,125.8z M1157.2,125.8
		c2,0.1,3.7-1.4,3.8-3.4c0-0.1,0-0.2,0-0.3c0-2-1.6-3.7-3.6-3.7c-0.1,0-0.1,0-0.2,0c-2-0.1-3.7,1.4-3.8,3.4c0,0.1,0,0.2,0,0.3
		c0,2,1.6,3.7,3.6,3.7C1157.1,125.8,1157.1,125.8,1157.2,125.8L1157.2,125.8z M1157.2,124.3c-1.2,0.1-2.2-0.9-2.3-2.1
		c-0.1-1.2,0.9-2.2,2.1-2.3c1.2-0.1,2.2,0.9,2.3,2.1v0.1C1159.4,123.2,1158.5,124.2,1157.2,124.3
		C1157.3,124.3,1157.2,124.3,1157.2,124.3L1157.2,124.3z M1167.9,118.5v3.6c0.1,1.1-0.7,2.1-1.8,2.2c-0.1,0-0.1,0-0.2,0
		c-1.1,0-1.7-0.6-1.7-1.9v-3.9h-1.7v4.1c0,2.2,1.2,3.2,3.1,3.2c0.9,0.1,1.7-0.3,2.3-1v0.9h1.6v-7.2L1167.9,118.5z M1177.2,118.5v0.9
		c-0.6-0.7-1.5-1-2.4-1c-1.9-0.1-3.5,1.4-3.6,3.3c0,0.1,0,0.3,0,0.4c-0.1,1.9,1.3,3.6,3.3,3.7c0.1,0,0.2,0,0.3,0
		c0.9,0,1.7-0.3,2.3-1v3.5h1.7v-9.8H1177.2z M1175,124.3c-1.2,0.1-2.2-0.9-2.3-2.1c-0.1-1.2,0.9-2.2,2.1-2.3
		c1.2-0.1,2.2,0.9,2.3,2.1v0.1C1177.2,123.2,1176.3,124.2,1175,124.3C1175.1,124.3,1175,124.3,1175,124.3L1175,124.3z M833.1,40
		v-9.4h-1.4l-3.7,6.2l-3.7-6.2h-1.4V40h1.7v-6.1l3.1,5.1h0.8l3.1-5.1v6.2h1.5L833.1,40z M838.2,32.7c-1.1-0.1-2.1,0.3-3,0.9l0.7,1.2
		c0.6-0.5,1.4-0.7,2.2-0.7c1.2,0,1.8,0.6,1.8,1.6v0.1h-1.8c-2.2,0-3,0.9-3,2.1s1,2.1,2.7,2.1c0.9,0.1,1.8-0.3,2.3-1v1h1.6v-4.2
		C841.5,33.7,840.3,32.7,838.2,32.7L838.2,32.7z M838,38.9c-0.9,0-1.4-0.4-1.4-1s0.3-1,1.4-1h1.7v0.8C839.5,38.5,838.8,39,838,38.9
		L838,38.9z M845.2,33.9v-1h-1.6V40h1.7v-3.5c-0.2-1.1,0.6-2,1.6-2.2c0.2,0,0.3,0,0.5,0h0.4v-1.6C846.8,32.6,845.8,33,845.2,33.9
		L845.2,33.9z M850.1,31.6c0.6,0,1-0.4,1-1s-0.4-1-1-1s-1,0.4-1,1S849.5,31.6,850.1,31.6z M848.5,42.7c1.3,0.1,2.4-0.9,2.5-2.2
		c0-0.1,0-0.3,0-0.4v-7.3h-1.7v7.3c0,0.8-0.3,1.1-1,1.1c-0.4,0-0.7-0.1-1-0.3l-0.5,1.2C847.3,42.5,847.9,42.7,848.5,42.7z
		 M855.9,32.7c-1.1-0.1-2.1,0.3-3,0.9l0.7,1.2c0.6-0.5,1.4-0.7,2.2-0.7c1.2,0,1.8,0.6,1.8,1.6v0.1h-1.8c-2.2,0-3,0.9-3,2.1
		s1,2.1,2.7,2.1c0.9,0.1,1.8-0.3,2.3-1v1h1.6v-4.2C859.2,33.7,858,32.7,855.9,32.7z M855.7,38.9c-0.9,0-1.4-0.4-1.4-1s0.3-1,1.4-1
		h1.7v0.8C857.2,38.5,856.5,39,855.7,38.9z M865.4,32.7c-0.9-0.1-1.9,0.3-2.5,1v-0.9h-1.6V40h1.7v-3.6c-0.1-1.1,0.7-2.1,1.8-2.2
		c0.1,0,0.1,0,0.2,0c1.1,0,1.7,0.6,1.7,1.9V40h1.7v-4.1C868.4,33.7,867.1,32.7,865.4,32.7z M881,35.1c0.8-0.4,1.2-1.2,1.2-2.1
		c0-1.5-1.2-2.4-3.5-2.4h-4.4V40h4.7c2.4,0,3.7-0.9,3.7-2.5C882.8,36.4,882.1,35.4,881,35.1z M878.6,32c1.2,0,1.9,0.4,1.9,1.3
		s-0.7,1.3-1.9,1.3h-2.5V32H878.6z M878.9,38.6h-2.8v-2.7h2.8c1.3,0,2,0.4,2,1.4S880.2,38.6,878.9,38.6L878.9,38.6z M891.1,36.4
		c0.1-1.9-1.3-3.6-3.3-3.7c-0.1,0-0.2,0-0.3,0c-2-0.1-3.6,1.5-3.7,3.4c0,0.1,0,0.2,0,0.3c0,2.2,1.6,3.7,4,3.7
		c1.1,0.1,2.2-0.4,2.9-1.2l-0.9-1c-0.5,0.5-1.2,0.8-1.9,0.8c-1.1,0.1-2.1-0.6-2.3-1.7h5.6C891.1,36.8,891.1,36.6,891.1,36.4z
		 M887.5,34.1c1-0.1,1.9,0.7,2,1.7h-4.1C885.6,34.8,886.5,34.1,887.5,34.1z M895.3,32.7c-1.1-0.1-2.1,0.3-3,0.9l0.7,1.2
		c0.6-0.5,1.4-0.7,2.2-0.7c1.2,0,1.8,0.6,1.8,1.6v0.1h-2c-2.2,0-3,0.9-3,2.1s1,2.1,2.7,2.1c0.9,0.1,1.8-0.3,2.3-1v1h1.6v-4.2
		c0.1-1.6-1.1-3-2.8-3.1C895.7,32.7,895.5,32.7,895.3,32.7z M895,38.9c-0.9,0-1.4-0.4-1.4-1s0.3-1,1.4-1h1.7v0.8
		C896.6,38.5,895.9,38.9,895,38.9z M904,40.1c1.3,0.1,2.5-0.6,3.1-1.7l-1.3-0.8c-0.4,0.6-1.1,1-1.8,1c-1.2,0.1-2.1-0.8-2.2-2
		c0-0.1,0-0.1,0-0.2c-0.1-1.1,0.7-2.1,1.8-2.2c0.1,0,0.3,0,0.4,0c0.7,0,1.4,0.4,1.8,1l1.3-0.8c-0.6-1.1-1.8-1.8-3.1-1.7
		c-2-0.1-3.7,1.3-3.9,3.3c0,0.1,0,0.2,0,0.4c0,2,1.6,3.7,3.7,3.7C903.8,40.1,903.9,40.1,904,40.1z M912.5,32.7
		c-0.9,0-1.8,0.3-2.4,0.9V30h-1.7v10h1.7v-3.6c-0.1-1.1,0.7-2.1,1.8-2.2c0.1,0,0.1,0,0.2,0c1.1,0,1.7,0.6,1.7,1.9V40h1.7v-4.1
		C915.5,33.7,914.2,32.7,912.5,32.7z M1279.3,341.5h1.8l-4.2-9.4h-1.7l-4.2,9.4h1.8l0.9-2.2h4.7L1279.3,341.5z M1274.3,338l1.8-4.1
		l1.8,4.1H1274.3z M1282.2,341.5h1.7v-9.9h-1.7V341.5z M1296.5,336.6c0.8-0.4,1.2-1.2,1.2-2.1c0-1.5-1.2-2.4-3.5-2.4h-4.4v9.4h4.7
		c2.4,0,3.7-0.9,3.7-2.5C1298.3,337.9,1297.6,336.9,1296.5,336.6L1296.5,336.6z M1294.1,333.5c1.2,0,1.9,0.4,1.9,1.3
		s-0.7,1.3-1.9,1.3h-2.5v-2.6L1294.1,333.5z M1294.5,340.2h-2.8v-2.7h2.8c1.3,0,2,0.4,2,1.4C1296.5,339.7,1295.8,340.2,1294.5,340.2
		L1294.5,340.2z M1305.2,334.4v3.6c0.1,1.1-0.7,2.1-1.8,2.2c-0.1,0-0.1,0-0.2,0c-1.1,0-1.7-0.6-1.7-1.9v-3.9h-1.7v4.1
		c0,2.2,1.2,3.2,3.1,3.2c0.9,0.1,1.7-0.3,2.3-1v0.9h1.6v-7.2L1305.2,334.4L1305.2,334.4z M1311.3,341.6c2,0,3.2-0.9,3.2-2.2
		c0-2.8-4.4-1.5-4.4-3c0-0.5,0.5-0.8,1.5-0.8c0.7,0,1.4,0.1,2,0.5l0.7-1.3c-0.8-0.4-1.8-0.6-2.7-0.6c-1.9,0-3.1,0.9-3.1,2.2
		c0,2.9,4.4,1.6,4.4,2.9c0,0.5-0.4,0.8-1.5,0.8c-0.9,0-1.7-0.2-2.5-0.7l-0.6,1.3C1309.2,341.4,1310.2,341.7,1311.3,341.6
		L1311.3,341.6z M1319.8,339.9c-0.3,0.2-0.6,0.3-0.9,0.3c-0.6,0-1-0.4-1-1v-0.1v-3.4h1.9v-1.3h-1.9v-1.6h-1.7v1.6h-1.2v1.3h1.2v3.4
		c-0.1,1.2,0.7,2.3,1.9,2.4c0.2,0,0.4,0,0.6,0c0.6,0,1.1-0.2,1.6-0.5L1319.8,339.9z M1324.4,334.3c-1.1,0-2.1,0.3-3,0.9l0.7,1.2
		c0.6-0.5,1.4-0.7,2.2-0.7c1.2,0,1.8,0.6,1.8,1.6v0.1h-1.8c-2.2,0-3,0.9-3,2.1s1,2.1,2.7,2.1c0.9,0.1,1.7-0.3,2.2-1v0.9h1.6v-4.2
		c0-1.7-1.4-3-3.1-3C1324.6,334.3,1324.5,334.3,1324.4,334.3L1324.4,334.3z M1324.1,340.4c-0.9,0-1.4-0.4-1.4-1s0.3-1,1.5-1h1.7v0.8
		C1325.7,340,1324.9,340.5,1324.1,340.4L1324.1,340.4z M1333.8,334.3c-0.9-0.1-1.9,0.3-2.5,1v-0.9h-1.6v7.2h1.7V338
		c-0.1-1.1,0.7-2.1,1.8-2.2c0.1,0,0.1,0,0.2,0c1.1,0,1.7,0.6,1.7,1.9v3.9h1.7v-4.1C1336.8,335.3,1335.6,334.3,1333.8,334.3
		L1333.8,334.3z M1346.7,332.1h-3.9v9.4h1.7v-2.7h2.1c2.5,0,4-1.3,4-3.3S1349.1,332.1,1346.7,332.1z M1346.6,337.3h-2v-3.7h2
		c1.5,0,2.3,0.7,2.3,1.9S1348.1,337.3,1346.6,337.3L1346.6,337.3z M1354.9,334.3c-1.1,0-2.1,0.3-3,0.9l0.7,1.2
		c0.6-0.5,1.4-0.7,2.2-0.7c1.2,0,1.8,0.6,1.8,1.6v0.1h-1.8c-2.2,0-3,0.9-3,2.1s1,2.1,2.7,2.1c0.9,0.1,1.7-0.3,2.2-1v0.9h1.6v-4.2
		C1358.2,335.3,1357,334.3,1354.9,334.3L1354.9,334.3z M1354.7,340.4c-0.9,0-1.4-0.4-1.4-1s0.3-1,1.5-1h1.7v0.8
		C1356.2,339.9,1355.5,340.4,1354.7,340.4L1354.7,340.4z M1360.3,341.5h1.7v-9.9h-1.7V341.5z M1366.9,334.3c-1.1,0-2.1,0.3-3,0.9
		l0.7,1.2c0.6-0.5,1.4-0.7,2.2-0.7c1.2,0,1.8,0.6,1.8,1.6v0.1h-1.8c-2.2,0-3,0.9-3,2.1s1,2.1,2.7,2.1c0.9,0.1,1.7-0.3,2.2-1v0.9h1.6
		v-4.2C1370.2,335.3,1369,334.3,1366.9,334.3L1366.9,334.3z M1366.7,340.4c-0.9,0-1.4-0.4-1.4-1s0.3-1,1.4-1h1.7v0.8
		C1368.2,340,1367.5,340.5,1366.7,340.4L1366.7,340.4z M1375.7,341.6c1.3,0.1,2.5-0.6,3.1-1.7l-1.3-0.8c-0.4,0.6-1.1,1-1.8,1
		c-1.2,0.1-2.1-0.8-2.2-2c0-0.1,0-0.1,0-0.2c-0.1-1.1,0.7-2.1,1.8-2.2c0.1,0,0.3,0,0.4,0c0.7,0,1.4,0.4,1.8,1l1.3-0.8
		c-0.6-1.1-1.8-1.8-3.1-1.7c-2-0.2-3.8,1.4-4,3.4s1.4,3.8,3.4,4C1375.3,341.6,1375.5,341.6,1375.7,341.6L1375.7,341.6z M1386.8,338
		c0.1-1.9-1.3-3.6-3.3-3.7c-0.1,0-0.2,0-0.3,0c-2-0.1-3.6,1.5-3.7,3.4c0,0.1,0,0.2,0,0.3c0.1,2.2,2,3.9,4.2,3.7c1-0.1,2-0.5,2.7-1.2
		l-0.9-1c-0.5,0.5-1.2,0.8-1.9,0.8c-1.1,0.1-2.1-0.6-2.3-1.7h5.6C1386.8,338.4,1386.8,338.2,1386.8,338L1386.8,338z M1383.2,335.6
		c1-0.1,1.9,0.7,2,1.7h-4.1C1381.3,336.3,1382.2,335.6,1383.2,335.6L1383.2,335.6z M1454.5,408.4c2.6,0,3.8-1.3,3.8-2.8
		c0-3.4-5.6-2.1-5.6-4.1c0-0.7,0.6-1.3,2-1.3c0.9,0,1.8,0.2,2.6,0.7l0.6-1.4c-0.9-0.5-2-0.8-3.1-0.8c-2.6,0-3.8,1.3-3.8,2.8
		c0,3.5,5.6,2.2,5.6,4.2c0,0.7-0.6,1.2-2.1,1.2c-1.1,0-2.2-0.4-3.1-1l-0.6,1.4C1451.9,408,1453.2,408.4,1454.5,408.4L1454.5,408.4z
		 M1463.9,401c-0.9,0-1.8,0.3-2.4,0.9v-3.6h-1.7v9.9h1.7v-3.6c-0.1-1.1,0.7-2.1,1.8-2.2c0.1,0,0.1,0,0.2,0c1.1,0,1.7,0.6,1.7,1.9
		v3.9h1.7v-4.1c0.2-1.5-1-2.9-2.5-3.1C1464.2,401,1464.1,401,1463.9,401L1463.9,401z M1471.7,401c-1.1,0-2.1,0.3-3,0.9l0.7,1.2
		c0.6-0.5,1.4-0.7,2.2-0.7c1.2,0,1.8,0.6,1.8,1.6v0.1h-1.8c-2.2,0-3,0.9-3,2.1s1,2.1,2.7,2.1c0.9,0.1,1.7-0.3,2.2-1v0.9h1.6V404
		C1475,402,1473.8,401,1471.7,401L1471.7,401z M1471.5,407.1c-0.9,0-1.4-0.4-1.4-1s0.3-1,1.5-1h1.7v0.8
		C1473.1,406.7,1472.3,407.2,1471.5,407.1L1471.5,407.1z M1481.2,401c-0.9-0.1-1.9,0.3-2.5,1v-0.9h-1.6v7.2h1.7v-3.6
		c-0.1-1.1,0.7-2.1,1.8-2.2c0.1,0,0.1,0,0.2,0c1.1,0,1.7,0.6,1.7,1.9v3.9h1.7v-4.1C1484.2,402,1482.9,401,1481.2,401L1481.2,401z
		 M1491.9,401.1v1c-0.6-0.7-1.6-1.1-2.5-1c-1.9,0-3.5,1.5-3.5,3.4s1.5,3.5,3.4,3.5l0,0c0.9,0,1.8-0.3,2.4-1v0.4
		c0,1.4-0.7,2.2-2.3,2.2c-0.9,0-1.9-0.3-2.6-0.9l-0.7,1.3c1,0.7,2.3,1.1,3.5,1c2.5,0,3.9-1.2,3.9-3.8v-6.1H1491.9z M1489.7,406.5
		c-1.1,0.1-2.1-0.7-2.2-1.8c0-0.1,0-0.2,0-0.3c0.1-1.2,1.2-2.1,2.4-2c1.1,0.1,1.9,0.9,2,2C1491.9,405.6,1490.9,406.5,1489.7,406.5
		L1489.7,406.5L1489.7,406.5z M1497.3,402.1v-1h-1.6v7.2h1.7v-3.5c-0.2-1.1,0.6-2,1.6-2.2c0.2,0,0.3,0,0.5,0h0.4V401
		C1498.9,400.9,1497.9,401.3,1497.3,402.1L1497.3,402.1z M1502.1,399.9c0.6,0,1-0.4,1.1-1s-0.4-1.2-1-1.2c-0.6-0.1-1.2,0.4-1.2,1
		C1500.9,399.3,1501.4,399.9,1502.1,399.9L1502.1,399.9z M1501.3,408.3h1.7v-7.2h-1.7V408.3z M1504.8,405.2h3.7v-1.4h-3.7V405.2z
		 M1510.4,408.3h6.7v-1.5h-4.9v-7.9h-1.7L1510.4,408.3L1510.4,408.3z M1521.1,401c-1.1,0-2.1,0.3-3,0.9l0.7,1.2
		c0.6-0.5,1.4-0.7,2.2-0.7c1.2,0,1.8,0.6,1.8,1.6v0.1h-1.8c-2.2,0-3,0.9-3,2.1s1,2.1,2.7,2.1c0.9,0.1,1.7-0.3,2.2-1v0.9h1.6V404
		C1524.4,402,1523.2,401,1521.1,401L1521.1,401z M1520.9,407.1c-0.9,0-1.4-0.4-1.4-1s0.3-1,1.5-1h1.7v0.8
		C1522.5,406.7,1521.7,407.2,1520.9,407.1L1520.9,407.1z M1537.4,408.3h1.8l-4.2-9.4h-1.7l-4.2,9.4h1.8l0.9-2.2h4.7L1537.4,408.3z
		 M1532.4,404.7l1.8-4.1l1.8,4.1H1532.4z M1540.3,408.3h1.7v-9.9h-1.7V408.3z M1554.6,398.9v3.9h-4.9v-3.9h-1.7v9.4h1.7v-4h4.9v4
		h1.7v-9.4H1554.6z M1563.9,401.1v3.6c0.1,1.1-0.7,2.1-1.8,2.2c-0.1,0-0.1,0-0.2,0c-1.1,0-1.7-0.6-1.7-1.9v-3.9h-1.7v4.1
		c0,2.2,1.2,3.2,3.1,3.2c0.9,0.1,1.7-0.3,2.3-1v0.9h1.6v-7.2L1563.9,401.1z M1570,408.3c2,0,3.2-0.9,3.2-2.2c0-2.8-4.4-1.5-4.4-3
		c0-0.5,0.5-0.8,1.5-0.8c0.7,0,1.4,0.1,2,0.5l0.6-1.3c-0.8-0.4-1.8-0.6-2.7-0.6c-1.9,0-3.1,0.9-3.1,2.2c0,2.9,4.4,1.6,4.4,2.9
		c0,0.5-0.4,0.8-1.5,0.8c-0.9,0-1.7-0.2-2.5-0.7l-0.6,1.3C1567.8,408,1568.9,408.4,1570,408.3L1570,408.3z M1578.8,401
		c-0.9-0.1-1.9,0.3-2.5,1v-0.9h-1.6v7.2h1.7v-3.6c-0.1-1.1,0.7-2.1,1.8-2.2c0.1,0,0.1,0,0.2,0c1.1,0,1.7,0.6,1.7,1.9v3.9h1.7v-4.1
		C1581.8,402,1580.5,401,1578.8,401L1578.8,401z M274.5,194.4h1.4l-4.3-9.4h-1.3l-4.2,9.4h1.4l1-2.3h5L274.5,194.4z M268.9,191
		l2-4.6l2,4.6H268.9z M278,193.3l4.2-5.2v-0.8h-5.8v1.1h4.1l-4.2,5.2v0.8h6v-1.1H278z M286.7,187.2c-1,0-2.1,0.3-2.9,0.9l0.5,1
		c0.6-0.5,1.5-0.8,2.3-0.8c1.3,0,1.9,0.6,1.9,1.7v0.3h-2c-2.1,0-2.9,0.9-2.9,2.1s1,2.1,2.6,2.1c0.9,0.1,1.7-0.3,2.3-1v0.9h1.2v-4.3
		c0.1-1.5-0.9-2.8-2.4-2.9C287.1,187.2,286.9,187.2,286.7,187.2z M286.4,193.5c-1,0-1.6-0.4-1.6-1.2c0-0.6,0.4-1.1,1.6-1.1h2v1
		C288.1,193,287.3,193.5,286.4,193.5L286.4,193.5z M292.7,185.9c0.5,0,0.9-0.4,0.9-0.9s-0.4-0.8-0.8-0.8c0,0,0,0-0.1,0
		c-0.5,0-0.9,0.3-0.9,0.8s0.3,0.9,0.8,0.9H292.7z M292.1,194.4h1.3v-7.1h-1.3V194.4z M299.6,187.2c-1,0-1.9,0.4-2.5,1.1v-3.9h-1.3
		v9.9h1.2v-1.1c0.6,0.8,1.5,1.2,2.5,1.2c1.9,0.1,3.5-1.4,3.6-3.3c0-0.1,0-0.2,0-0.3c0.1-1.9-1.3-3.5-3.2-3.6
		C299.8,187.2,299.7,187.2,299.6,187.2z M299.5,193.3c-1.4,0.1-2.5-1-2.6-2.4s1-2.5,2.4-2.6s2.5,1,2.6,2.4v0.1
		c0.1,1.3-1,2.4-2.3,2.5H299.5z M307.5,187.2c-1,0-2.1,0.3-2.9,0.9l0.5,1c0.6-0.5,1.5-0.8,2.3-0.8c1.3,0,1.9,0.6,1.9,1.7v0.3h-2
		c-2.1,0-2.9,0.9-2.9,2.1s1,2.1,2.6,2.1c0.9,0.1,1.7-0.3,2.3-1v0.9h1.2v-4.3c0.1-1.5-0.9-2.8-2.4-2.9
		C307.9,187.2,307.7,187.2,307.5,187.2z M307.2,193.5c-1,0-1.6-0.4-1.6-1.2c0-0.6,0.4-1.1,1.6-1.1h2v1
		C308.9,193,308.1,193.5,307.2,193.5z M323,189.5c0.8-0.4,1.3-1.2,1.3-2.1c0-1.5-1.2-2.4-3.4-2.4h-4.2v9.4h4.5
		c2.4,0,3.6-0.9,3.6-2.5C324.9,190.8,324.1,189.7,323,189.5z M320.8,186.1c1.4,0,2.1,0.5,2.1,1.5s-0.8,1.5-2.1,1.5H318v-3H320.8z
		 M321.1,193.3H318v-3.1h3.1c1.5,0,2.3,0.5,2.3,1.6S322.6,193.3,321.1,193.3L321.1,193.3z M333.1,190.9c0-2-1.5-3.6-3.5-3.6
		s-3.6,1.5-3.6,3.5l0,0c-0.1,1.9,1.5,3.6,3.4,3.6c0.1,0,0.2,0,0.4,0c1.1,0.1,2.1-0.4,2.8-1.2l-0.7-0.8c-0.5,0.6-1.3,0.9-2.1,0.9
		c-1.3,0.1-2.4-0.8-2.6-2.1h5.8C333.1,191.1,333.1,191,333.1,190.9L333.1,190.9z M329.6,188.3c1.2,0,2.2,0.8,2.3,2h-4.6
		C327.4,189.1,328.4,188.2,329.6,188.3L329.6,188.3L329.6,188.3z M337.2,187.2c-1,0-2.1,0.3-2.9,0.9l0.5,1c0.6-0.5,1.5-0.8,2.3-0.8
		c1.3,0,1.9,0.6,1.9,1.7v0.3h-2c-2.1,0-2.9,0.9-2.9,2.1s1,2.1,2.6,2.1c0.9,0.1,1.7-0.3,2.3-1v0.9h1.2v-4.3
		C340.3,188.2,339.2,187.2,337.2,187.2L337.2,187.2z M336.9,193.5c-1,0-1.6-0.4-1.6-1.2c0-0.6,0.4-1.1,1.6-1.1h2v1
		C338.6,193,337.8,193.6,336.9,193.5z M345.8,194.5c1.2,0.1,2.3-0.5,2.9-1.5l-1-0.6c-0.4,0.6-1.1,1-1.9,1c-1.4,0-2.5-1.1-2.5-2.5
		s1.1-2.5,2.5-2.5c0.8,0,1.5,0.3,1.9,1l1-0.6c-0.6-1-1.7-1.6-2.9-1.5c-2-0.1-3.7,1.3-3.9,3.3s1.3,3.7,3.3,3.9
		C345.4,194.5,345.6,194.5,345.8,194.5L345.8,194.5z M354.1,187.2c-1-0.1-1.9,0.4-2.5,1.1v-3.8h-1.3v9.9h1.3v-3.7
		c-0.1-1.2,0.7-2.3,1.9-2.4c0.1,0,0.2,0,0.4,0c1.2,0,1.9,0.7,1.9,2.1v3.9h1.3v-4.1c0.1-1.6-1.1-2.9-2.6-3
		C354.3,187.2,354.2,187.2,354.1,187.2L354.1,187.2z M691.8,219.5c2.7,0.2,4.9-1.9,5.1-4.5c0-0.1,0-0.2,0-0.3c0-2.6-2.1-4.8-4.7-4.8
		c-0.1,0-0.3,0-0.4,0c-2.7-0.2-4.9,1.9-5.1,4.5c0,0.1,0,0.2,0,0.3c0,2.7,2.2,4.8,4.9,4.8C691.7,219.5,691.7,219.5,691.8,219.5z
		 M691.8,217.9c-1.8,0-3.3-1.5-3.3-3.3s1.5-3.3,3.3-3.3s3.3,1.5,3.3,3.3l0,0c0.1,1.7-1.3,3.2-3,3.3
		C692,217.9,691.9,217.9,691.8,217.9z M701.3,212.1c-1.1-0.1-2.1,0.3-3,0.9l0.7,1.2c0.6-0.5,1.4-0.7,2.2-0.7c1.2,0,1.8,0.6,1.8,1.6
		v0.1h-2c-2.2,0-3,0.9-3,2.1s1,2.1,2.7,2.1c0.9,0.1,1.8-0.3,2.3-1v0.9h1.6v-4.2C704.5,213.1,703.3,212.1,701.3,212.1L701.3,212.1z
		 M701,218.2c-0.9,0-1.4-0.4-1.4-1s0.3-1,1.4-1h1.7v0.8C702.6,217.8,701.9,218.2,701,218.2z M708.9,219.4c2,0,3.2-0.9,3.2-2.2
		c0-2.8-4.4-1.5-4.4-3c0-0.5,0.5-0.8,1.5-0.8c0.7,0,1.5,0.1,2.1,0.5l0.6-1.3c-0.8-0.4-1.8-0.6-2.7-0.6c-1.9,0-3.1,0.9-3.1,2.2
		c0,2.9,4.4,1.6,4.4,2.9c0,0.5-0.4,0.8-1.5,0.8c-0.9,0-1.7-0.2-2.5-0.7l-0.6,1.3C706.8,219.2,707.8,219.5,708.9,219.4z M714.4,211
		c0.6,0,1-0.4,1-1s-0.4-1-1-1s-1,0.4-1,1S713.8,211,714.4,211z M713.6,219.3h1.7v-7.2h-1.7V219.3z M719.7,219.4c2,0,3.2-0.9,3.2-2.2
		c0-2.8-4.4-1.5-4.4-3c0-0.5,0.5-0.8,1.5-0.8c0.7,0,1.5,0.1,2.1,0.5l0.6-1.3c-0.8-0.4-1.8-0.6-2.7-0.6c-1.9,0-3.1,0.9-3.1,2.2
		c0,2.9,4.4,1.6,4.4,2.9c0,0.5-0.4,0.8-1.5,0.8c-0.9,0-1.7-0.2-2.5-0.7l-0.6,1.3C717.6,219.2,718.6,219.5,719.7,219.4L719.7,219.4z
		 M738.5,219.3v-9.4H737l-3.7,6.2l-3.7-6.2h-1.4v9.4h1.7v-6.1l3.1,5.1h0.8l3.1-5.1v6.2L738.5,219.3L738.5,219.3z M743.6,212.1
		c-1.1-0.1-2.1,0.3-3,0.9l0.7,1.2c0.6-0.5,1.4-0.7,2.2-0.7c1.2,0,1.8,0.6,1.8,1.6v0.1h-1.8c-2.2,0-3,0.9-3,2.1s1,2.1,2.7,2.1
		c0.9,0.1,1.8-0.3,2.3-1v0.9h1.6v-4.2C747,213.3,745.5,212,743.6,212.1C743.7,212.1,743.6,212.1,743.6,212.1z M743.4,218.2
		c-0.9,0-1.4-0.4-1.4-1s0.3-1,1.4-1h1.7v0.8C744.9,217.8,744.2,218.3,743.4,218.2L743.4,218.2z M749,219.3h1.7v-9.9H749V219.3z
		 M752.9,219.3h1.7v-9.9h-1.7V219.3z M1039.1,227.1c2.6,0,3.8-1.3,3.8-2.8c0-3.4-5.6-2.1-5.6-4.1c0-0.7,0.6-1.3,2-1.3
		c0.9,0,1.8,0.2,2.6,0.7l0.5-1.4c-0.9-0.5-2-0.8-3.1-0.8c-2.6,0-3.8,1.3-3.8,2.8c0,3.5,5.6,2.2,5.6,4.2c0,0.7-0.6,1.2-2.1,1.2
		c-1.1,0-2.2-0.3-3.1-1l-0.6,1.4C1036.4,226.8,1037.7,227.2,1039.1,227.1L1039.1,227.1z M1048.5,219.7c-0.9,0-1.8,0.3-2.4,0.9V217
		h-1.7v9.9h1.7v-3.6c-0.1-1.1,0.7-2.1,1.8-2.2c0.1,0,0.1,0,0.2,0c1.1,0,1.7,0.6,1.7,1.9v3.9h1.7v-4.1c0.2-1.5-1-2.9-2.5-3.1
		C1048.8,219.7,1048.7,219.7,1048.5,219.7L1048.5,219.7z M1060.4,223.4c0.1-1.9-1.3-3.6-3.3-3.7c-0.1,0-0.2,0-0.3,0
		c-2-0.1-3.6,1.5-3.7,3.4c0,0.1,0,0.2,0,0.3c0.1,2.2,2,3.9,4.2,3.7c1-0.1,2-0.5,2.7-1.2l-0.9-1c-0.5,0.5-1.2,0.8-1.9,0.8
		c-1.1,0.1-2.1-0.6-2.3-1.7h5.6C1060.4,223.8,1060.4,223.6,1060.4,223.4L1060.4,223.4z M1056.8,221.1c1-0.1,1.9,0.7,2,1.7h-4.1
		C1054.9,221.8,1055.8,221.1,1056.8,221.1L1056.8,221.1z M1063.6,220.9v-1h-1.6v7.2h1.7v-3.5c-0.2-1.1,0.6-2,1.6-2.2
		c0.2,0,0.3,0,0.5,0h0.4v-1.6C1065.2,219.6,1064.2,220.1,1063.6,220.9L1063.6,220.9z M1070.3,219.7c-1.1-0.1-2.1,0.3-3,0.9l0.7,1.2
		c0.6-0.5,1.4-0.7,2.2-0.7c1.2,0,1.8,0.6,1.8,1.6v0.1h-1.8c-2.2,0-3,0.9-3,2.1s1,2.1,2.7,2.1c0.9,0.1,1.8-0.3,2.3-1v0.9h1.6v-4.2
		C1073.7,220.9,1072.2,219.6,1070.3,219.7C1070.4,219.7,1070.3,219.7,1070.3,219.7L1070.3,219.7z M1070,225.9c-0.9,0-1.4-0.4-1.4-1
		s0.3-1,1.4-1h1.7v0.8C1071.6,225.5,1070.9,225.9,1070,225.9L1070,225.9z M1079.5,225.4c-0.3,0.2-0.6,0.3-0.9,0.3c-0.6,0-1-0.4-1-1
		v-0.1v-3.4h1.9v-1.3h-1.9v-1.6h-1.7v1.6h-1.2v1.3h1.2v3.4c-0.1,1.2,0.7,2.3,1.9,2.4c0.2,0,0.4,0,0.6,0c0.6,0,1.1-0.2,1.6-0.5
		L1079.5,225.4z M1084.3,227.1c2,0.1,3.7-1.4,3.8-3.4c0-0.1,0-0.2,0-0.3c0-2-1.6-3.7-3.6-3.7c-0.1,0-0.1,0-0.2,0
		c-2-0.1-3.7,1.4-3.8,3.4c0,0.1,0,0.2,0,0.3c0,2,1.6,3.7,3.6,3.7C1084.2,227.1,1084.2,227.1,1084.3,227.1L1084.3,227.1z
		 M1084.3,225.6c-1.1,0-2.1-0.9-2.1-2.1v-0.1c-0.1-1.1,0.7-2.1,1.8-2.2c0.1,0,0.2,0,0.3,0c1.1,0,2.1,0.9,2.1,2.1v0.1
		c0.2,1.1-0.6,2-1.6,2.2C1084.6,225.6,1084.5,225.6,1084.3,225.6L1084.3,225.6z M1093.8,219.7c-0.9-0.1-1.9,0.3-2.5,1v-0.9h-1.6v7.2
		h1.7v-3.6c-0.1-1.1,0.7-2.1,1.8-2.2c0.1,0,0.1,0,0.2,0c1.1,0,1.7,0.6,1.7,1.9v3.9h1.7v-4.1C1096.8,220.7,1095.5,219.7,1093.8,219.7
		L1093.8,219.7z M1107.2,227.1c2.7,0.2,4.9-1.9,5.1-4.5c0-0.1,0-0.2,0-0.3c0-2.6-2.1-4.8-4.7-4.8c-0.1,0-0.3,0-0.4,0
		c-2.7-0.1-5,1.9-5.1,4.6c0,0.1,0,0.1,0,0.2c0,2.7,2.2,4.8,4.8,4.8C1107,227.1,1107.1,227.1,1107.2,227.1L1107.2,227.1z
		 M1107.2,225.6c-1.8,0-3.3-1.5-3.3-3.3s1.5-3.3,3.3-3.3s3.3,1.5,3.3,3.3c0.1,1.8-1.3,3.2-3.1,3.3
		C1107.3,225.6,1107.3,225.6,1107.2,225.6L1107.2,225.6z M1122.9,219.7c-1,0-2,0.4-2.7,1.2c-0.5-0.8-1.4-1.2-2.4-1.2
		c-0.9-0.1-1.8,0.3-2.3,1v-0.9h-1.6v7.2h1.7v-3.6c-0.1-1,0.6-1.9,1.6-2.1c0.1,0,0.2,0,0.3,0c1,0,1.6,0.6,1.6,1.9v3.9h1.7v-3.6
		c-0.1-1,0.6-1.9,1.6-2.1c0.1,0,0.2,0,0.3,0c1,0,1.6,0.6,1.6,1.9v3.9h1.7v-4.1C1125.9,220.7,1124.7,219.7,1122.9,219.7L1122.9,219.7
		z M1130.8,219.7c-1.1-0.1-2.1,0.3-3,0.9l0.7,1.2c0.6-0.5,1.4-0.7,2.2-0.7c1.2,0,1.8,0.6,1.8,1.6v0.1h-1.8c-2.2,0-3,0.9-3,2.1
		s1,2.1,2.7,2.1c0.9,0.1,1.8-0.3,2.3-1v0.9h1.6v-4.2C1134.2,220.9,1132.7,219.6,1130.8,219.7
		C1130.9,219.7,1130.8,219.7,1130.8,219.7L1130.8,219.7z M1130.5,225.9c-0.9,0-1.4-0.4-1.4-1s0.3-1,1.4-1h1.7v0.8
		C1132,225.5,1131.3,226,1130.5,225.9L1130.5,225.9z M1140.2,219.7c-0.9-0.1-1.9,0.3-2.5,1v-0.9h-1.6v7.2h1.7v-3.6
		c-0.1-1.1,0.7-2.1,1.8-2.2c0.1,0,0.1,0,0.2,0c1.1,0,1.7,0.6,1.7,1.9v3.9h1.7v-4.1C1143.2,220.7,1141.9,219.7,1140.2,219.7
		L1140.2,219.7z M415,344.4v-6.7l-3.3,5.5h-1.2l-3.3-5.4v6.6h-2.4v-11.2h2.1l4.2,7l4.1-7h2.1v11.2H415z M425.1,344.6
		c-1.4,0.1-2.7-0.4-3.7-1.3c-0.9-1-1.4-2.4-1.3-3.8v-6.3h2.6v6.2c0,2,0.8,3,2.5,3c0.7,0,1.4-0.2,1.9-0.7c0.4-0.7,0.7-1.5,0.6-2.3
		v-6.2h2.6v6.3c0.1,1.4-0.4,2.8-1.3,3.8C427.9,344.2,426.5,344.7,425.1,344.6z M436.4,344.6c-0.9,0-1.8-0.1-2.6-0.4
		c-0.7-0.2-1.4-0.5-2-0.9l0.9-2c0.5,0.4,1.1,0.6,1.7,0.8c0.6,0.2,1.3,0.3,2,0.3c0.6,0,1.1-0.1,1.6-0.3c0.3-0.2,0.5-0.5,0.5-0.9
		c0-0.3-0.1-0.5-0.3-0.7c-0.2-0.2-0.5-0.3-0.8-0.4s-0.8-0.2-1.3-0.4c-0.7-0.1-1.4-0.3-2.1-0.6c-0.5-0.2-1-0.5-1.4-1
		s-0.7-1.1-0.6-1.8c0-0.6,0.2-1.3,0.5-1.8c0.4-0.6,1-1,1.6-1.3c0.8-0.3,1.7-0.5,2.6-0.5c0.7,0,1.4,0.1,2.1,0.3
		c0.6,0.2,1.2,0.4,1.8,0.7l-0.8,2c-0.9-0.6-2-0.9-3.1-0.9c-0.6-0.1-1.1,0.1-1.6,0.4c-0.3,0.2-0.5,0.5-0.5,0.9s0.2,0.7,0.6,0.9
		c0.6,0.3,1.2,0.4,1.8,0.5c0.7,0.1,1.4,0.3,2.1,0.6c0.5,0.2,1,0.5,1.4,1s0.7,1.1,0.6,1.8c0,0.6-0.2,1.2-0.5,1.8
		c-0.4,0.5-1,0.9-1.6,1.2C438.2,344.4,437.3,344.6,436.4,344.6z M448.3,344.6c-1.1,0-2.1-0.2-3.1-0.7c-0.9-0.5-1.6-1.2-2.2-2.1
		c-1.1-1.9-1.1-4.1,0-6c0.5-0.9,1.3-1.6,2.2-2.1c1-0.5,2-0.8,3.1-0.8c0.9,0,1.8,0.2,2.6,0.5c0.8,0.3,1.5,0.8,2,1.5l-1.7,1.5
		c-0.7-0.8-1.7-1.3-2.8-1.3c-0.7,0-1.3,0.2-1.9,0.5c-0.5,0.3-1,0.8-1.3,1.3c-0.3,0.6-0.4,1.2-0.4,1.9c0,0.7,0.1,1.3,0.4,1.9
		c0.3,0.5,0.8,1,1.3,1.3c0.6,0.3,1.2,0.4,1.9,0.4c1.1,0,2.1-0.4,2.8-1.3l1.7,1.5c-0.5,0.7-1.2,1.2-2,1.5
		C450.1,344.4,449.2,344.6,448.3,344.6z M461.8,342h-5.2l-1,2.4H453l5-11.2h2.6l5,11.2h-2.7L461.8,342z M461,340l-1.8-4.3l-1.8,4.3
		H461z M468.5,335.3h-3.6v-2.1h9.8v2.1H471v9.1h-2.6v-9.1H468.5z"/>
	<path class="st3" d="M1247.8,138.9c0,0-37,352.4,349.8,343.8"/>
	<path class="st3" d="M1636.9,437.1c-22.9-374.2-346-311.6-346-311.6"/>
	<path class="st3" d="M124.1,240.2c0,0,607.3,101.1,1126.7-102.6"/>
	<path id="car" class="st0" d="M933.6,240.3c-0.6-0.6-1.5-1-2.4-0.9c-0.6,0-2.9,0.3-2.9,0.3c-1.2,0.2-2.5,0.4-3.7,0.7
		c-0.3-0.4-0.6-0.8-1-1.1c0-0.1-0.2-0.2-0.4-0.2s-0.2,0.1-0.1,0.2c0.2,0.4,0.4,0.8,0.6,1.2h-0.2c0,0-10.3,1.5-11.7,1.8
		s-4,0.6-4.8,1.2c-0.9,0.4-1.5,1.3-1.4,2.3c0,1.2,0.1,2.5,0.3,3.7s0.5,2.4,0.9,3.6c0.3,1,1,1.7,2,1.9c0.9,0.3,3.5-0.2,4.9-0.4
		s11.7-2.2,11.7-2.2h0.2c0,0.3-0.2,1.3-0.2,1.4s0,0.2,0.2,0.1s0.3-0.2,0.4-0.3s0.4-1,0.6-1.3c1.1-0.1,2.9-0.4,3.7-0.5
		c1-0.2,1.9-0.4,2.8-0.7c0.9-0.2,1.6-0.8,2-1.6c0.5-1.5,0.6-3.2,0.3-4.8C935.1,243.1,934.5,241.6,933.6,240.3z M913.7,250.1
		c0.4,1.4,0.9,1.7,1.3,1.8s-0.1,0.3-0.1,0.3s-1.9,0.4-2.9,0.5s-1.3-0.5-1.5-1c-0.3-0.9-0.6-1.9-0.8-2.9s-0.2-2-0.2-3
		c0.1-0.5,0.2-1.2,1.2-1.3s2.9-0.4,2.9-0.4s0.4,0,0.2,0.2s-0.8,0.6-0.7,2.1C913.2,247.6,913.4,248.9,913.7,250.1L913.7,250.1z
		 M928.5,249.1c-0.4,1.2-0.6,1.6-1.3,1.8c-1.2,0.1-2.3,0.1-3.5,0c-0.5-0.1-0.9,0-0.8-0.3c0.2-1.3,0.2-2.6,0-3.9
		c-0.2-1.3-0.6-2.6-1.3-3.7c-0.2-0.3,0.2-0.4,0.7-0.6c1.1-0.4,2.2-0.8,3.3-1.1c0.7-0.1,1,0.2,1.8,1.3c0.5,1,0.9,2,1.1,3.1
		C928.7,246.8,928.7,248,928.5,249.1L928.5,249.1z"/>
</g>
</svg>
