<svg id="Layer_1" data-name="Layer 1" xmlns="http://www.w3.org/2000/svg" viewBox="0 0 1920 568.3"><defs><style>.cls-1,.cls-3{fill:none;stroke:#fff;stroke-miterlimit:10;}.cls-1{stroke-width:2px;}.cls-2,.cls-4{fill:#fff;}.cls-3{stroke-linecap:round;stroke-width:3px;stroke-dasharray:12 12;}.cls-4{fill-rule:evenodd;}</style></defs><path id="dots" class="cls-1" d="M1599,409.4a5.6,5.6,0,1,0-5.6-5.6h0A5.71,5.71,0,0,0,1599,409.4Zm-193.9-65.8a5.6,5.6,0,1,0-5.6-5.6h0a5.59,5.59,0,0,0,5.58,5.6ZM371.2,196a5.6,5.6,0,1,0-5.6-5.6,5.6,5.6,0,0,0,5.6,5.6Zm398.2,23.9a5.6,5.6,0,1,0-5.6-5.6h0a5.59,5.59,0,0,0,5.58,5.6ZM600.8,287.1a5.6,5.6,0,1,0-5.6-5.6h0a5.59,5.59,0,0,0,5.58,5.6ZM1157,228.5a5.6,5.6,0,1,0-5.6-5.6h0a5.59,5.59,0,0,0,5.58,5.6Zm63.1-140a5.6,5.6,0,1,0-5.6-5.6h0a5.59,5.59,0,0,0,5.58,5.6Zm-26.2,39.9a5.6,5.6,0,1,0-5.6-5.6h0a5.59,5.59,0,0,0,5.58,5.6ZM930.3,40.6a5.6,5.6,0,1,0-5.6-5.6h0a5.59,5.59,0,0,0,5.58,5.6Z"/><path id="name" class="cls-2" d="M489.6,276.1h-3.9v9.4h1.7v-2.7h2.1c2.5,0,4-1.3,4-3.3S492,276.1,489.6,276.1Zm-.1,5.2h-2v-3.7h2c1.5,0,2.3.7,2.3,1.9s-.8,1.8-2.3,1.8Zm8.3-3a4.63,4.63,0,0,0-3,.9l.7,1.2a3.83,3.83,0,0,1,2.2-.7c1.2,0,1.8.6,1.8,1.6v.1h-1.8c-2.2,0-3,.9-3,2.1s1,2.1,2.7,2.1a2.52,2.52,0,0,0,2.3-1v.9h1.6v-4.2c-.2-2.1-1.4-3-3.5-3Zm-.2,6.1c-.9,0-1.4-.4-1.4-1s.3-1,1.4-1h1.7v.8a1.63,1.63,0,0,1-1.7,1.2Zm9.7-6.1a3.18,3.18,0,0,0-2.5,1v-.9h-1.6v7.2h1.7V282a2,2,0,0,1,1.79-2.19h.21c1.1,0,1.7.6,1.7,1.9v3.9h1.7v-4.1c0-2.3-1.3-3.2-3-3.2Zm8.4,7.3a3.7,3.7,0,1,0-3.8-3.7,3.59,3.59,0,0,0,3.49,3.7Zm0-1.4a2.2,2.2,0,1,1,2.1-2.3v.1a2.08,2.08,0,0,1-2,2.2Zm7-4.8v-1h-1.6v7.2h1.7V282a1.94,1.94,0,0,1,1.63-2.19,1.85,1.85,0,0,1,.47,0h.4v-1.6a3.1,3.1,0,0,0-2.6,1.2Zm6.7-1.1a4.63,4.63,0,0,0-3,.9l.7,1.2a3.83,3.83,0,0,1,2.2-.7c1.2,0,1.8.6,1.8,1.6v.1h-1.8c-2.2,0-3,.9-3,2.1s1,2.1,2.7,2.1a2.52,2.52,0,0,0,2.3-1v.9h1.6v-4.2a3.13,3.13,0,0,0-3.24-3l-.26,0Zm-.3,6.1c-.9,0-1.4-.4-1.4-1s.3-1,1.4-1h1.7v.8c-.1.8-.8,1.2-1.7,1.2Zm14.7-6.1a3.62,3.62,0,0,0-2.7,1.2,2.73,2.73,0,0,0-2.4-1.2,2.62,2.62,0,0,0-2.3,1v-.9h-1.6v7.2h1.7V282a1.84,1.84,0,0,1,1.58-2.08,1.72,1.72,0,0,1,.32,0c1,0,1.6.6,1.6,1.9v3.9h1.7v-3.6a1.84,1.84,0,0,1,1.58-2.08,1.72,1.72,0,0,1,.32,0c1,0,1.6.6,1.6,1.9v3.9h1.7v-4.1c-.2-2.5-1.4-3.4-3.1-3.4Zm7.8,0a4.63,4.63,0,0,0-3,.9l.7,1.2a3.83,3.83,0,0,1,2.2-.7c1.2,0,1.8.6,1.8,1.6v.1h-1.8c-2.2,0-3,.9-3,2.1s1,2.1,2.7,2.1a2.52,2.52,0,0,0,2.3-1v.9h1.6v-4.2c-.2-2.1-1.4-3-3.5-3Zm-.2,6.1c-.9,0-1.4-.4-1.4-1s.3-1,1.4-1h1.7v.8a1.63,1.63,0,0,1-1.7,1.2Zm19.8,1.1v-9.4h-1.4l-3.7,6.2-3.7-6.2H561v9.4h1.7v-6.1l3.1,5.1h.8l3.1-5.1v6.2h1.5Zm5.1-7.2a4.63,4.63,0,0,0-3,.9l.7,1.2a3.83,3.83,0,0,1,2.2-.7c1.2,0,1.8.6,1.8,1.6v.1h-2c-2.2,0-3,.9-3,2.1s1,2.1,2.7,2.1a2.52,2.52,0,0,0,2.3-1v.9h1.6v-4.2c-.1-2.1-1.3-3-3.3-3Zm-.3,6.1c-.9,0-1.4-.4-1.4-1s.3-1,1.4-1h1.7v.8a1.57,1.57,0,0,1-1.7,1.2Zm5.7,1.1h1.7v-9.9h-1.7Zm3.8,0h1.7v-9.9h-1.7ZM1059.9,87.6h1.8l-4.2-9.4h-1.7l-4.2,9.4h1.8l.9-2.2h4.7Zm-5.1-3.5,1.8-4.1,1.8,4.1Zm10.1,3.6c2,0,3.2-.9,3.2-2.2,0-2.8-4.4-1.5-4.4-3,0-.5.5-.8,1.5-.8a4.05,4.05,0,0,1,2.1.5l.6-1.3a5.37,5.37,0,0,0-2.7-.6c-1.9,0-3.1.9-3.1,2.2,0,2.9,4.4,1.6,4.4,2.9,0,.5-.4.8-1.5.8a4.91,4.91,0,0,1-2.5-.7l-.6,1.3A4.48,4.48,0,0,0,1064.9,87.7Zm11.4.1c2.6,0,3.8-1.3,3.8-2.8,0-3.4-5.6-2.1-5.6-4.1,0-.7.6-1.3,2-1.3a5.38,5.38,0,0,1,2.6.7l.5-1.4a6.23,6.23,0,0,0-3.1-.8c-2.6,0-3.8,1.3-3.8,2.8,0,3.5,5.6,2.2,5.6,4.2,0,.7-.6,1.2-2.1,1.2a5.17,5.17,0,0,1-3.1-1l-.6,1.4A7.49,7.49,0,0,0,1076.3,87.8Zm10.7-7.3v3.6a2,2,0,0,1-1.79,2.19H1085c-1.1,0-1.7-.6-1.7-1.9V80.5h-1.7v4.1c0,2.2,1.2,3.2,3.1,3.2a2.78,2.78,0,0,0,2.3-1v.9h1.6V80.5Zm3.8,7.1h1.7V77.7h-1.7Zm8.1-1.5a1.62,1.62,0,0,1-.9.3,1,1,0,0,1-1-1s0-.08,0-.11V81.9h1.9V80.6H1097V79h-1.7v1.6h-1.2v1.3h1.2v3.4a2.19,2.19,0,0,0,1.94,2.41,2.09,2.09,0,0,0,.56,0,2.78,2.78,0,0,0,1.6-.5Zm4.6-5.7a4.63,4.63,0,0,0-3,.9l.7,1.2a3.83,3.83,0,0,1,2.2-.7c1.2,0,1.8.6,1.8,1.6v.1h-1.8c-2.2,0-3,.9-3,2.1s1,2.1,2.7,2.1a2.52,2.52,0,0,0,2.3-1v.9h1.6V83.4a3.19,3.19,0,0,0-3.36-3Zm-.3,6.1c-.9,0-1.4-.4-1.4-1s.3-1,1.4-1h1.7v.8C1104.8,86.1,1104.1,86.5,1103.2,86.5Zm9.7-6.1a3.18,3.18,0,0,0-2.5,1v-.9h-1.6v7.2h1.7V84a2,2,0,0,1,1.79-2.19h.21c1.1,0,1.7.6,1.7,1.9v3.9h1.7V83.5a2.77,2.77,0,0,0-2.41-3.09,2.9,2.9,0,0,0-.59,0Zm18.1,7.2a2,2,0,0,1-3.2,0,4.79,4.79,0,0,0-1.6-9.4,4.87,4.87,0,0,0-5.1,4.63V83a4.74,4.74,0,0,0,4.5,4.8c1.4,1.4,2.3,1.9,3.6,1.9a3.39,3.39,0,0,0,2.5-1.1Zm-8-4.6a3.3,3.3,0,1,1,3.3,3.3,3.21,3.21,0,0,1-3.3-3.12V83Zm12.8-2.6a4.63,4.63,0,0,0-3,.9l.7,1.2a3.83,3.83,0,0,1,2.2-.7c1.2,0,1.8.6,1.8,1.6v.1h-1.8c-2.2,0-3,.9-3,2.1s1,2.1,2.7,2.1a2.52,2.52,0,0,0,2.3-1v.9h1.6V83.4a3.19,3.19,0,0,0-3.36-3Zm-.3,6.1c-.9,0-1.4-.4-1.4-1s.3-1,1.4-1h1.7v.8c-.1.8-.8,1.2-1.7,1.2Zm9.7-6.1a2.93,2.93,0,0,0-2.3,1V77.7h-1.7v9.9h1.6v-.9a3,3,0,0,0,2.4,1,3.65,3.65,0,0,0,0-7.3Zm-.2,5.9a2.2,2.2,0,1,1,2.1-2.3v.1a2.08,2.08,0,0,1-2,2.2Zm8.6,1.4a3.7,3.7,0,1,0-3.8-3.7,3.59,3.59,0,0,0,3.49,3.7Zm0-1.4a2.2,2.2,0,1,1,2.1-2.3v.1a2.08,2.08,0,0,1-2,2.2Zm8.6,1.4a3.7,3.7,0,1,0-3.8-3.7,3.59,3.59,0,0,0,3.49,3.7Zm0-1.4a2.2,2.2,0,1,1,2.1-2.3v.1a2.08,2.08,0,0,1-2,2.2Zm7.7,1.4c2,0,3.2-.9,3.2-2.2,0-2.8-4.4-1.5-4.4-3,0-.5.5-.8,1.5-.8a4.05,4.05,0,0,1,2.1.5l.6-1.3a5.37,5.37,0,0,0-2.7-.6c-1.9,0-3.1.9-3.1,2.2,0,2.9,4.4,1.6,4.4,2.9,0,.5-.4.8-1.5.8a4.91,4.91,0,0,1-2.5-.7l-.6,1.3a4.48,4.48,0,0,0,3,.9Zm12.4-9.4h-3.9v9.4h1.7V85h2.1c2.5,0,4-1.3,4-3.3.1-2.2-1.5-3.4-3.9-3.4Zm-.1,5.2h-2V79.8h2c1.5,0,2.3.7,2.3,1.9s-.8,1.8-2.3,1.8Zm8.8,4.2a3.7,3.7,0,1,0-3.8-3.7,3.59,3.59,0,0,0,3.49,3.7Zm0-1.4a2.2,2.2,0,1,1,2.1-2.3v.1a2,2,0,0,1-1.79,2.19,1.61,1.61,0,0,1-.31,0Zm7.1-4.8v-1h-1.6v7.2h1.7V84.2a1.94,1.94,0,0,1,1.63-2.19,1.85,1.85,0,0,1,.47,0h.4V80.4a2.8,2.8,0,0,0-2.6,1.1Zm8,4.6a1.62,1.62,0,0,1-.9.3,1,1,0,0,1-1-1s0-.08,0-.11V81.9h1.9V80.6h-1.9V79h-1.7v1.6h-1.2v1.3h1.2v3.4a2.19,2.19,0,0,0,1.94,2.41,2.09,2.09,0,0,0,.56,0,2.78,2.78,0,0,0,1.6-.5Zm-104.3,39.6v-9.4h-1.4l-3.7,6.2-3.7-6.2h-1.4v9.4h1.7v-6.1l3.1,5.1h.8l3.1-5.1v6.2h1.5Zm7.7-7.2v3.6a2,2,0,0,1-1.79,2.19h-.21c-1.1,0-1.7-.6-1.7-1.9v-3.9h-1.7v4.1c0,2.2,1.2,3.2,3.1,3.2a2.78,2.78,0,0,0,2.3-1v.9h1.6v-7.2Zm7.7,5.6a1.62,1.62,0,0,1-.9.3,1,1,0,0,1-1-1s0-.08,0-.11v-3.4h1.9v-1.3h-1.9V117h-1.7v1.6h-1.2v1.3h1.2v3.4a2.19,2.19,0,0,0,1.94,2.41,2.09,2.09,0,0,0,.56,0,2.78,2.78,0,0,0,1.6-.5Zm3.4-4.5v-1H1119v7.2h1.7v-3.5a1.94,1.94,0,0,1,1.63-2.19,1.85,1.85,0,0,1,.47,0h.4v-1.6a2.63,2.63,0,0,0-2.6,1.1Zm6.7-1.2a4.63,4.63,0,0,0-3,.9l.7,1.2a3.83,3.83,0,0,1,2.2-.7c1.2,0,1.8.6,1.8,1.6v.1h-1.8c-2.2,0-3,.9-3,2.1s1,2.1,2.7,2.1a2.52,2.52,0,0,0,2.3-1v.9h1.6v-4.2a3.19,3.19,0,0,0-3.36-3Zm-.3,6.1c-.9,0-1.4-.4-1.4-1s.3-1,1.4-1h1.7v.8c-.1.9-.8,1.2-1.7,1.2Zm9.7-6.1a3.24,3.24,0,0,0-2.4.9v-3.6h-1.7v9.9h1.7V122a2,2,0,0,1,1.79-2.19h.21c1.1,0,1.7.6,1.7,1.9v3.9h1.7v-4.1a2.77,2.77,0,0,0-2.41-3.09,2.9,2.9,0,0,0-.59,0Zm11.9,7.4c2.6,0,3.8-1.3,3.8-2.8,0-3.4-5.6-2.1-5.6-4.1,0-.7.6-1.3,2-1.3a5.38,5.38,0,0,1,2.6.7l.5-1.4a6.23,6.23,0,0,0-3.1-.8c-2.6,0-3.8,1.3-3.8,2.8,0,3.5,5.6,2.2,5.6,4.2,0,.7-.6,1.2-2.1,1.2a5.17,5.17,0,0,1-3.1-1l-.6,1.4a7.4,7.4,0,0,0,3.8,1.1Zm8.6,0a3.61,3.61,0,0,0,3.8-3.39v-.31a3.64,3.64,0,0,0-3.6-3.7h-.2a3.61,3.61,0,0,0-3.8,3.39v.31a3.64,3.64,0,0,0,3.6,3.7Zm0-1.5a2.2,2.2,0,1,1,2.1-2.3v.1a2.08,2.08,0,0,1-2,2.2Zm10.7-5.8v3.6a2,2,0,0,1-1.79,2.19h-.21c-1.1,0-1.7-.6-1.7-1.9v-3.9h-1.7v4.1c0,2.2,1.2,3.2,3.1,3.2a2.78,2.78,0,0,0,2.3-1v.9h1.6v-7.2Zm9.3,0v.9a3,3,0,0,0-2.4-1,3.45,3.45,0,0,0-3.61,3.27c0,.14,0,.29,0,.43a3.5,3.5,0,0,0,3.27,3.7h.33a2.93,2.93,0,0,0,2.3-1v3.5h1.7v-9.8Zm-2.2,5.8a2.2,2.2,0,1,1,2.1-2.3v.1a2.08,2.08,0,0,1-2,2.2ZM833.1,40V30.6h-1.4L828,36.8l-3.7-6.2h-1.4V40h1.7V33.9l3.1,5.1h.8l3.1-5.1v6.2h1.5Zm5.1-7.3a4.63,4.63,0,0,0-3,.9l.7,1.2a3.83,3.83,0,0,1,2.2-.7c1.2,0,1.8.6,1.8,1.6v.1h-1.8c-2.2,0-3,.9-3,2.1s1,2.1,2.7,2.1a2.52,2.52,0,0,0,2.3-1v1h1.6V35.8c-.2-2.1-1.4-3.1-3.5-3.1Zm-.2,6.2c-.9,0-1.4-.4-1.4-1s.3-1,1.4-1h1.7v.8a1.63,1.63,0,0,1-1.7,1.2Zm7.2-5v-1h-1.6V40h1.7V36.5a1.94,1.94,0,0,1,1.63-2.19,1.85,1.85,0,0,1,.47,0h.4V32.7a2.74,2.74,0,0,0-2.6,1.2Zm4.9-2.3a1,1,0,1,0-1-1A1,1,0,0,0,850.1,31.6Zm-1.6,11.1A2.34,2.34,0,0,0,851,40.54a2.16,2.16,0,0,0,0-.44V32.8h-1.7v7.3c0,.8-.3,1.1-1,1.1a1.68,1.68,0,0,1-1-.3l-.5,1.2A2.22,2.22,0,0,0,848.5,42.7Zm7.4-10a4.63,4.63,0,0,0-3,.9l.7,1.2a3.83,3.83,0,0,1,2.2-.7c1.2,0,1.8.6,1.8,1.6v.1h-1.8c-2.2,0-3,.9-3,2.1s1,2.1,2.7,2.1a2.52,2.52,0,0,0,2.3-1v1h1.6V35.8C859.2,33.7,858,32.7,855.9,32.7Zm-.2,6.2c-.9,0-1.4-.4-1.4-1s.3-1,1.4-1h1.7v.8A1.63,1.63,0,0,1,855.7,38.9Zm9.7-6.2a3.18,3.18,0,0,0-2.5,1v-.9h-1.6V40H863V36.4a2,2,0,0,1,1.79-2.19H865c1.1,0,1.7.6,1.7,1.9V40h1.7V35.9C868.4,33.7,867.1,32.7,865.4,32.7ZM881,35.1a2.32,2.32,0,0,0,1.2-2.1c0-1.5-1.2-2.4-3.5-2.4h-4.4V40H879c2.4,0,3.7-.9,3.7-2.5A2.31,2.31,0,0,0,881,35.1ZM878.6,32c1.2,0,1.9.4,1.9,1.3s-.7,1.3-1.9,1.3h-2.5V32Zm.3,6.6h-2.8V35.9h2.8c1.3,0,2,.4,2,1.4s-.7,1.3-2,1.3Zm12.2-2.2a3.5,3.5,0,0,0-3.27-3.7h-.33a3.57,3.57,0,0,0-3.7,3.44v.26c0,2.2,1.6,3.7,4,3.7a3.7,3.7,0,0,0,2.9-1.2l-.9-1a2.56,2.56,0,0,1-1.9.8,2.22,2.22,0,0,1-2.3-1.7h5.6A1.23,1.23,0,0,1,891.1,36.4Zm-3.6-2.3a1.89,1.89,0,0,1,2,1.7h-4.1A2.05,2.05,0,0,1,887.5,34.1Zm7.8-1.4a4.63,4.63,0,0,0-3,.9l.7,1.2a3.83,3.83,0,0,1,2.2-.7c1.2,0,1.8.6,1.8,1.6v.1h-2c-2.2,0-3,.9-3,2.1s1,2.1,2.7,2.1a2.52,2.52,0,0,0,2.3-1v1h1.6V35.8a2.94,2.94,0,0,0-2.75-3.12A3.37,3.37,0,0,0,895.3,32.7Zm-.3,6.2c-.9,0-1.4-.4-1.4-1s.3-1,1.4-1h1.7v.8C896.6,38.5,895.9,38.9,895,38.9Zm9,1.2a3.35,3.35,0,0,0,3.1-1.7l-1.3-.8a2,2,0,0,1-1.8,1,2.1,2.1,0,0,1-2.2-2V36.4a2,2,0,0,1,1.78-2.2,2.94,2.94,0,0,1,.42,0,2,2,0,0,1,1.8,1l1.3-.8a3.24,3.24,0,0,0-3.1-1.7,3.63,3.63,0,0,0-3.89,3.35c0,.12,0,.23,0,.35a3.69,3.69,0,0,0,3.65,3.71Zm8.5-7.4a3.24,3.24,0,0,0-2.4.9V30h-1.7V40h1.7V36.4a2,2,0,0,1,1.79-2.19h.21c1.1,0,1.7.6,1.7,1.9V40h1.7V35.9C915.5,33.7,914.2,32.7,912.5,32.7Zm366.8,308.8h1.8l-4.2-9.4h-1.7l-4.2,9.4h1.8l.9-2.2h4.7Zm-5-3.5,1.8-4.1,1.8,4.1Zm7.9,3.5h1.7v-9.9h-1.7Zm14.3-4.9a2.32,2.32,0,0,0,1.2-2.1c0-1.5-1.2-2.4-3.5-2.4h-4.4v9.4h4.7c2.4,0,3.7-.9,3.7-2.5a2.38,2.38,0,0,0-1.7-2.4Zm-2.4-3.1c1.2,0,1.9.4,1.9,1.3s-.7,1.3-1.9,1.3h-2.5v-2.6Zm.4,6.7h-2.8v-2.7h2.8c1.3,0,2,.4,2,1.4,0,.8-.7,1.3-2,1.3Zm10.7-5.8V338a2,2,0,0,1-1.79,2.19h-.21c-1.1,0-1.7-.6-1.7-1.9v-3.9h-1.7v4.1c0,2.2,1.2,3.2,3.1,3.2a2.78,2.78,0,0,0,2.3-1v.9h1.6v-7.2Zm6.1,7.2c2,0,3.2-.9,3.2-2.2,0-2.8-4.4-1.5-4.4-3,0-.5.5-.8,1.5-.8a3.51,3.51,0,0,1,2,.5l.7-1.3a5.62,5.62,0,0,0-2.7-.6c-1.9,0-3.1.9-3.1,2.2,0,2.9,4.4,1.6,4.4,2.9,0,.5-.4.8-1.5.8a4.91,4.91,0,0,1-2.5-.7l-.6,1.3a4.48,4.48,0,0,0,3,.9Zm8.5-1.7a1.4,1.4,0,0,1-.9.3,1,1,0,0,1-1-1,.4.4,0,0,1,0-.11v-3.4h1.9v-1.3h-1.9v-1.6h-1.7v1.6H1315v1.3h1.2v3.4a2.19,2.19,0,0,0,1.94,2.41,2.09,2.09,0,0,0,.56,0,2.78,2.78,0,0,0,1.6-.5Zm4.6-5.6a4.87,4.87,0,0,0-3,.9l.7,1.2a3.83,3.83,0,0,1,2.2-.7c1.2,0,1.8.6,1.8,1.6v.1h-1.8c-2.2,0-3,.9-3,2.1s1,2.1,2.7,2.1a2.26,2.26,0,0,0,2.2-1v.9h1.6v-4.2a3.06,3.06,0,0,0-3.08-3l-.32,0Zm-.3,6.1c-.9,0-1.4-.4-1.4-1s.3-1,1.5-1h1.7v.8a1.69,1.69,0,0,1-1.8,1.2Zm9.7-6.1a3.18,3.18,0,0,0-2.5,1v-.9h-1.6v7.2h1.7V338a2,2,0,0,1,1.79-2.19h.21c1.1,0,1.7.6,1.7,1.9v3.9h1.7v-4.1c0-2.2-1.2-3.2-3-3.2Zm12.9-2.2h-3.9v9.4h1.7v-2.7h2.1c2.5,0,4-1.3,4-3.3S1349.1,332.1,1346.7,332.1Zm-.1,5.2h-2v-3.7h2c1.5,0,2.3.7,2.3,1.9s-.8,1.8-2.3,1.8Zm8.3-3a4.87,4.87,0,0,0-3,.9l.7,1.2a3.83,3.83,0,0,1,2.2-.7c1.2,0,1.8.6,1.8,1.6v.1h-1.8c-2.2,0-3,.9-3,2.1s1,2.1,2.7,2.1a2.26,2.26,0,0,0,2.2-1v.9h1.6v-4.2c-.1-2-1.3-3-3.4-3Zm-.2,6.1c-.9,0-1.4-.4-1.4-1s.3-1,1.5-1h1.7v.8a1.82,1.82,0,0,1-1.8,1.2Zm5.6,1.1h1.7v-9.9h-1.7Zm6.6-7.2a4.87,4.87,0,0,0-3,.9l.7,1.2a3.83,3.83,0,0,1,2.2-.7c1.2,0,1.8.6,1.8,1.6v.1h-1.8c-2.2,0-3,.9-3,2.1s1,2.1,2.7,2.1a2.26,2.26,0,0,0,2.2-1v.9h1.6v-4.2c-.1-2-1.3-3-3.4-3Zm-.2,6.1c-.9,0-1.4-.4-1.4-1s.3-1,1.4-1h1.7v.8a1.63,1.63,0,0,1-1.7,1.2Zm9,1.2a3.35,3.35,0,0,0,3.1-1.7l-1.3-.8a2,2,0,0,1-1.8,1,2.1,2.1,0,0,1-2.2-2v-.2a2,2,0,0,1,1.78-2.2h.42a2,2,0,0,1,1.8,1l1.3-.8a3.24,3.24,0,0,0-3.1-1.7,3.71,3.71,0,1,0-.54,7.4Zm11.1-3.6a3.5,3.5,0,0,0-3.27-3.7h-.33a3.57,3.57,0,0,0-3.7,3.44V338a4,4,0,0,0,6.9,2.5l-.9-1a2.56,2.56,0,0,1-1.9.8,2.22,2.22,0,0,1-2.3-1.7h5.6a1.76,1.76,0,0,1-.1-.6Zm-3.6-2.4a1.89,1.89,0,0,1,2,1.7h-4.1a2.05,2.05,0,0,1,2.1-1.7Zm71.3,72.8c2.6,0,3.8-1.3,3.8-2.8,0-3.4-5.6-2.1-5.6-4.1,0-.7.6-1.3,2-1.3a5.38,5.38,0,0,1,2.6.7l.6-1.4a6.23,6.23,0,0,0-3.1-.8c-2.6,0-3.8,1.3-3.8,2.8,0,3.5,5.6,2.2,5.6,4.2,0,.7-.6,1.2-2.1,1.2a5.47,5.47,0,0,1-3.1-1l-.6,1.4a6.26,6.26,0,0,0,3.7,1.1Zm9.4-7.4a3.24,3.24,0,0,0-2.4.9v-3.6h-1.7v9.9h1.7v-3.6a2,2,0,0,1,1.79-2.19h.21c1.1,0,1.7.6,1.7,1.9v3.9h1.7v-4.1a2.81,2.81,0,0,0-2.5-3.09,2.77,2.77,0,0,0-.5,0Zm7.8,0a4.87,4.87,0,0,0-3,.9l.7,1.2a3.83,3.83,0,0,1,2.2-.7c1.2,0,1.8.6,1.8,1.6v.1h-1.8c-2.2,0-3,.9-3,2.1s1,2.1,2.7,2.1a2.26,2.26,0,0,0,2.2-1v.9h1.6V404c-.1-2-1.3-3-3.4-3Zm-.2,6.1c-.9,0-1.4-.4-1.4-1s.3-1,1.5-1h1.7v.8a1.71,1.71,0,0,1-1.8,1.2Zm9.7-6.1a3.18,3.18,0,0,0-2.5,1v-.9h-1.6v7.2h1.7v-3.6a2,2,0,0,1,1.79-2.19h.21c1.1,0,1.7.6,1.7,1.9v3.9h1.7v-4.1c0-2.2-1.3-3.2-3-3.2Zm10.7.1v1a3.18,3.18,0,0,0-2.5-1,3.45,3.45,0,0,0,0,6.9h0a3,3,0,0,0,2.4-1v.4c0,1.4-.7,2.2-2.3,2.2a3.74,3.74,0,0,1-2.6-.9l-.7,1.3a5.4,5.4,0,0,0,3.5,1c2.5,0,3.9-1.2,3.9-3.8v-6.1Zm-2.2,5.4a2,2,0,0,1-2.19-1.79,1.61,1.61,0,0,1,0-.31,2.21,2.21,0,0,1,4.4,0,2.13,2.13,0,0,1-2.16,2.1Zm7.6-4.4v-1h-1.6v7.2h1.7v-3.5a1.94,1.94,0,0,1,1.63-2.19,1.85,1.85,0,0,1,.47,0h.4V401a2.93,2.93,0,0,0-2.6,1.1Zm4.8-2.2a1.16,1.16,0,1,0-.11,0Zm-.8,8.4h1.7v-7.2h-1.7Zm3.5-3.1h3.7v-1.4h-3.7Zm5.6,3.1h6.7v-1.5h-4.9v-7.9h-1.7v9.4Zm10.7-7.3a4.87,4.87,0,0,0-3,.9l.7,1.2a3.83,3.83,0,0,1,2.2-.7c1.2,0,1.8.6,1.8,1.6v.1H1521c-2.2,0-3,.9-3,2.1s1,2.1,2.7,2.1a2.26,2.26,0,0,0,2.2-1v.9h1.6V404c-.1-2-1.3-3-3.4-3Zm-.2,6.1c-.9,0-1.4-.4-1.4-1s.3-1,1.5-1h1.7v.8a1.71,1.71,0,0,1-1.8,1.2Zm16.5,1.2h1.8l-4.2-9.4h-1.7l-4.2,9.4h1.8l.9-2.2h4.7Zm-5-3.6,1.8-4.1,1.8,4.1Zm7.9,3.6h1.7v-9.9h-1.7Zm14.3-9.4v3.9h-4.9v-3.9H1548v9.4h1.7v-4h4.9v4h1.7v-9.4Zm9.3,2.2v3.6a2,2,0,0,1-1.79,2.19h-.21c-1.1,0-1.7-.6-1.7-1.9v-3.9h-1.7v4.1c0,2.2,1.2,3.2,3.1,3.2a2.78,2.78,0,0,0,2.3-1v.9h1.6v-7.2Zm6.1,7.2c2,0,3.2-.9,3.2-2.2,0-2.8-4.4-1.5-4.4-3,0-.5.5-.8,1.5-.8a3.51,3.51,0,0,1,2,.5l.6-1.3a5.37,5.37,0,0,0-2.7-.6c-1.9,0-3.1.9-3.1,2.2,0,2.9,4.4,1.6,4.4,2.9,0,.5-.4.8-1.5.8a4.91,4.91,0,0,1-2.5-.7l-.6,1.3a5.05,5.05,0,0,0,3.1.9Zm8.8-7.3a3.18,3.18,0,0,0-2.5,1v-.9h-1.6v7.2h1.7v-3.6a2,2,0,0,1,1.79-2.19h.21c1.1,0,1.7.6,1.7,1.9v3.9h1.7v-4.1c0-2.2-1.3-3.2-3-3.2ZM274.5,194.4h1.4l-4.3-9.4h-1.3l-4.2,9.4h1.4l1-2.3h5Zm-5.6-3.4,2-4.6,2,4.6Zm9.1,2.3,4.2-5.2v-.8h-5.8v1.1h4.1l-4.2,5.2v.8h6v-1.1Zm8.7-6.1a4.59,4.59,0,0,0-2.9.9l.5,1a3.39,3.39,0,0,1,2.3-.8c1.3,0,1.9.6,1.9,1.7v.3h-2c-2.1,0-2.9.9-2.9,2.1s1,2.1,2.6,2.1a2.65,2.65,0,0,0,2.3-1v.9h1.2v-4.3a2.66,2.66,0,0,0-2.38-2.91A2.56,2.56,0,0,0,286.7,187.2Zm-.3,6.3c-1,0-1.6-.4-1.6-1.2,0-.6.4-1.1,1.6-1.1h2v1a2.09,2.09,0,0,1-2,1.3Zm6.3-7.6a.9.9,0,0,0,.9-.9.82.82,0,0,0-.84-.8h-.06a.88.88,0,0,0-.9.8.84.84,0,0,0,.78.9Zm-.6,8.5h1.3v-7.1h-1.3Zm7.5-7.2a3.24,3.24,0,0,0-2.5,1.1v-3.9h-1.3v9.9H297v-1.1a3,3,0,0,0,2.5,1.2,3.47,3.47,0,0,0,3.6-3.33v-.27a3.39,3.39,0,0,0-3.17-3.6Zm-.1,6.1a2.5,2.5,0,1,1,2.4-2.6v.1a2.39,2.39,0,0,1-2.28,2.5Zm8-6.1a4.59,4.59,0,0,0-2.9.9l.5,1a3.39,3.39,0,0,1,2.3-.8c1.3,0,1.9.6,1.9,1.7v.3h-2c-2.1,0-2.9.9-2.9,2.1s1,2.1,2.6,2.1a2.65,2.65,0,0,0,2.3-1v.9h1.2v-4.3a2.66,2.66,0,0,0-2.38-2.91A2.56,2.56,0,0,0,307.5,187.2Zm-.3,6.3c-1,0-1.6-.4-1.6-1.2,0-.6.4-1.1,1.6-1.1h2v1A2.09,2.09,0,0,1,307.2,193.5Zm15.8-4a2.39,2.39,0,0,0,1.3-2.1c0-1.5-1.2-2.4-3.4-2.4h-4.2v9.4h4.5c2.4,0,3.6-.9,3.6-2.5A2.29,2.29,0,0,0,323,189.5Zm-2.2-3.4q2.1,0,2.1,1.5c0,1-.8,1.5-2.1,1.5H318v-3Zm.3,7.2H318v-3.1h3.1c1.5,0,2.3.5,2.3,1.6s-.8,1.5-2.3,1.5Zm12-2.4a3.55,3.55,0,1,0-7.1-.1h0a3.52,3.52,0,0,0,3.43,3.61h.37a3.38,3.38,0,0,0,2.8-1.2l-.7-.8a2.59,2.59,0,0,1-2.1.9,2.43,2.43,0,0,1-2.6-2.1H333a.37.37,0,0,0,.1-.3Zm-3.5-2.6a2.27,2.27,0,0,1,2.3,2h-4.6a2.15,2.15,0,0,1,2.29-2Zm7.6-1.1a4.59,4.59,0,0,0-2.9.9l.5,1a3.39,3.39,0,0,1,2.3-.8c1.3,0,1.9.6,1.9,1.7v.3h-2c-2.1,0-2.9.9-2.9,2.1s1,2.1,2.6,2.1a2.65,2.65,0,0,0,2.3-1v.9h1.2v-4.3c.1-1.9-1-2.9-3-2.9Zm-.3,6.3c-1,0-1.6-.4-1.6-1.2,0-.6.4-1.1,1.6-1.1h2v1A1.9,1.9,0,0,1,336.9,193.5Zm8.9,1a3.15,3.15,0,0,0,2.9-1.5l-1-.6a2.29,2.29,0,0,1-1.9,1,2.5,2.5,0,0,1,0-5,2.07,2.07,0,0,1,1.9,1l1-.6a3.15,3.15,0,0,0-2.9-1.5,3.61,3.61,0,0,0-.54,7.2Zm8.3-7.3a3,3,0,0,0-2.5,1.1v-3.8h-1.3v9.9h1.3v-3.7a2.19,2.19,0,0,1,2.3-2.4c1.2,0,1.9.7,1.9,2.1v3.9h1.3v-4.1a2.83,2.83,0,0,0-2.65-3Zm337.7,32.3a4.81,4.81,0,0,0,5.09-4.51,2.81,2.81,0,0,0,0-.29,4.76,4.76,0,0,0-4.71-4.81h-.39a4.81,4.81,0,0,0-5.09,4.53,2.44,2.44,0,0,0,0,.27,4.88,4.88,0,0,0,4.93,4.81Zm0-1.6a3.3,3.3,0,1,1,3.3-3.3h0a3.15,3.15,0,0,1-3,3.3Zm9.5-5.8a4.63,4.63,0,0,0-3,.9l.7,1.2a3.83,3.83,0,0,1,2.2-.7c1.2,0,1.8.6,1.8,1.6v.1h-2c-2.2,0-3,.9-3,2.1s1,2.1,2.7,2.1a2.52,2.52,0,0,0,2.3-1v.9h1.6v-4.2c-.1-2-1.3-3-3.3-3Zm-.3,6.1c-.9,0-1.4-.4-1.4-1s.3-1,1.4-1h1.7v.8C702.6,217.8,701.9,218.2,701,218.2Zm7.9,1.2c2,0,3.2-.9,3.2-2.2,0-2.8-4.4-1.5-4.4-3,0-.5.5-.8,1.5-.8a4.05,4.05,0,0,1,2.1.5l.6-1.3a5.37,5.37,0,0,0-2.7-.6c-1.9,0-3.1.9-3.1,2.2,0,2.9,4.4,1.6,4.4,2.9,0,.5-.4.8-1.5.8a4.91,4.91,0,0,1-2.5-.7l-.6,1.3A4.48,4.48,0,0,0,708.9,219.4Zm5.5-8.4a1,1,0,1,0-1-1A1,1,0,0,0,714.4,211Zm-.8,8.3h1.7v-7.2h-1.7Zm6.1.1c2,0,3.2-.9,3.2-2.2,0-2.8-4.4-1.5-4.4-3,0-.5.5-.8,1.5-.8a4.05,4.05,0,0,1,2.1.5l.6-1.3a5.37,5.37,0,0,0-2.7-.6c-1.9,0-3.1.9-3.1,2.2,0,2.9,4.4,1.6,4.4,2.9,0,.5-.4.8-1.5.8a4.91,4.91,0,0,1-2.5-.7l-.6,1.3a4.48,4.48,0,0,0,3,.9Zm18.8-.1v-9.4H737l-3.7,6.2-3.7-6.2h-1.4v9.4h1.7v-6.1l3.1,5.1h.8l3.1-5.1v6.2h1.6Zm5.1-7.2a4.63,4.63,0,0,0-3,.9l.7,1.2a3.83,3.83,0,0,1,2.2-.7c1.2,0,1.8.6,1.8,1.6v.1h-1.8c-2.2,0-3,.9-3,2.1s1,2.1,2.7,2.1a2.52,2.52,0,0,0,2.3-1v.9h1.6v-4.2a3.19,3.19,0,0,0-3.36-3Zm-.2,6.1c-.9,0-1.4-.4-1.4-1s.3-1,1.4-1h1.7v.8a1.63,1.63,0,0,1-1.7,1.2Zm5.6,1.1h1.7v-9.9H749Zm3.9,0h1.7v-9.9h-1.7Zm286.2,7.8c2.6,0,3.8-1.3,3.8-2.8,0-3.4-5.6-2.1-5.6-4.1,0-.7.6-1.3,2-1.3a5.38,5.38,0,0,1,2.6.7l.5-1.4a6.23,6.23,0,0,0-3.1-.8c-2.6,0-3.8,1.3-3.8,2.8,0,3.5,5.6,2.2,5.6,4.2,0,.7-.6,1.2-2.1,1.2a5.17,5.17,0,0,1-3.1-1l-.6,1.4a6.14,6.14,0,0,0,3.8,1.1Zm9.4-7.4a3.24,3.24,0,0,0-2.4.9V217h-1.7v9.9h1.7v-3.6a2,2,0,0,1,1.79-2.19h.21c1.1,0,1.7.6,1.7,1.9v3.9h1.7v-4.1a2.81,2.81,0,0,0-2.5-3.09,2.77,2.77,0,0,0-.5,0Zm11.9,3.7a3.5,3.5,0,0,0-3.27-3.7h-.33a3.57,3.57,0,0,0-3.7,3.44v.26a4,4,0,0,0,6.9,2.5l-.9-1a2.56,2.56,0,0,1-1.9.8,2.22,2.22,0,0,1-2.3-1.7h5.6a1.23,1.23,0,0,1-.1-.6Zm-3.6-2.3a1.89,1.89,0,0,1,2,1.7h-4.1a2.05,2.05,0,0,1,2.1-1.7Zm6.8-.2v-1H1062v7.2h1.7v-3.5a1.94,1.94,0,0,1,1.63-2.19,1.85,1.85,0,0,1,.47,0h.4v-1.6a2.63,2.63,0,0,0-2.6,1.1Zm6.7-1.2a4.63,4.63,0,0,0-3,.9l.7,1.2a3.83,3.83,0,0,1,2.2-.7c1.2,0,1.8.6,1.8,1.6v.1h-1.8c-2.2,0-3,.9-3,2.1s1,2.1,2.7,2.1a2.52,2.52,0,0,0,2.3-1v.9h1.6v-4.2a3.19,3.19,0,0,0-3.36-3Zm-.3,6.2c-.9,0-1.4-.4-1.4-1s.3-1,1.4-1h1.7v.8c-.1.8-.8,1.2-1.7,1.2Zm9.5-.5a1.62,1.62,0,0,1-.9.3,1,1,0,0,1-1-1s0-.08,0-.11v-3.4h1.9v-1.3h-1.9v-1.6h-1.7v1.6h-1.2v1.3h1.2v3.4a2.19,2.19,0,0,0,1.94,2.41,2.09,2.09,0,0,0,.56,0,2.78,2.78,0,0,0,1.6-.5Zm4.8,1.7a3.61,3.61,0,0,0,3.8-3.39v-.31a3.64,3.64,0,0,0-3.6-3.7h-.2a3.61,3.61,0,0,0-3.8,3.39v.31a3.64,3.64,0,0,0,3.6,3.7Zm0-1.5a2.08,2.08,0,0,1-2.1-2.06v-.14a2,2,0,0,1,1.79-2.19,1.61,1.61,0,0,1,.31,0,2.08,2.08,0,0,1,2.1,2.06v.14a1.94,1.94,0,0,1-1.63,2.19,1.85,1.85,0,0,1-.47,0Zm9.5-5.9a3.18,3.18,0,0,0-2.5,1v-.9h-1.6V227h1.7v-3.6a2,2,0,0,1,1.79-2.19h.21c1.1,0,1.7.6,1.7,1.9V227h1.7v-4.1c0-2.2-1.3-3.2-3-3.2Zm13.4,7.4a4.81,4.81,0,0,0,5.09-4.51,2.81,2.81,0,0,0,0-.29,4.76,4.76,0,0,0-4.71-4.81h-.39a4.86,4.86,0,0,0-5.09,4.63,1,1,0,0,0,0,.17,4.81,4.81,0,0,0,4.81,4.81Zm0-1.5a3.3,3.3,0,1,1,3.3-3.3,3.21,3.21,0,0,1-3.12,3.3Zm15.7-5.9a3.62,3.62,0,0,0-2.7,1.2,2.72,2.72,0,0,0-2.4-1.2,2.62,2.62,0,0,0-2.3,1v-.9h-1.6V227h1.7v-3.6a1.84,1.84,0,0,1,1.58-2.08,1.72,1.72,0,0,1,.32,0c1,0,1.6.6,1.6,1.9v3.9h1.7v-3.6a1.84,1.84,0,0,1,1.58-2.08,1.72,1.72,0,0,1,.32,0c1,0,1.6.6,1.6,1.9v3.9h1.7v-4.1c-.1-2.4-1.3-3.4-3.1-3.4Zm7.9,0a4.63,4.63,0,0,0-3,.9l.7,1.2a3.83,3.83,0,0,1,2.2-.7c1.2,0,1.8.6,1.8,1.6v.1h-1.8c-2.2,0-3,.9-3,2.1s1,2.1,2.7,2.1a2.52,2.52,0,0,0,2.3-1v.9h1.6v-4.2a3.19,3.19,0,0,0-3.36-3Zm-.3,6.2c-.9,0-1.4-.4-1.4-1s.3-1,1.4-1h1.7v.8a1.57,1.57,0,0,1-1.7,1.2Zm9.7-6.2a3.18,3.18,0,0,0-2.5,1v-.9h-1.6V227h1.7v-3.6a2,2,0,0,1,1.79-2.19h.21c1.1,0,1.7.6,1.7,1.9V227h1.7v-4.1c0-2.2-1.3-3.2-3-3.2ZM415,344.4v-6.7l-3.3,5.5h-1.2l-3.3-5.4v6.6h-2.4V333.2h2.1l4.2,7,4.1-7h2.1v11.2Zm10.1.2a4.9,4.9,0,0,1-3.7-1.3,5,5,0,0,1-1.3-3.8v-6.3h2.6v6.2c0,2,.8,3,2.5,3a2.49,2.49,0,0,0,1.9-.7,3.68,3.68,0,0,0,.6-2.3v-6.2h2.6v6.3a5.15,5.15,0,0,1-1.3,3.8A5.76,5.76,0,0,1,425.1,344.6Zm11.3,0a7.94,7.94,0,0,1-2.6-.4,7.35,7.35,0,0,1-2-.9l.9-2a5.1,5.1,0,0,0,1.7.8,6.78,6.78,0,0,0,2,.3,3.27,3.27,0,0,0,1.6-.3.86.86,0,0,0,.5-.9.89.89,0,0,0-.3-.7,2,2,0,0,0-.8-.4c-.3-.1-.8-.2-1.3-.4a15.25,15.25,0,0,1-2.1-.6,3.26,3.26,0,0,1-1.4-1,2.45,2.45,0,0,1-.6-1.8,3.69,3.69,0,0,1,.5-1.8,4.21,4.21,0,0,1,1.6-1.3,6.61,6.61,0,0,1,2.6-.5,7.46,7.46,0,0,1,2.1.3,7.31,7.31,0,0,1,1.8.7l-.8,2a6.14,6.14,0,0,0-3.1-.9,2.4,2.4,0,0,0-1.6.4,1.05,1.05,0,0,0-.5.9,1,1,0,0,0,.6.9,5.68,5.68,0,0,0,1.8.5,15.25,15.25,0,0,1,2.1.6,3.26,3.26,0,0,1,1.4,1,2.45,2.45,0,0,1,.6,1.8,4,4,0,0,1-.5,1.8,4,4,0,0,1-1.6,1.2A4.42,4.42,0,0,1,436.4,344.6Zm11.9,0a6.41,6.41,0,0,1-3.1-.7,6.32,6.32,0,0,1-2.2-2.1,6,6,0,0,1,0-6,5.56,5.56,0,0,1,2.2-2.1,6.48,6.48,0,0,1,3.1-.8,7,7,0,0,1,2.6.5,4.26,4.26,0,0,1,2,1.5l-1.7,1.5a3.54,3.54,0,0,0-2.8-1.3,4.08,4.08,0,0,0-1.9.5,3.25,3.25,0,0,0-1.3,1.3,3.79,3.79,0,0,0-.4,1.9,4,4,0,0,0,.4,1.9,3.25,3.25,0,0,0,1.3,1.3,3.79,3.79,0,0,0,1.9.4,3.38,3.38,0,0,0,2.8-1.3l1.7,1.5a5,5,0,0,1-2,1.5A7,7,0,0,1,448.3,344.6Zm13.5-2.6h-5.2l-1,2.4H453l5-11.2h2.6l5,11.2h-2.7Zm-.8-2-1.8-4.3-1.8,4.3Zm7.5-4.7h-3.6v-2.1h9.8v2.1H471v9.1h-2.6v-9.1Z"/><path class="cls-3" d="M1247.8,138.9s-37,352.4,349.8,343.8"/><path class="cls-3" d="M1636.9,437.1c-22.9-374.2-346-311.6-346-311.6"/><path class="cls-3" d="M124.1,240.2S731.4,341.3,1250.8,137.6"/><path id="car" class="cls-2" d="M933.6,240.3a3.2,3.2,0,0,0-2.4-.9c-.6,0-2.9.3-2.9.3a29.07,29.07,0,0,0-3.7.7,11.54,11.54,0,0,0-1-1.1c0-.1-.2-.2-.4-.2s-.2.1-.1.2q.27.62.6,1.2h-.2s-10.3,1.5-11.7,1.8-4,.6-4.8,1.2a2.21,2.21,0,0,0-1.4,2.3,25.41,25.41,0,0,0,.3,3.7,18.6,18.6,0,0,0,.9,3.6,2.65,2.65,0,0,0,2,1.9c.9.3,3.5-.2,4.9-.4s11.7-2.2,11.7-2.2h.2c0,.3-.2,1.3-.2,1.4s0,.2.2.1a1.38,1.38,0,0,0,.4-.3c.1-.1.4-1,.6-1.3,1.1-.1,2.9-.4,3.7-.5a17.92,17.92,0,0,0,2.8-.7,2.74,2.74,0,0,0,2-1.6,9.32,9.32,0,0,0,.3-4.8A10.38,10.38,0,0,0,933.6,240.3Zm-19.9,9.8c.4,1.4.9,1.7,1.3,1.8s-.1.3-.1.3-1.9.4-2.9.5a1.31,1.31,0,0,1-1.5-1,19.14,19.14,0,0,1-.8-2.9,17.73,17.73,0,0,1-.2-3c.1-.5.2-1.2,1.2-1.3s2.9-.4,2.9-.4.4,0,.2.2a2.17,2.17,0,0,0-.7,2.1,23.2,23.2,0,0,0,.6,3.7Zm14.8-1c-.4,1.2-.6,1.6-1.3,1.8a20.45,20.45,0,0,1-3.5,0c-.5-.1-.9,0-.8-.3a11.61,11.61,0,0,0,0-3.9,10.82,10.82,0,0,0-1.3-3.7c-.2-.3.2-.4.7-.6a25.54,25.54,0,0,1,3.3-1.1c.7-.1,1,.2,1.8,1.3a11.35,11.35,0,0,1,1.1,3.1,12.1,12.1,0,0,1,0,3.4Z"/><path class="cls-2" d="M1382.08,401.07a3.32,3.32,0,0,0-.9-2.4c-.4-.5-2.1-2-2.1-2a26.07,26.07,0,0,0-3-2.3,8.87,8.87,0,0,0,.2-1.5c.1-.1,0-.3-.1-.4s-.2-.1-.2.1-.4,1-.5,1.2a.31.31,0,0,1-.1-.2s-7.9-6.7-9.1-7.6-3.1-2.6-4.1-2.8a2.39,2.39,0,0,0-2.7.5,21.92,21.92,0,0,0-4.7,5.8,2.58,2.58,0,0,0-.1,2.8c.4.9,2.5,2.5,3.5,3.4s9.4,7.3,9.4,7.3a.35.35,0,0,1,.1.2c-.2.2-1.1.7-1.2.8s-.2.1.1.2c.1.2.3.1.5.1a12.75,12.75,0,0,1,1.4-.4c.8.8,2.2,1.9,2.8,2.4a16.28,16.28,0,0,0,2.4,1.6,2.54,2.54,0,0,0,2.5.4,9.24,9.24,0,0,0,3.8-2.9A10.39,10.39,0,0,0,1382.08,401.07Zm-20.5-8.5c-.8,1.2-.7,1.8-.5,2.2s-.3.1-.3.1-1.6-1.2-2.3-1.8a1.28,1.28,0,0,1-.2-1.8,23.76,23.76,0,0,1,1.6-2.5,20.39,20.39,0,0,1,2.1-2.1,1.34,1.34,0,0,1,1.8,0c.7.7,2.2,1.9,2.2,1.9s.3.3,0,.3-1-.2-2,.9A22,22,0,0,0,1361.58,392.57Zm10.5,10.5c-1.2.5-1.6.6-2.2.2a17.89,17.89,0,0,1-2.3-2.6c-.3-.4-.6-.7-.3-.8a10.46,10.46,0,0,0,2.9-2.6,12.32,12.32,0,0,0,1.9-3.4c.1-.3.4-.1.9.1a34,34,0,0,1,3,1.8c.5.5.5.9.2,2.2a12,12,0,0,1-1.6,2.9A12.43,12.43,0,0,1,1372.08,403.07Z"/><path class="cls-4" d="M1576.18,275.07a1,1,0,0,0,.4-.6c2.3-8.8-8-19.5-13.5-25a.94.94,0,0,0-1.3,0l-3.6,3-3.7,2.9a1,1,0,0,0-.3,1.2c4.1,6.5,12.2,19,21.3,18.7A1,1,0,0,0,1576.18,275.07Zm-11.5-14.5,1.6-1.3a.49.49,0,0,1,.7.1l1.6,2c1,1.2,0,2.3-.9,3s-2.1,1.5-3.1.2l-1.6-2a.49.49,0,0,1,.1-.7Zm-.6,5.6a12.69,12.69,0,0,1-2.4-3.7c-.4-1.5.6-2.6,1.7-3.5s2.4-1.6,3.8-.9a11.87,11.87,0,0,1,3.1,3.2c1.4,1.9,1.1,3.8-.8,5.3S1565.58,268,1564.08,266.17Zm9,5c-1.9,1.5-4.3-.3-5.7-1.9a3.49,3.49,0,0,0,5.1-4.1C1573.68,266.87,1575,269.67,1573.08,271.17Zm-12.6-15.9c-1.2,1-2.4.6-3.6-.9l3.4-2.7C1561.48,253.17,1561.58,254.37,1560.48,255.27Z"/></svg>