<svg xmlns="http://www.w3.org/2000/svg" width="96" height="57" fill="none" viewBox="0 0 96 57">
    <g clip-path="url(#clip0)">
        <path fill="#fff" d="M88.8 26.2H54v-5.8c0-1.4-.7-2.7-1.8-3.5L43.9 11V5.4c0-1.4-1.2-2.6-2.6-2.6-1.4 0-2.6 1.2-2.6 2.6v1.9L29.6.8c-1.5-1.1-3.5-1.1-5 0L1.8 17.1C.7 17.9 0 19.2 0 20.6v5.9L6.2 22v32.5c0 1.2 1 2.1 2.1 2.1h81.1c1.2 0 2.1-1 2.1-2.1V35.9h3.7l-2.7-7.1c-.4-1.6-2-2.6-3.7-2.6zM44.4 53.1h-8.8V37.2c0-1.4-1.2-2.6-2.6-2.6H21.2c-1.4 0-2.6 1.2-2.6 2.6v15.9H9.8V19.5L27.1 7.1l17.3 12.4v33.6zm3.6-31l5.8 4.1H48v-4.1zm40.4 31.4h-4.9v-8.8c0-1.4-1.2-2.6-2.6-2.6H59.5c-1.4 0-2.6 1.2-2.6 2.6v8.8h-5.7V35.9h37.2v17.6z"/>
    </g>
    <defs>
        <clipPath id="clip0">
            <path fill="#fff" d="M0 0H95.4V56.7H0z"/>
        </clipPath>
    </defs>
</svg>
