<svg xmlns="http://www.w3.org/2000/svg" width="65" height="58" fill="none" viewBox="0 0 65 58">
    <path fill="#fff" d="M59.868 17.16h4.456l-4.456-5.584-7.169-9.05C51.537.986 49.793.215 48.05.215H16.275c-1.744 0-3.488.77-4.65 2.31l-7.169 8.859L0 17.16h4.456v36.395H0v.578c0 1.733 1.356 3.08 3.1 3.08h58.318c1.743 0 3.1-1.347 3.1-3.08v-.578h-4.456V17.161h-.194zM24.025 44.89v8.474H10.656V17.546h43.012v35.818H40.299V44.89c0-1.541-1.162-2.696-2.712-2.696H26.543c-1.356.192-2.518 1.347-2.518 2.696z"/>
    <path fill="#fff" d="M19.956 21.973h-6.2v6.162h6.2v-6.162zM30.224 21.973h-6.2v6.162h6.2v-6.162zM40.493 21.973h-6.2v6.162h6.2v-6.162zM50.568 21.973h-6.2v6.162h6.2v-6.162zM19.956 32.18h-6.2v6.162h6.2V32.18zM30.224 32.18h-6.2v6.162h6.2V32.18zM40.493 32.18h-6.2v6.162h6.2V32.18zM50.568 32.18h-6.2v6.162h6.2V32.18zM19.956 42.389h-6.2v6.162h6.2v-6.162zM50.568 42.389h-6.2v6.162h6.2v-6.162z"/>
</svg>
