<svg width="118" height="116" viewBox="0 0 118 116" fill="none" xmlns="http://www.w3.org/2000/svg">
<path d="M9.85352 0.990234L117.419 106.865V45.3233L72.378 0.990234H9.85352Z" fill="#E79035"/>
<path opacity="0.31" d="M9.85352 7.2168L110.999 106.869V100.55L16.1751 7.2168H9.85352Z" fill="#898C8E"/>
<path d="M0.963867 7.21243H16.1752L9.85361 0.990234H7.28546C6.19894 0.990234 5.21119 1.2819 4.22344 1.76801C3.72956 2.05967 3.23569 2.44856 2.74182 2.83745C1.65529 4.00411 0.963867 5.55966 0.963867 7.21243Z" fill="#BC683F"/>
<path d="M110.999 115.616V100.484L117.389 106.858L117.321 109.394C117.321 111.144 116.629 112.699 115.444 113.866C114.357 114.935 112.777 115.616 110.999 115.616Z" fill="#BC683F"/>
<path d="M62.995 10.7178C64.8717 12.565 64.773 14.7039 62.6987 16.7455L62.3036 17.1344L60.4269 15.2872L60.9207 14.8011C61.8097 13.9261 61.8097 13.2455 61.2171 12.565C60.6244 11.9817 59.933 11.8844 58.9452 12.8567C56.3771 15.3844 59.7354 19.6622 56.1795 23.2594C54.204 25.2038 52.031 25.3983 50.0555 23.4538C48.08 21.5094 48.2775 19.3705 50.253 17.4261L51.0432 16.6483L52.92 18.4955L52.031 19.3705C51.142 20.2455 51.2408 20.9261 51.8334 21.6066C52.4261 22.1899 53.2163 22.2872 54.1053 21.4122C56.6734 18.8844 53.3151 14.6067 56.871 11.0094C58.9452 8.96779 61.0195 8.77335 62.995 10.7178Z" fill="white"/>
<path d="M63.6863 17.6208C65.6618 15.6764 67.9336 15.5791 69.8104 17.4264C71.7859 19.3708 71.6871 21.5097 69.6128 23.4541L63.1925 29.968C61.217 31.9124 58.9451 32.0096 57.0684 30.1624C55.0929 28.218 55.1917 26.0791 57.266 24.1347L63.6863 17.6208ZM59.0439 26.1763C58.1549 27.0513 58.1549 27.8291 58.8464 28.4124C59.439 28.9957 60.2292 29.093 61.1182 28.218L67.9337 21.5097C68.8226 20.6347 68.8226 19.8569 68.1312 19.2736C67.5385 18.6902 66.7483 18.593 65.8594 19.468L59.0439 26.1763Z" fill="white"/>
<path d="M74.0581 21.8008L76.0336 23.7452L65.2671 34.4396L68.5267 37.6479L66.7487 39.3979L61.5137 34.2452L74.0581 21.8008Z" fill="white"/>
<path d="M80.0825 27.8301L83.2433 30.9412C85.2188 32.8856 85.12 34.9273 83.0457 36.8717L76.7241 43.0939C74.7486 45.0383 72.6744 45.2328 70.6989 43.2883L67.5381 40.1772L80.0825 27.8301ZM80.28 31.5245L71.2915 40.3717L72.3781 41.4411C72.9707 42.0245 73.6621 42.1217 74.6499 41.2467L81.169 34.83C82.058 33.955 82.058 33.2745 81.3666 32.5939L80.28 31.5245Z" fill="white"/>
<path d="M87.0956 40.6618C89.0711 38.7174 91.343 38.6202 93.2197 40.4674C95.1952 42.4118 95.0964 44.5507 93.0221 46.4951L86.503 52.9118C84.5275 54.8562 82.2557 54.9534 80.379 53.1062C78.4035 51.1618 78.5022 49.0229 80.5765 47.0785L87.0956 40.6618ZM82.3545 49.1201C81.4655 49.9951 81.4655 50.7729 82.1569 51.3562C82.7495 51.9395 83.5397 52.0368 84.4287 51.1618L91.2442 44.4535C92.1332 43.5785 92.1332 42.8007 91.4417 42.2174C90.8491 41.634 90.0589 41.5368 89.1699 42.4118L82.3545 49.1201Z" fill="white"/>
<path d="M99.2453 46.6925L89.5653 56.2202C88.6763 57.0952 88.7751 57.7758 89.3678 58.4563C89.9604 59.0396 90.7506 59.1369 91.6396 58.2619L101.32 48.7341L103.196 50.5814L93.6151 60.0119C91.6396 61.9563 89.4665 62.1507 87.491 60.2063C85.5155 58.2619 85.7131 56.123 87.6886 54.1786L97.2698 44.748L99.2453 46.6925Z" fill="white"/>
<path d="M103.987 51.2578L110.111 57.2856L108.333 59.0356L106.259 56.9939L95.3935 67.6883L93.418 65.7439L104.184 55.1467L102.11 53.105L103.987 51.2578Z" fill="white"/>
</svg>
