<?xml version="1.0" encoding="utf-8"?>
<!-- Generator: Adobe Illustrator 25.2.1, SVG Export Plug-In . SVG Version: 6.00 Build 0)  -->
<svg version="1.1" id="Layer_1" xmlns="http://www.w3.org/2000/svg" xmlns:xlink="http://www.w3.org/1999/xlink" x="0px" y="0px"
	 viewBox="0 0 1920 568.3" style="enable-background:new 0 0 1920 568.3;" xml:space="preserve">
<style type="text/css">
	.st0{fill:none;stroke:#FFFFFF;stroke-width:2;stroke-miterlimit:10;}
	.st1{fill:#FFFFFF;}
</style>
<image style="overflow:visible;enable-background:new    ;" width="20319" height="10368" xlink:href="TSC-Yiti-Map-high-2-Yiti.png"  transform="matrix(9.450331e-02 0 0 9.450331e-02 -0.1064 -411.4699)">
</image>
<path class="st0" d="M1606.1,413.7c3.2,0,5.8-2.6,5.8-5.8c0-3.2-2.6-5.8-5.8-5.8c-3.2,0-5.8,2.6-5.8,5.8
	C1600.3,411.1,1602.9,413.7,1606.1,413.7z M1417.9,343c3.2,0,5.8-2.6,5.8-5.8c0-3.2-2.6-5.8-5.8-5.8s-5.8,2.6-5.8,5.8
	S1414.7,343,1417.9,343z M371.1,199.6c3.2,0,5.8-2.6,5.8-5.8s-2.6-5.8-5.8-5.8c-3.2,0-5.8,2.6-5.8,5.8S367.9,199.6,371.1,199.6z
	 M774.7,222.3c3.2,0,5.8-2.6,5.8-5.8s-2.6-5.8-5.8-5.8s-5.8,2.6-5.8,5.8S771.5,222.3,774.7,222.3z M609.5,293.9
	c3.2,0,5.8-2.6,5.8-5.8c0-3.2-2.6-5.8-5.8-5.8s-5.8,2.6-5.8,5.8C603.6,291.3,606.2,293.9,609.5,293.9z M1179.1,224.8
	c3.2,0,5.8-2.6,5.8-5.8s-2.6-5.8-5.8-5.8c-3.2,0-5.8,2.6-5.8,5.8C1173.3,222.2,1175.9,224.8,1179.1,224.8z M1215,93.3
	c3.2,0,5.8-2.6,5.8-5.8c0-3.2-2.6-5.8-5.8-5.8s-5.8,2.6-5.8,5.8C1209.2,90.7,1211.8,93.3,1215,93.3z M1188.5,143
	c3.2,0,5.8-2.6,5.8-5.8s-2.6-5.8-5.8-5.8c-3.2,0-5.8,2.6-5.8,5.8S1185.3,143,1188.5,143z M933.1,52.8c3.2,0,5.8-2.6,5.8-5.8
	s-2.6-5.8-5.8-5.8s-5.8,2.6-5.8,5.8S929.9,52.8,933.1,52.8z"/>
<path class="st1" d="M491.5,282.2h-4v9.8h1.8v-2.8h2.2c2.6,0,4.2-1.3,4.2-3.5S494.1,282.2,491.5,282.2z M491.4,287.6h-2.1v-3.9h2.1
	c1.6,0,2.4,0.7,2.4,1.9C493.8,286.9,493,287.6,491.4,287.6z M500.1,284.4c-1.2,0-2.4,0.3-3.2,0.9l0.7,1.3c0.6-0.5,1.4-0.7,2.3-0.7
	c1.2,0,1.9,0.6,1.9,1.6v0.1h-1.9c-2.3,0-3.1,1-3.1,2.2c0,1.3,1.1,2.2,2.8,2.2c1.1,0,1.9-0.4,2.4-1v0.9h1.7v-4.4
	C503.5,285.4,502.3,284.4,500.1,284.4z M499.9,290.8c-0.9,0-1.4-0.4-1.4-1c0-0.5,0.3-1,1.5-1h1.8v0.9
	C501.5,290.4,500.7,290.8,499.9,290.8z M510,284.4c-1.1,0-2,0.4-2.6,1v-1h-1.7v7.5h1.8v-3.8c0-1.5,0.8-2.3,2.1-2.3
	c1.1,0,1.8,0.6,1.8,2v4.1h1.8v-4.3C513.1,285.4,511.8,284.4,510,284.4z M518.8,292.1c2.3,0,4-1.6,4-3.8c0-2.2-1.7-3.8-4-3.8
	s-4,1.6-4,3.8S516.5,292.1,518.8,292.1z M518.8,290.6c-1.3,0-2.2-0.9-2.2-2.3s1-2.3,2.2-2.3c1.3,0,2.2,0.9,2.2,2.3
	S520.1,290.6,518.8,290.6z M526.1,285.6v-1.1h-1.7v7.5h1.8v-3.6c0-1.5,0.8-2.3,2.2-2.3c0.1,0,0.3,0,0.4,0v-1.7
	C527.5,284.4,526.6,284.8,526.1,285.6z M533.1,284.4c-1.2,0-2.4,0.3-3.2,0.9l0.7,1.3c0.6-0.5,1.4-0.7,2.3-0.7c1.2,0,1.9,0.6,1.9,1.6
	v0.1h-1.9c-2.3,0-3.1,1-3.1,2.2c0,1.3,1.1,2.2,2.8,2.2c1.1,0,1.9-0.4,2.4-1v0.9h1.7v-4.4C536.5,285.4,535.2,284.4,533.1,284.4z
	 M532.8,290.8c-0.9,0-1.4-0.4-1.4-1c0-0.5,0.3-1,1.5-1h1.8v0.9C534.4,290.4,533.7,290.8,532.8,290.8z M548.2,284.4
	c-1.2,0-2.2,0.5-2.8,1.2c-0.5-0.8-1.4-1.2-2.5-1.2c-1,0-1.9,0.4-2.5,1v-1h-1.7v7.5h1.8v-3.8c0-1.5,0.8-2.2,1.9-2.2
	c1.1,0,1.7,0.6,1.7,2v4.1h1.8v-3.8c0-1.5,0.8-2.2,1.9-2.2c1.1,0,1.7,0.6,1.7,2v4.1h1.8v-4.3C551.2,285.4,550,284.4,548.2,284.4z
	 M556.3,284.4c-1.2,0-2.4,0.3-3.2,0.9l0.7,1.3c0.6-0.5,1.4-0.7,2.3-0.7c1.2,0,1.9,0.6,1.9,1.6v0.1h-2c-2.3,0-3.1,1-3.1,2.2
	c0,1.3,1.1,2.2,2.8,2.2c1.1,0,1.9-0.4,2.4-1v0.9h1.7v-4.4C559.7,285.4,558.5,284.4,556.3,284.4z M556.1,290.8c-0.9,0-1.4-0.4-1.4-1
	c0-0.5,0.3-1,1.5-1h1.8v0.9C557.7,290.4,556.9,290.8,556.1,290.8z M576.7,292v-9.8h-1.5l-3.8,6.5l-3.9-6.5H566v9.8h1.7v-6.4l3.2,5.3
	h0.8l3.2-5.4v6.5H576.7z M582.1,284.4c-1.2,0-2.4,0.3-3.2,0.9l0.7,1.3c0.6-0.5,1.4-0.7,2.3-0.7c1.2,0,1.9,0.6,1.9,1.6v0.1h-1.9
	c-2.3,0-3.1,1-3.1,2.2c0,1.3,1.1,2.2,2.8,2.2c1.1,0,1.9-0.4,2.4-1v0.9h1.7v-4.4C585.5,285.4,584.2,284.4,582.1,284.4z M581.8,290.8
	c-0.9,0-1.4-0.4-1.4-1c0-0.5,0.3-1,1.5-1h1.8v0.9C583.4,290.4,582.7,290.8,581.8,290.8z M587.7,292h1.8v-10.4h-1.8V292z M591.7,292
	h1.8v-10.4h-1.8V292z M1048,92h1.9l-4.4-9.8h-1.8l-4.4,9.8h1.9l1-2.3h4.9L1048,92z M1042.7,88.3l1.8-4.3l1.8,4.3H1042.7z
	 M1053.2,92.1c2.1,0,3.4-0.9,3.4-2.3c0-2.9-4.6-1.6-4.6-3.1c0-0.5,0.5-0.8,1.6-0.8c0.7,0,1.4,0.1,2.1,0.6l0.7-1.3
	c-0.7-0.4-1.8-0.6-2.8-0.6c-2,0-3.3,0.9-3.3,2.3c0,3,4.6,1.6,4.6,3.1c0,0.5-0.5,0.8-1.6,0.8c-0.9,0-1.9-0.3-2.6-0.7l-0.7,1.3
	C1050.7,91.7,1051.9,92.1,1053.2,92.1z M1065.2,92.1c2.7,0,4-1.3,4-2.9c0-3.6-5.8-2.2-5.8-4.3c0-0.7,0.6-1.3,2.1-1.3
	c0.9,0,1.8,0.3,2.7,0.8l0.6-1.4c-0.9-0.6-2.1-0.9-3.3-0.9c-2.7,0-3.9,1.3-3.9,2.9c0,3.6,5.8,2.3,5.8,4.4c0,0.7-0.6,1.3-2.2,1.3
	c-1.2,0-2.4-0.4-3.2-1.1l-0.6,1.4C1062.1,91.6,1063.6,92.1,1065.2,92.1z M1076.2,84.5v3.8c0,1.5-0.8,2.3-2,2.3c-1.1,0-1.8-0.6-1.8-2
	v-4h-1.8v4.3c0,2.3,1.3,3.3,3.2,3.3c1,0,1.8-0.4,2.4-1v1h1.7v-7.5h-1.7V84.5z M1080.3,92h1.8V81.6h-1.8V92z M1088.7,90.3
	c-0.3,0.2-0.6,0.3-1,0.3c-0.7,0-1-0.4-1-1.1V86h2v-1.4h-2v-1.7h-1.8v1.7h-1.2V86h1.2v3.6c0,1.7,0.9,2.5,2.6,2.5
	c0.6,0,1.3-0.2,1.7-0.5L1088.7,90.3z M1093.5,84.4c-1.2,0-2.4,0.3-3.2,0.9l0.7,1.3c0.6-0.5,1.4-0.7,2.3-0.7c1.2,0,1.9,0.6,1.9,1.6
	v0.1h-1.9c-2.3,0-3.1,1-3.1,2.2c0,1.3,1.1,2.2,2.8,2.2c1.1,0,1.9-0.4,2.4-1v1h1.7v-4.4C1096.9,85.4,1095.7,84.4,1093.5,84.4z
	 M1093.3,90.8c-0.9,0-1.4-0.4-1.4-1c0-0.5,0.3-1,1.5-1h1.8v0.9C1094.9,90.4,1094.1,90.8,1093.3,90.8z M1103.4,84.4
	c-1.1,0-2,0.4-2.6,1.1v-1h-1.7V92h1.8v-3.8c0-1.5,0.8-2.3,2.1-2.3c1.1,0,1.8,0.6,1.8,2V92h1.8v-4.3
	C1106.5,85.4,1105.2,84.4,1103.4,84.4z M1122.3,91.9c-0.5,0.5-1,0.8-1.7,0.8c-0.6,0-1.1-0.2-1.6-0.8c2.2-0.6,3.7-2.5,3.7-4.8
	c0-2.9-2.2-5-5.3-5s-5.3,2.1-5.3,5c0,2.7,2,4.8,4.7,5c1.4,1.5,2.4,2,3.8,2c1,0,1.9-0.4,2.6-1.2L1122.3,91.9z M1113.9,87.1
	c0-2,1.5-3.4,3.4-3.4s3.4,1.4,3.4,3.4s-1.5,3.4-3.4,3.4S1113.9,89.1,1113.9,87.1z M1127.2,84.4c-1.2,0-2.4,0.3-3.2,0.9l0.7,1.3
	c0.6-0.5,1.4-0.7,2.3-0.7c1.2,0,1.9,0.6,1.9,1.6v0.1h-1.9c-2.3,0-3.1,1-3.1,2.2c0,1.3,1.1,2.2,2.8,2.2c1.1,0,1.9-0.4,2.4-1v1h1.7
	v-4.4C1130.6,85.4,1129.4,84.4,1127.2,84.4z M1127,90.8c-0.9,0-1.4-0.4-1.4-1c0-0.5,0.3-1,1.5-1h1.8v0.9
	C1128.6,90.4,1127.9,90.8,1127,90.8z M1137,84.4c-1,0-1.8,0.3-2.4,1v-3.8h-1.8V92h1.7v-1c0.6,0.7,1.5,1.1,2.5,1.1
	c2.2,0,3.8-1.5,3.8-3.8S1139.2,84.4,1137,84.4z M1136.8,90.6c-1.3,0-2.2-0.9-2.2-2.3s1-2.3,2.2-2.3s2.2,0.9,2.2,2.3
	S1138.1,90.6,1136.8,90.6z M1145.8,92.1c2.3,0,4-1.6,4-3.8s-1.7-3.8-4-3.8s-4,1.6-4,3.8S1143.5,92.1,1145.8,92.1z M1145.8,90.6
	c-1.3,0-2.2-0.9-2.2-2.3s1-2.3,2.2-2.3c1.3,0,2.2,0.9,2.2,2.3S1147.1,90.6,1145.8,90.6z M1154.9,92.1c2.3,0,4-1.6,4-3.8
	s-1.7-3.8-4-3.8s-4,1.6-4,3.8S1152.6,92.1,1154.9,92.1z M1154.9,90.6c-1.3,0-2.2-0.9-2.2-2.3s1-2.3,2.2-2.3c1.3,0,2.2,0.9,2.2,2.3
	S1156.1,90.6,1154.9,90.6z M1162.8,92.1c2.1,0,3.4-0.9,3.4-2.3c0-2.9-4.6-1.6-4.6-3.1c0-0.5,0.5-0.8,1.6-0.8c0.7,0,1.4,0.1,2.1,0.6
	l0.7-1.3c-0.7-0.4-1.8-0.6-2.8-0.6c-2,0-3.3,0.9-3.3,2.3c0,3,4.6,1.6,4.6,3.1c0,0.5-0.5,0.8-1.6,0.8c-0.9,0-1.9-0.3-2.6-0.7
	l-0.7,1.3C1160.3,91.7,1161.6,92.1,1162.8,92.1z M1175.8,82.2h-4V92h1.8v-2.8h2.2c2.6,0,4.2-1.3,4.2-3.5S1178.4,82.2,1175.8,82.2z
	 M1175.7,87.6h-2.1v-3.9h2.1c1.6,0,2.4,0.7,2.4,1.9C1178.1,86.9,1177.3,87.6,1175.7,87.6z M1185,92.1c2.3,0,4-1.6,4-3.8
	s-1.7-3.8-4-3.8s-4,1.6-4,3.8S1182.7,92.1,1185,92.1z M1185,90.6c-1.3,0-2.2-0.9-2.2-2.3s1-2.3,2.2-2.3c1.3,0,2.2,0.9,2.2,2.3
	S1186.2,90.6,1185,90.6z M1192.3,85.6v-1.1h-1.7V92h1.8v-3.6c0-1.5,0.8-2.3,2.2-2.3c0.1,0,0.3,0,0.4,0v-1.7
	C1193.7,84.4,1192.8,84.8,1192.3,85.6z M1200.7,90.3c-0.3,0.2-0.6,0.3-1,0.3c-0.7,0-1-0.4-1-1.1V86h2v-1.4h-2v-1.7h-1.8v1.7h-1.2V86
	h1.2v3.6c0,1.7,0.9,2.5,2.6,2.5c0.6,0,1.3-0.2,1.7-0.5L1200.7,90.3z M1092.2,141v-9.8h-1.5l-3.8,6.5l-3.9-6.5h-1.5v9.8h1.7v-6.4
	l3.2,5.3h0.8l3.2-5.4v6.5L1092.2,141L1092.2,141z M1100.2,133.5v3.8c0,1.5-0.8,2.3-2,2.3c-1.1,0-1.8-0.6-1.8-2v-4h-1.8v4.3
	c0,2.3,1.3,3.3,3.2,3.3c1,0,1.8-0.4,2.4-1.1v1h1.7v-7.5h-1.7V133.5z M1108.2,139.3c-0.3,0.2-0.6,0.3-1,0.3c-0.7,0-1-0.4-1-1.1V135h2
	v-1.4h-2v-1.7h-1.8v1.7h-1.2v1.4h1.2v3.6c0,1.7,0.9,2.5,2.6,2.5c0.6,0,1.3-0.2,1.7-0.5L1108.2,139.3z M1111.8,134.6v-1.1h-1.7v7.5
	h1.8v-3.6c0-1.5,0.8-2.3,2.2-2.3c0.1,0,0.3,0,0.4,0v-1.7C1113.2,133.4,1112.3,133.8,1111.8,134.6z M1118.8,133.4
	c-1.2,0-2.4,0.3-3.2,0.9l0.7,1.3c0.6-0.5,1.4-0.7,2.3-0.7c1.2,0,1.9,0.6,1.9,1.6v0.1h-1.9c-2.3,0-3.1,1-3.1,2.2
	c0,1.3,1.1,2.2,2.8,2.2c1.1,0,1.9-0.4,2.4-1v0.9h1.7v-4.4C1122.2,134.4,1120.9,133.4,1118.8,133.4z M1118.5,139.8
	c-0.9,0-1.4-0.4-1.4-1c0-0.5,0.3-1,1.5-1h1.8v0.9C1120.1,139.4,1119.4,139.8,1118.5,139.8z M1128.6,133.4c-1,0-1.9,0.3-2.5,1v-3.8
	h-1.8V141h1.8v-3.8c0-1.5,0.8-2.3,2.1-2.3c1.1,0,1.8,0.6,1.8,2v4.1h1.8v-4.3C1131.8,134.4,1130.4,133.4,1128.6,133.4z M1141.1,141.1
	c2.7,0,4-1.3,4-2.9c0-3.6-5.8-2.2-5.8-4.3c0-0.7,0.6-1.3,2.1-1.3c0.9,0,1.8,0.3,2.7,0.8l0.6-1.4c-0.9-0.6-2.1-0.9-3.3-0.9
	c-2.7,0-3.9,1.3-3.9,2.9c0,3.6,5.8,2.3,5.8,4.4c0,0.7-0.6,1.3-2.2,1.3c-1.2,0-2.5-0.4-3.2-1.1l-0.6,1.4
	C1138,140.6,1139.5,141.1,1141.1,141.1z M1150,141.1c2.3,0,4-1.6,4-3.8s-1.7-3.8-4-3.8s-4,1.6-4,3.8S1147.7,141.1,1150,141.1z
	 M1150,139.6c-1.3,0-2.2-0.9-2.2-2.3c0-1.4,1-2.3,2.2-2.3c1.3,0,2.2,0.9,2.2,2.3C1152.2,138.7,1151.3,139.6,1150,139.6z
	 M1161.2,133.5v3.8c0,1.5-0.8,2.3-2,2.3c-1.1,0-1.8-0.6-1.8-2v-4h-1.8v4.3c0,2.3,1.3,3.3,3.2,3.3c1,0,1.8-0.4,2.4-1.1v1h1.7v-7.5
	h-1.7V133.5z M1170.9,133.5v1c-0.6-0.7-1.5-1.1-2.5-1.1c-2.2,0-3.8,1.5-3.8,3.8s1.6,3.8,3.8,3.8c1,0,1.8-0.3,2.4-1v3.6h1.8v-10.2
	L1170.9,133.5L1170.9,133.5z M1168.6,139.6c-1.3,0-2.2-0.9-2.2-2.3c0-1.4,1-2.3,2.2-2.3c1.3,0,2.2,0.9,2.2,2.3
	C1170.8,138.7,1169.8,139.6,1168.6,139.6z M831.3,51v-9.8h-1.5l-3.8,6.5l-3.9-6.5h-1.5V51h1.7v-6.4l3.2,5.3h0.8l3.2-5.4V51
	C829.5,51,831.3,51,831.3,51z M836.7,43.4c-1.2,0-2.4,0.3-3.2,0.9l0.7,1.3c0.6-0.5,1.4-0.7,2.3-0.7c1.2,0,1.9,0.6,1.9,1.6v0.1h-1.9
	c-2.3,0-3.1,1-3.1,2.2c0,1.3,1.1,2.2,2.8,2.2c1.1,0,1.9-0.4,2.4-1v1h1.7v-4.4C840.1,44.4,838.8,43.4,836.7,43.4z M836.4,49.8
	c-0.9,0-1.4-0.4-1.4-1c0-0.5,0.3-1,1.5-1h1.8v0.9C838,49.4,837.3,49.8,836.4,49.8z M844,44.6v-1.1h-1.7V51h1.8v-3.6
	c0-1.5,0.8-2.3,2.2-2.3c0.1,0,0.3,0,0.4,0v-1.7C845.4,43.4,844.5,43.8,844,44.6z M849.1,42.3c0.7,0,1.1-0.5,1.1-1.1s-0.5-1-1.1-1
	s-1.1,0.5-1.1,1.1C848,41.8,848.5,42.3,849.1,42.3z M847.4,53.8c1.7,0,2.6-1,2.6-2.7v-7.6h-1.8v7.7c0,0.8-0.4,1.2-1,1.2
	c-0.4,0-0.8-0.1-1-0.3l-0.5,1.3C846.2,53.7,846.8,53.8,847.4,53.8z M855.2,43.4c-1.2,0-2.4,0.3-3.2,0.9l0.7,1.3
	c0.6-0.5,1.4-0.7,2.3-0.7c1.2,0,1.9,0.6,1.9,1.6v0.1H855c-2.3,0-3.1,1-3.1,2.2c0,1.3,1.1,2.2,2.8,2.2c1.1,0,1.9-0.4,2.4-1v1h1.7
	v-4.4C858.6,44.4,857.3,43.4,855.2,43.4z M854.9,49.8c-0.9,0-1.4-0.4-1.4-1c0-0.5,0.3-1,1.5-1h1.8v0.9
	C856.5,49.4,855.8,49.8,854.9,49.8z M865.1,43.4c-1.1,0-2,0.4-2.6,1v-1h-1.7V51h1.8v-3.8c0-1.5,0.8-2.3,2.1-2.3c1.1,0,1.8,0.6,1.8,2
	V51h1.8v-4.3C868.2,44.4,866.9,43.4,865.1,43.4z M881.4,45.9c0.8-0.4,1.3-1.1,1.3-2.2c0-1.6-1.3-2.5-3.6-2.5h-4.6V51h4.9
	c2.5,0,3.8-1,3.8-2.7C883.2,47,882.4,46.2,881.4,45.9z M878.8,42.6c1.3,0,2,0.4,2,1.4c0,0.9-0.7,1.3-2,1.3h-2.6v-2.7H878.8z
	 M879.2,49.5h-2.9v-2.8h2.9c1.4,0,2.1,0.4,2.1,1.4S880.6,49.5,879.2,49.5z M892,47.3c0-2.3-1.6-3.9-3.8-3.9s-3.9,1.6-3.9,3.8
	s1.6,3.8,4.1,3.8c1.3,0,2.3-0.4,3-1.2l-0.9-1.1c-0.5,0.5-1.2,0.8-2,0.8c-1.3,0-2.2-0.7-2.4-1.8h5.9C891.9,47.6,892,47.4,892,47.3z
	 M888.2,44.8c1.1,0,2,0.7,2.1,1.8h-4.2C886.2,45.5,887,44.8,888.2,44.8z M896.3,43.4c-1.2,0-2.4,0.3-3.2,0.9l0.7,1.3
	c0.6-0.5,1.4-0.7,2.3-0.7c1.2,0,1.9,0.6,1.9,1.6v0.1h-2c-2.3,0-3.1,1-3.1,2.2c0,1.3,1.1,2.2,2.8,2.2c1.1,0,1.9-0.4,2.4-1v1h1.7v-4.4
	C899.7,44.4,898.4,43.4,896.3,43.4z M896.1,49.8c-0.9,0-1.4-0.4-1.4-1c0-0.5,0.3-1,1.5-1h1.8v0.9C897.7,49.4,896.9,49.8,896.1,49.8z
	 M905.4,51.1c1.5,0,2.6-0.6,3.2-1.8l-1.3-0.8c-0.4,0.7-1.1,1-1.9,1c-1.3,0-2.3-0.9-2.3-2.3c0-1.4,1-2.3,2.3-2.3c0.7,0,1.4,0.3,1.9,1
	l1.3-0.8c-0.6-1.1-1.7-1.7-3.2-1.7c-2.4,0-4,1.6-4,3.8C901.4,49.5,903.1,51.1,905.4,51.1z M914.3,43.4c-1,0-1.9,0.3-2.5,1v-3.8H910
	V51h1.8v-3.8c0-1.5,0.8-2.3,2.1-2.3c1.1,0,1.8,0.6,1.8,2V51h1.8v-4.3C917.4,44.4,916.1,43.4,914.3,43.4z M1290.8,342h1.9l-4.4-9.8
	h-1.8l-4.4,9.8h1.9l1-2.3h4.9L1290.8,342z M1285.5,338.3l1.8-4.3l1.8,4.3H1285.5z M1293.8,342h1.8v-10.4h-1.8V342z M1308.8,336.9
	c0.8-0.4,1.3-1.1,1.3-2.2c0-1.6-1.3-2.5-3.6-2.5h-4.6v9.8h4.9c2.5,0,3.8-1,3.8-2.7C1310.6,338,1309.9,337.2,1308.8,336.9z
	 M1306.3,333.6c1.3,0,2,0.4,2,1.4c0,0.9-0.7,1.3-2,1.3h-2.6v-2.7L1306.3,333.6L1306.3,333.6z M1306.6,340.5h-2.9v-2.8h2.9
	c1.4,0,2.1,0.4,2.1,1.4C1308.8,340.1,1308,340.5,1306.6,340.5z M1317.8,334.5v3.8c0,1.5-0.8,2.3-2,2.3c-1.1,0-1.8-0.6-1.8-2v-4h-1.8
	v4.3c0,2.3,1.3,3.3,3.2,3.3c1,0,1.8-0.4,2.4-1v1h1.7v-7.5h-1.7V334.5z M1324.2,342.1c2.1,0,3.4-0.9,3.4-2.3c0-2.9-4.6-1.6-4.6-3.1
	c0-0.5,0.5-0.8,1.6-0.8c0.7,0,1.4,0.1,2.1,0.6l0.7-1.3c-0.7-0.4-1.8-0.6-2.8-0.6c-2,0-3.3,0.9-3.3,2.3c0,3,4.6,1.6,4.6,3.1
	c0,0.5-0.5,0.8-1.6,0.8c-0.9,0-2-0.3-2.6-0.7l-0.7,1.3C1321.7,341.7,1323,342.1,1324.2,342.1z M1333.1,340.3c-0.3,0.2-0.6,0.3-1,0.3
	c-0.7,0-1-0.4-1-1.1V336h2v-1.4h-2v-1.7h-1.8v1.7h-1.2v1.4h1.2v3.6c0,1.7,0.9,2.5,2.6,2.5c0.6,0,1.3-0.2,1.7-0.5L1333.1,340.3z
	 M1337.9,334.4c-1.2,0-2.4,0.3-3.2,0.9l0.7,1.3c0.6-0.5,1.4-0.7,2.3-0.7c1.2,0,1.9,0.6,1.9,1.6v0.1h-1.9c-2.3,0-3.1,1-3.1,2.2
	c0,1.3,1.1,2.2,2.8,2.2c1.1,0,1.9-0.4,2.3-1v0.9h1.7v-4.4C1341.3,335.4,1340,334.4,1337.9,334.4z M1337.6,340.8
	c-0.9,0-1.4-0.4-1.4-1c0-0.5,0.3-1,1.5-1h1.8v0.9C1339.2,340.4,1338.5,340.8,1337.6,340.8z M1347.8,334.4c-1.1,0-2,0.4-2.6,1v-1
	h-1.7v7.5h1.8v-3.8c0-1.5,0.8-2.3,2.1-2.3c1.1,0,1.8,0.6,1.8,2v4.1h1.8v-4.3C1350.9,335.4,1349.6,334.4,1347.8,334.4z M1361.2,332.2
	h-4v9.8h1.8v-2.8h2.2c2.6,0,4.2-1.3,4.2-3.5C1365.4,333.5,1363.8,332.2,1361.2,332.2z M1361.1,337.6h-2.1v-3.9h2.1
	c1.6,0,2.4,0.7,2.4,1.9S1362.7,337.6,1361.1,337.6z M1369.8,334.4c-1.2,0-2.4,0.3-3.2,0.9l0.7,1.3c0.6-0.5,1.4-0.7,2.3-0.7
	c1.2,0,1.9,0.6,1.9,1.6v0.1h-1.9c-2.3,0-3.1,1-3.1,2.2c0,1.3,1.1,2.2,2.8,2.2c1.1,0,1.9-0.4,2.3-1v0.9h1.7v-4.4
	C1373.2,335.4,1372,334.4,1369.8,334.4z M1369.6,340.8c-0.9,0-1.4-0.4-1.4-1c0-0.5,0.3-1,1.5-1h1.8v0.9
	C1371.2,340.4,1370.4,340.8,1369.6,340.8z M1375.4,342h1.8v-10.4h-1.8V342z M1382.3,334.4c-1.2,0-2.4,0.3-3.2,0.9l0.7,1.3
	c0.6-0.5,1.4-0.7,2.3-0.7c1.2,0,1.9,0.6,1.9,1.6v0.1h-1.9c-2.3,0-3.1,1-3.1,2.2c0,1.3,1.1,2.2,2.8,2.2c1.1,0,1.9-0.4,2.3-1v0.9h1.7
	v-4.4C1385.7,335.4,1384.5,334.4,1382.3,334.4z M1382.1,340.8c-0.9,0-1.4-0.4-1.4-1c0-0.5,0.3-1,1.5-1h1.8v0.9
	C1383.7,340.4,1383,340.8,1382.1,340.8z M1391.5,342.1c1.5,0,2.6-0.6,3.2-1.8l-1.3-0.8c-0.4,0.7-1.1,1-1.9,1c-1.3,0-2.3-0.9-2.3-2.3
	s1-2.3,2.3-2.3c0.8,0,1.4,0.3,1.9,1l1.3-0.8c-0.6-1.1-1.7-1.7-3.2-1.7c-2.4,0-4,1.6-4,3.8C1387.4,340.5,1389.1,342.1,1391.5,342.1z
	 M1403.1,338.3c0-2.3-1.6-3.9-3.8-3.9c-2.2,0-3.9,1.6-3.9,3.8c0,2.2,1.6,3.8,4.1,3.8c1.3,0,2.3-0.4,3-1.2l-0.9-1.1
	c-0.5,0.5-1.2,0.8-2,0.8c-1.3,0-2.2-0.7-2.4-1.8h5.9C1403.1,338.6,1403.1,338.4,1403.1,338.3z M1399.3,335.8c1.1,0,2,0.7,2.1,1.8
	h-4.2C1397.4,336.5,1398.2,335.8,1399.3,335.8z M1456.6,412.1c2.7,0,4-1.3,4-2.9c0-3.6-5.8-2.2-5.8-4.3c0-0.7,0.6-1.3,2.1-1.3
	c0.9,0,1.8,0.3,2.7,0.8l0.6-1.4c-0.9-0.6-2.1-0.9-3.3-0.9c-2.7,0-3.9,1.3-3.9,2.9c0,3.6,5.8,2.3,5.8,4.4c0,0.7-0.6,1.3-2.2,1.3
	c-1.2,0-2.5-0.4-3.2-1.1l-0.6,1.4C1453.5,411.6,1455,412.1,1456.6,412.1z M1466.4,404.4c-1,0-1.9,0.3-2.5,1v-3.8h-1.8V412h1.8v-3.8
	c0-1.5,0.8-2.3,2.1-2.3c1.1,0,1.8,0.6,1.8,2v4.1h1.8v-4.3C1469.5,405.4,1468.2,404.4,1466.4,404.4z M1474.6,404.4
	c-1.2,0-2.4,0.3-3.2,0.9l0.7,1.3c0.6-0.5,1.4-0.7,2.3-0.7c1.2,0,1.9,0.6,1.9,1.6v0.1h-1.9c-2.3,0-3.1,1-3.1,2.2
	c0,1.3,1.1,2.2,2.8,2.2c1.1,0,1.9-0.4,2.3-1v0.9h1.7v-4.4C1478,405.4,1476.8,404.4,1474.6,404.4z M1474.4,410.8
	c-0.9,0-1.4-0.4-1.4-1c0-0.5,0.3-1,1.5-1h1.8v0.9C1476,410.4,1475.2,410.8,1474.4,410.8z M1484.5,404.4c-1.1,0-2,0.4-2.6,1v-1h-1.7
	v7.5h1.8v-3.8c0-1.5,0.8-2.3,2.1-2.3c1.1,0,1.8,0.6,1.8,2v4.1h1.8v-4.3C1487.6,405.4,1486.3,404.4,1484.5,404.4z M1495.7,404.5v1
	c-0.6-0.7-1.5-1.1-2.6-1.1c-2.1,0-3.8,1.4-3.8,3.6s1.6,3.6,3.8,3.6c1,0,1.9-0.3,2.5-1v0.4c0,1.5-0.7,2.3-2.4,2.3
	c-1,0-2.1-0.3-2.8-0.9l-0.8,1.3c0.8,0.7,2.2,1.1,3.6,1.1c2.6,0,4-1.2,4-3.9v-6.3h-1.5V404.5z M1493.3,410.2c-1.3,0-2.3-0.9-2.3-2.1
	c0-1.3,0.9-2.1,2.3-2.1c1.3,0,2.3,0.9,2.3,2.1C1495.6,409.3,1494.7,410.2,1493.3,410.2z M1501.3,405.6v-1.1h-1.7v7.5h1.8v-3.6
	c0-1.5,0.8-2.3,2.2-2.3c0.1,0,0.2,0,0.4,0v-1.7C1502.7,404.4,1501.8,404.8,1501.3,405.6z M1506.3,403.3c0.7,0,1.1-0.5,1.1-1.1
	s-0.5-1-1.1-1s-1.1,0.5-1.1,1.1C1505.2,402.8,1505.7,403.3,1506.3,403.3z M1505.4,412h1.8v-7.5h-1.8V412z M1509.1,408.8h3.9v-1.5
	h-3.9V408.8z M1515,412h6.9v-1.5h-5.1v-8.3h-1.8V412z M1526.2,404.4c-1.2,0-2.4,0.3-3.2,0.9l0.7,1.3c0.6-0.5,1.4-0.7,2.3-0.7
	c1.2,0,1.9,0.6,1.9,1.6v0.1h-1.9c-2.3,0-3.1,1-3.1,2.2c0,1.3,1.1,2.2,2.8,2.2c1.1,0,1.9-0.4,2.3-1v0.9h1.7v-4.4
	C1529.6,405.4,1528.3,404.4,1526.2,404.4z M1525.9,410.8c-0.9,0-1.4-0.4-1.4-1c0-0.5,0.3-1,1.5-1h1.8v0.9
	C1527.5,410.4,1526.8,410.8,1525.9,410.8z M1543.2,412h1.9l-4.4-9.8h-1.8l-4.4,9.8h1.9l1-2.3h4.9L1543.2,412z M1537.9,408.3l1.8-4.3
	l1.8,4.3H1537.9z M1546.2,412h1.8v-10.4h-1.8V412z M1561.2,402.2v4h-5.1v-4h-1.8v9.8h1.8v-4.2h5.1v4.2h1.8v-9.8H1561.2z
	 M1570.9,404.5v3.8c0,1.5-0.8,2.3-2,2.3c-1.1,0-1.8-0.6-1.8-2v-4h-1.8v4.3c0,2.3,1.3,3.3,3.2,3.3c1,0,1.9-0.4,2.4-1v1h1.7v-7.5h-1.7
	V404.5z M1577.3,412.1c2.1,0,3.4-0.9,3.4-2.3c0-2.9-4.6-1.6-4.6-3.1c0-0.5,0.5-0.8,1.6-0.8c0.7,0,1.4,0.1,2.1,0.6l0.7-1.3
	c-0.7-0.4-1.8-0.6-2.8-0.6c-2,0-3.3,0.9-3.3,2.3c0,3,4.6,1.6,4.6,3.1c0,0.5-0.5,0.8-1.6,0.8c-0.9,0-1.9-0.3-2.6-0.7l-0.7,1.3
	C1574.8,411.7,1576,412.1,1577.3,412.1z M1586.4,404.4c-1.1,0-2,0.4-2.6,1v-1h-1.7v7.5h1.8v-3.8c0-1.5,0.8-2.3,2.1-2.3
	c1.1,0,1.8,0.6,1.8,2v4.1h1.8v-4.3C1589.5,405.4,1588.2,404.4,1586.4,404.4z M268.1,199h1.5l-4.5-9.8h-1.4l-4.4,9.8h1.4l1.1-2.4h5.2
	L268.1,199z M262.3,195.4l2.1-4.8l2.1,4.8H262.3z M271.8,197.9l4.4-5.4v-0.9h-6v1.1h4.3l-4.4,5.4v0.9h6.2v-1.1H271.8z M280.8,191.5
	c-1.2,0-2.3,0.3-3.1,1l0.6,1c0.6-0.5,1.5-0.8,2.4-0.8c1.3,0,2,0.7,2,1.8v0.3h-2.1c-2.2,0-3,1-3,2.2c0,1.3,1.1,2.2,2.7,2.2
	c1.2,0,2-0.4,2.4-1.1v1h1.3v-4.5C284,192.5,282.8,191.5,280.8,191.5z M280.5,198c-1,0-1.6-0.5-1.6-1.2c0-0.6,0.4-1.1,1.7-1.1h2.1v1
	C282.3,197.6,281.5,198,280.5,198z M287.1,190.1c0.5,0,0.9-0.4,0.9-0.9s-0.4-0.9-0.9-0.9s-0.9,0.4-0.9,0.9
	C286.2,189.7,286.6,190.1,287.1,190.1z M286.5,199h1.3v-7.4h-1.3V199z M294.3,191.5c-1,0-2,0.4-2.6,1.2v-4.1h-1.3V199h1.3v-1.2
	c0.6,0.8,1.6,1.3,2.6,1.3c2.2,0,3.8-1.5,3.8-3.8C298.1,193,296.5,191.5,294.3,191.5z M294.2,197.9c-1.4,0-2.5-1-2.5-2.6
	s1.1-2.6,2.5-2.6s2.5,1,2.5,2.6S295.6,197.9,294.2,197.9z M302.6,191.5c-1.2,0-2.3,0.3-3.1,1l0.6,1c0.6-0.5,1.5-0.8,2.4-0.8
	c1.3,0,2,0.7,2,1.8v0.3h-2.1c-2.2,0-3,1-3,2.2c0,1.3,1.1,2.2,2.7,2.2c1.2,0,2-0.4,2.4-1.1v1h1.3v-4.5
	C305.7,192.5,304.6,191.5,302.6,191.5z M302.2,198c-1,0-1.6-0.5-1.6-1.2c0-0.6,0.4-1.1,1.7-1.1h2.1v1
	C304.1,197.6,303.3,198,302.2,198z M318.8,193.9c0.8-0.4,1.3-1.1,1.3-2.2c0-1.6-1.3-2.5-3.5-2.5h-4.4v9.8h4.7c2.5,0,3.8-1,3.8-2.6
	C320.6,195,319.9,194.2,318.8,193.9z M316.4,190.3c1.4,0,2.2,0.5,2.2,1.6c0,1-0.8,1.6-2.2,1.6h-2.9v-3.1h2.9V190.3z M316.8,197.8
	h-3.2v-3.3h3.2c1.6,0,2.4,0.5,2.4,1.6S318.3,197.8,316.8,197.8z M329.3,195.3c0-2.3-1.5-3.8-3.7-3.8s-3.7,1.6-3.7,3.8s1.6,3.8,4,3.8
	c1.2,0,2.3-0.4,2.9-1.2l-0.7-0.9c-0.5,0.6-1.3,0.9-2.1,0.9c-1.5,0-2.5-0.9-2.7-2.2h6C329.3,195.6,329.3,195.4,329.3,195.3z
	 M325.6,192.6c1.3,0,2.2,0.9,2.4,2.1h-4.8C323.4,193.5,324.3,192.6,325.6,192.6z M333.6,191.5c-1.2,0-2.3,0.3-3.1,1l0.6,1
	c0.6-0.5,1.5-0.8,2.4-0.8c1.3,0,2,0.7,2,1.8v0.3h-2.1c-2.2,0-3,1-3,2.2c0,1.3,1.1,2.2,2.7,2.2c1.2,0,2-0.4,2.4-1.1v1h1.3v-4.5
	C336.8,192.5,335.7,191.5,333.6,191.5z M333.3,198c-1,0-1.6-0.5-1.6-1.2c0-0.6,0.4-1.1,1.7-1.1h2.1v1
	C335.1,197.6,334.3,198,333.3,198z M342.6,199.1c1.3,0,2.4-0.6,3-1.6l-1-0.6c-0.5,0.7-1.2,1.1-2,1.1c-1.5,0-2.5-1-2.5-2.6
	s1.1-2.6,2.5-2.6c0.8,0,1.5,0.3,2,1.1l1-0.7c-0.6-1-1.7-1.6-3-1.6c-2.3,0-3.9,1.6-3.9,3.8C338.7,197.5,340.3,199.1,342.6,199.1z
	 M351.2,191.5c-1.1,0-2.1,0.4-2.6,1.1v-4h-1.3V199h1.3v-3.8c0-1.6,0.9-2.5,2.4-2.5c1.3,0,2,0.7,2,2.2v4.1h1.3v-4.3
	C354.3,192.5,353,191.5,351.2,191.5z M694,221.1c3,0,5.3-2.1,5.3-5s-2.2-5-5.3-5c-3,0-5.3,2.1-5.3,5S691,221.1,694,221.1z
	 M694,219.5c-2,0-3.4-1.4-3.4-3.4s1.5-3.4,3.4-3.4s3.4,1.4,3.4,3.4S696,219.5,694,219.5z M703.9,213.4c-1.2,0-2.4,0.3-3.2,0.9
	l0.7,1.3c0.6-0.5,1.4-0.7,2.3-0.7c1.2,0,1.9,0.6,1.9,1.6v0.1h-1.9c-2.3,0-3.1,1-3.1,2.2c0,1.3,1.1,2.2,2.8,2.2c1.1,0,1.9-0.4,2.4-1
	v0.9h1.7v-4.4C707.3,214.4,706.1,213.4,703.9,213.4z M703.7,219.8c-0.9,0-1.4-0.4-1.4-1c0-0.5,0.3-1,1.5-1h1.8v0.9
	C705.3,219.4,704.5,219.8,703.7,219.8z M711.9,221.1c2.1,0,3.4-0.9,3.4-2.3c0-2.9-4.6-1.6-4.6-3.1c0-0.5,0.5-0.8,1.6-0.8
	c0.7,0,1.4,0.1,2.1,0.6l0.7-1.3c-0.7-0.4-1.8-0.6-2.8-0.6c-2,0-3.3,0.9-3.3,2.3c0,3,4.6,1.6,4.6,3.1c0,0.5-0.5,0.8-1.6,0.8
	c-0.9,0-1.9-0.3-2.6-0.7l-0.7,1.3C709.4,220.7,710.6,221.1,711.9,221.1z M717.6,212.3c0.7,0,1.1-0.5,1.1-1.1s-0.5-1-1.1-1
	s-1.1,0.5-1.1,1.1S717,212.3,717.6,212.3z M716.8,221h1.8v-7.5h-1.8V221z M723.1,221.1c2.1,0,3.4-0.9,3.4-2.3c0-2.9-4.6-1.6-4.6-3.1
	c0-0.5,0.5-0.8,1.6-0.8c0.7,0,1.4,0.1,2.1,0.6l0.7-1.3c-0.7-0.4-1.8-0.6-2.8-0.6c-2,0-3.3,0.9-3.3,2.3c0,3,4.6,1.6,4.6,3.1
	c0,0.5-0.5,0.8-1.6,0.8c-0.9,0-1.9-0.3-2.6-0.7l-0.7,1.3C720.6,220.7,721.9,221.1,723.1,221.1z M742.8,221v-9.8h-1.5l-3.8,6.5
	l-3.9-6.5H732v9.8h1.7v-6.4l3.2,5.3h0.8l3.2-5.4v6.5L742.8,221L742.8,221z M748.1,213.4c-1.2,0-2.4,0.3-3.2,0.9l0.7,1.3
	c0.6-0.5,1.4-0.7,2.3-0.7c1.2,0,1.9,0.6,1.9,1.6v0.1h-1.9c-2.3,0-3.1,1-3.1,2.2c0,1.3,1.1,2.2,2.8,2.2c1.1,0,1.9-0.4,2.4-1v0.9h1.7
	v-4.4C751.5,214.4,750.3,213.4,748.1,213.4z M747.9,219.8c-0.9,0-1.4-0.4-1.4-1c0-0.5,0.3-1,1.5-1h1.8v0.9
	C749.5,219.4,748.7,219.8,747.9,219.8z M753.7,221h1.8v-10.4h-1.8V221z M757.8,221h1.8v-10.4h-1.8V221z M1055.7,222.1
	c2.7,0,4-1.3,4-2.9c0-3.6-5.8-2.2-5.8-4.3c0-0.7,0.6-1.3,2.1-1.3c0.9,0,1.8,0.3,2.7,0.8l0.6-1.4c-0.9-0.6-2.1-0.9-3.3-0.9
	c-2.7,0-3.9,1.3-3.9,2.9c0,3.6,5.8,2.3,5.8,4.4c0,0.7-0.6,1.3-2.2,1.3c-1.2,0-2.4-0.4-3.2-1.1l-0.6,1.4
	C1052.6,221.6,1054.1,222.1,1055.7,222.1z M1065.5,214.4c-1,0-1.9,0.3-2.5,1v-3.8h-1.8V222h1.8v-3.8c0-1.5,0.8-2.3,2.1-2.3
	c1.1,0,1.8,0.6,1.8,2v4.1h1.8v-4.3C1068.6,215.4,1067.3,214.4,1065.5,214.4z M1077.9,218.3c0-2.3-1.6-3.9-3.8-3.9
	c-2.2,0-3.9,1.6-3.9,3.8s1.6,3.8,4.1,3.8c1.3,0,2.3-0.4,3-1.2l-0.9-1.1c-0.5,0.5-1.2,0.8-2,0.8c-1.3,0-2.2-0.7-2.4-1.8h5.9
	C1077.9,218.6,1077.9,218.4,1077.9,218.3z M1074.1,215.8c1.1,0,2,0.7,2.1,1.8h-4.2C1072.2,216.5,1073,215.8,1074.1,215.8z
	 M1081.3,215.6v-1.1h-1.7v7.5h1.8v-3.6c0-1.5,0.8-2.3,2.2-2.3c0.1,0,0.3,0,0.4,0v-1.7C1082.7,214.4,1081.8,214.8,1081.3,215.6z
	 M1088.2,214.4c-1.2,0-2.4,0.3-3.2,0.9l0.7,1.3c0.6-0.5,1.4-0.7,2.3-0.7c1.2,0,1.9,0.6,1.9,1.6v0.1h-1.9c-2.3,0-3.1,1-3.1,2.2
	c0,1.3,1.1,2.2,2.8,2.2c1.1,0,1.9-0.4,2.4-1v0.9h1.7v-4.4C1091.6,215.4,1090.4,214.4,1088.2,214.4z M1088,220.8
	c-0.9,0-1.4-0.4-1.4-1c0-0.5,0.3-1,1.5-1h1.8v0.9C1089.6,220.4,1088.9,220.8,1088,220.8z M1097.9,220.3c-0.3,0.2-0.6,0.3-1,0.3
	c-0.7,0-1-0.4-1-1.1V216h2v-1.4h-2v-1.7h-1.8v1.7h-1.2v1.4h1.2v3.6c0,1.7,0.9,2.5,2.6,2.5c0.6,0,1.3-0.2,1.7-0.5L1097.9,220.3z
	 M1102.9,222.1c2.3,0,4-1.6,4-3.8s-1.7-3.8-4-3.8s-4,1.6-4,3.8C1099,220.5,1100.6,222.1,1102.9,222.1z M1102.9,220.6
	c-1.3,0-2.2-0.9-2.2-2.3c0-1.4,1-2.3,2.2-2.3c1.3,0,2.2,0.9,2.2,2.3C1105.2,219.7,1104.2,220.6,1102.9,220.6z M1112.8,214.4
	c-1.1,0-2,0.4-2.6,1.1v-1h-1.7v7.5h1.8v-3.8c0-1.5,0.8-2.3,2.1-2.3c1.1,0,1.8,0.6,1.8,2v4.1h1.8v-4.3
	C1116,215.4,1114.6,214.4,1112.8,214.4z M1126.8,222.1c3,0,5.3-2.1,5.3-5s-2.2-5-5.3-5c-3,0-5.3,2.1-5.3,5
	S1123.8,222.1,1126.8,222.1z M1126.8,220.5c-2,0-3.4-1.4-3.4-3.4s1.5-3.4,3.4-3.4s3.4,1.4,3.4,3.4S1128.8,220.5,1126.8,220.5z
	 M1143.3,214.4c-1.2,0-2.2,0.5-2.8,1.2c-0.5-0.8-1.4-1.2-2.5-1.2c-1,0-1.9,0.4-2.4,1v-1h-1.7v7.5h1.8v-3.8c0-1.5,0.8-2.2,1.9-2.2
	s1.7,0.6,1.7,2v4.1h1.8v-3.8c0-1.5,0.8-2.2,1.9-2.2s1.7,0.6,1.7,2v4.1h1.8v-4.3C1146.3,215.4,1145.1,214.4,1143.3,214.4z
	 M1151.4,214.4c-1.2,0-2.4,0.3-3.2,0.9l0.7,1.3c0.6-0.5,1.4-0.7,2.3-0.7c1.2,0,1.9,0.6,1.9,1.6v0.1h-1.9c-2.3,0-3.1,1-3.1,2.2
	c0,1.3,1.1,2.2,2.8,2.2c1.1,0,1.9-0.4,2.4-1v0.9h1.7v-4.4C1154.8,215.4,1153.6,214.4,1151.4,214.4z M1151.2,220.8
	c-0.9,0-1.4-0.4-1.4-1c0-0.5,0.3-1,1.5-1h1.8v0.9C1152.8,220.4,1152,220.8,1151.2,220.8z M1161.3,214.4c-1.1,0-2,0.4-2.6,1.1v-1
	h-1.7v7.5h1.8v-3.8c0-1.5,0.8-2.3,2.1-2.3c1.1,0,1.8,0.6,1.8,2v4.1h1.8v-4.3C1164.4,215.4,1163.1,214.4,1161.3,214.4z"/>
</svg>
