<svg xmlns="http://www.w3.org/2000/svg" viewBox="0 0 17.01 31.95"><defs><style>.cls-1{isolation:isolate;}.cls-2{mix-blend-mode:multiply;}.cls-3{fill:#e79027;fill-rule:evenodd;}</style></defs><g class="cls-1"><g id="Layer_2" data-name="Layer 2"><g id="Layer_1-2" data-name="Layer 1"><g class="cls-2"><path class="cls-3" d="M5.9,14.75,2.51,17.34a1.56,1.56,0,0,1-1.9-2.48L5.4,11.19ZM7.18,0a3,3,0,1,1-3,3,3,3,0,0,1,3-3ZM6,9.77A2.52,2.52,0,0,1,8.63,6.89,6.32,6.32,0,0,1,11,7.81l3,1.61a2.86,2.86,0,0,1,1.36,1.65L17,16.18a1.57,1.57,0,1,1-3,.92l-1.52-5-1-.53.7,4.91a3.6,3.6,0,0,1-1.28,3.69L6.9,23.56l-.5,6.65a1.88,1.88,0,0,1-3.75-.28l.53-7a2.89,2.89,0,0,1,1-1.91l2.41-2.08a1.31,1.31,0,0,0,.55-1.42ZM14,31.86a1.88,1.88,0,0,0,1.21-2.36L12.12,20a5.13,5.13,0,0,1-.77.78l-2.29,2,2.53,7.87A1.88,1.88,0,0,0,14,31.86Z"/></g></g></g></g></svg>