<svg xmlns="http://www.w3.org/2000/svg" viewBox="0 0 27.81 23.84"><defs><style>.cls-1{isolation:isolate;}.cls-2{mix-blend-mode:multiply;}.cls-3{fill:#e79027;}</style></defs><g class="cls-1"><g id="Layer_2" data-name="Layer 2"><g id="Layer_1-2" data-name="Layer 1"><g class="cls-2"><path class="cls-3" d="M21.24,5.6A1.15,1.15,0,0,0,20,4.45a1.21,1.21,0,0,0-1,1.22v5.49a.1.1,0,0,1-.1.11H15.41a.87.87,0,0,0-.88.88v.94h6.71Z"/><path class="cls-3" d="M26.26,17.5h1.55v-.83H26.26a.38.38,0,1,1,0-.75h1.51a2.48,2.48,0,0,0-2.44-2.08H23.64V2.06H25a.79.79,0,0,0,.79-.8V.8A.79.79,0,0,0,25,0H6.51a.79.79,0,0,0-.79.8v.46a.79.79,0,0,0,.79.8H8L5.6,10.56l-.21.77a6.12,6.12,0,0,0-4.58,3H3a.38.38,0,1,1,0,.75H.44A6.12,6.12,0,0,0,0,17.36v3.08A.54.54,0,0,0,.53,21H1.85v0a3.62,3.62,0,1,1,7.23,0v0h10v0a3.62,3.62,0,1,1,7.24,0v0h.91a.53.53,0,0,0,.53-.53v-2.2H26.26a.37.37,0,0,1-.38-.37A.38.38,0,0,1,26.26,17.5Zm-8.51,2H10.47a.38.38,0,0,1,0-.76h7.28a.38.38,0,0,1,0,.76Zm4.89-6.41v.75h-9a.53.53,0,0,0-.53.53v1.15a.64.64,0,0,1-.63.64H8A2.06,2.06,0,0,1,6,14.1v-.65L6.73,13,10,10.8l.51,1a.5.5,0,0,0,.45.28.54.54,0,0,0,.22,0,.5.5,0,0,0,.23-.67L10,8.41a.5.5,0,1,0-.89.44l.5,1L6.73,11.75l-.52.35.44-1.56L9,2.06H22.64Z"/><path class="cls-3" d="M22.75,18a2.9,2.9,0,1,0,2.9,2.9A2.9,2.9,0,0,0,22.75,18Zm0,4.21a1.31,1.31,0,1,1,1.31-1.31A1.31,1.31,0,0,1,22.75,22.25Z"/><path class="cls-3" d="M5.47,18a2.9,2.9,0,1,0,2.89,2.9A2.9,2.9,0,0,0,5.47,18Zm0,4.21a1.31,1.31,0,1,1,1.31-1.31A1.31,1.31,0,0,1,5.46,22.25Z"/></g></g></g></g></svg>