<?xml version="1.0" encoding="utf-8"?>
<!-- Generator: Adobe Illustrator 25.2.1, SVG Export Plug-In . SVG Version: 6.00 Build 0)  -->
<svg version="1.1" xmlns="http://www.w3.org/2000/svg" xmlns:xlink="http://www.w3.org/1999/xlink" x="0px" y="0px"
	 viewBox="0 0 1920 568.3" style="enable-background:new 0 0 1920 568.3;" xml:space="preserve">
<style type="text/css">
	.st0{display:none;}
	.st1{display:inline;}
	.st2{fill:none;stroke:#FFFFFF;stroke-width:2;stroke-miterlimit:10;}
	.st3{fill:#FFFFFF;}
	.st4{fill:none;stroke:#FFFFFF;stroke-width:3;stroke-linecap:round;stroke-miterlimit:10;stroke-dasharray:12,12;}
</style>
<g id="Layer_4" class="st0">
	<rect x="-1.4" y="-2.3" class="st1" width="1921" height="566.8"/>
</g>
<g id="Layer_2">
	<g class="st0">
		<defs>
			<rect id="SVGID_1_" x="-0.1" y="-411.5" width="1920.2" height="979.8"/>
		</defs>
		<clipPath id="SVGID_2_" class="st1">
			<use xlink:href="#SVGID_1_"  style="overflow:visible;"/>
		</clipPath>
		<g style="display:inline;clip-path:url(#SVGID_2_);enable-background:new    ;">
			
				<image style="overflow:visible;" width="20319" height="10368" xlink:href="TSC-Yiti-Map-high-2-Yiti.png"  transform="matrix(9.450331e-02 0 0 9.450331e-02 -0.1064 -411.4699)">
			</image>
		</g>
	</g>
	<path class="st2" d="M1602.2,410.8c3.9,0,7-3.1,7-7c0-3.9-3.1-7-7-7s-7,3.1-7,7C1595.2,407.6,1598.3,410.8,1602.2,410.8z
		 M1409.8,343.9c3.9,0,7-3.1,7-7c0-3.9-3.1-7-7-7c-3.9,0-7,3.1-7,7C1402.8,340.8,1405.9,343.9,1409.8,343.9z M361.7,200.4
		c3.9,0,7-3.1,7-7s-3.1-7-7-7c-3.9,0-7,3.1-7,7S357.8,200.4,361.7,200.4z M782,218.1c3.9,0,7-3.1,7-7c0-3.9-3.1-7-7-7s-7,3.1-7,7
		C775,215,778.2,218.1,782,218.1z M602.6,292.8c3.9,0,7-3.1,7-7c0-3.9-3.1-7-7-7c-3.9,0-7,3.1-7,7
		C595.6,289.6,598.7,292.8,602.6,292.8z M1174.4,229.6c3.9,0,7-3.1,7-7c0-3.9-3.1-7-7-7c-3.9,0-7,3.1-7,7
		C1167.4,226.5,1170.6,229.6,1174.4,229.6z M1206.8,99.4c3.9,0,7-3.1,7-7c0-3.9-3.1-7-7-7s-7,3.1-7,7
		C1199.8,96.2,1203,99.4,1206.8,99.4z M1175.9,145.9c3.9,0,7-3.1,7-7s-3.1-7-7-7c-3.9,0-7,3.1-7,7S1172.1,145.9,1175.9,145.9z
		 M924.7,50.9c3.9,0,7-3.1,7-7c0-3.9-3.1-7-7-7c-3.9,0-7,3.1-7,7C917.7,47.8,920.9,50.9,924.7,50.9z"/>
	<path class="st3" d="M434.5,279.4h-5.8v14.2h2.6v-4.1h3.2c3.7,0,6-1.9,6-5C440.5,281.3,438.2,279.4,434.5,279.4z M434.4,287.2h-3.1
		v-5.6h3.1c2.3,0,3.5,1,3.5,2.8C437.9,286.2,436.7,287.2,434.4,287.2z M447,282.6c-1.7,0-3.4,0.4-4.6,1.3l1,1.8
		c0.8-0.7,2.1-1.1,3.3-1.1c1.8,0,2.7,0.9,2.7,2.4v0.2h-2.8c-3.3,0-4.5,1.4-4.5,3.2c0,1.9,1.6,3.2,4,3.2c1.6,0,2.8-0.5,3.4-1.5v1.3
		h2.4v-6.3C451.9,284.1,450.1,282.6,447,282.6z M446.6,291.9c-1.3,0-2.1-0.6-2.1-1.5c0-0.8,0.5-1.4,2.2-1.4h2.6v1.3
		C448.9,291.3,447.9,291.9,446.6,291.9z M461.3,282.6c-1.6,0-2.9,0.5-3.7,1.5v-1.4h-2.4v10.8h2.5v-5.5c0-2.2,1.2-3.3,3-3.3
		c1.6,0,2.6,0.9,2.6,2.9v5.9h2.5v-6.2C465.8,284.1,463.9,282.6,461.3,282.6z M474,293.7c3.4,0,5.8-2.3,5.8-5.6
		c0-3.2-2.4-5.5-5.8-5.5c-3.3,0-5.8,2.3-5.8,5.5C468.2,291.4,470.6,293.7,474,293.7z M474,291.5c-1.8,0-3.2-1.3-3.2-3.4
		s1.4-3.4,3.2-3.4c1.8,0,3.2,1.3,3.2,3.4S475.8,291.5,474,291.5z M484.6,284.3v-1.6h-2.4v10.8h2.5v-5.2c0-2.2,1.2-3.3,3.1-3.3
		c0.2,0,0.4,0,0.6,0.1v-2.4C486.6,282.6,485.3,283.2,484.6,284.3z M494.7,282.6c-1.7,0-3.4,0.4-4.6,1.3l1,1.8
		c0.8-0.7,2.1-1.1,3.3-1.1c1.8,0,2.7,0.9,2.7,2.4v0.2h-2.8c-3.3,0-4.5,1.4-4.5,3.2c0,1.9,1.6,3.2,4,3.2c1.6,0,2.8-0.5,3.4-1.5v1.3
		h2.4v-6.3C499.6,284.1,497.8,282.6,494.7,282.6z M494.3,291.9c-1.3,0-2.1-0.6-2.1-1.5c0-0.8,0.5-1.4,2.2-1.4h2.6v1.3
		C496.6,291.3,495.5,291.9,494.3,291.9z M516.5,282.6c-1.7,0-3.2,0.7-4.1,1.8c-0.7-1.2-2.1-1.8-3.6-1.8c-1.5,0-2.7,0.5-3.5,1.5v-1.4
		h-2.4v10.8h2.5v-5.5c0-2.1,1.1-3.2,2.8-3.2c1.5,0,2.4,0.9,2.4,2.9v5.9h2.5v-5.5c0-2.1,1.2-3.2,2.8-3.2c1.5,0,2.4,0.9,2.4,2.9v5.9
		h2.5v-6.2C520.9,284.1,519.1,282.6,516.5,282.6z M528.3,282.6c-1.7,0-3.4,0.4-4.6,1.3l1,1.8c0.8-0.7,2.1-1.1,3.3-1.1
		c1.8,0,2.7,0.9,2.7,2.4v0.2h-2.8c-3.3,0-4.5,1.4-4.5,3.2c0,1.9,1.6,3.2,4,3.2c1.6,0,2.8-0.5,3.4-1.5v1.3h2.4v-6.3
		C533.2,284.1,531.4,282.6,528.3,282.6z M527.9,291.9c-1.3,0-2.1-0.6-2.1-1.5c0-0.8,0.5-1.4,2.2-1.4h2.6v1.3
		C530.3,291.3,529.2,291.9,527.9,291.9z M557.8,293.6l0-14.2h-2.2l-5.5,9.4l-5.6-9.4h-2.2v14.2h2.5v-9.3l4.7,7.7h1.2l4.7-7.8l0,9.4
		H557.8z M565.6,282.6c-1.7,0-3.4,0.4-4.6,1.3l1,1.8c0.8-0.7,2.1-1.1,3.3-1.1c1.8,0,2.7,0.9,2.7,2.4v0.2h-2.8
		c-3.3,0-4.5,1.4-4.5,3.2c0,1.9,1.6,3.2,4,3.2c1.6,0,2.8-0.5,3.4-1.5v1.3h2.4v-6.3C570.5,284.1,568.7,282.6,565.6,282.6z
		 M565.2,291.9c-1.3,0-2.1-0.6-2.1-1.5c0-0.8,0.5-1.4,2.2-1.4h2.6v1.3C567.5,291.3,566.4,291.9,565.2,291.9z M573.7,293.6h2.5v-15
		h-2.5V293.6z M579.6,293.6h2.5v-15h-2.5V293.6z M970.7,96h2.8L967,81.8h-2.6L958,96h2.7l1.4-3.3h7.1L970.7,96z M963.1,90.7l2.7-6.2
		l2.7,6.2H963.1z M978.2,96.2c3,0,4.9-1.3,4.9-3.3c0-4.2-6.7-2.3-6.7-4.5c0-0.7,0.7-1.2,2.3-1.2c1,0,2.1,0.2,3.1,0.8l1-1.9
		c-1-0.6-2.6-0.9-4.1-0.9c-2.9,0-4.8,1.3-4.8,3.4c0,4.3,6.7,2.4,6.7,4.4c0,0.7-0.7,1.2-2.3,1.2c-1.4,0-2.8-0.4-3.8-1.1l-1,1.9
		C974.6,95.6,976.4,96.2,978.2,96.2z M995.6,96.2c3.9,0,5.7-1.9,5.7-4.2c0-5.2-8.4-3.2-8.4-6.3c0-1.1,0.9-1.9,3.1-1.9
		c1.2,0,2.6,0.4,3.9,1.1l0.8-2c-1.2-0.8-3-1.3-4.7-1.3c-3.9,0-5.7,1.9-5.7,4.2c0,5.3,8.4,3.3,8.4,6.3c0,1.1-0.9,1.8-3.1,1.8
		c-1.7,0-3.5-0.6-4.7-1.6l-0.9,2C991.1,95.5,993.3,96.2,995.6,96.2z M1011.6,85.2v5.5c0,2.2-1.2,3.3-3,3.3c-1.6,0-2.5-0.9-2.5-2.9
		v-5.8h-2.5v6.2c0,3.3,1.9,4.8,4.7,4.8c1.4,0,2.7-0.5,3.5-1.5V96h2.4V85.2H1011.6z M1017.5,96h2.5V81h-2.5V96z M1029.6,93.6
		c-0.4,0.3-0.9,0.4-1.4,0.4c-1,0-1.5-0.6-1.5-1.6v-5.1h2.9v-2h-2.9v-2.5h-2.5v2.5h-1.8v2h1.8v5.2c0,2.4,1.4,3.6,3.7,3.6
		c0.9,0,1.8-0.2,2.4-0.7L1029.6,93.6z M1036.6,85.1c-1.7,0-3.4,0.4-4.6,1.3l1,1.8c0.8-0.7,2.1-1.1,3.3-1.1c1.8,0,2.7,0.9,2.7,2.4
		v0.2h-2.8c-3.3,0-4.5,1.4-4.5,3.2c0,1.9,1.6,3.2,4,3.2c1.6,0,2.8-0.5,3.4-1.5V96h2.4v-6.3C1041.5,86.6,1039.7,85.1,1036.6,85.1z
		 M1036.2,94.3c-1.3,0-2.1-0.6-2.1-1.5c0-0.8,0.5-1.4,2.2-1.4h2.6v1.3C1038.5,93.8,1037.5,94.3,1036.2,94.3z M1050.9,85.1
		c-1.6,0-2.9,0.5-3.7,1.5v-1.4h-2.4V96h2.5v-5.5c0-2.2,1.2-3.3,3-3.3c1.6,0,2.6,0.9,2.6,2.9V96h2.5v-6.2
		C1055.4,86.6,1053.5,85.1,1050.9,85.1z M1078.2,96c-0.7,0.7-1.5,1.1-2.4,1.1c-0.8,0-1.6-0.3-2.4-1.2c3.2-0.9,5.3-3.6,5.3-7
		c0-4.2-3.2-7.3-7.6-7.3s-7.6,3.1-7.6,7.3c0,3.9,2.9,6.9,6.8,7.3c2.1,2.2,3.5,2.9,5.5,2.9c1.5,0,2.8-0.6,3.7-1.7L1078.2,96z
		 M1066.1,88.9c0-2.9,2.1-5,5-5c2.9,0,5,2.1,5,5c0,2.9-2.1,5-5,5C1068.2,93.9,1066.1,91.8,1066.1,88.9z M1085.4,85.1
		c-1.7,0-3.4,0.4-4.6,1.3l1,1.8c0.8-0.7,2.1-1.1,3.3-1.1c1.8,0,2.7,0.9,2.7,2.4v0.2h-2.8c-3.3,0-4.5,1.4-4.5,3.2
		c0,1.9,1.6,3.2,4,3.2c1.6,0,2.8-0.5,3.4-1.5V96h2.4v-6.3C1090.3,86.6,1088.5,85.1,1085.4,85.1z M1085.1,94.3
		c-1.3,0-2.1-0.6-2.1-1.5c0-0.8,0.5-1.4,2.2-1.4h2.6v1.3C1087.4,93.8,1086.3,94.3,1085.1,94.3z M1099.6,85.1c-1.4,0-2.6,0.5-3.5,1.4
		V81h-2.5v15h2.4v-1.4c0.9,1,2.1,1.5,3.6,1.5c3.2,0,5.5-2.2,5.5-5.6S1102.7,85.1,1099.6,85.1z M1099.3,94c-1.8,0-3.2-1.3-3.2-3.4
		c0-2.1,1.4-3.4,3.2-3.4c1.8,0,3.2,1.3,3.2,3.4C1102.5,92.7,1101.1,94,1099.3,94z M1112.3,96.2c3.4,0,5.8-2.3,5.8-5.6
		c0-3.2-2.4-5.5-5.8-5.5c-3.3,0-5.8,2.3-5.8,5.5C1106.6,93.9,1109,96.2,1112.3,96.2z M1112.3,94c-1.8,0-3.2-1.3-3.2-3.4
		c0-2.1,1.4-3.4,3.2-3.4c1.8,0,3.2,1.3,3.2,3.4C1115.6,92.7,1114.2,94,1112.3,94z M1125.4,96.2c3.4,0,5.8-2.3,5.8-5.6
		c0-3.2-2.4-5.5-5.8-5.5c-3.3,0-5.8,2.3-5.8,5.5C1119.6,93.9,1122.1,96.2,1125.4,96.2z M1125.4,94c-1.8,0-3.2-1.3-3.2-3.4
		c0-2.1,1.4-3.4,3.2-3.4c1.8,0,3.2,1.3,3.2,3.4C1128.6,92.7,1127.2,94,1125.4,94z M1136.9,96.2c3,0,4.9-1.3,4.9-3.3
		c0-4.2-6.7-2.3-6.7-4.5c0-0.7,0.7-1.2,2.3-1.2c1,0,2.1,0.2,3.1,0.8l1-1.9c-1-0.6-2.6-0.9-4.1-0.9c-2.9,0-4.8,1.3-4.8,3.4
		c0,4.3,6.7,2.4,6.7,4.4c0,0.7-0.7,1.2-2.3,1.2c-1.4,0-2.8-0.4-3.8-1.1l-1,1.9C1133.3,95.6,1135.1,96.2,1136.9,96.2z M1155.7,81.8
		h-5.8V96h2.6v-4.1h3.2c3.7,0,6-1.9,6-5C1161.7,83.8,1159.4,81.8,1155.7,81.8z M1155.6,89.7h-3.1v-5.6h3.1c2.3,0,3.5,1,3.5,2.8
		C1159.1,88.7,1157.9,89.7,1155.6,89.7z M1169,96.2c3.4,0,5.8-2.3,5.8-5.6c0-3.2-2.4-5.5-5.8-5.5c-3.3,0-5.8,2.3-5.8,5.5
		C1163.2,93.9,1165.6,96.2,1169,96.2z M1169,94c-1.8,0-3.2-1.3-3.2-3.4c0-2.1,1.4-3.4,3.2-3.4c1.8,0,3.2,1.3,3.2,3.4
		C1172.2,92.7,1170.8,94,1169,94z M1179.6,86.8v-1.6h-2.4V96h2.5v-5.2c0-2.2,1.2-3.3,3.1-3.3c0.2,0,0.4,0,0.6,0.1v-2.4
		C1181.6,85.1,1180.3,85.7,1179.6,86.8z M1191.8,93.6c-0.4,0.3-0.9,0.4-1.4,0.4c-1,0-1.5-0.6-1.5-1.6v-5.1h2.9v-2h-2.9v-2.5h-2.5
		v2.5h-1.8v2h1.8v5.2c0,2.4,1.4,3.6,3.7,3.6c0.9,0,1.8-0.2,2.4-0.7L1191.8,93.6z M1038.6,141.5l0-14.2h-2.2l-5.5,9.4l-5.6-9.4h-2.2
		v14.2h2.5v-9.3l4.7,7.7h1.2l4.7-7.8l0,9.4H1038.6z M1050.2,130.7v5.5c0,2.2-1.2,3.3-3,3.3c-1.6,0-2.5-0.9-2.5-2.9v-5.8h-2.5v6.2
		c0,3.3,1.9,4.8,4.7,4.8c1.4,0,2.7-0.5,3.5-1.5v1.4h2.4v-10.8H1050.2z M1061.8,139.1c-0.4,0.3-0.9,0.4-1.4,0.4c-1,0-1.5-0.6-1.5-1.6
		v-5.1h2.9v-2h-2.9v-2.5h-2.5v2.5h-1.8v2h1.8v5.2c0,2.4,1.4,3.6,3.7,3.6c0.9,0,1.8-0.2,2.4-0.7L1061.8,139.1z M1067,132.3v-1.6h-2.4
		v10.8h2.5v-5.2c0-2.2,1.2-3.3,3.1-3.3c0.2,0,0.4,0,0.6,0.1v-2.4C1069.1,130.6,1067.7,131.1,1067,132.3z M1077.1,130.6
		c-1.7,0-3.4,0.4-4.6,1.3l1,1.8c0.8-0.7,2.1-1.1,3.3-1.1c1.8,0,2.7,0.9,2.7,2.4v0.2h-2.8c-3.3,0-4.5,1.4-4.5,3.2
		c0,1.9,1.6,3.2,4,3.2c1.6,0,2.8-0.5,3.4-1.5v1.3h2.4v-6.3C1082,132,1080.2,130.6,1077.1,130.6z M1076.7,139.8
		c-1.3,0-2.1-0.6-2.1-1.5c0-0.8,0.5-1.4,2.2-1.4h2.6v1.3C1079.1,139.2,1078,139.8,1076.7,139.8z M1091.4,130.6
		c-1.5,0-2.8,0.5-3.6,1.4v-5.5h-2.5v15h2.5V136c0-2.2,1.2-3.3,3-3.3c1.6,0,2.6,0.9,2.6,2.9v5.9h2.5v-6.2
		C1095.9,132,1094,130.6,1091.4,130.6z M1109.4,141.7c3.9,0,5.7-1.9,5.7-4.2c0-5.2-8.4-3.2-8.4-6.3c0-1.1,0.9-1.9,3.1-1.9
		c1.2,0,2.6,0.4,3.9,1.1l0.8-2c-1.2-0.8-3-1.3-4.7-1.3c-3.9,0-5.7,1.9-5.7,4.2c0,5.3,8.4,3.3,8.4,6.3c0,1.1-0.9,1.8-3.1,1.8
		c-1.7,0-3.5-0.6-4.7-1.6l-0.9,2C1105,141,1107.2,141.7,1109.4,141.7z M1122.3,141.6c3.4,0,5.8-2.3,5.8-5.6c0-3.2-2.4-5.5-5.8-5.5
		c-3.3,0-5.8,2.3-5.8,5.5C1116.6,139.3,1119,141.6,1122.3,141.6z M1122.3,139.5c-1.8,0-3.2-1.3-3.2-3.4c0-2.1,1.4-3.4,3.2-3.4
		c1.8,0,3.2,1.3,3.2,3.4C1125.6,138.2,1124.2,139.5,1122.3,139.5z M1138.5,130.7v5.5c0,2.2-1.2,3.3-3,3.3c-1.6,0-2.5-0.9-2.5-2.9
		v-5.8h-2.5v6.2c0,3.3,1.9,4.8,4.7,4.8c1.4,0,2.7-0.5,3.5-1.5v1.4h2.4v-10.8H1138.5z M1152.5,130.7v1.4c-0.9-1-2.1-1.5-3.6-1.5
		c-3.2,0-5.5,2.2-5.5,5.5c0,3.4,2.3,5.6,5.5,5.6c1.4,0,2.6-0.5,3.5-1.5v5.2h2.5v-14.8H1152.5z M1149.2,139.5c-1.8,0-3.2-1.3-3.2-3.4
		c0-2.1,1.4-3.4,3.2-3.4c1.8,0,3.2,1.3,3.2,3.4C1152.4,138.2,1151,139.5,1149.2,139.5z M779.6,49.2l0-14.2h-2.2l-5.5,9.4l-5.6-9.4
		h-2.2v14.2h2.5v-9.3l4.7,7.7h1.2l4.7-7.8l0,9.4H779.6z M787.3,38.2c-1.7,0-3.4,0.4-4.6,1.3l1,1.8c0.8-0.7,2.1-1.1,3.3-1.1
		c1.8,0,2.7,0.9,2.7,2.4v0.2h-2.8c-3.3,0-4.5,1.4-4.5,3.2c0,1.9,1.6,3.2,4,3.2c1.6,0,2.8-0.5,3.4-1.5v1.3h2.4v-6.3
		C792.3,39.7,790.4,38.2,787.3,38.2z M787,47.5c-1.3,0-2.1-0.6-2.1-1.5c0-0.8,0.5-1.4,2.2-1.4h2.6v1.3
		C789.3,46.9,788.2,47.5,787,47.5z M797.9,39.9v-1.6h-2.4v10.8h2.5v-5.2c0-2.2,1.2-3.3,3.1-3.3c0.2,0,0.4,0,0.6,0.1v-2.4
		C800,38.2,798.6,38.8,797.9,39.9z M805.4,36.5c1,0,1.6-0.7,1.6-1.6c0-0.8-0.7-1.5-1.6-1.5c-0.9,0-1.6,0.7-1.6,1.5
		C803.8,35.9,804.5,36.5,805.4,36.5z M802.9,53.2c2.4,0,3.8-1.5,3.8-3.9v-11h-2.5v11.1c0,1.2-0.5,1.7-1.5,1.7
		c-0.6,0-1.1-0.1-1.5-0.4l-0.7,1.9C801.1,53,802,53.2,802.9,53.2z M814.1,38.2c-1.7,0-3.4,0.4-4.6,1.3l1,1.8
		c0.8-0.7,2.1-1.1,3.3-1.1c1.8,0,2.7,0.9,2.7,2.4v0.2h-2.8c-3.3,0-4.5,1.4-4.5,3.2c0,1.9,1.6,3.2,4,3.2c1.6,0,2.8-0.5,3.4-1.5v1.3
		h2.4v-6.3C819,39.7,817.2,38.2,814.1,38.2z M813.8,47.5c-1.3,0-2.1-0.6-2.1-1.5c0-0.8,0.5-1.4,2.2-1.4h2.6v1.3
		C816.1,46.9,815,47.5,813.8,47.5z M828.4,38.2c-1.6,0-2.9,0.5-3.7,1.5v-1.4h-2.4v10.8h2.5v-5.5c0-2.2,1.2-3.3,3-3.3
		c1.6,0,2.6,0.9,2.6,2.9v5.9h2.5V43C833,39.7,831,38.2,828.4,38.2z M852.1,41.8c1.1-0.6,1.8-1.7,1.8-3.1c0-2.2-1.8-3.7-5.2-3.7H842
		v14.2h7.1c3.6,0,5.6-1.4,5.6-3.9C854.6,43.5,853.6,42.3,852.1,41.8z M848.4,37c1.8,0,2.9,0.6,2.9,2c0,1.3-1,1.9-2.9,1.9h-3.7V37
		H848.4z M848.9,47.1h-4.3V43h4.3c2,0,3.1,0.6,3.1,2S850.9,47.1,848.9,47.1z M867.4,43.8c0-3.4-2.3-5.6-5.5-5.6
		c-3.2,0-5.6,2.3-5.6,5.5s2.4,5.6,6,5.6c1.9,0,3.4-0.6,4.4-1.8l-1.4-1.6c-0.8,0.8-1.7,1.2-2.9,1.2c-1.9,0-3.2-1-3.5-2.6h8.5
		C867.3,44.3,867.4,44,867.4,43.8z M861.9,40.2c1.7,0,2.9,1.1,3.1,2.6h-6.1C859.1,41.3,860.2,40.2,861.9,40.2z M873.6,38.2
		c-1.7,0-3.4,0.4-4.6,1.3l1,1.8c0.8-0.7,2.1-1.1,3.3-1.1c1.8,0,2.7,0.9,2.7,2.4v0.2h-2.8c-3.3,0-4.5,1.4-4.5,3.2
		c0,1.9,1.6,3.2,4,3.2c1.6,0,2.8-0.5,3.4-1.5v1.3h2.4v-6.3C878.6,39.7,876.8,38.2,873.6,38.2z M873.3,47.5c-1.3,0-2.1-0.6-2.1-1.5
		c0-0.8,0.5-1.4,2.2-1.4h2.6v1.3C875.6,46.9,874.5,47.5,873.3,47.5z M886.9,49.3c2.1,0,3.8-0.9,4.6-2.5l-1.9-1.1
		c-0.6,1-1.6,1.5-2.7,1.5c-1.9,0-3.3-1.3-3.3-3.4c0-2.1,1.4-3.4,3.3-3.4c1.1,0,2,0.5,2.7,1.5l1.9-1.1c-0.8-1.6-2.5-2.5-4.6-2.5
		c-3.4,0-5.9,2.3-5.9,5.5S883.4,49.3,886.9,49.3z M899.7,38.2c-1.5,0-2.8,0.5-3.6,1.4v-5.5h-2.5v15h2.5v-5.5c0-2.2,1.2-3.3,3-3.3
		c1.6,0,2.6,0.9,2.6,2.9v5.9h2.5V43C904.2,39.7,902.3,38.2,899.7,38.2z M1231.5,343.8h2.8l-6.4-14.2h-2.6l-6.4,14.2h2.7l1.4-3.3h7.1
		L1231.5,343.8z M1223.9,338.5l2.7-6.2l2.7,6.2H1223.9z M1235.9,343.8h2.5v-15h-2.5V343.8z M1257.6,336.5c1.1-0.6,1.8-1.7,1.8-3.1
		c0-2.2-1.8-3.7-5.2-3.7h-6.7v14.2h7.1c3.6,0,5.5-1.4,5.5-3.9C1260.2,338.1,1259.1,336.9,1257.6,336.5z M1253.9,331.7
		c1.8,0,2.9,0.6,2.9,2c0,1.3-1,1.9-2.9,1.9h-3.7v-3.9H1253.9z M1254.4,341.8h-4.3v-4.1h4.3c2,0,3.1,0.6,3.1,2
		S1256.4,341.8,1254.4,341.8z M1270.7,333v5.5c0,2.2-1.2,3.3-3,3.3c-1.6,0-2.5-0.9-2.5-2.9V333h-2.5v6.2c0,3.3,1.9,4.8,4.7,4.8
		c1.4,0,2.7-0.5,3.5-1.5v1.4h2.4V333H1270.7z M1279.9,344c3,0,4.9-1.3,4.9-3.3c0-4.2-6.7-2.3-6.7-4.5c0-0.7,0.7-1.2,2.3-1.2
		c1,0,2.1,0.2,3.1,0.8l1-1.9c-1-0.6-2.6-0.9-4.1-0.9c-2.9,0-4.8,1.3-4.8,3.4c0,4.3,6.7,2.4,6.7,4.4c0,0.7-0.7,1.2-2.3,1.2
		c-1.4,0-2.8-0.4-3.8-1.1l-1,1.9C1276.3,343.4,1278.1,344,1279.9,344z M1292.7,341.4c-0.4,0.3-0.9,0.4-1.4,0.4c-1,0-1.5-0.6-1.5-1.6
		v-5.1h2.9v-2h-2.9v-2.5h-2.5v2.5h-1.8v2h1.8v5.2c0,2.4,1.4,3.6,3.7,3.6c0.9,0,1.8-0.2,2.4-0.7L1292.7,341.4z M1299.7,332.9
		c-1.7,0-3.4,0.4-4.6,1.3l1,1.8c0.8-0.7,2.1-1.1,3.3-1.1c1.8,0,2.7,0.9,2.7,2.4v0.2h-2.8c-3.3,0-4.5,1.4-4.5,3.2
		c0,1.9,1.6,3.2,4,3.2c1.6,0,2.8-0.5,3.4-1.5v1.3h2.4v-6.3C1304.6,334.4,1302.8,332.9,1299.7,332.9z M1299.3,342.1
		c-1.3,0-2.1-0.6-2.1-1.5c0-0.8,0.5-1.4,2.2-1.4h2.6v1.3C1301.6,341.6,1300.6,342.1,1299.3,342.1z M1314,332.9
		c-1.6,0-2.9,0.5-3.7,1.5V333h-2.4v10.8h2.5v-5.5c0-2.2,1.2-3.3,3-3.3c1.6,0,2.6,0.9,2.6,2.9v5.9h2.5v-6.2
		C1318.5,334.4,1316.6,332.9,1314,332.9z M1333.4,329.6h-5.8v14.2h2.6v-4.1h3.2c3.7,0,6-1.9,6-5
		C1339.4,331.5,1337.1,329.6,1333.4,329.6z M1333.3,337.5h-3.1v-5.6h3.1c2.3,0,3.5,1,3.5,2.8
		C1336.8,336.5,1335.6,337.5,1333.3,337.5z M1345.9,332.9c-1.7,0-3.4,0.4-4.6,1.3l1,1.8c0.8-0.7,2.1-1.1,3.3-1.1
		c1.8,0,2.7,0.9,2.7,2.4v0.2h-2.8c-3.3,0-4.5,1.4-4.5,3.2c0,1.9,1.6,3.2,4,3.2c1.6,0,2.8-0.5,3.4-1.5v1.3h2.4v-6.3
		C1350.8,334.4,1349,332.9,1345.9,332.9z M1345.5,342.1c-1.3,0-2.1-0.6-2.1-1.5c0-0.8,0.5-1.4,2.2-1.4h2.6v1.3
		C1347.8,341.6,1346.8,342.1,1345.5,342.1z M1354,343.8h2.5v-15h-2.5V343.8z M1364,332.9c-1.7,0-3.4,0.4-4.6,1.3l1,1.8
		c0.8-0.7,2.1-1.1,3.3-1.1c1.8,0,2.7,0.9,2.7,2.4v0.2h-2.8c-3.3,0-4.5,1.4-4.5,3.2c0,1.9,1.6,3.2,4,3.2c1.6,0,2.8-0.5,3.4-1.5v1.3
		h2.4v-6.3C1368.9,334.4,1367.2,332.9,1364,332.9z M1363.7,342.1c-1.3,0-2.1-0.6-2.1-1.5c0-0.8,0.5-1.4,2.2-1.4h2.6v1.3
		C1366,341.6,1364.9,342.1,1363.7,342.1z M1377.3,344c2.1,0,3.8-0.9,4.6-2.5l-1.9-1.1c-0.7,1-1.6,1.5-2.7,1.5
		c-1.9,0-3.3-1.3-3.3-3.4c0-2.1,1.4-3.4,3.3-3.4c1.1,0,2.1,0.5,2.7,1.5l1.9-1.1c-0.8-1.6-2.5-2.5-4.6-2.5c-3.4,0-5.9,2.3-5.9,5.5
		S1373.8,344,1377.3,344z M1394.1,338.5c0-3.4-2.3-5.6-5.5-5.6c-3.2,0-5.6,2.3-5.6,5.5s2.3,5.6,6,5.6c1.9,0,3.4-0.6,4.4-1.8
		l-1.4-1.6c-0.8,0.8-1.7,1.2-2.9,1.2c-1.9,0-3.2-1-3.5-2.6h8.5C1394.1,339,1394.1,338.7,1394.1,338.5z M1388.6,334.9
		c1.7,0,2.9,1.1,3.1,2.6h-6.2C1385.8,336,1387,334.9,1388.6,334.9z M1423.2,431c3.9,0,5.7-1.9,5.7-4.2c0-5.2-8.4-3.2-8.4-6.3
		c0-1.1,0.9-1.9,3.1-1.9c1.2,0,2.6,0.4,3.9,1.1l0.8-2c-1.2-0.8-3-1.3-4.7-1.3c-3.9,0-5.7,1.9-5.7,4.2c0,5.3,8.4,3.3,8.4,6.3
		c0,1.1-0.9,1.8-3.1,1.8c-1.7,0-3.5-0.6-4.7-1.6l-0.9,2C1418.8,430.3,1421,431,1423.2,431z M1437.4,419.9c-1.5,0-2.8,0.5-3.6,1.4
		v-5.5h-2.5v15h2.5v-5.5c0-2.2,1.2-3.3,3-3.3c1.6,0,2.6,0.9,2.6,2.9v5.9h2.5v-6.2C1441.9,421.4,1440,419.9,1437.4,419.9z
		 M1449.3,419.9c-1.7,0-3.4,0.4-4.6,1.3l1,1.8c0.8-0.7,2.1-1.1,3.3-1.1c1.8,0,2.7,0.9,2.7,2.4v0.2h-2.8c-3.3,0-4.5,1.4-4.5,3.2
		c0,1.9,1.6,3.2,4,3.2c1.6,0,2.8-0.5,3.4-1.5v1.3h2.4v-6.3C1454.2,421.4,1452.4,419.9,1449.3,419.9z M1448.9,429.1
		c-1.3,0-2.1-0.6-2.1-1.5c0-0.8,0.5-1.4,2.2-1.4h2.6v1.3C1451.3,428.6,1450.2,429.1,1448.9,429.1z M1463.6,419.9
		c-1.6,0-2.9,0.5-3.7,1.5V420h-2.4v10.8h2.5v-5.5c0-2.2,1.2-3.3,3-3.3c1.6,0,2.6,0.9,2.6,2.9v5.9h2.5v-6.2
		C1468.1,421.4,1466.2,419.9,1463.6,419.9z M1479.8,420v1.4c-0.9-1.1-2.2-1.6-3.7-1.6c-3.1,0-5.5,2.1-5.5,5.2c0,3.1,2.4,5.2,5.5,5.2
		c1.5,0,2.7-0.5,3.6-1.4v0.6c0,2.2-1.1,3.3-3.4,3.3c-1.5,0-3-0.5-4-1.3l-1.1,1.9c1.2,1,3.2,1.5,5.3,1.5c3.8,0,5.8-1.8,5.8-5.7V420
		H1479.8z M1476.4,428.2c-1.9,0-3.3-1.3-3.3-3.1c0-1.8,1.4-3.1,3.3-3.1c1.9,0,3.3,1.2,3.3,3.1
		C1479.7,426.9,1478.3,428.2,1476.4,428.2z M1487.9,421.6V420h-2.4v10.8h2.5v-5.2c0-2.2,1.2-3.3,3.1-3.3c0.2,0,0.4,0,0.6,0.1v-2.4
		C1490,419.9,1488.7,420.4,1487.9,421.6z M1495.2,418.2c1,0,1.6-0.7,1.6-1.6c0-0.8-0.7-1.5-1.6-1.5c-0.9,0-1.6,0.7-1.6,1.5
		C1493.6,417.5,1494.3,418.2,1495.2,418.2z M1493.9,430.8h2.5V420h-2.5V430.8z M1499.2,426.2h5.6v-2.1h-5.6V426.2z M1507.8,430.8
		h10.1v-2.2h-7.4v-12h-2.6V430.8z M1523.9,419.9c-1.7,0-3.4,0.4-4.6,1.3l1,1.8c0.8-0.7,2.1-1.1,3.3-1.1c1.8,0,2.7,0.9,2.7,2.4v0.2
		h-2.8c-3.3,0-4.5,1.4-4.5,3.2c0,1.9,1.6,3.2,4,3.2c1.6,0,2.8-0.5,3.4-1.5v1.3h2.4v-6.3C1528.9,421.4,1527.1,419.9,1523.9,419.9z
		 M1523.6,429.1c-1.3,0-2.1-0.6-2.1-1.5c0-0.8,0.5-1.4,2.2-1.4h2.6v1.3C1525.9,428.6,1524.8,429.1,1523.6,429.1z M1548.6,430.8h2.8
		l-6.4-14.2h-2.6l-6.4,14.2h2.7l1.4-3.3h7.1L1548.6,430.8z M1541,425.5l2.6-6.2l2.7,6.2H1541z M1552.9,430.8h2.5v-15h-2.5V430.8z
		 M1574.6,416.6v5.9h-7.3v-5.9h-2.6v14.2h2.6v-6.1h7.3v6.1h2.6v-14.2H1574.6z M1588.7,420v5.5c0,2.2-1.2,3.3-3,3.3
		c-1.6,0-2.5-0.9-2.5-2.9V420h-2.5v6.2c0,3.3,1.9,4.8,4.7,4.8c1.4,0,2.7-0.5,3.5-1.5v1.4h2.4V420H1588.7z M1597.9,431
		c3,0,4.9-1.3,4.9-3.3c0-4.2-6.7-2.3-6.7-4.5c0-0.7,0.7-1.2,2.3-1.2c1,0,2.1,0.2,3.1,0.8l1-1.9c-1-0.6-2.6-0.9-4.1-0.9
		c-2.9,0-4.8,1.3-4.8,3.4c0,4.3,6.7,2.4,6.7,4.4c0,0.7-0.7,1.2-2.3,1.2c-1.3,0-2.8-0.4-3.8-1.1l-1,1.9
		C1594.3,430.4,1596.1,431,1597.9,431z M1611.1,419.9c-1.6,0-2.9,0.5-3.7,1.5V420h-2.4v10.8h2.5v-5.5c0-2.2,1.2-3.3,3-3.3
		c1.6,0,2.6,0.9,2.6,2.9v5.9h2.5v-6.2C1615.6,421.4,1613.7,419.9,1611.1,419.9z M216.6,199.5h2.1l-6.4-14.2h-2l-6.4,14.2h2.1
		l1.6-3.5h7.5L216.6,199.5z M208.2,194.3l3.1-7l3.1,7H208.2z M222,197.9l6.3-7.9v-1.3h-8.7v1.6h6.2l-6.3,7.9v1.3h9v-1.6H222z
		 M235,188.7c-1.7,0-3.3,0.5-4.4,1.4l0.8,1.5c0.8-0.7,2.1-1.2,3.4-1.2c1.9,0,2.9,1,2.9,2.6v0.4h-3.1c-3.2,0-4.3,1.4-4.3,3.1
		c0,1.9,1.5,3.2,4,3.2c1.7,0,2.9-0.6,3.5-1.5v1.4h1.8V193C239.6,190.1,238,188.7,235,188.7z M234.6,198.1c-1.5,0-2.4-0.7-2.4-1.7
		c0-0.9,0.5-1.7,2.5-1.7h3v1.5C237.2,197.4,236,198.1,234.6,198.1z M244.2,186.7c0.8,0,1.3-0.6,1.3-1.3c0-0.7-0.6-1.2-1.3-1.2
		c-0.7,0-1.3,0.6-1.3,1.3S243.4,186.7,244.2,186.7z M243.2,199.5h1.9v-10.7h-1.9V199.5z M254.6,188.7c-1.5,0-2.9,0.6-3.7,1.7v-5.9
		h-1.9v15h1.9v-1.7c0.9,1.2,2.2,1.8,3.8,1.8c3.1,0,5.4-2.2,5.4-5.5C260,190.8,257.7,188.7,254.6,188.7z M254.4,197.9
		c-2,0-3.6-1.5-3.6-3.8s1.6-3.8,3.6-3.8c2.1,0,3.6,1.5,3.6,3.8S256.5,197.9,254.4,197.9z M266.5,188.7c-1.7,0-3.3,0.5-4.4,1.4
		l0.8,1.5c0.8-0.7,2.1-1.2,3.4-1.2c1.9,0,2.9,1,2.9,2.6v0.4h-3.1c-3.2,0-4.3,1.4-4.3,3.1c0,1.9,1.5,3.2,4,3.2c1.7,0,2.9-0.6,3.5-1.5
		v1.4h1.8V193C271.1,190.1,269.4,188.7,266.5,188.7z M266.1,198.1c-1.5,0-2.4-0.7-2.4-1.7c0-0.9,0.5-1.7,2.5-1.7h3v1.5
		C268.7,197.4,267.5,198.1,266.1,198.1z M290,192.1c1.1-0.5,1.9-1.6,1.9-3.2c0-2.3-1.8-3.7-5.1-3.7h-6.4v14.2h6.8
		c3.6,0,5.4-1.4,5.4-3.8C292.6,193.8,291.6,192.6,290,192.1z M286.6,187c2.1,0,3.2,0.8,3.2,2.3c0,1.5-1.2,2.3-3.2,2.3h-4.2V187
		H286.6z M287.1,197.9h-4.7v-4.7h4.7c2.2,0,3.5,0.7,3.5,2.4C290.6,197.1,289.4,197.9,287.1,197.9z M305.2,194.2
		c0-3.3-2.2-5.5-5.3-5.5s-5.4,2.3-5.4,5.5c0,3.2,2.3,5.5,5.8,5.5c1.8,0,3.3-0.6,4.2-1.7l-1.1-1.3c-0.8,0.9-1.8,1.3-3.1,1.3
		c-2.1,0-3.6-1.3-3.9-3.1h8.7C305.2,194.6,305.2,194.3,305.2,194.2z M299.9,190.3c1.9,0,3.2,1.3,3.4,3.1h-6.9
		C296.6,191.6,298,190.3,299.9,190.3z M311.5,188.7c-1.7,0-3.3,0.5-4.4,1.4l0.8,1.5c0.8-0.7,2.1-1.2,3.4-1.2c1.9,0,2.9,1,2.9,2.6
		v0.4h-3.1c-3.2,0-4.3,1.4-4.3,3.1c0,1.9,1.5,3.2,4,3.2c1.7,0,2.9-0.6,3.5-1.5v1.4h1.8V193C316.1,190.1,314.4,188.7,311.5,188.7z
		 M311.1,198.1c-1.5,0-2.4-0.7-2.4-1.7c0-0.9,0.5-1.7,2.5-1.7h3v1.5C313.7,197.4,312.5,198.1,311.1,198.1z M324.4,199.6
		c1.9,0,3.5-0.8,4.4-2.3l-1.5-0.9c-0.7,1.1-1.7,1.5-2.9,1.5c-2.1,0-3.7-1.5-3.7-3.8c0-2.3,1.6-3.8,3.7-3.8c1.2,0,2.2,0.5,2.9,1.5
		l1.5-1c-0.9-1.5-2.5-2.3-4.4-2.3c-3.3,0-5.7,2.3-5.7,5.5C318.8,197.3,321.1,199.6,324.4,199.6z M336.9,188.7c-1.6,0-3,0.6-3.8,1.6
		v-5.8h-1.9v15h1.9V194c0-2.3,1.3-3.6,3.4-3.6c1.8,0,2.9,1,2.9,3.1v6h1.9v-6.2C341.4,190.2,339.5,188.7,336.9,188.7z M668.4,218.4
		c4.4,0,7.6-3.1,7.6-7.3c0-4.2-3.2-7.3-7.6-7.3s-7.6,3.1-7.6,7.3C660.8,215.3,664,218.4,668.4,218.4z M668.4,216.1c-2.9,0-5-2.1-5-5
		s2.1-5,5-5c2.9,0,5,2.1,5,5S671.3,216.1,668.4,216.1z M682.7,207.3c-1.7,0-3.4,0.4-4.6,1.3l1,1.8c0.8-0.7,2.1-1.1,3.3-1.1
		c1.8,0,2.7,0.9,2.7,2.4v0.2h-2.8c-3.3,0-4.5,1.4-4.5,3.2c0,1.9,1.6,3.2,4,3.2c1.6,0,2.8-0.5,3.4-1.5v1.3h2.4v-6.3
		C687.7,208.8,685.9,207.3,682.7,207.3z M682.4,216.5c-1.3,0-2.1-0.6-2.1-1.5c0-0.8,0.5-1.4,2.2-1.4h2.6v1.3
		C684.7,216,683.6,216.5,682.4,216.5z M694.3,218.4c3,0,4.9-1.3,4.9-3.3c0-4.2-6.7-2.3-6.7-4.5c0-0.7,0.7-1.2,2.3-1.2
		c1,0,2.1,0.2,3.1,0.8l1-1.9c-1-0.6-2.6-0.9-4.1-0.9c-2.9,0-4.8,1.3-4.8,3.4c0,4.3,6.7,2.4,6.7,4.4c0,0.7-0.7,1.2-2.3,1.2
		c-1.4,0-2.8-0.4-3.8-1.1l-1,1.9C690.7,217.8,692.5,218.4,694.3,218.4z M702.6,205.6c1,0,1.6-0.7,1.6-1.6c0-0.8-0.7-1.5-1.6-1.5
		s-1.6,0.7-1.6,1.5C701,205,701.7,205.6,702.6,205.6z M701.3,218.2h2.5v-10.8h-2.5V218.2z M710.5,218.4c3,0,4.9-1.3,4.9-3.3
		c0-4.2-6.7-2.3-6.7-4.5c0-0.7,0.7-1.2,2.3-1.2c1,0,2.1,0.2,3.1,0.8l1-1.9c-1-0.6-2.6-0.9-4.1-0.9c-2.9,0-4.8,1.3-4.8,3.4
		c0,4.3,6.7,2.4,6.7,4.4c0,0.7-0.7,1.2-2.3,1.2c-1.4,0-2.8-0.4-3.8-1.1l-1,1.9C706.9,217.8,708.7,218.4,710.5,218.4z M739,218.2
		l0-14.2h-2.2l-5.5,9.4l-5.6-9.4h-2.2v14.2h2.5V209l4.7,7.7h1.2l4.7-7.8l0,9.4H739z M746.7,207.3c-1.7,0-3.4,0.4-4.6,1.3l1,1.8
		c0.8-0.7,2.1-1.1,3.3-1.1c1.8,0,2.7,0.9,2.7,2.4v0.2h-2.8c-3.3,0-4.5,1.4-4.5,3.2c0,1.9,1.6,3.2,4,3.2c1.6,0,2.8-0.5,3.4-1.5v1.3
		h2.4v-6.3C751.6,208.8,749.8,207.3,746.7,207.3z M746.4,216.5c-1.3,0-2.1-0.6-2.1-1.5c0-0.8,0.5-1.4,2.2-1.4h2.6v1.3
		C748.7,216,747.6,216.5,746.4,216.5z M754.9,218.2h2.5v-15h-2.5V218.2z M760.8,218.2h2.5v-15h-2.5V218.2z M1002.3,229.7
		c3.9,0,5.7-1.9,5.7-4.2c0-5.2-8.4-3.2-8.4-6.3c0-1.1,0.9-1.9,3.1-1.9c1.2,0,2.6,0.4,3.9,1.1l0.8-2c-1.2-0.8-3-1.3-4.7-1.3
		c-3.9,0-5.7,1.9-5.7,4.2c0,5.3,8.4,3.3,8.4,6.3c0,1.1-0.9,1.8-3.1,1.8c-1.7,0-3.5-0.6-4.7-1.6l-0.9,2
		C997.9,229,1000.1,229.7,1002.3,229.7z M1016.5,218.6c-1.5,0-2.8,0.5-3.6,1.4v-5.5h-2.5v15h2.5V224c0-2.2,1.2-3.3,3-3.3
		c1.6,0,2.6,0.9,2.6,2.9v5.9h2.5v-6.2C1021.1,220.1,1019.1,218.6,1016.5,218.6z M1034.6,224.2c0-3.4-2.3-5.6-5.5-5.6
		c-3.2,0-5.6,2.3-5.6,5.5c0,3.2,2.4,5.6,6,5.6c1.9,0,3.4-0.6,4.4-1.8l-1.4-1.6c-0.8,0.8-1.7,1.2-2.9,1.2c-1.9,0-3.2-1-3.5-2.6h8.5
		C1034.5,224.7,1034.6,224.4,1034.6,224.2z M1029.1,220.6c1.7,0,2.9,1.1,3.1,2.6h-6.1C1026.2,221.7,1027.4,220.6,1029.1,220.6z
		 M1039.4,220.3v-1.6h-2.4v10.8h2.5v-5.2c0-2.2,1.2-3.3,3.1-3.3c0.2,0,0.4,0,0.6,0.1v-2.4C1041.4,218.6,1040.1,219.1,1039.4,220.3z
		 M1049.5,218.6c-1.7,0-3.4,0.4-4.6,1.3l1,1.8c0.8-0.7,2.1-1.1,3.3-1.1c1.8,0,2.7,0.9,2.7,2.4v0.2h-2.8c-3.3,0-4.5,1.4-4.5,3.2
		c0,1.9,1.6,3.2,4,3.2c1.6,0,2.8-0.5,3.4-1.5v1.3h2.4v-6.3C1054.4,220.1,1052.6,218.6,1049.5,218.6z M1049.1,227.8
		c-1.3,0-2.1-0.6-2.1-1.5c0-0.8,0.5-1.4,2.2-1.4h2.6v1.3C1051.4,227.2,1050.4,227.8,1049.1,227.8z M1063.4,227.1
		c-0.4,0.3-0.9,0.4-1.4,0.4c-1,0-1.5-0.6-1.5-1.6v-5.1h2.9v-2h-2.9v-2.5h-2.5v2.5h-1.8v2h1.8v5.2c0,2.4,1.4,3.6,3.7,3.6
		c0.9,0,1.8-0.2,2.4-0.7L1063.4,227.1z M1070.7,229.7c3.4,0,5.8-2.3,5.8-5.6c0-3.2-2.4-5.5-5.8-5.5c-3.3,0-5.8,2.3-5.8,5.5
		C1065,227.3,1067.4,229.7,1070.7,229.7z M1070.7,227.5c-1.8,0-3.2-1.3-3.2-3.4c0-2.1,1.4-3.4,3.2-3.4c1.8,0,3.2,1.3,3.2,3.4
		C1074,226.2,1072.6,227.5,1070.7,227.5z M1085.1,218.6c-1.6,0-2.9,0.5-3.7,1.5v-1.4h-2.4v10.8h2.5V224c0-2.2,1.2-3.3,3-3.3
		c1.6,0,2.6,0.9,2.6,2.9v5.9h2.5v-6.2C1089.6,220.1,1087.7,218.6,1085.1,218.6z M1105.3,229.7c4.4,0,7.6-3.1,7.6-7.3
		c0-4.2-3.2-7.3-7.6-7.3s-7.6,3.1-7.6,7.3C1097.6,226.6,1100.9,229.7,1105.3,229.7z M1105.3,227.4c-2.9,0-5-2.1-5-5s2.1-5,5-5
		c2.9,0,5,2.1,5,5S1108.1,227.4,1105.3,227.4z M1129.1,218.6c-1.7,0-3.2,0.7-4.1,1.8c-0.7-1.2-2.1-1.8-3.6-1.8
		c-1.5,0-2.7,0.5-3.5,1.5v-1.4h-2.4v10.8h2.5V224c0-2.1,1.1-3.2,2.8-3.2c1.5,0,2.4,0.9,2.4,2.9v5.9h2.5V224c0-2.1,1.2-3.2,2.8-3.2
		c1.5,0,2.4,0.9,2.4,2.9v5.9h2.5v-6.2C1133.6,220.1,1131.7,218.6,1129.1,218.6z M1140.9,218.6c-1.7,0-3.4,0.4-4.6,1.3l1,1.8
		c0.8-0.7,2.1-1.1,3.3-1.1c1.8,0,2.7,0.9,2.7,2.4v0.2h-2.8c-3.3,0-4.5,1.4-4.5,3.2c0,1.9,1.6,3.2,4,3.2c1.6,0,2.8-0.5,3.4-1.5v1.3
		h2.4v-6.3C1145.9,220.1,1144.1,218.6,1140.9,218.6z M1140.6,227.8c-1.3,0-2.1-0.6-2.1-1.5c0-0.8,0.5-1.4,2.2-1.4h2.6v1.3
		C1142.9,227.2,1141.8,227.8,1140.6,227.8z M1155.3,218.6c-1.6,0-2.9,0.5-3.7,1.5v-1.4h-2.4v10.8h2.5V224c0-2.2,1.2-3.3,3-3.3
		c1.6,0,2.6,0.9,2.6,2.9v5.9h2.5v-6.2C1159.8,220.1,1157.8,218.6,1155.3,218.6z"/>
	<path class="st4" d="M1288.3,119.7c0,0,288.2,6.7,339,314.5 M1253,133.8c0,0-37,352.4,349.8,343.8 M1535.6,271.1
		c0.1-0.1,0.3-0.2,0.4-0.6c2.3-8.8-8-19.5-13.5-25c-0.4-0.4-0.9-0.3-1.3,0l-3.6,3l-3.7,2.9c-0.4,0.3-0.5,0.8-0.3,1.2
		c4.1,6.5,12.2,19,21.3,18.7C1535.3,271.3,1535.5,271.2,1535.6,271.1z M1524.1,256.6l1.6-1.3c0.2-0.2,0.5-0.1,0.7,0.1l1.6,2
		c1,1.2,0,2.3-0.9,3s-2.1,1.5-3.1,0.2l-1.6-2c-0.2-0.2-0.1-0.5,0.1-0.7L1524.1,256.6z M1523.5,262.2c-1.1-1.3-2.1-2.7-2.4-3.7
		c-0.4-1.5,0.6-2.6,1.7-3.5c1.1-0.9,2.4-1.6,3.8-0.9c0.9,0.5,2.1,1.8,3.1,3.2c1.4,1.9,1.1,3.8-0.8,5.3S1525,264,1523.5,262.2z
		 M1532.5,267.2c-1.9,1.5-4.3-0.3-5.7-1.9c2.7,1.7,6.2-1.1,5.1-4.1C1533.1,262.9,1534.4,265.7,1532.5,267.2z M1519.9,251.3
		c-1.2,1-2.4,0.6-3.6-0.9l3.4-2.7C1520.9,249.2,1521,250.4,1519.9,251.3z M1394.1,400c0.2-1.1-0.6-1.9-0.9-2.4c-0.4-0.5-2.1-2-2.1-2
		c-0.7-0.6-2-1.7-3-2.3c0.1-0.3,0.2-1.3,0.2-1.5c0.1-0.1,0-0.3-0.1-0.4c-0.1-0.1-0.2-0.1-0.2,0.1c-0.1,0.1-0.4,1-0.5,1.2
		c-0.1-0.1-0.1-0.2-0.1-0.2s-7.9-6.7-9.1-7.6c-1.2-0.9-3.1-2.6-4.1-2.8c-1-0.3-1.5-0.4-2.7,0.5c0,0-1.5,1.3-2.6,2.7
		c-1.2,1.3-2.1,3.1-2.1,3.1c-0.7,1.4-0.5,1.9-0.1,2.8c0.4,0.9,2.5,2.5,3.5,3.4c1.1,0.9,9.4,7.3,9.4,7.3s0.1,0.1,0.1,0.2
		c-0.2,0.2-1.1,0.7-1.2,0.8c-0.1,0.1-0.2,0.1,0.1,0.2c0.1,0.2,0.3,0.1,0.5,0.1s1-0.4,1.4-0.4c0.8,0.8,2.2,1.9,2.8,2.4
		c0,0,1.8,1.4,2.4,1.6c0.5,0.3,1.4,0.9,2.5,0.4c0.7-0.2,2.3-1.1,3.8-2.9C1393.4,402.5,1394,400.7,1394.1,400z M1373.6,391.6
		c-0.8,1.2-0.7,1.8-0.5,2.2c0.1,0.3-0.3,0.1-0.3,0.1s-1.6-1.2-2.3-1.8c-0.7-0.5-0.5-1.3-0.2-1.8c0.2-0.5,1-1.6,1.7-2.5
		c0.7-0.9,1.7-1.7,2.1-2.1c0.4-0.3,1-0.6,1.8,0c0.7,0.7,2.2,1.9,2.2,1.9s0.3,0.3,0,0.3c-0.3-0.1-1-0.2-2,0.9
		C1375,389.7,1374.4,390.4,1373.6,391.6z M1384.1,402c-1.2,0.5-1.6,0.6-2.2,0.2c-0.5-0.4-2.1-2.2-2.3-2.6c-0.2-0.4-0.6-0.7-0.3-0.8
		c0.3-0.1,1.7-1.1,2.9-2.6c1.2-1.5,1.8-3.1,1.9-3.4c0.1-0.3,0.4-0.1,0.9,0.1c0.4,0.2,2.5,1.4,3,1.8c0.5,0.5,0.5,0.9,0.2,2.2
		c-0.4,1.3-1.6,2.9-1.6,2.9S1385.2,401.5,1384.1,402z M126,234.4c0,0,607.3,101.1,1126.7-102.6 M935.5,234.5
		c-0.7-0.9-1.8-0.8-2.4-0.9c-0.6,0-2.9,0.3-2.9,0.3c-0.9,0.1-2.6,0.4-3.7,0.7c-0.2-0.3-0.9-1-1-1.1c0-0.1-0.2-0.2-0.4-0.2
		c-0.2,0-0.2,0.1-0.1,0.2c0,0.1,0.5,1,0.6,1.2c-0.1,0-0.2,0-0.2,0s-10.3,1.5-11.7,1.8c-1.4,0.3-4,0.6-4.8,1.2
		c-0.9,0.5-1.3,0.8-1.4,2.3c0,0,0,2,0.3,3.7c0.2,1.7,0.9,3.6,0.9,3.6c0.6,1.4,1.1,1.6,2,1.9c0.9,0.3,3.5-0.2,4.9-0.4
		c1.4-0.2,11.7-2.2,11.7-2.2s0.1,0,0.2,0c0,0.3-0.2,1.3-0.2,1.4c0,0.1,0,0.2,0.2,0.1c0.2,0,0.3-0.2,0.4-0.3c0.1-0.1,0.4-1,0.6-1.3
		c1.1-0.1,2.9-0.4,3.7-0.5c0,0,2.2-0.4,2.8-0.7c0.6-0.2,1.6-0.5,2-1.6c0.3-0.7,0.7-2.5,0.3-4.8C936.9,236.6,935.9,235,935.5,234.5z
		 M915.6,244.3c0.4,1.4,0.9,1.7,1.3,1.8c0.3,0.1-0.1,0.3-0.1,0.3s-1.9,0.4-2.9,0.5c-0.9,0.2-1.3-0.5-1.5-1c-0.2-0.5-0.6-1.8-0.8-2.9
		c-0.2-1.1-0.2-2.4-0.2-3c0.1-0.5,0.2-1.2,1.2-1.3c1-0.1,2.9-0.4,2.9-0.4s0.4,0,0.2,0.2c-0.3,0.2-0.8,0.6-0.7,2.1
		C915.1,242,915.3,242.9,915.6,244.3z M930.4,243.3c-0.4,1.2-0.6,1.6-1.3,1.8c-0.6,0.1-3,0.1-3.5,0c-0.5-0.1-0.9,0-0.8-0.3
		c0.1-0.3,0.3-2,0-3.9c-0.3-1.9-1.1-3.4-1.3-3.7c-0.2-0.3,0.2-0.4,0.7-0.6c0.4-0.2,2.7-1,3.3-1.1c0.7-0.1,1,0.2,1.8,1.3
		c0.7,1.1,1.1,3.1,1.1,3.1S930.7,242.1,930.4,243.3z M113.1,226.3c-0.1-0.7-0.7-1.1-0.7-1.1l-1.7-1.2c0-0.2,0.1-0.5,0.1-0.7
		c0-0.5-0.1-0.9-0.2-1.2c-0.1,0-0.3,0.1-0.4,0.1s-0.3,0-0.4-0.1c-0.1,0.2-0.2,0.6-0.2,1l-1.6-1.2c0.1-0.2,0.1-0.5,0.1-0.9
		c0-0.5-0.1-0.9-0.2-1.2c-0.1,0-0.3,0.1-0.4,0.1s-0.3,0-0.4-0.1c-0.5,0.4-0.6,0.8-0.6,1.3l-2-1.5c-0.1-3.2-0.4-5.9-0.4-5.9
		c-0.2-2.1-1.3-2.2-1.3-2.2s-1.1,0.1-1.3,2.2c0,0-0.3,2.7-0.4,5.9l-2,1.5c0-0.5-0.1-0.9-0.2-1.2c-0.2,0-0.4,0.1-0.5,0.1
		s-0.3,0-0.4-0.1c-0.2,0.3-0.3,0.7-0.3,1.2c0,0.3,0,0.6,0.1,0.9l-1.6,1.2c0-0.4-0.1-0.8-0.2-1c-0.1,0-0.3,0.1-0.4,0.1
		s-0.3,0-0.4-0.1c-0.2,0.3-0.2,0.7-0.2,1.2c0,0.3,0,0.5,0.1,0.7l-1.7,1.2c0,0-0.7,0.4-0.7,1.1c-0.2,0.6-0.2,1,0.6,1l7.7-2.6
		c0.1,3.8,0.6,6.8,0.6,6.8l-2.4,2.1l0.4,0.7l3.2-0.6l3.2,0.6l0.4-0.7l-2.4-2.1c0,0,0.5-3,0.6-6.8l7.7,2.6
		C113.1,227.4,113.1,227,113.1,226.3z"/>
</g>
</svg>
