<svg width="13" height="8" viewBox="0 0 13 8" fill="none" xmlns="http://www.w3.org/2000/svg">
<g clip-path="url(#clip0)">
<path fill-rule="evenodd" clip-rule="evenodd" d="M6.6799 4.74978C6.5499 4.61978 2.9999 1.02978 2.6899 0.709777C2.4599 0.489777 2.2499 0.269777 1.8199 0.229777C0.9699 0.159777 0.3699 0.799777 0.4199 1.57978C0.4499 2.01978 0.6799 2.24978 0.9099 2.48978C2.3699 3.97978 4.1799 5.77978 5.7199 7.29978C6.3099 7.87978 7.0099 7.95978 7.5999 7.39978C8.2499 6.78978 9.0099 5.96978 9.6799 5.31978C10.5599 4.44978 11.4899 3.51978 12.4399 2.56978C12.6299 2.37978 12.9099 2.14978 12.9799 1.74978C13.2099 0.499777 11.7999 -0.330223 10.7999 0.649777L8.3899 3.04978C8.1399 3.29978 6.9099 4.50978 6.6799 4.74978Z" fill="#A4A6A7"/>
</g>
<defs>
<clipPath id="clip0">
<rect width="12.58" height="7.56" fill="white" transform="translate(0.419922 0.220703)"/>
</clipPath>
</defs>
</svg>
