<svg id="a8a9ea53-18b0-47cd-b2aa-95b86db0fe29" data-name="Layer 1" xmlns="http://www.w3.org/2000/svg" viewBox="0 0 117 117">
  <defs>
    <style>
      .green-circle {
        fill: #68b895;
      }

      .green-icon {
        fill: #fff;
      }
      
      .line-circle {
        fill: none;
        stroke: #de7531;
        stroke-miterlimit: 10;
        stroke-width: 4px;
      }
    </style>
  </defs>
  <g>
    <circle class="green-circle" cx="58.5" cy="58.5" r="50.5" />
    <g>
      <circle class="green-icon" cx="73.93" cy="83.57" r="0.96" />
      <path class="green-icon" d="M48.92,63.63a1,1,0,0,0,1.16.71l.53-.13-1.08,1.88a3.34,3.34,0,0,0-.19,3.1A3.17,3.17,0,0,0,52.25,71h4.08a1,1,0,1,0,0-1.92H52.25a1.27,1.27,0,0,1-1.12-.65,1.29,1.29,0,0,1,0-1.29l1.15-2,.16.52a1,1,0,0,0,1.84-.54l-.78-2.68a1,1,0,0,0-1.16-.67l-2.71.66a1,1,0,0,0-.71,1.16Z" />
      <path class="green-icon" d="M64.17,62.31a1,1,0,0,0-.36,1.32l2,3.54a1.3,1.3,0,0,1-1.12,1.94h-2.3l.38-.4a1,1,0,0,0-1.4-1.33l-1.93,2a1,1,0,0,0,0,1.33l1.93,2a1,1,0,0,0,1.4-1.33l-.38-.4h2.3a3.18,3.18,0,0,0,2.91-1.84,3.34,3.34,0,0,0-.19-3.1l-2-3.42a1,1,0,0,0-1.32-.36Z" />
      <path class="green-icon" d="M54,60.24h0a1,1,0,0,0,1.31-.35l2.05-3.54a1.28,1.28,0,0,1,2.23,0l1.15,2-.53-.13a1,1,0,0,0-1.16.71h0a1,1,0,0,0,.71,1.17l2.72.66a1,1,0,0,0,1.15-.67l.79-2.68a1,1,0,0,0-.66-1.2h0a1,1,0,0,0-.73.08,1,1,0,0,0-.46.57l-.16.53-1.08-1.87a3.33,3.33,0,0,0-2.59-1.72,3.19,3.19,0,0,0-3,1.59l-2.05,3.55A1,1,0,0,0,54,60.24Z" />
      <path class="green-icon" d="M78.75,37.29v-1a2.9,2.9,0,0,0-2.9-2.89H67.18V30.54a2.89,2.89,0,0,0-2.9-2.89H52.72a2.89,2.89,0,0,0-2.9,2.89v2.89H41.15a2.9,2.9,0,0,0-2.9,2.89v1a2.89,2.89,0,0,0-2.89,2.89v2.89a1,1,0,0,0,1,1h1.07l4.72,44.45a1,1,0,0,0,1,.86H73.93a5.78,5.78,0,0,0,2-11.18L79.61,44h1.07a1,1,0,0,0,1-1V40.18A2.89,2.89,0,0,0,78.75,37.29Zm-27-6.75a1,1,0,0,1,1-1H64.28a1,1,0,0,1,1,1v2.89H51.75ZM40.18,36.32a1,1,0,0,1,1-1h34.7a1,1,0,0,1,1,1v1H40.18Zm37.6,47.25a3.86,3.86,0,1,1-3.85-3.86A3.86,3.86,0,0,1,77.78,83.57Zm-3.7-5.78h-.15a5.77,5.77,0,0,0-4.3,9.64H43.94L39.32,44H77.68Zm5.63-35.68H37.29V40.18a1,1,0,0,1,1-1h40.5a1,1,0,0,1,1,1Z" />
    </g>
  </g>
  <circle class="line-circle green" cx="58.5" cy="58.5" r="57.5" stroke-dasharray='1000' stroke-dashoffset='1000' />
</svg>