<svg id="bac9ff70-16ef-40ff-9662-437651f521c3" data-name="Layer 1" xmlns="http://www.w3.org/2000/svg" viewBox="0 0 117 117">
  <defs>
    <style>
      .blue-circle {
        fill: #138fa8;
      }

      .green-icon {
        fill: #fff;
      }

      .line-circle {
        fill: none;
        stroke: #138fa8;
        stroke-miterlimit: 10;
        stroke-width: 2px;
      }
    </style>
  </defs>
  <g>
    <circle class="blue-circle" cx="58.5" cy="58.5" r="50.5" />
    <g>
      <path class="blue-icon" d="M89.33,70.15l-.08-.1a3.94,3.94,0,0,0-4.38-1.38l-2.45.82c1.57-8.73-4.65-18.43-7.93-22.82a3.24,3.24,0,0,0,1.28-1,4.09,4.09,0,0,1,2.81,2.45,1.06,1.06,0,0,0,.83.68,1.05,1.05,0,0,0,1.12-1.46,6.12,6.12,0,0,0-4.18-3.72,6.5,6.5,0,0,0,2.59-5.06,1.05,1.05,0,1,0-2.1,0,4.2,4.2,0,0,1-1.38,3,3.12,3.12,0,0,0-2.2-.92l2.56-4a3.57,3.57,0,0,0-3-5.46h-.72A3.54,3.54,0,0,0,68.61,27H58.9a3.54,3.54,0,0,0-3.48,4.2H54.7a3.57,3.57,0,0,0-3,5.47l2.56,4a3.15,3.15,0,0,0-1.26,6c-2.85,3.8-7.37,10.83-8.08,18.11a10.59,10.59,0,0,0-4.5-1H38.33a3.17,3.17,0,0,0-3-2.11H30.11A3.17,3.17,0,0,0,27,64.81V86.89A3.16,3.16,0,0,0,30.11,90h5.26A3.1,3.1,0,0,0,37.7,89H64.07a8.46,8.46,0,0,0,4.38-1.22l19.7-12a3.93,3.93,0,0,0,1.18-5.62ZM36.42,86.89a1,1,0,0,1-1.05,1H30.11a1,1,0,0,1-1.05-1V64.81a1,1,0,0,1,1.05-1.05h5.26a1,1,0,0,1,1.05,1.05Zm17-51.39a1.41,1.41,0,0,1,0-1.48,1.44,1.44,0,0,1,1.27-.76h1.5l2.15,5.16a1.06,1.06,0,0,0,.83.64,1.07,1.07,0,0,0,1-.41,1.06,1.06,0,0,0,.14-1l-2.4-5.75s0-.07,0-.11l-.29-.69a1.49,1.49,0,0,1,.13-1.36,1.47,1.47,0,0,1,1.21-.64h9.71a1.45,1.45,0,0,1,1.34,2l-.29.69,0,.1-2.39,5.75a1.06,1.06,0,0,0,0,.8,1,1,0,0,0,.57.57,1,1,0,0,0,.41.09,1.07,1.07,0,0,0,1-.65l2.14-5.16h1.5a1.44,1.44,0,0,1,1.27.76,1.45,1.45,0,0,1,0,1.48l-3.28,5.13h-14Zm.8,7.23h19a1.05,1.05,0,1,1,0,2.1h-19a1,1,0,0,1,0-2.1Zm1.17,4.2H72c5.14,6.51,9.9,15.82,8.16,22.94,0,.13-.08.26-.12.4L65.39,75.16a3,3,0,0,1-1,.16h-.6a4.86,4.86,0,0,0-.39-4.14l-.1-.15A6.33,6.33,0,0,0,57.9,68H52.4a8.57,8.57,0,0,1-5.34-1.87L46.93,66C47.17,60.45,50.31,53.41,55.44,46.93ZM87.9,72.76A1.78,1.78,0,0,1,87.05,74L67.35,86a6.32,6.32,0,0,1-3.28.92H38.52v-21h1.89a8.57,8.57,0,0,1,5.34,1.87,10.71,10.71,0,0,0,6.65,2.34h5.5a4.21,4.21,0,0,1,3.61,2l.09.15a2.75,2.75,0,0,1-.16,3.06H55.05a10.49,10.49,0,0,0-5.83,1.77l-.77.51a1.06,1.06,0,0,0-.29,1.46,1,1,0,0,0,1.46.29l.76-.51a8.45,8.45,0,0,1,4.67-1.41H64.4a5.21,5.21,0,0,0,1.66-.28l19.46-6.48a1.85,1.85,0,0,1,2,.57.35.35,0,0,0,0,.08A1.8,1.8,0,0,1,87.9,72.76Z" />
      <path class="blue-icon" d="M51.57,65.53a1.05,1.05,0,0,0,1.71-.92,8.06,8.06,0,0,1,0-.85,10.52,10.52,0,1,1,19.92,4.7,1,1,0,0,0,.47,1.41,1.12,1.12,0,0,0,.47.11,1.06,1.06,0,0,0,1-.58,12.4,12.4,0,0,0,1.32-5.64,12.62,12.62,0,1,0-25.23,0,9.29,9.29,0,0,0,0,1.06A1,1,0,0,0,51.57,65.53Z" />
      <path class="blue-icon" d="M70.06,63.76H64.81V57.45a1.06,1.06,0,0,0-2.11,0v7.36a1.05,1.05,0,0,0,1.06,1h6.3a1.05,1.05,0,1,0,0-2.1Z" />
    </g>
  </g>
  <circle class="line-circle blue" cx="58.5" cy="58.5" r="57.5" stroke-dasharray='1000' stroke-dashoffset='1000' />
</svg>