<svg xmlns="http://www.w3.org/2000/svg" viewBox="0 0 27.81 23.42"><defs><style>.cls-1{isolation:isolate;}.cls-2,.cls-3{mix-blend-mode:multiply;}.cls-3{fill:#e79027;}</style></defs><g class="cls-1"><g id="Layer_2" data-name="Layer 2"><g id="Layer_1-2" data-name="Layer 1"><g class="cls-2"><path class="cls-3" d="M11.28,9.62h-4A.83.83,0,1,1,7.23,8h3.5L13,4.38a1.75,1.75,0,0,1,1.41-.81,1.64,1.64,0,0,1,1.32.53l4.43,4.43a1.77,1.77,0,0,1-.46,2.71l-4.51,2.51v4.71a1.21,1.21,0,1,1-2.41,0V12.57a1.41,1.41,0,0,1,.91-1.45l2.6-1.37L13.51,7,12.15,9.1a1,1,0,0,1-.87.52Z"/><path class="cls-3" d="M0,17.71A5.71,5.71,0,1,0,5.71,12,5.71,5.71,0,0,0,0,17.71Zm1.56,0a4.15,4.15,0,1,1,4.15,4.16A4.15,4.15,0,0,1,1.56,17.71Z"/><path class="cls-3" d="M16.39,17.71A5.71,5.71,0,1,0,22.1,12,5.71,5.71,0,0,0,16.39,17.71Zm1.55,0a4.16,4.16,0,1,1,4.16,4.16A4.16,4.16,0,0,1,17.94,17.71Z"/><circle class="cls-3" cx="11.02" cy="2.09" r="2.09" transform="matrix(0, -1, 1, 0, 8.88, 13.1)"/></g></g></g></g></svg>