<svg xmlns="http://www.w3.org/2000/svg" viewBox="0 0 27.81 25.74"><defs><style>.cls-1{isolation:isolate;}.cls-2{mix-blend-mode:multiply;}.cls-3{fill:#e79027;}</style></defs><g class="cls-1"><g id="Layer_2" data-name="Layer 2"><g id="Layer_1-2" data-name="Layer 1"><g class="cls-2"><path class="cls-3" d="M27,5.78h-.21V5.26a1.38,1.38,0,0,0-1.38-1.39h-.74V3.06A3.06,3.06,0,0,0,21.57,0H6.17A3.06,3.06,0,0,0,3.11,3.06v.81H2.37A1.39,1.39,0,0,0,1,5.26v.52H.85A.86.86,0,0,0,0,6.64v3.65a.86.86,0,0,0,.85.86h.91a.86.86,0,0,0,.85-.86V6.64a.86.86,0,0,0-.85-.86H1.63V5.26a.74.74,0,0,1,.74-.74h.74V22.2a1.62,1.62,0,0,0,1.33,1.59v1.08a.88.88,0,0,0,.88.87h2.2a.87.87,0,0,0,.87-.87V23.82h11v1.05a.87.87,0,0,0,.87.87h2.2a.87.87,0,0,0,.87-.87V23.78a1.63,1.63,0,0,0,1.27-1.58V4.52h.74a.74.74,0,0,1,.74.74v.52h-.06a.86.86,0,0,0-.85.86v3.65a.86.86,0,0,0,.85.86H27a.86.86,0,0,0,.85-.86V6.64A.86.86,0,0,0,27,5.78ZM7.31,2.35a.6.6,0,0,1,.6-.6H20.12a.6.6,0,0,1,.59.6v.93a.6.6,0,0,1-.59.59H7.91a.6.6,0,0,1-.6-.59ZM7.92,21.2h-3a.37.37,0,0,1-.38-.37l0-1.37A.37.37,0,0,1,5,19.11l2.94.5a.38.38,0,0,1,.31.35l0,.85A.37.37,0,0,1,7.92,21.2ZM5.5,17.66a1.39,1.39,0,0,1-1-1.26V6.33A1.36,1.36,0,0,1,5.89,5h16a1.34,1.34,0,0,1,1.34,1.34V16.4a1.38,1.38,0,0,1-1,1.26A32,32,0,0,1,5.5,17.66Zm14,3.15,0-.85a.38.38,0,0,1,.31-.35l2.94-.5a.37.37,0,0,1,.43.36l0,1.37a.36.36,0,0,1-.37.37h-3A.37.37,0,0,1,19.52,20.81Z"/><path class="cls-3" d="M16.64,6.33l-5.88,5.61a.22.22,0,0,0,.15.37h2l-2.13,4.76a.22.22,0,0,0,.35.24L17,11.7a.21.21,0,0,0-.14-.37h-2L17,6.57A.21.21,0,0,0,16.64,6.33Z"/></g></g></g></g></svg>