<svg xmlns="http://www.w3.org/2000/svg" viewBox="0 0 27.81 26.11"><defs><style>.cls-1{isolation:isolate;}.cls-2,.cls-3{mix-blend-mode:multiply;}.cls-3{fill:#e79027;}</style></defs><g class="cls-1"><g id="Layer_2" data-name="Layer 2"><g id="Layer_1-2" data-name="Layer 1"><g class="cls-2"><path class="cls-3" d="M27.09,23.42l-6.77-3.91L18,15.85a2.39,2.39,0,0,1-1.2,1.34l-1,.51,2.38,3.66a1.38,1.38,0,0,0,.49.47l7.07,4.08a1.44,1.44,0,1,0,1.44-2.49Z"/><path class="cls-3" d="M7.76,11.19A2.42,2.42,0,0,1,7,9.27l-1.56,1L2.5,7.13A1.44,1.44,0,1,0,.38,9.07l3.74,4.1a1.43,1.43,0,0,0,1.06.47,1.38,1.38,0,0,0,.8-.25l2.43-1.63Z"/><path class="cls-3" d="M10.75,19l5.58-2.71a1.47,1.47,0,0,0,.8-1.1A1.44,1.44,0,0,0,16.66,14l-4.95-4.4,2.95-1.95L19,8.84a1.44,1.44,0,0,0,1.78-1,1.45,1.45,0,0,0-1-1.78L14.82,4.66a1.45,1.45,0,0,0-1.2.18L8.56,8.19a1.44,1.44,0,0,0-.16,2.28l4.74,4.21L8.06,17.15a1.43,1.43,0,0,0-.75.9,1.41,1.41,0,0,0,.15,1.15l3.84,6.22a1.47,1.47,0,0,0,1.23.69,1.42,1.42,0,0,0,.76-.22,1.44,1.44,0,0,0,.46-2Z"/><circle class="cls-3" cx="7.25" cy="3.33" r="3.33"/></g></g></g></g></svg>