<svg xmlns="http://www.w3.org/2000/svg" viewBox="0 0 27.81 27.13"><defs><style>.cls-1{isolation:isolate;}.cls-2,.cls-3{mix-blend-mode:multiply;}.cls-3{fill:#e79027;}</style></defs><g class="cls-1"><g id="Layer_2" data-name="Layer 2"><g id="Layer_1-2" data-name="Layer 1"><g class="cls-2"><path class="cls-3" d="M1.49,12.45,2,12.13a.19.19,0,0,1,.18,0,3.34,3.34,0,0,0,2-.1.5.5,0,0,1,.61.27l2.51,5.82,0,.2v8.63a.21.21,0,0,0,.21.21H8.5a.24.24,0,0,0,.23-.21l.4-3.57v-.41l-.47-2.89a.11.11,0,0,1,.09-.12l.42-.1a.11.11,0,0,1,.12.08l1.66,7a.28.28,0,0,0,.26.21h1.08a.19.19,0,0,0,.18-.21L12,21.75l0-.19,1.31-2.15.16-.08h4.89l.15.09.81,1.42,0,.19-1,5.89a.17.17,0,0,0,.17.21H20a.28.28,0,0,0,.26-.21L22,20.4A.43.43,0,0,0,22,20l-.72-.83v-.16l1.13-1.19a3.48,3.48,0,0,0,.8-3.36,3.18,3.18,0,0,0-.47-1c1.56.35.88,1.82,1.45,3.73.77,2.58,3.66,1.67,3.66,1.67-1.06-.71-1.12-2-1.25-3.35a3.56,3.56,0,0,0-.06-.44,3.36,3.36,0,0,0-3.29-2.67H18.27a3.16,3.16,0,0,0-1.66.47l-.94.57a.37.37,0,0,0-.17.24l-.6,2.41a1.32,1.32,0,0,1-1.17.79l.64-3.41a.38.38,0,0,1,.15-.24l1.2-.83,1-.68a2,2,0,0,0,.51-2.69c-1.45-2.23-2.07-3.38-2.51-3.9s-.79-.34-1.89.1a.51.51,0,0,0-.25.35l-.35,2.39a.17.17,0,0,1-.18.14l-1.57-.1a.35.35,0,0,0-.38.28l-.1.41A.3.3,0,0,0,10,9L8.36,10.42,6.52,8h0L4.74,5.52l-.13.09a2.46,2.46,0,0,0-.14,1.73L.2,10.69a.52.52,0,0,0-.1.72l.7.92A.51.51,0,0,0,1.49,12.45Zm7.43-1.28L11,9.39l.3.09,1.21.35a.49.49,0,0,0,.5-.15l.8-.92a.11.11,0,0,1,.18,0l.46.81.29.53a.17.17,0,0,1-.05.23l-2.58,2a.53.53,0,0,0-.12.14H10.73a1.66,1.66,0,0,1-1.33-.67Z"/><path class="cls-3" d="M22.63,19.33a.34.34,0,0,1,.06-.35l.58-.63a.16.16,0,0,1,.25,0l.94,1.57a.57.57,0,0,1,.09.38L24,26.79a.23.23,0,0,1-.23.21H22.71a.21.21,0,0,1-.2-.21V24.08a1.84,1.84,0,0,1,0-.41l.61-3a.34.34,0,0,0,0-.2Z"/><circle class="cls-3" cx="12.15" cy="2.18" r="2.18"/></g></g></g></g></svg>