<svg xmlns="http://www.w3.org/2000/svg" width="27" height="18" fill="none" viewBox="0 0 27 18">
    <g clip-path="url(#clip0)">
        <path fill="#656566" d="M25.5 10.7c0 2.5-2 4.5-4.5 4.5v1.1c0 .6-.5 1.1-1.1 1.1-.6 0-1.1-.5-1.1-1.1v-1.1H8v1.1c0 .6-.5 1.1-1.1 1.1-.6 0-1.1-.5-1.1-1.1v-1.1c-2.5 0-4.5-2-4.5-4.5V6.4l3.5 1c2.6.7 5 1.1 7.7 1.1h12.9v2.2h.1zM.9 4.9c-.6-.2-1-.7-.9-1.2.1-.7.8-1.1 1.4-1L5.8 4c2.2.6 4.5.9 6.8.9h10.7V2.2c0-.5-.4-.9-.9-.9s-.9.4-.9.9v.2c0 .4-.3.7-.7.7-.4 0-.7-.3-.7-.7v-.1c0-1.1.7-2 1.8-2.3 1.4-.3 2.7.8 2.7 2.2v2.7h1.1c.6 0 1.1.4 1.2.9.1.7-.4 1.3-1.1 1.3H12.5c-2.5 0-5-.3-7.4-1L.9 4.9z"/>
    </g>
    <defs>
        <clipPath id="clip0">
            <path fill="#fff" d="M0 0H26.8V17.4H0z"/>
        </clipPath>
    </defs>
</svg>
