<svg xmlns="http://www.w3.org/2000/svg" width="22" height="22" fill="none" viewBox="0 0 22 22">
    <path fill="#656566" d="M1.87 0C.88 0 0 .88 0 1.87c0 1.1.88 1.87 1.87 1.87 1.1 0 1.87-.88 1.87-1.87C3.85.88 2.97 0 1.87 0zM.88 1.87c0-.55.44-.99.99-.99s.99.44.99.99-.44.99-.99.99-.99-.44-.99-.99zM20.02 3.74c.99 0 1.87-.88 1.87-1.87 0-1.1-.88-1.87-1.87-1.87-1.1 0-1.87.88-1.87 1.87 0 1.1.88 1.87 1.87 1.87zm0-2.86c.55 0 .99.44.99.99s-.44.99-.99.99-.99-.44-.99-.99c.11-.55.55-.99.99-.99zM1.87 18.15c-.99 0-1.87.88-1.87 1.87 0 1.1.88 1.87 1.87 1.87 1.1 0 1.87-.88 1.87-1.87.11-.99-.77-1.87-1.87-1.87zm0 2.86c-.55 0-.99-.44-.99-.99s.44-.99.99-.99.99.44.99.99-.44.99-.99.99zM20.02 18.15c-1.1 0-1.87.88-1.87 1.87 0 .99.88 1.87 1.87 1.87 1.1 0 1.87-.88 1.87-1.87.11-.99-.77-1.87-1.87-1.87zm0 2.86c-.55 0-.99-.44-.99-.99s.44-.99.99-.99.99.44.99.99-.44.99-.99.99zM5.06 10.89h.88v5.94c0 .22.22.44.44.44h2.64c.22 0 .44-.22.44-.44v-3.3c0-.11.22-.33.44-.33h2.09c.22 0 .44.22.44.44v3.3c0 .22.22.44.44.44h2.53c.22 0 .44-.22.44-.44v-6.05h.88c.55 0 .77-.66.33-.99l-5.06-4.29c-.66-.55-1.54-.55-2.2 0l-5.06 4.4c-.44.33-.22.88.33.88z"/>
    <path fill="#656566" d="M19.14 1.87c0-.22 0-.33.11-.44H2.75c.11.11.11.33.11.44 0 .11 0 .33-.11.44h16.5c-.11-.11-.11-.22-.11-.44zm.88.99c-.22 0-.33 0-.44-.11v16.5c.11-.11.33-.11.44-.11.22 0 .33 0 .44.11V2.75c-.11.11-.22.11-.44.11zm-18.15 0c-.22 0-.33 0-.44-.11v16.5c.11-.11.33-.11.44-.11.11 0 .33 0 .44.11V2.75c-.11.11-.22.11-.44.11zm17.27 17.16c0-.22 0-.33.11-.44H2.75c.11.11.11.33.11.44 0 .22 0 .33-.11.44h16.5c-.11-.11-.11-.22-.11-.44z"/>
</svg>
