<svg xmlns="http://www.w3.org/2000/svg" width="89" height="30" fill="none" viewBox="0 0 89 30">
    <path fill="#fff" d="M4.1 5.015h74.2l-2 2.1H4.1c-.6 0-1.1.2-1.4.6-.4.4-.6.9-.6 1.4v16.3c0 .6.2 1.1.6 1.4.4.4.9.6 1.4.6h76.3c.6 0 1.1-.2 1.4-.6.4-.4.6-.9.6-1.4v-12.4l2.1-2.3v14.7c0 1.1-.5 2.2-1.2 2.9-.7.7-1.8 1.2-2.9 1.2H4.1c-1.1 0-2.2-.5-2.9-1.2-.7-.7-1.2-1.7-1.2-2.9v-16.3c0-1.1.5-2.1 1.2-2.9.8-.7 1.8-1.2 2.9-1.2z"/>
    <path fill="#fff" fill-rule="evenodd" d="M88.9 3.015l-3.1-2.9c-.2-.2-.4-.1-.6 0l-1.9 2 3.7 3.5 1.9-2c.1-.2.1-.5 0-.6zm-6.4 0L70 16.415l-.6 4.4 4.3-.9 12.5-13.5-3.7-3.4z" clip-rule="evenodd"/>
    <path fill="#fff" d="M16.374 21l-1.727-2.475c1-.429 1.584-1.276 1.584-2.431 0-1.727-1.287-2.794-3.344-2.794H9.554V21h1.782v-2.145h1.639L14.46 21h1.914zm-1.947-4.906c0 .836-.55 1.342-1.64 1.342h-1.451v-2.684h1.452c1.089 0 1.639.495 1.639 1.342zm4.986 3.476v-1.782h3.575v-1.386h-3.575V14.73h4.049V13.3h-5.82V21h5.963v-1.43h-4.192zm10.79-.286c-.45.242-.901.33-1.385.33-1.474 0-2.497-1.023-2.497-2.464 0-1.463 1.023-2.464 2.519-2.464.78 0 1.43.275 1.99.869l1.145-1.056c-.748-.869-1.87-1.331-3.223-1.331-2.453 0-4.235 1.661-4.235 3.982s1.782 3.982 4.202 3.982c1.1 0 2.266-.341 3.113-.979v-3.124h-1.628v2.255zM33.488 21h1.782v-7.7h-1.782V21zm6.14.132c2.2 0 3.267-1.1 3.267-2.387 0-2.827-4.477-1.848-4.477-3.267 0-.484.407-.88 1.463-.88.682 0 1.419.198 2.134.605l.55-1.353c-.715-.451-1.705-.682-2.673-.682-2.19 0-3.245 1.089-3.245 2.398 0 2.86 4.477 1.87 4.477 3.311 0 .473-.43.825-1.485.825-.924 0-1.892-.33-2.541-.803l-.605 1.342c.682.528 1.914.891 3.135.891zM45.599 21h1.782v-6.248h2.464V13.3h-6.71v1.452h2.464V21zm6.976-1.43v-1.782h3.575v-1.386h-3.575V14.73h4.048V13.3h-5.82V21h5.963v-1.43h-4.191zM65.003 21l-1.727-2.475c1.002-.429 1.584-1.276 1.584-2.431 0-1.727-1.286-2.794-3.343-2.794h-3.334V21h1.782v-2.145h1.64L63.09 21h1.913zm-1.947-4.906c0 .836-.55 1.342-1.639 1.342h-1.452v-2.684h1.452c1.09 0 1.64.495 1.64 1.342z"/>
</svg>
