<?xml version="1.0" encoding="utf-8"?>
<!-- Generator: Adobe Illustrator 25.2.1, SVG Export Plug-In . SVG Version: 6.00 Build 0)  -->
<svg version="1.1" id="Layer_1" xmlns="http://www.w3.org/2000/svg" xmlns:xlink="http://www.w3.org/1999/xlink" x="0px" y="0px"
	 viewBox="0 0 34 31" style="enable-background:new 0 0 34 31;" xml:space="preserve">
<style type="text/css">
	.st0{fill:#0792AA;}
</style>
<path class="st0" d="M31,28.3V9.5h2.2l-2.3-2.9l-3.7-4.7c-0.6-0.8-1.5-1.2-2.4-1.2H8.4C7.5,0.8,6.6,1.2,6,1.9L2.3,6.5L0,9.5h2.3
	v18.8H0v0.3c0,0.9,0.7,1.6,1.6,1.6h30.1c0.9,0,1.6-0.7,1.6-1.6v-0.3H31z M27.7,28.2h-6.9v-4.4c0-0.8-0.6-1.4-1.4-1.4h-5.7
	c-0.7,0.1-1.3,0.7-1.3,1.4v4.4H5.5V9.7h22.2V28.2z M10.3,15.2H7.1V12h3.2V15.2z M15.6,15.2h-3.2V12h3.2V15.2z M20.9,15.2h-3.2V12
	h3.2V15.2z M26.1,15.2h-3.2V12h3.2V15.2z M10.3,20.4H7.1v-3.2h3.2V20.4z M15.6,20.4h-3.2v-3.2h3.2V20.4z M20.9,20.4h-3.2v-3.2h3.2
	V20.4z M26.1,20.4h-3.2v-3.2h3.2V20.4z M10.3,25.7H7.1v-3.2h3.2V25.7z M26.1,25.7h-3.2v-3.2h3.2V25.7z"/>
</svg>
