<svg xmlns="http://www.w3.org/2000/svg" width="34" height="30" fill="none" viewBox="0 0 34 30">
    <g fill="#fff" clip-path="url(#clip0)">
        <path d="M30.9 8.8h2.3l-2.3-2.9-3.7-4.7C26.6.4 25.7 0 24.8 0H8.4C7.5 0 6.6.4 6 1.2L2.3 5.8 0 8.8h2.3v18.9H0v.3c0 .9.7 1.6 1.6 1.6h30.1c.9 0 1.6-.7 1.6-1.6v-.3H31V8.8h-.1zM12.4 23.2v4.4H5.5V9h22.2v18.6h-6.9v-4.4c0-.8-.6-1.4-1.4-1.4h-5.7c-.7.1-1.3.7-1.3 1.4z"/>
        <path d="M10.3 11.3H7.1v3.2h3.2v-3.2zM15.6 11.3h-3.2v3.2h3.2v-3.2zM20.9 11.3h-3.2v3.2h3.2v-3.2zM26.1 11.3h-3.2v3.2h3.2v-3.2zM10.3 16.6H7.1v3.2h3.2v-3.2zM15.6 16.6h-3.2v3.2h3.2v-3.2zM20.9 16.6h-3.2v3.2h3.2v-3.2zM26.1 16.6h-3.2v3.2h3.2v-3.2zM10.3 21.9H7.1v3.2h3.2v-3.2zM26.1 21.9h-3.2v3.2h3.2v-3.2z"/>
    </g>
    <defs>
        <clipPath id="clip0">
            <path fill="#fff" d="M0 0H33.2V29.5H0z"/>
        </clipPath>
    </defs>
</svg>
