<svg width="50" height="31" viewBox="0 0 50 31" fill="none" xmlns="http://www.w3.org/2000/svg">
<path d="M46.2 14.2737H28.1V11.292C28.1 10.5962 27.8 9.9005 27.2 9.50293L22.9 6.4218V3.53944C22.9 2.8437 22.3 2.14796 21.5 2.14796C20.8 2.14796 20.1 2.74431 20.1 3.53944V4.53336L15.4 1.15405C14.6 0.5577 13.6 0.5577 12.8 1.15405L0.9 9.60232C0.3 9.99989 0 10.6956 0 11.3914V14.4725L3.2 12.1865V28.9837C3.2 29.58 3.7 30.077 4.3 30.077H46.5C47.1 30.077 47.6 29.58 47.6 28.9837V19.3427H49.5L48.2 15.6652C47.9 14.8701 47.1 14.2737 46.2 14.2737ZM23.1 28.1885H18.5V19.939C18.5 19.2433 17.9 18.6469 17.2 18.6469H11C10.3 18.6469 9.7 19.2433 9.7 19.939V28.1885H5.1V10.795L14.1 4.43397L23.1 10.795V28.1885ZM25 12.1865L28 14.2737H25V12.1865ZM46 28.3873H43.4V23.8153C43.4 23.1196 42.8 22.5232 42.1 22.5232H30.9C30.2 22.5232 29.6 23.1196 29.6 23.8153V28.3873H26.6V19.3427H46V28.3873Z" fill="#0792AA"/>
</svg>
