<svg xmlns="http://www.w3.org/2000/svg" width="16" height="16" fill="none" viewBox="0 0 16 16">
    <g clip-path="url(#clip0)">
        <path fill="#fff" d="M9.3.1L6.2 2.9c-1 .9-2.4 1.4-3.8 1.4H.5c-.3.1-.5.3-.5.5v5.8c0 .3.2.5.5.5h1.9c1.4 0 2.7.5 3.8 1.4l3.2 2.8c.3.3.8.1.8-.4V.5c-.1-.4-.6-.7-.9-.4zM15.9 7.4c0-1.4-.5-2.8-1.3-3.8-.3-.4-.8-.4-1.2-.1-.3.3-.3.7-.1 1.1.6.8 1 1.8 1 2.8 0 1.3-.6 2.5-1.5 3.4-.3.3-.3.8 0 1.1.3.3.8.3 1.1 0 1.3-1.1 2-2.7 2-4.5z"/>
    </g>
    <defs>
        <clipPath id="clip0">
            <path fill="#fff" d="M0 0H15.9V15.4H0z"/>
        </clipPath>
    </defs>
</svg>
